<svg xmlns="http://www.w3.org/2000/svg" viewBox="0 0 47.83 53.2"><g id="Layer_2" data-name="Layer 2"><g id="Layer_1-2" data-name="Layer 1"><path d="M31.89,53.2h-16v-1c0-4.54,0-9.09,0-13.63a1.24,1.24,0,0,0-.66-1.21A15.62,15.62,0,0,1,7.94,23.69,15.86,15.86,0,0,1,21.88,8.08a15.28,15.28,0,0,1,14.67,6.13,15.8,15.8,0,0,1-1,20.68,18.3,18.3,0,0,1-3,2.44,1.37,1.37,0,0,0-.69,1.29c0,4.52,0,9,0,13.55Zm-8-17c1.59,0,3.17,0,4.76,0a1.62,1.62,0,0,0,.93-.21,28.79,28.79,0,0,0,4.09-3.14A12.46,12.46,0,0,0,37,21.68,13.24,13.24,0,0,0,21.26,10.89a13.29,13.29,0,0,0-6.41,22.8c1.62,1.53,3.41,2.9,5.94,2.55A23.33,23.33,0,0,1,23.92,36.22Zm5.3,11.5a13.18,13.18,0,0,1,0-1.68c.08-.7-.23-1-.87-1.18-3-1-5.92-2-8.88-2.92-.27-.09-.55-.14-.82-.21a1.47,1.47,0,0,0-.07.26c-.12,2.14-.12,2.14,1.9,2.81Zm-9.95-8.8,0,.12,9.91,3.32V38.92Zm-.65,11.45h9.65l0-.15L18.62,47Z"/><path d="M22.59,5.23V0H25.2V5.23Z"/><path d="M0,22.61H5.2v2.57H0Z"/><path d="M42.6,25.19V22.61h5.23v2.58Z"/><path d="M7.77,6.17l3.73,3.6L9.85,11.48,6.17,7.87Z"/><path d="M38,11.53l-1.7-1.66L40,6.14l1.58,1.78Z"/><path d="M7.89,41.66,6.16,40l3.7-3.67,1.59,1.81Z"/><path d="M36.37,38,38,36.33,41.64,40,40,41.62Z"/></g></g></svg>