<svg xmlns="http://www.w3.org/2000/svg" viewBox="0 0 611.42 301.25"><defs><style>.cls-1{fill:#fff;}.cls-2,.cls-3{fill:none;stroke:#000;stroke-linecap:round;stroke-linejoin:round;}.cls-2{stroke-width:2px;}.cls-3{stroke-width:3px;}.cls-4{font-size:15.88px;}.cls-4,.cls-5{font-family:MyriadPro-Regular, Myriad Pro;}.cls-5{font-size:16.1px;}</style></defs><g id="Layer_2" data-name="Layer 2"><g id="Layer_1-2" data-name="Layer 1"><rect class="cls-1" y="1" width="611.42" height="299.25"/><line class="cls-2" x1="250.22" y1="267.41" x2="258.02" y2="275.21"/><polyline class="cls-2" points="344.95 111.26 344.95 96.05 344.95 82.54 328.96 82.54 313.75 82.54 308.04 82.54 308.04 214.71 308.04 229.92 308.04 300.25 290.12 300.25 274.91 300.25 258.02 300.25 258.02 290.42 258.02 275.21"/><line class="cls-2" x1="362.59" y1="119.06" x2="354.79" y2="111.26"/><line class="cls-2" x1="337.15" y1="119.06" x2="344.95" y2="111.26"/><line class="cls-2" x1="175.29" y1="135.46" x2="183.09" y2="143.26"/><line class="cls-2" x1="200.72" y1="135.46" x2="192.92" y2="143.26"/><line class="cls-2" x1="183.09" y1="143.26" x2="183.09" y2="158.47"/><line class="cls-2" x1="192.92" y1="143.26" x2="192.92" y2="158.47"/><line class="cls-2" x1="275.66" y1="237.72" x2="267.86" y2="229.92"/><line class="cls-2" x1="250.22" y1="237.72" x2="258.02" y2="229.92"/><line class="cls-2" x1="267.86" y1="229.92" x2="267.86" y2="214.71"/><line class="cls-2" x1="258.02" y1="229.92" x2="258.02" y2="214.71"/><polyline class="cls-2" points="267.86 158.47 277.69 158.47 277.69 214.71 267.86 214.71"/><line class="cls-2" x1="192.92" y1="158.47" x2="258.02" y2="158.47"/><polyline class="cls-2" points="258.02 214.71 172.28 214.71 172.28 158.47 183.09 158.47"/><line class="cls-2" x1="206.91" y1="15.19" x2="214.71" y2="22.99"/><line class="cls-2" x1="232.34" y1="15.19" x2="224.54" y2="22.99"/><line class="cls-2" x1="214.71" y1="22.99" x2="214.71" y2="38.2"/><line class="cls-2" x1="224.54" y1="22.99" x2="224.54" y2="38.2"/><line class="cls-2" x1="250.22" y1="135.46" x2="258.02" y2="143.26"/><line class="cls-2" x1="275.66" y1="135.46" x2="267.86" y2="143.26"/><line class="cls-2" x1="258.02" y1="143.26" x2="258.02" y2="158.47"/><line class="cls-2" x1="267.86" y1="143.26" x2="267.86" y2="158.47"/><line class="cls-2" x1="275.59" y1="117.45" x2="267.79" y2="109.65"/><line class="cls-2" x1="250.16" y1="117.45" x2="257.96" y2="109.65"/><line class="cls-2" x1="267.79" y1="109.65" x2="267.79" y2="94.44"/><line class="cls-2" x1="257.96" y1="109.65" x2="257.96" y2="94.44"/><polyline class="cls-2" points="244.08 38.2 277.62 38.2 277.62 94.44 267.79 94.44"/><line class="cls-2" x1="224.54" y1="38.2" x2="244.08" y2="38.2"/><polyline class="cls-2" points="244.08 94.44 203.9 94.44 203.9 38.2 214.71 38.2"/><line class="cls-2" x1="336.74" y1="135.46" x2="344.54" y2="143.26"/><line class="cls-2" x1="362.18" y1="135.46" x2="354.38" y2="143.26"/><line class="cls-2" x1="344.54" y1="143.26" x2="344.54" y2="158.47"/><line class="cls-2" x1="354.38" y1="143.26" x2="354.38" y2="158.47"/><line class="cls-2" x1="437.12" y1="237.72" x2="429.32" y2="229.92"/><line class="cls-2" x1="411.68" y1="237.72" x2="419.48" y2="229.92"/><line class="cls-2" x1="429.32" y1="229.92" x2="429.32" y2="214.71"/><line class="cls-2" x1="419.48" y1="229.92" x2="419.48" y2="214.71"/><polyline class="cls-2" points="354.38 158.47 439.14 158.47 439.14 214.71 429.31 214.71"/><polyline class="cls-2" points="419.48 214.71 333.73 214.71 333.73 158.47 344.54 158.47"/><line class="cls-2" x1="187.96" y1="115.16" x2="187.96" y2="129.56"/><polygon points="195.25 128.58 180.67 128.58 187.96 135.87 195.25 128.58"/><line class="cls-2" x1="220.62" y1="1" x2="220.62" y2="8.85"/><polygon points="227.91 7.87 213.34 7.87 220.63 15.16 227.91 7.87"/><line class="cls-2" x1="262.91" y1="115.16" x2="262.91" y2="129.56"/><polygon points="270.2 128.58 255.62 128.58 262.91 135.87 270.2 128.58"/><line class="cls-2" x1="349.87" y1="115.16" x2="349.87" y2="129.56"/><polygon points="357.16 128.58 342.58 128.58 349.87 135.87 357.16 128.58"/><line class="cls-2" x1="262.94" y1="237.36" x2="262.94" y2="259.36"/><polygon points="270.23 258.39 255.65 258.39 262.94 265.67 270.23 258.39"/><line class="cls-2" x1="424.15" y1="238.99" x2="424.15" y2="261"/><polygon points="431.44 260.02 416.86 260.02 424.15 267.31 431.44 260.02"/><polyline class="cls-2" points="354.79 111.26 354.79 96.05 354.38 72.71 298.16 72.71 298.16 290.42 267.86 290.42 267.86 275.21 275.66 267.41"/><line class="cls-2" x1="257.96" y1="94.44" x2="244.08" y2="94.44"/><line class="cls-3" x1="217.18" y1="186.59" x2="233.04" y2="186.59"/><line class="cls-3" x1="225.11" y1="194.52" x2="225.11" y2="178.66"/><line class="cls-3" x1="232.86" y1="63.45" x2="241.81" y2="74.41"/><line class="cls-3" x1="232.86" y1="74.41" x2="241.81" y2="63.45"/><line class="cls-3" x1="372.14" y1="181.11" x2="381.08" y2="192.07"/><line class="cls-3" x1="372.14" y1="192.07" x2="381.08" y2="181.11"/><line class="cls-3" x1="194.18" y1="181.11" x2="203.12" y2="192.07"/><line class="cls-3" x1="194.18" y1="192.07" x2="203.12" y2="181.11"/><line class="cls-3" x1="244.08" y1="181.11" x2="250.43" y2="190.29"/><line class="cls-3" x1="244.08" y1="199.46" x2="256.78" y2="181.11"/><text class="cls-4" transform="translate(246.66 65.85) scale(0.82 1)">2</text><text class="cls-5" transform="translate(389.29 191.21)">+ 1</text></g></g></svg>