<svg xmlns="http://www.w3.org/2000/svg" viewBox="0 0 500.82 390.01"><defs><style>.cls-1{fill:#bebebe;}.cls-2{font-size:12px;fill:#231f20;font-family:MyriadPro-Bold, Myriad Pro;font-weight:700;}.cls-3,.cls-4,.cls-5,.cls-6,.cls-7,.cls-8{font-family:MyriadPro-Regular, Myriad Pro;font-weight:400;}.cls-3{letter-spacing:0em;}.cls-4{letter-spacing:-0.01em;}.cls-5{letter-spacing:0em;}.cls-6{letter-spacing:0em;}.cls-8{letter-spacing:-0.01em;}</style></defs><g id="Layer_2" data-name="Layer 2"><g id="Layer_2-2" data-name="Layer 2"><path class="cls-1" d="M131.66,138.11l1.19-.22c-2.94-1.78-11.21-2.24-14.32-.71l1.86,1.39c-1.1,1.2-2.13,2.44-3.28,3.54a2.47,2.47,0,0,0-.64,3.06,10.16,10.16,0,0,0,3.68,5.15,26.76,26.76,0,0,1,2.25,1.91L112.11,154c.15-1.33-.08-2.93.54-4.05,1.88-3.4-.22-5.55-2.17-7.65-2.4-2.6-5-5-7.56-7.46a2.66,2.66,0,0,1-.76-1.71l5.6,1.66c-.26-1.67-.48-3.17-.75-4.66a32.8,32.8,0,0,1,.42-13.74c.77-3.06,1.8-6.06,2.84-9a12.38,12.38,0,0,1,6-6.73c-.68,3.29-1.48,6.55-2,9.86s-1.45,6.49-.52,9.71c1.49-2.37,2.81-4.8,4.46-7a39.5,39.5,0,0,1,5.88-6c-1.28,2.79-3.6,5.11-2.86,8.76,1.37-1,2.6-1.91,3.84-2.8a26.37,26.37,0,0,1,19-5,82.39,82.39,0,0,0,10.78.2,20.13,20.13,0,0,0,4-.95,8.14,8.14,0,0,1-5.22,4.09c-4.61,1.55-9.34,2.77-14,4.33a17.28,17.28,0,0,0-5.14,3.16c13.65-1.6,20.85,6.07,26.12,17.63a44.44,44.44,0,0,1-4.68-1.09c-6-2.12-11.89-4.71-18.3-5.55a27.53,27.53,0,0,0-13.84,1.42,7,7,0,0,0-1,.69,9.52,9.52,0,0,0,2,.7,16.46,16.46,0,0,1,9.68,4.36,12.2,12.2,0,0,0,2.23,1.28Z"/><path class="cls-1" d="M473.84,281.22c0-2.38.21-4.77.06-7.14-.25-4-.58-8,1.52-11.66.62-1.08,1.41-2.07,2.23-3.26,1.16,1.3,2,.88,3,0a45.93,45.93,0,0,1,3.87-2.69c2.69-.84,4.22-.57,6.28,1.4-2.09-.14-3.36,2.28-5.46.59-.21-.18-.76-.09-1.07,0a13.19,13.19,0,0,0-7.64,8.45,5.7,5.7,0,0,0,0,1.49l.61.14a14.26,14.26,0,0,0,.86-1.7,12.61,12.61,0,0,1,4.26-5.93c.73-.57,1.4-1.07,2.27,0,.24.28,1.13.17,1.66,0,2.56-.71,5.07-1.58,7.64-2.21,2.14-.53,2.77.07,2.79,2.27,0,.7,0,1.4-.06,2.09-.2,3.72-.26,3.64-3.88,3.74a50.89,50.89,0,0,0-6.31.95c-.61-2.1-1.55-2.48-3.34-.91a12.78,12.78,0,0,0-2.24,3.37c-.87,1.53-1.65,3.09-2.42,4.66a11.16,11.16,0,0,0-.51,1.64l.54.26,5.12-8.46c.3,1.05.45,1.57.66,2.32a9.67,9.67,0,0,0,1.94-.49,13.66,13.66,0,0,1,8.72-.95c4.2.74,5.8,4.69,3,8-2,2.34-4.56,4.17-6.76,6.35a34.23,34.23,0,0,0-4.83,5.47c-2.57,4-4.68,8.26-7.22,12.26-2.16,3.4-4.64,6.6-7,9.85-1.7,2.32-6,3-8.86,1.17-6.92-4.3-13.94-8.48-20.61-13.15-9.69-6.78-19.31-13.65-29.8-19.18-1.15-.61-2.27-1.4-3.1.28-.24-.06-.42-.05-.48-.12-3.29-4.32-8-6.33-12.85-8.35A89.31,89.31,0,0,1,374,258.89c-7.51-6.13-13.83-13.15-17-22.77a85.42,85.42,0,0,0-11.58-22.55c-.88-1.23-2-2.27-3-3.44a18.13,18.13,0,0,1-1.18-1.82,43.12,43.12,0,0,1,4.47-.95,2.23,2.23,0,0,1,1.75.72c3.05,4.18,6.28,8.26,8.92,12.69A202.19,202.19,0,0,0,371.61,242c5.76,7.29,12.64,13.5,19.69,19.46,2.84,2.41,6.43,4,9.82,5.69s7.13,3.13,10.77,4.71c.08-.3.09-.14,0-.07-.52.48-1.07.94-1.6,1.42a12.07,12.07,0,0,0,2.08.87c2,.41,4.11.71,6.07,1-.51.72-1.52,1.54-1.38,2a5.07,5.07,0,0,0,1.85,2.67q9.22,6.3,18.59,12.41a55.37,55.37,0,0,0,17.06,7.62c3.39.84,6.94,1.15,9.94-.89a20.44,20.44,0,0,0,5.3-5.51A25.75,25.75,0,0,0,473.84,281.22Z"/><path class="cls-1" d="M293.39,200.53c2,6.82,6.94,11.4,12.4,15.38,2.31,1.68,5.23,1,7.25-.9,4.73-4.33,9.12-9,10.63-15.57a26.44,26.44,0,0,0,.64-4.7c.18-4.26,3.08-6.18,6.56-7.1a38.86,38.86,0,0,1,8.85-.87c.81,0,2.23.85,2.35,1.49.26,1.43-1.15,1.63-2.3,1.89a76.85,76.85,0,0,0-7.67,1.94c-3.55,1.19-5.64,5.75-6,9.07-.1,1.07.41,1.31,1.38,1.17,1.75-.26,3.51-.5,5.28-.62a18.72,18.72,0,0,1,3.59.11q4.11.54,8.18,1.28a6.54,6.54,0,0,1,1.69.89c-.5.47-1,1.29-1.5,1.35-2.38.27-4.77.37-7.17.41a14.05,14.05,0,0,1-3.78-.33c-3.66-1-6.37.84-9,2.9a2.1,2.1,0,0,0-.63,1.43c0,.18.76.49,1.22.59,3,.66,6.07,1.21,9.07,1.93a5.8,5.8,0,0,1,4.5,4.42,18.15,18.15,0,0,1-7.5-.58,11.19,11.19,0,0,1-2.84-1.08c-2.82-1.73-5.27-1.1-7.65.89-.92.77-2,1.3-2.93,2.1-3.58,3.17-7.49,2.55-11.63,1.4-5.33-1.46-9-5.32-13-8.62-2.26-1.85-4.43-3.78-6.63-5.69-.75-.65-1.46-1.23-2.19.29l-1.68-4.3-2,3.1c-1.08-2.9,1.81-5.93-.85-8.6,1.84-1.23,3.73-2.57,5.69-3.79,5.63-3.51,9.94-8.38,14.11-13.42,3.11-3.76,6-7.61,7.62-12.34.8-2.3,1.32-4.86,3.56-6.56,1.7-1.28,3-2.61,5.51-1.89,2.67.77,4.91-.51,6.48-3.1,1.48,3.09,3.23,5.6,2.36,9.25a36,36,0,0,0-.48,10c.09,1.88,1,3.73,1.71,5.54.19.49.84.81,1.28,1.2a15.82,15.82,0,0,0,.88-1.55,8.71,8.71,0,0,0,.35-1.49c1.21,2.51,2.28,4.77,3.45,7.22a14.36,14.36,0,0,0-9.07,5.38c-.27-1-.47-1.76-.83-3.07-.68,1.09-1.05,1.68-1.41,2.27l-.52.05c-.28-1.42-.59-2.83-.83-4.26s-.39-2.81-.57-4.21l-.73-.15L317,183.86c-.59-4.22-.62-8.31,1.56-12.39-8.1,4.1-15.61,8.28-20.58,15.76-1.56,2.36-3.07,4.75-4.61,7.12-.57,2.59-2.37.36-3.45.69Z"/><path class="cls-1" d="M319.43,256.59c7.79-7.91,17.62-10.52,27.89-12.17l-.16-.88-5.93-.63v-.39a12.44,12.44,0,0,1,1.57-.31c4-.3,7.95-.6,11.93-.82a1.87,1.87,0,0,1,1.45.56c1.83,2.8,3.58,5.66,5.33,8.5.08.14,0,.36,0,.44L358.4,252c-.91-1.13-1.65-.7-2.38.72-1.68,3.31-3.38,6.61-5.25,9.81a64.57,64.57,0,0,1-4.27,6.26c-2.27,3-4.64,6-7,9a5.07,5.07,0,0,1-.78.68l-.5-.24c.86-2.3,1.69-4.62,2.57-6.91.16-.39.63-.67.78-1.06a5.33,5.33,0,0,0,.11-1.39c-.42.12-1,.1-1.25.38-2,2.21-4,4.38-5.76,6.73a45.81,45.81,0,0,1-8.86,9.32,16.07,16.07,0,0,1-1.4.8c0-.53-.13-.8,0-1,1.93-4.22,2.12-8.81,3-13.28s1.43-8.75,4.53-12.29c.86-1,1.38-2.25-.39-3l4.21-3.59-.34-.83a24.53,24.53,0,0,0-3.44.63c-3.66,1.18-7.3,2.47-10.95,3.7A8.23,8.23,0,0,1,319.43,256.59Z"/><path class="cls-1" d="M397.68,167.34c4.29-1.92,8.66-3.69,12.83-5.86,1.13-.58,1.64-2.37,2.43-3.61,1.33-3.43.59-6.78-.9-9.87-1.11-2.33-.61-4,.77-5.93,1.91-2.63,3.58-5.43,5.62-8.56a13.13,13.13,0,0,1,1.11,2.74,8.44,8.44,0,0,1-2,6.89c-.33.39-.67.77-1,1.15-2,2.33-2,2.33.05,4.6,2.8,3.09,2.93,5.12.59,8.6a15.85,15.85,0,0,0-.78,1.49,3.9,3.9,0,0,0,3.93-2.62c1.1-3.31-.11-6-2.39-8.28-1.24-1.23-1.41-2-.08-3.18a7.45,7.45,0,0,0,2.09-2.88c.5-1.43,1.29-1.44,2.56-1.49,3.92-.14,7.83-.52,11.74-.82.74-.06,1.47-.14,2.22-.22a4.83,4.83,0,0,1-4.3,4.64,38.4,38.4,0,0,1-6.93-.54c-1.79-.28-3.13.09-3.24,1.88a24.69,24.69,0,0,0,.83,6.05c.21,1,.85,2,1.11,3,.55,2.18.07,4.16-2,5.21-4.41,2.19-8.8,4.47-13.39,6.22-5.46,2.1-10.79,4.35-15.52,7.84-.44.33-1.14.84-1.11,1.21.13,1.58-1.19,1.71-1.9,2.52-1.87,2.11-3.15.54-4.67-.07-.17-.07-.33-.18-.49-.26a3.53,3.53,0,0,0-.77,0l1.67,4-5.11-2.48c-4.69-1.86-9.35-3.81-14.09-5.54-2.72-1-5.59-1.53-8.34-2.44a4.46,4.46,0,0,1-2-1.68c-1.41-2-2.7-4.12-4-6.18-.35-.55-.73-1.09-1.2-1.78a3.31,3.31,0,0,1,.82-.07c7,2.53,14,5,21,7.65,4.29,1.67,8.3,4.06,13.21,3.29A33.64,33.64,0,0,0,397.68,167.34Z"/><path class="cls-1" d="M332.85,106.44a27.11,27.11,0,0,1,.15-2.86c.53-3.81,1.13-7.61,1.68-11.42.1-.76.08-1.55.13-2.42.38.17.52.18.59.26l1.25,1.57a6.68,6.68,0,0,0,.8-2.26c-.18-4-.5-7.93-.78-11.88,2.24.09,2.55-.16,2.43-2.69-.43-9.36-.91-18.71-1.36-28.07a1.13,1.13,0,0,1,.38-1c.43,1.49.88,3,1.29,4.49A93.31,93.31,0,0,1,343,77.92a26.7,26.7,0,0,0,.53,4.09l2.35-1.64.41.31c-6,7.72-10.73,16.09-12.6,25.82Z"/><path class="cls-1" d="M320.41,93.58c-2.15-4.48-6.26-6.47-10.62-8.28a7,7,0,0,1,.35-.72c.42-.65.86-1.29,1.3-1.93-.83-.35-1.65-.74-2.49-1-2.22-.78-4.45-1.52-6.67-2.28l.15-.74a16.48,16.48,0,0,0,1.86,0c.75-.09,1.48-.29,2.23-.45a6.63,6.63,0,0,0-1-1.85c-3.81-3.58-7.68-7.09-11.54-10.64a2.3,2.3,0,0,1,.9,0c2.88,1.08,5.8,2.1,8.6,3.37,1.51.69,2.34.56,2.85-1,.06-.21.31-.36.66-.75a37.42,37.42,0,0,1,2.72,3.69c1.2,2.16,1.59,2.33,3.5.91.78,2.38,1.48,4.78,2.35,7.12,1.6,4.33,3.29,8.63,5,12.93a6.35,6.35,0,0,0,.59,1Z"/><path class="cls-1" d="M332.69,119.64c.6,1.51,1.24,3,1.77,4.52a1.17,1.17,0,0,1-.58,1c-3.08.62-6.17,1.16-9.26,1.72,0,0-.08-.08-.29-.27l3.27-4c.14,1,.23,1.62.36,2.62C330.92,124.43,330.21,120.89,332.69,119.64Z"/><path class="cls-1" d="M88.62,273.84c-.31-2.78-.63-5.45-.89-8.13-.74-7.57-3.35-14.66-5.46-21.88a16,16,0,0,1-.47-5c.06-1.53,1-1.93,2.38-1.24a5.59,5.59,0,0,0,.65.39c3.12,1,3.12,3.22,3,6a87.84,87.84,0,0,0,.65,12.12c.53,5,1.24,9.93,2.11,14.85C91,272.79,90.21,273.38,88.62,273.84Z"/><path class="cls-1" d="M115.92,220.54a1.23,1.23,0,0,1,.38,0l3.38.67c-.37,1.42-.37,3.1-1.16,4.22a10.48,10.48,0,0,1-9.33,4.46,5.69,5.69,0,0,1-5.16-3.49c-1-2.4-.09-4.48,2.47-4.93,3.1-.56,6.27-.69,9.41-1Z"/><path class="cls-1" d="M77.48,221a29.71,29.71,0,0,1,3.9.27c5.68,1.14,11.32,2.58,17,3.48,2.68.43,4.49,1.27,5.16,4.13-9.4.08-17.88-3.19-26.17-7.19Z"/><path class="cls-1" d="M89.29,248.12a32.2,32.2,0,0,1,0-4.17,4.29,4.29,0,0,1,1.13-2.07,1.36,1.36,0,0,1,1.3-.27,1.48,1.48,0,0,1,.42,1.27c-1.81,9.21-.2,18.25,1.31,27.29a6,6,0,0,1-.34,1.92c-.4-.52-1.08-1-1.17-1.57-1.08-7.44-2.08-14.9-3.1-22.35Z"/><path class="cls-1" d="M414,138c-1.52,2.14-2.72,3.85-4.1,5.78-2.83-4.3-4.95-8.65-5.32-13.55-.1-1.32,1.21-3,2.3-4.1a55.66,55.66,0,0,1,6.65-5.6c1-.72,2.38-.86,3.59-1.27l.53.55a32.68,32.68,0,0,1-1.91,3.43,26.88,26.88,0,0,1-2.58,2.77,10.74,10.74,0,0,0-2.78,10.48C410.89,138.84,411.19,139,414,138Z"/><path class="cls-1" d="M430.06,122.72c-.44,6-3.72,9.76-8,12.88a1.25,1.25,0,0,1-.87.23c-.57-.1-1.89-3.58-1.51-4.06q3.51-4.44,7.09-8.82a3.69,3.69,0,0,1,1.35-1,2.2,2.2,0,0,1,1.56-.15C430,121.91,430,122.63,430.06,122.72Z"/><path class="cls-1" d="M430,241.16l5-1.81c3.68-1.29,7.36-2.59,11.06-3.87.27-.1.82-.13.88,0,.81,1.6,2.41,1.06,3.67,1.38a15.27,15.27,0,0,1,7.12,3.76,3.25,3.25,0,0,1,.73,3.82c-1.4-.87-2.68-1.71-4-2.48-1.52-.88-3.63-.75-4.47-2.8-.1-.26-.92-.35-1.39-.32-1.76.11-3.52.3-5.28.46a9.26,9.26,0,0,0-5.52,2,1,1,0,0,0,.78.32c1.84-.38,3.67-.79,5.5-1.19,5-.29,11.84,3.51,13.88,7.71,1.1,2.27.62,3.95-1.76,4.62a22.07,22.07,0,0,1-5.81.49c-.53,0-1.18-.7-1.56-1.24-.61-.85-.9-1.94-1.57-2.71a14.67,14.67,0,0,0-2.55-1.92c.24-1.2,3-.2,2-2.37-3.56-1.3-7-.49-10.45.55a2.25,2.25,0,0,0,0,.49c1,.07,2,.08,3,.23a4.3,4.3,0,0,1,1.44.64c1,.61,2,1.27,3,1.91,1.39.73,2.75,1.38,3.1,3.25.14.75,1.09,1.35,1.67,2,1.8,2.07,2.33,4.79,1.25,6.44-1.59,2.42-4.93,4-7.35,3.1a48.66,48.66,0,0,1-6.61-3.23c-2.26-1.26-4.42-2.7-6.62-4.07-3.81-2.38-8.16-2.53-12.43-3.06-4.07-.5-8.16-.95-12.19-1.71-2.48-.46-3.08-1.54-3.05-4.06.06-3.79,1.57-7.13,3.38-10.35,2.73-4.83,5.51-9.65,8.27-14.47,1.38-2.4,3.09-4.64,3.25-7.56a5.39,5.39,0,0,0,.08-1.32c-.32-1.55.64-2,1.86-2.28a8.46,8.46,0,0,0,2.31-.76c-3.34-.54-6.34.69-9.34,1.85-1.69.67-3.44,1.23-5.07,2-5.71,2.86-10.14,7.24-14.29,12-2,2.34-4.41,4.4-6.43,6.38-1.51-2.36-2.85-4.35-4.06-6.42a1.75,1.75,0,0,1,.13-1.62,12.39,12.39,0,0,1,2.72-2.34c5-3.1,9.9-6.36,15.07-9.11a187.92,187.92,0,0,1,17.83-8.39c3.16-1.28,6.76-1.49,10.17-2.15a1.45,1.45,0,0,1,1.07.1c1.15,1.11,2.23,2.29,3.38,3.5a61.14,61.14,0,0,0-5.88,5c-4.72,5.11-9.54,10.18-12.38,16.66-1.42,3.24-2.66,6.63-2.13,10.26a21.26,21.26,0,0,0,1.52,4.16,9.27,9.27,0,0,0,2.43,1.23,17.93,17.93,0,0,0,10.88-1.18Z"/><path class="cls-1" d="M339.05,197a4.74,4.74,0,0,1-5.49,2.24c-1.33-.33-2.35-1.88-3.5-2.89,0,0,0-.16,0-.18,1.63-1.1,3.23-2.26,4.92-3.28,1.21-.72,1.62.37,2.12,1.17S338.35,196,339.05,197Z"/><path class="cls-1" d="M339.35,199.92l6-4.76c1.45,1.11,1.63,2,.63,3.74S341.85,201,339.35,199.92Z"/><path class="cls-1" d="M335.55,207.94c-2,1.86-4.63,2.05-7.22.64C329.68,206.8,332.47,206.53,335.55,207.94Z"/><path class="cls-1" d="M326.69,217l-4.53,2C323,216.81,324.93,215.86,326.69,217Z"/><path class="cls-1" d="M83.93,219.66c2.76.35,5.54.6,8.28,1.07s5.67,1.17,8.48,1.85a5.88,5.88,0,0,1,1.54,1c-.52.16-1.09.53-1.57.44-5.63-1.07-11.24-2.21-16.86-3.33Z"/><path class="cls-1" d="M103.81,221.73c-3.31.06-6.49-.81-9.7-1.52l.09-.67,9.73,1.23Z"/><text class="cls-2" transform="translate(47.22 10.04)">while <tspan class="cls-3" x="31.49" y="0">(!falaise) { </tspan><tspan class="cls-4" x="81.03" y="0">c</tspan><tspan class="cls-5" x="86.34" y="0">ou</tspan><tspan class="cls-6" x="99.54" y="0">r</tspan><tspan class="cls-7" x="103.51" y="0">ir(); } </tspan></text><text class="cls-2" transform="translate(270.71 10.04)">do <tspan class="cls-7" x="16.5" y="0">{ </tspan><tspan class="cls-8" x="22.45" y="0">c</tspan><tspan class="cls-7" x="27.76" y="0">ou</tspan><tspan class="cls-6" x="40.96" y="0">r</tspan><tspan class="cls-7" x="44.93" y="0">ir(); } </tspan><tspan x="69.45" y="0">while </tspan><tspan class="cls-7" x="100.94" y="0">(!falaise);</tspan></text></g><g id="Layer_1-2" data-name="Layer 1"><path d="M4.31,256.91c-.17-.6-.36-1.18-.52-1.78a7.68,7.68,0,0,1,8.72-9.69c4.1.68,6.74,3.25,8.56,6.8,1.32,2.57,1.25,5-.84,7.18a4.58,4.58,0,0,0-.52,1.12,8.18,8.18,0,0,1,6,2c2.19,1.67,1.76,3.74,1.3,5.53,2.47-.62,4.69-1.51,7-1.65,2.68-.15,4.29,1.84,5.5,4,2.82,5.15,2.18,8.43-2.22,11.68a20.14,20.14,0,0,1,1.89,4.38c.34,1.94-1.09,2.83-3,3.38l2.17.8c.71.62,1.43,1.25,2.13,1.88,2.18,1.95,2.26,3.76.37,5.95-1.23,1.43-1.84,3.05-1.13,4.78,1.2-1.72,2.1-3.73,3.62-5,1.82-1.53,4.25-1.05,6.33-.14s2.33,3.69,1.19,6.44l11.27,4.54c0-2-.12-3.92.05-5.85.08-.93.4-2,2-1.14a5.13,5.13,0,0,0,3.32.24c.71-.16,1.22-1.13,1.83-1.74a10.72,10.72,0,0,0-2.22-1.91c-.48-.24-1.31.37-2,.33s-1.43-.37-1.53-.74c-.88-3.22,1-7.27,5.31-6.56a3.39,3.39,0,0,0,1-.13l.31-.49a8,8,0,0,1-1.1-.65c-2.15-1.86-2.57-4.12-.9-6.38s4-3,6.57-3.43c3.5-.63,5.58.71,6.48,4.09,3.09-1.93,5.84-1.41,8.49,1.64-.47-1.29-.81-2.1-1.06-2.94-1.59-5.32.1-8.39,5.53-9.08,5.75-.72,6.67-.25,8.46,3l.46-.06c-.43-3.56-2.64-5.76-6.18-6-1-.07-1.47-.34-1.6-1.38-.41-3.14-1.13-6.25-1.32-9.4-.32-5.17-.38-10.36-.4-15.55a4.1,4.1,0,0,1,1.23-2.61A25.47,25.47,0,0,1,111.24,235c4.54-.34,8.46-2.19,10.49-6.43a40,40,0,0,0,2.65-8.79c.87-4,1.4-8.09,2.13-12.13.49-2.74,1.09-5.46,1.59-8.19.33-1.76-.55-3.94,1.83-4.93-.88-2.13,1.34-3.55,1.29-5.39a46.33,46.33,0,0,0-1-5.79c-.95-5.79-2.84-11.45-2.36-17.44a48.82,48.82,0,0,0,5.08-2c3.17-1.68,6.24-3.43,9.39,0a3.86,3.86,0,0,0,1.12.7c1.84.94,3.84.81,4.73-.27a4.13,4.13,0,0,0-.46-4.92,21.91,21.91,0,0,0-4.41-3.5,2.6,2.6,0,0,1-1.5-2.09c-.5-3.09-2.66-5.43-4.79-5.84-.67,1.72-1.31,3.35-2,5-2,1.31-2,1.15-2.88-1-1.88-5-5.65-8.07-10.57-9.85-.64-.23-1.28-.49-1.91-.73a11.85,11.85,0,0,1,1.77-1.49,8,8,0,0,1,1.8-.5,3.17,3.17,0,0,0,.49-.23l-1.28-1.86,9.14.91,1.19-.22c-2.94-1.78-11.21-2.24-14.32-.71l1.86,1.39c-1.1,1.2-2.13,2.44-3.28,3.54a2.47,2.47,0,0,0-.64,3.06,10.16,10.16,0,0,0,3.68,5.15,26.76,26.76,0,0,1,2.25,1.91L112.11,154c.15-1.33-.08-2.93.54-4.05,1.88-3.4-.22-5.55-2.17-7.65-2.4-2.6-5-5-7.56-7.46a2.66,2.66,0,0,1-.76-1.71l5.6,1.66c-.26-1.67-.48-3.17-.75-4.66a32.8,32.8,0,0,1,.42-13.74c.77-3.06,1.8-6.06,2.84-9a12.38,12.38,0,0,1,6-6.73c-.68,3.29-1.48,6.55-2,9.86s-1.45,6.49-.52,9.71c1.49-2.37,2.81-4.8,4.46-7a39.5,39.5,0,0,1,5.88-6c-1.28,2.79-3.6,5.11-2.86,8.76,1.37-1,2.6-1.91,3.84-2.8a26.37,26.37,0,0,1,19-5,82.39,82.39,0,0,0,10.78.2,20.13,20.13,0,0,0,4-.95,8.14,8.14,0,0,1-5.22,4.09c-4.61,1.55-9.34,2.77-14,4.33a17.28,17.28,0,0,0-5.14,3.16c13.65-1.6,20.85,6.07,26.12,17.63a44.44,44.44,0,0,1-4.68-1.09c-6-2.12-11.89-4.71-18.3-5.55a27.53,27.53,0,0,0-13.84,1.42,7,7,0,0,0-1,.69,9.52,9.52,0,0,0,2,.7,16.46,16.46,0,0,1,9.68,4.36,12.2,12.2,0,0,0,2.23,1.28c.12-.2.36-.56.35-.58-2.7-2-5.42-4-8-5.94a4,4,0,0,1,.89-.15A48.44,48.44,0,0,1,148.67,135a58,58,0,0,0,9.35,2.39,20.66,20.66,0,0,0,4.59-.16c-1.82-3.07-3.46-5.75-5-8.49a20.7,20.7,0,0,0-14.53-10.64l-2.06-.38a2.26,2.26,0,0,1,1.2-.79c3.34-1,6.77-1.65,10-2.88,3.93-1.5,7.14-4,8.45-8.72a21,21,0,0,0-2.52.6,21.55,21.55,0,0,1-10.09,1.24c-2.52-.3-5-.64-7.57-.81a19.49,19.49,0,0,0-15.18,5.17c-.69.64-1.37,1.3-2,2l-.63-.46c1.53-2.83,3.06-5.66,4.65-8.62-3,.38-5,2.25-6.91,4.24s-3.35,4.17-5.19,6.51l2.9-17.47-.72-.14c-12,9.07-14,21.49-11.54,35.52-2.2-.63-4.22-2.15-7-.89,2.8,2.94,5.32,5.6,7.86,8.23,1.58,1.64,3.21,3.23,4.8,4.86a2.44,2.44,0,0,1,.43,2.9,39.84,39.84,0,0,0-1.06,5.62,4.69,4.69,0,0,1-.86,2.38c-2.68,2.59-2.63,6.1.54,8a13.21,13.21,0,0,0,5.8,2.11c3.1.15,4,2.18,4.7,4.39,2.59,8,2.87,16.15,1.91,24.41-.76,6.49-1.83,12.9-4.46,19a3.37,3.37,0,0,1-3.8,2.27c-5.34-.25-10.63,0-15.64,2.2-2,.87-5.48.27-6.33-1.05-2.69-4.2-5.65-8.27-7.94-12.69a71.8,71.8,0,0,1-8-28.11c-.44-6.19-.73-12.44.67-18.55,1.94-8.51,4-17,6.2-25.44,3.33-12.65,1.7-24.31-6.08-35-5.75-7.93-11.86-15.47-20-21.12A111.57,111.57,0,0,0,23.76,60.87c-.18,0-.4-.18-.55-.13-.62.21-1.41.33-1.76.78-.22.28.08,1.21.41,1.63a14.47,14.47,0,0,0,2.33,2.23C33.61,72.67,43,80,50.89,89c5.44,6.17,10.88,12.35,15.2,19.39.53.87.93,1.82,1.39,2.73l-.46.3a52.06,52.06,0,0,0-4.61-4.32c-6.29-4.67-12.66-9.25-19-13.8-1.36-1-3-1.25-5.26-.58,11.44,13.88,21.76,28.11,27.28,45.18a1.31,1.31,0,0,1-.87-.38c-1.7-1.86-3.3-3.81-5.08-5.6A32.2,32.2,0,0,0,48,124c-2-.75-3.45.57-3,2.71a7.77,7.77,0,0,0,.77,2.13q5.25,9.9,10.54,19.75c1.29,2.39,3,4.58,4,7.09,1.44,3.89,2.39,8,3.45,12,.06.2-.84.95-1.26.93-1.32-.09-2.62-.45-3.93-.65-2-.32-4-.68-6-.83-.51,0-1.09.64-1.63,1a4.41,4.41,0,0,0,.79,1.15,37.67,37.67,0,0,1,12.1,14.09,9.26,9.26,0,0,1,.31,2c-3.39-1.41-6.3-2.53-9.14-3.82-1.66-.76-3.18-1.82-4.81-2.65a1.52,1.52,0,0,0-1.38.16c-.22.19-.17,1,0,1.32,2.31,3.55,4.43,7.26,7.07,10.55a84.91,84.91,0,0,0,16.43,15.12,6.94,6.94,0,0,1,.91,1.21,14.8,14.8,0,0,0-3-.58,24.52,24.52,0,0,0-3.37.59c.73.76,1.33,1.79,2.22,2.25,5.16,2.69,10.38,5.24,15.57,7.86a13,13,0,0,1,1.53,1,71.59,71.59,0,0,1-8,1.58,9.15,9.15,0,0,0-2.36,1.18c.49.65.84,1.61,1.49,1.9,3.73,1.7,7.55,3.25,11.33,4.85.57.25,1.12.56,2,1-2,1.64-3.68,3-5.28,4.36-1.87,1.63-4.34,2.77-4.92,5.54a13.48,13.48,0,0,0,.72,8,77.87,77.87,0,0,1,3.69,10.95c1.92,8,2.23,16.28,2.21,24.52,0,.21-.21.42-.28.56-1.16-.11-2.32-.55-3.22-.24-1.13.4-1.53.13-2.14-.73a5.64,5.64,0,0,0-5.12-2.75,14.64,14.64,0,0,0-8.2,3.18c-2,1.56-2.87,4.47-1.76,6.47,1,1.73.67,2.12-1.25,2.45-4.55.79-6.18,5-3.59,8.83.26.38.56,1,.43,1.34-.66,1.91-1.46,3.78-2.15,5.52l-7.57-3.16a2.07,2.07,0,0,1,.07-.67c.89-3.18-.59-6-3.78-6.66a15.52,15.52,0,0,0-4.31-.12c-.95.06-1.52-.09-1.56-1.09-.11-2.36-1.66-3.72-3.34-5a10.2,10.2,0,0,0,.55-1.73c.17-1.21.76-2.79.23-3.58-1.16-1.73-.7-2.55.61-3.87,2.91-2.95,2.18-6.52,1.05-10-1.73-5.28-6.28-7.54-11.54-5.91a1.83,1.83,0,0,1-1.64-.69,8.16,8.16,0,0,0-5-4.9c-1.12-.43-1.35-.87-.95-1.93a7.47,7.47,0,0,0-.71-6.75,27.42,27.42,0,0,0-2.65-3.7c-2.93-3.4-7.67-4.93-10.86-3.62-4.15,1.7-6.32,5.37-6.11,10.31A5.14,5.14,0,0,1,2.05,255l-2-1.19v1.14l3.91,2.49Zm62.27,42.55c.56,0,1.08.64,1.62,1l-1.46,1.21L65,300.28C65.52,300,66.07,299.42,66.58,299.46Zm26.58-27.37c-.4-.52-1.08-1-1.17-1.57-1.08-7.44-2.08-14.9-3.1-22.35l.4,0a32.2,32.2,0,0,1,0-4.17,4.29,4.29,0,0,1,1.13-2.07,1.36,1.36,0,0,1,1.3-.27,1.48,1.48,0,0,1,.42,1.27c-1.81,9.21-.2,18.25,1.31,27.29A6,6,0,0,1,93.16,272.09Zm7.73-35.44c-2,1.21-3.92,2.48-5.8,3.82-1.17.84-1.11.92-2.68-.48,3.28-2.06,6.4-4.11,9.63-6,.59-.34,1.64.11,2.48.19l.09.5C103.36,235.35,102.08,235.92,100.89,236.65ZM142.27,159a6.3,6.3,0,0,1,1.69.51l.26-.38-1.75-1.59c2.24-.46,5.62,2.94,4.9,5.09a2.29,2.29,0,0,1-1.94,1.1,20.2,20.2,0,0,1-4.38-2.43c-.33-.23-.29-1.26-.11-1.81C141,159.24,141.82,159,142.27,159Zm-24.21-13.48c-1.22-1.64-.66-2.5,1.39-2.6,3.89-.19,6.42,2.27,9,4.59a1.36,1.36,0,0,1,.19,1c-.22,1.44-.5,2.87-.82,4.67-1.36-.25-3.3.09-4.69-1.58C121.44,149.64,119.63,147.69,118.06,145.56ZM112,163.65c-3.61-2.11-3.5-5.64.21-7.64a16.48,16.48,0,0,1,9.55-1.78c3,.28,6,.8,9,1.13,1.8.19,3.55,0,4.74-1.67l2.21-4.49a6.06,6.06,0,0,1,2.59,3.2c1.83,4.1-.94,9.24-5,9-1.5-.1-3.05-1.31-4.36-2.31a9.79,9.79,0,0,0-10.29-.86c2.1.13,4.45-.14,6.52.5s3.85,2.18,6.17,3.57c-4.19,2.53-8.33,2.54-12.32,3.15h0C117.86,165.33,114.73,165.27,112,163.65Zm-3.63,54.27c2.15-.14,4.31.07,6.46,0a5.16,5.16,0,0,0,4.81-3.35,61.77,61.77,0,0,0,4.5-16.42,66.42,66.42,0,0,0,.24-21c-.46-2.74-1.88-5.32-2.91-8a19.87,19.87,0,0,0-1.35-2.3l6.38-.66c0,.83,0,1.44,0,2.05.36,4.27.68,8.54,1.15,12.8.23,2.06.79,4.09,1.19,6.13.06.31.17.8,0,.91-1.54,1.19-.68,2.59-.41,3.95.09.42.19,1,0,1.28-1.68,1.9-1.19,4.31-1.68,6.48-.65,2.9-1.6,5.73-2.15,8.64-.81,4.35-1.33,8.75-2.08,13.11S120.31,230,115.94,232a10.41,10.41,0,0,1-4.51,1.18,27.57,27.57,0,0,1-11.35-2.36c0-.22.07-.44.1-.67,2.5.37,5,.61,7.48,1.15a11.27,11.27,0,0,0,13.08-7.15,7.84,7.84,0,0,0,.4-1.85c.21-2.23-.83-3.42-3.1-3.23-3.28.26-6.53.87-9.82,1a61,61,0,0,1-6.87-.35l0-1C103.66,218.48,106,218.08,108.33,217.92Zm-1.83,3.53c3.1-.56,6.27-.69,9.41-1v.09a1.23,1.23,0,0,1,.38,0l3.38.67c-.37,1.42-.37,3.1-1.16,4.22a10.48,10.48,0,0,1-9.33,4.46,5.69,5.69,0,0,1-5.16-3.49C103.06,224,103.94,221.9,106.5,221.45Zm-12.3-1.91,9.73,1.23-.12,1c-3.31.06-6.49-.81-9.7-1.52ZM79,211.91a37.9,37.9,0,0,0-4.28-2.13l.06-.49a12.06,12.06,0,0,0,2.33,0,5,5,0,0,0,1.44-.89c-.33-.4-.58-.94-1-1.18-10.18-5.66-18-13.83-24.7-23.2a9.44,9.44,0,0,1-.46-1c.74.19,1.18.26,1.58.41,2.59,1,5.17,2,7.77,2.92a4.92,4.92,0,0,0,1.88.15c2-.12,2.53-.9,1.86-2.73A24.6,24.6,0,0,0,60,174.87c-1.32-1.36-2.57-2.78-4.22-4.57,4.1,0,7.6.4,10.9,2.18l.52-.43c-.86-2.77-1.72-5.53-2.59-8.3l.46-.25q1.32,2,2.66,3.92l.63-.33a56.76,56.76,0,0,0-2.74-6.28c-4.55-7.82-9.29-15.52-13.83-23.35-1.8-3.11-3.26-6.41-4.83-9.66a3.52,3.52,0,0,1,0-1.38c.35,0,.77-.09,1,.06,6.89,3.81,13.68,7.76,17.61,15,.81,1.5,1.43,3.11,2.28,4.59.31.55,1,.87,1.55,1.3.22-.65.77-1.38.62-1.93-1.29-4.82-2.39-9.73-4.15-14.38-4.68-12.36-12.44-22.84-20.84-32.88C44.49,97.5,44,96.74,43.41,96l.58-.61c5.17,3.8,10.62,7.28,15.42,11.49s8.79,9,13.42,13.88a7.53,7.53,0,0,0-.27-1.67c-8-19.2-21.26-34.29-37.5-46.94-3.4-2.64-6.84-5.22-10.24-7.86-.26-.2-.34-.64-.59-1.14a104.58,104.58,0,0,1,24.88,9.76c12.68,6.89,22,17,29.67,29a31.34,31.34,0,0,1,4.75,22.92c-1.74,9.64-4,19.2-6.39,28.7a68.13,68.13,0,0,0-1.15,29,131.82,131.82,0,0,0,5.64,20c1.8,5.16,5.16,9.55,9,13.49.23.23.54.41.65.68.28.68.46,1.39.68,2.09-.94,0-2.12.39-2.79,0C85.7,216.63,82.42,214.16,79,211.91Zm4.93,7.75c2.76.35,5.54.6,8.28,1.07s5.67,1.17,8.48,1.85a5.88,5.88,0,0,1,1.54,1c-.52.16-1.09.53-1.57.44-5.63-1.07-11.24-2.21-16.86-3.33C83.84,220.32,83.88,220,83.93,219.66Zm-6.52,2.06c0-.23,0-.46.07-.69a29.71,29.71,0,0,1,3.9.27c5.68,1.14,11.32,2.58,17,3.48,2.68.43,4.49,1.27,5.16,4.13C94.18,229,85.7,225.72,77.41,221.72Zm8.73,12.52c1.62-1.48,3.17-3,4.88-4.42a2.7,2.7,0,0,1,2.23-.54,55.85,55.85,0,0,1,5.84,3.4,1.28,1.28,0,0,1,0,1.19c-3.06,2.26-6.17,4.47-9.79,7.06.93-4.51-2.74-3.78-4.83-5.18Zm-3.87,9.59a16,16,0,0,1-.47-5c.06-1.53,1-1.93,2.38-1.24a5.59,5.59,0,0,0,.65.39c3.12,1,3.12,3.22,3,6a87.84,87.84,0,0,0,.65,12.12c.53,5,1.24,9.93,2.11,14.85.34,1.87-.41,2.46-2,2.92-.31-2.78-.63-5.45-.89-8.13C87,258.14,84.38,251.05,82.27,243.83Z"/><path d="M497.93,268.27a1.94,1.94,0,0,1-.38-1.57,7.22,7.22,0,0,1,.9-1.65c2.28-4.38.13-8-4.64-7.94a5,5,0,0,1-2.2-.76c-2.43-1.34-4.86-2.16-7.53-.69l.47.83c2.69-.84,4.22-.57,6.28,1.4-2.09-.14-3.36,2.28-5.46.59-.21-.18-.76-.09-1.07,0a13.19,13.19,0,0,0-7.64,8.45,5.7,5.7,0,0,0,0,1.49l.61.14a12.84,12.84,0,0,0,.85-1.7,12.7,12.7,0,0,1,4.27-5.93c.73-.57,1.4-1.07,2.27,0,.24.28,1.13.17,1.66,0,2.56-.71,5.07-1.58,7.64-2.21,2.14-.53,2.77.07,2.79,2.27,0,.7,0,1.4-.06,2.09-.2,3.72-.26,3.64-3.88,3.74a50.89,50.89,0,0,0-6.31.95c-.61-2.1-1.55-2.48-3.34-.91a12.78,12.78,0,0,0-2.24,3.37c-.87,1.53-1.65,3.09-2.42,4.66a11.16,11.16,0,0,0-.51,1.64l.54.26,5.12-8.46c.3,1.05.45,1.57.66,2.32a9.67,9.67,0,0,0,1.94-.49,13.66,13.66,0,0,1,8.72-.95c4.2.74,5.8,4.69,3,8-2,2.34-4.56,4.17-6.76,6.35a34.23,34.23,0,0,0-4.83,5.47c-2.57,4-4.68,8.26-7.22,12.26-2.16,3.4-4.64,6.6-7,9.85-1.7,2.32-6,3-8.86,1.17-6.92-4.3-13.94-8.48-20.61-13.15-9.69-6.78-19.31-13.65-29.8-19.18-1.15-.61-2.27-1.4-3.1.28-.24-.06-.42-.05-.48-.12-3.29-4.32-8-6.33-12.85-8.35A89.31,89.31,0,0,1,374,258.89c-7.51-6.13-13.83-13.15-17-22.77a85.42,85.42,0,0,0-11.58-22.55c-.88-1.23-2-2.27-3-3.44a18.13,18.13,0,0,1-1.18-1.82,43.12,43.12,0,0,1,4.47-.95,2.23,2.23,0,0,1,1.75.72c3.05,4.18,6.28,8.26,8.92,12.69A202.19,202.19,0,0,0,371.61,242c5.76,7.29,12.64,13.5,19.69,19.46,2.84,2.41,6.43,4,9.82,5.69s7.1,3.12,10.72,4.69l-1.54,1.37a12.07,12.07,0,0,0,2.08.87c2,.41,4.11.71,6.07,1-.51.72-1.52,1.54-1.38,2a5.07,5.07,0,0,0,1.85,2.67q9.22,6.3,18.59,12.41a55.37,55.37,0,0,0,17.06,7.62c3.39.84,6.94,1.15,9.94-.89a20.44,20.44,0,0,0,5.3-5.51,25.75,25.75,0,0,0,4-12.29c0-2.38.21-4.77.06-7.14-.25-4-.58-8,1.52-11.66.62-1.08,1.41-2.07,2.23-3.26,1.16,1.3,2,.88,3,0a45.93,45.93,0,0,1,3.87-2.69l-.47-.83L480,257.75l-.37-1.66c-3.15,1.6-4.32,4.56-6,7.11a15.36,15.36,0,0,0-1.11,1.69c-1.34,2.75-1.16,5.69-.72,8.58a28.32,28.32,0,0,1-3.19,18.34c-2.12,3.88-5.17,6.31-9.85,6.23a31.26,31.26,0,0,1-14.62-4.27c-6.34-3.5-12.37-7.57-18.44-11.54a70.16,70.16,0,0,1-5.86-4.78c.57-.53.76-.69.93-.87l1.41-1.61a8.53,8.53,0,0,0-2-1.05c-1.95-.44-3.93-.71-6.06-1.08a4.59,4.59,0,0,1,.49-.65c.5-.43,1-.84,1.51-1.25a7.31,7.31,0,0,0-1.88-.93c-7.8-1.34-14.58-5.15-21-9.45-4.74-3.19-8.81-7.37-13.14-11.15a1.94,1.94,0,0,1-.56-1.5,17.79,17.79,0,0,1,1.06-3.81c1-2.44,2.17-4.82,3.36-7.18a6.24,6.24,0,0,1,1.5-1.63c2.55-2.25,5.28-4.32,7.63-6.76C396.61,225,399.6,221,404,218.46c2.57-1.48,5.2-2.84,7.81-4.25l3.92-1.56a12.82,12.82,0,0,1-.59,1.79c-1.25,2.27-2.56,4.5-3.79,6.77-2.5,4.61-5,9.21-7.41,13.88-1.4,2.73-3,5.47-3.77,8.4-1.72,6.58.09,11.55,7.88,12.06,4.17.27,8.35.41,12.53.46a19,19,0,0,1,11.05,3.93,57.37,57.37,0,0,0,7.78,4.69,8,8,0,0,0,9.1-.73c2.69-2.06,4-4.46,2.94-7.86,0-.09.1-.23.21-.49,1.17-.13,2.42-.21,3.66-.42,3.84-.67,5.53-3.48,4.48-7.1a4.61,4.61,0,0,1,.31-2.67c.85-2.2.72-4.31-1.16-5.67A66.16,66.16,0,0,0,452.2,236c-.92-.52-1.79-1.15-2.68-1.72l.22-.69c-5.83.13-11,2.5-16,5.25l-4.94,2a3.16,3.16,0,0,0-.93.11c-3.7,1.6-7.63,1.39-11.49,1.24-2.36-.09-2.87-.93-3.09-3.28a17.35,17.35,0,0,1,2.06-9.14A53.89,53.89,0,0,1,425,215.92c1.47-1.57,2.85-3.22,4.25-4.85a9,9,0,0,1,6.44-3.17l.17-.54-4.52-3.48,2.51-.94a2.6,2.6,0,0,0-1.59-.92,26.9,26.9,0,0,0-14.42,1.17c-4.08,1.52-8,3.5-12,5.15-9.53,3.89-18.59,8.54-26.34,15.46a1.72,1.72,0,0,1-1.62.18,49,49,0,0,1-6.77-5.13A95.58,95.58,0,0,1,355.46,198a5.85,5.85,0,0,1-.57-4.74c.57-2,.81-4.08,1.22-6.11.07-.34.21-.88.43-1,1.49-.46,1-1.54.81-2.48-1.06-4.17-2.16-8.33-3.23-12.43,4,1.4,8.26,2.94,12.55,4.34s8.69,2.68,13,4l.89-.88c-4.69-1.86-9.35-3.81-14.09-5.54-2.72-1-5.59-1.53-8.34-2.44a4.46,4.46,0,0,1-2-1.68c-1.41-2-2.7-4.12-4-6.18-.35-.55-.73-1.09-1.2-1.78a3.31,3.31,0,0,1,.82-.07c7,2.53,14,5,21,7.65,4.29,1.67,8.3,4.06,13.21,3.29a33.64,33.64,0,0,0,11.72-4.63c4.29-1.92,8.66-3.69,12.83-5.86,1.13-.58,1.64-2.37,2.43-3.61,1.33-3.43.59-6.78-.9-9.87-1.11-2.33-.61-4,.77-5.93,1.91-2.63,3.58-5.43,5.62-8.56a13.13,13.13,0,0,1,1.11,2.74,8.44,8.44,0,0,1-2,6.89c-.33.39-.67.77-1,1.15-2,2.33-2,2.33.05,4.6,2.8,3.09,2.93,5.12.59,8.6a15.85,15.85,0,0,0-.78,1.49,3.9,3.9,0,0,0,3.93-2.62c1.1-3.31-.11-6-2.39-8.28-1.24-1.23-1.41-2-.08-3.18a7.45,7.45,0,0,0,2.09-2.88c.5-1.43,1.29-1.44,2.56-1.49,3.92-.14,7.83-.52,11.74-.82.74-.06,1.47-.14,2.22-.22a4.83,4.83,0,0,1-4.3,4.64,38.4,38.4,0,0,1-6.93-.54c-1.79-.28-3.13.09-3.24,1.88a24.69,24.69,0,0,0,.83,6.05c.21,1,.85,2,1.11,3,.55,2.18.07,4.16-2,5.21-4.41,2.19-8.8,4.47-13.39,6.22-5.46,2.1-10.79,4.35-15.52,7.84-.44.33-1.14.84-1.11,1.21.13,1.58-1.19,1.71-1.9,2.52-1.87,2.11-3.15.54-4.67-.07-.17-.07-.33-.18-.49-.26a3.53,3.53,0,0,0-.77,0l1.67,4-5.11-2.48-.89.88,7.79,4-1-4.08c2.27.73,4.5,1.37,6.92-.05l-2.62-.9,5.5-2.22-3.2-1.26A58.31,58.31,0,0,1,406.21,168c4.48-1.72,9-3.43,13.31-5.51,5.29-2.55,6.71-6.14,4.62-11.9a20,20,0,0,1-1-3.44c-.41-2.28.26-2.58,2.47-2.09a21.94,21.94,0,0,0,7.07.52c3.34-.39,5.66-4,5.07-7.43-.64,0-1.32,0-2,0-4.43.12-8.87.26-13.3.34A4.21,4.21,0,0,1,421,138a8.06,8.06,0,0,1,.88-1.51,3.7,3.7,0,0,1,1.13-.66c4.89-2.65,8-6.55,8.32-12.25.06-1-.19-2.59-.85-3s-2.11.09-3.18.34a2.57,2.57,0,0,0-1.22.86c-2,2.3-4.05,4.51-5.77,7a49.72,49.72,0,0,1-8.31,9,23.56,23.56,0,0,1-.62-2.71c-.34-3.6,1.4-6.25,3.81-8.71a15.6,15.6,0,0,0,3.13-4.42,3.94,3.94,0,0,0-.3-3.46c-.47-.55-2.28-.39-3.29,0-4.14,1.57-7.08,4.76-10,7.91a6.4,6.4,0,0,0-1.4,6.56,38,38,0,0,0,4.59,10.77c2.6,3.92,4.83,8.05,4.59,13a4.58,4.58,0,0,1-2.77,3.95c-1.12.59-2.17,1.32-3.3,1.85-3,1.42-6.09,2.77-9.13,4.15s-6.26,2.76-9.51,3.77a11.57,11.57,0,0,1-5.88.4,61.42,61.42,0,0,1-8.83-3.37c-6.59-2.74-13-6.08-20.06-7.47l-5.07-1c.16-.76.29-1.32.41-1.87l-.53-.28a7.15,7.15,0,0,0-1.05,1.82c-.08.36.37.93.7,1.29,1.53,1.68,3.14,3.29,4.64,5A8.35,8.35,0,0,1,353,167l-6.43-3.36c2,2.86,4.1,5.22,5.49,7.94a27.52,27.52,0,0,1,3.19,8.6l-.44.21L352,176.6a24.79,24.79,0,0,0,1,3.3,23.84,23.84,0,0,1,.16,11.11,7.46,7.46,0,0,0,.44,5.53,56.32,56.32,0,0,0,3.08,5.87c6.1,8.78,11.9,17.8,21.29,23.67a8.18,8.18,0,0,1,3.76,9.59c-1,3.67-2.67,7.16-4.12,11a12.09,12.09,0,0,1-1.22-1.1,87.91,87.91,0,0,1-5.68-6.86c-4-5.78-7.62-11.79-11.63-17.54-3.2-4.6-6.69-9-10.17-13.41-.76-1-1.37-1.64-.82-3a2.62,2.62,0,0,0-.21-2.31c-1.28-1.24-.89-2.19-.15-3.49,1-1.81.46-3.38-1.35-4.78-1.55-1.2-2.71-.31-3.87.65-.29.24-.52.67-.84.74-.64.14-1.69.38-1.92.08a22.6,22.6,0,0,1-1.83-3.36,10.12,10.12,0,0,1,1.18-.49,16.45,16.45,0,0,0,2.75-.65c2.56-1.14,2.84-3.66.72-5.43-1.85-1.54-4.05-1.42-6.17-1.15-1.67.22-2.42-.4-3-1.84-1.6-4-3.3-7.88-4.89-11.64-.41,2-.86,4.2-1.31,6.42-1.89-3.34-1-6.84-.36-10,.78-3.77.46-7.41.29-11.11a9.05,9.05,0,0,0-.9-3.47c-3-6-7.52-10.1-14.38-11.11-5.13-.75-10.28-1.44-15.41-2.18-1.24-.18-2.45-.48-3.95-.77.45-.51.55-.69.7-.77a2.61,2.61,0,0,1,.87-.35c3.7-.55,7.43-1.47,11.12-.31,4.5,1.42,8.43.16,12.34-2a11.37,11.37,0,0,1,4.1-1.2,19.12,19.12,0,0,1,14,3.51,12.59,12.59,0,0,0,2.29,1.06,35.63,35.63,0,0,0-5.4-4.54,6.45,6.45,0,0,0-2.56-1.12c-5-.82-9.94-.7-14.42,2.25a9.85,9.85,0,0,1-8.19,1.25c-8.24-2.1-15.93-.36-23.33,3.37-4.12,2.08-8.17,4.31-12.4,6.13-1.49.64-3.43.38-5.15.31-1.26,0-1.93-.59-.88-2a13,13,0,0,0,1.52-2.83c1-2.19.23-3.66-2.09-4.33-1.68-.49-1.84-1-.51-2.26,4.65-4.34,10.41-4.82,16.31-4.44,3.2.21,6.37.79,9.9,1.25l-1.46-1.12.06-.53h3.36c1.12,0,2.24,0,3.35,0a12.76,12.76,0,0,1,2.66-.39c1.77.3,3.48.87,5.56,1.41l-2.8-2.08.22-.71c3.79,1,7.66-1.38,11.45.78a4.06,4.06,0,0,0,2.18.43c2.45-.16,4.91-.36,7.34-.71,4.25-.61,8.49-1.25,12.7-2,3.92-.73,7.82-1.9,11.75-.23a7.55,7.55,0,0,1,1.83,1.55l1.49-.12.12-.48c-.85-.63-1.66-1.31-2.55-1.86-2.74-1.72-5.8-1.62-8.85-1.38-1.08.09-1.56-.12-1.79-1.31a16.63,16.63,0,0,0-1.42-3.69,37.23,37.23,0,0,1-2-4.06c-.26-.81-.06-2.56.29-2.66,2.36-.69,1.34-2.1,1-3.45a3.32,3.32,0,0,1-.05-1.92c2.36-5.39,4.64-10.82,7.27-16.08,2-4.05,4.54-7.87,6.79-11.82a7.82,7.82,0,0,0,.54-1.82l-.52-.28-4.44,2.3c.1-1.77.2-3.23.28-4.7.28-5.43-.75-10.72-1.8-16-1.72-8.61-3.63-17.19-5.52-25.77-1-4.5-2.67-8.85-2.42-13.58a37.93,37.93,0,0,0-.38-5,22,22,0,0,0-2.51,3.67c-2.22,3.77-4.34,7.57-4.78,12.05,0,.34-.31.94-.49.95-2.17.08-1.51,1.74-1.67,2.91-.56,4.35-1.09,8.7-1.64,13l-.65.13c-.86-1.94-1.71-3.89-2.57-5.83-2,10.43,2.41,20.08,3,30.19-.88-1.22-1.57-2.54-2.38-3.78a6.17,6.17,0,0,0-1.34-1.13,6.81,6.81,0,0,0-.33,1.86c.12,1.25.47,2.49.64,3.74.88,6.56,2.19,13,5.56,18.8a2.43,2.43,0,0,1,.24,1.23c0,1-.18,2-.16,3a18.26,18.26,0,0,0,.3,2.31l-.44.12-12-30.19-.56,0c-.21.48-.41,1-.66,1.44s-.53.89-.8,1.34a8.71,8.71,0,0,1-1-1c-1.44-1.82-2.83-3.7-4.3-5.49a9.56,9.56,0,0,0-2-1.3v5.51c-.56-.2-.85-.29-1.13-.4-2.8-1.13-5.54-2.48-8.42-3.33-3.33-1-6.81-1.47-10.19-2.28-7.14-1.71-14.26-3.49-21.39-5.22-5.21-1.27-10.46-2.42-15.26-5-.41-.22-1.41-.19-1.49,0a2.35,2.35,0,0,0-.07,1.76c1.86,3.45,3.56,7.15,7.19,9.06,4.9,2.57,10,4.8,15,7.18l4.53,1.34-.31,1-5.33-1.94-4-1.12-.31.41a14.1,14.1,0,0,0,1.2,1.35c.85.74,1.75,1.42,2.65,2.11,3.34,2.59,6.65,5.22,10.91,6.19.52.13,1.28.35,1.45.73.77,1.73,2.43,1.59,3.8,2,.5.16,1,.24,1.91.44-.63.55-.88,1-1.24,1.07-2.32.79-4.66,1.5-7,2.28a6.77,6.77,0,0,0-1.29.77,4.3,4.3,0,0,0,1.33.74c1.68.24,3.37.37,5.06.54l14,1.6c.59.07,1.17.2,2,.35-.43.46-.56.58-.67.73-.56.75-1.1,1.52-1.66,2.28a18.33,18.33,0,0,0,2.62.5c3.69.18,7.39.3,11.09.4.19,0,.39-.33.59-.51l-9.7-3.1,3.25-1.73c-.54-.37-.64-.5-.74-.5-5.11-.18-10.23-.34-15.34-.51l-6.7-1.2c2.74-2.18,5.25-3.59,8.56-2.86l.06-.89-5.12-1.69c.12-.47.25-.93.45-1.68a46.32,46.32,0,0,1-16.06-6.24c3.07.37,6.07,1.64,9.33.61-.34-1.66-1.64-2.18-2.87-2.7-5.3-2.25-10.63-4.43-15.92-6.68A28.74,28.74,0,0,1,249,56.29a7.68,7.68,0,0,1-.8-1.93c3.13,1,5.85,1.87,8.59,2.67,3,.87,6,1.76,9.1,2.47,5.35,1.26,10.77,2.24,16.07,3.64a37.39,37.39,0,0,1,9.7,3.65c3.75,2.26,7,5.32,10.47,8.07a1.62,1.62,0,0,1,.39,1.42l-4.73-2.12-.31.5c3.08,4.07,5,9.43,11.93,9.2l-.37.64a7.4,7.4,0,0,1-.81.57,8.2,8.2,0,0,1-1.16.38,7.77,7.77,0,0,0,1.07.88c2.33,1.25,4.71,2.43,7,3.73,2.73,1.53,4,4.28,5.48,6.85.14.24-.16.72-.26,1.09-.42-.16-1-.19-1.23-.5a7.9,7.9,0,0,1-.68-2c-.77-2.47-2.73-3.57-5-4.12-1-.23-2.24-.27-2.51,1.27.1.66.19,1.32.3,2.08-3.5.63-6,2.29-7,6.25l3.65-1.06c.39,3.09-2.85,5.48-1.37,9.13.57-.74.79-1.32,1.18-1.49a12.49,12.49,0,0,1,2.31-.51,6.34,6.34,0,0,1-.39,2.37,29,29,0,0,1-2.54,2.81c-2.49,2.84-4.77,5.77-4.51,9.9.14,2.17-.59,3-2.75,2.64a11.17,11.17,0,0,1-3.74-1.88,9.64,9.64,0,0,1-1.64-1.88c-.4,2.29-2,2.37-3.45,2.67a20.15,20.15,0,0,0-3.42,1.13,6.56,6.56,0,0,0-1.29,1l2.17,1.09c-1.32,1.2-1.71,3.22-4.09,2.4-6.33-2.17-12.28-.68-17.91,2.31a10.91,10.91,0,0,0-3.9,3.77,4.94,4.94,0,0,1-3,2.26c-2.06.7-4.38,1.32-5.94,2.7-3.94,3.47-4.64,8.14-3.45,13.07.41,1.71,1.34,3.66,3.3,3.74a5.77,5.77,0,0,0,3.89-1.8,79.9,79.9,0,0,0,6.23-7.62c.83-1.12,1.42-1,2.65-.61,1.79.61,4,1.27,5.63.79A28.86,28.86,0,0,0,280,144c4.47-3.07,9-5,14.39-2.8a8.68,8.68,0,0,0,2.24.38c3.71.46,7.45.75,11.13,1.4a23.45,23.45,0,0,1,12.09,6,3.87,3.87,0,0,1,.93,4.39,3,3,0,0,1-3.61,1.84,26.92,26.92,0,0,1-4.95-2.14,12.46,12.46,0,0,1-1.66-1.17l-.36.43c.87,1,1.69,2,2.62,2.92.77.75.79,1.25-.24,1.67a11.9,11.9,0,0,1-1.6.6c-2.24.5-4.48,1-6.73,1.44l-.06.36,3.45.58-4.8,6.68.6.58,2.47-1.35.48.46c-.83,1.29-1.58,2.63-2.51,3.84-1.49,2-3.18,3.78-4.65,5.76-5.05,6.84-10.91,12.78-18.33,17.08a20.37,20.37,0,0,0-3.69,2.94c-.43.41-.48,1.21-.7,1.83a5,5,0,0,0,1.67.5c1.22-.09,1.31.3,1.15,1.43a13.13,13.13,0,0,0,.05,4.68c.24,1,1.29,1.85,2.2,3.05.39-1.2.57-1.76.78-2.45l3.63,4.33.55-.36L286,207a3.18,3.18,0,0,1,1.83.86c3.39,2.95,6.72,6,10.15,8.86A21.23,21.23,0,0,0,314.28,222a34.48,34.48,0,0,0,6.63-1.47c2.27-.7,4.43-1.72,6.66-2.55a4.18,4.18,0,0,1,1.95-.34c2.35.38,4.67,1.07,7,1.25a10.69,10.69,0,0,0,4.39-.84c1.2-.46,1.55-1.29.28-2.41-1.85-1.64-3.5-3.51-5.23-5.27,2.82-2.63,2.53-2.45,4.57.06s4,5.39,5.84,8.15a34.09,34.09,0,0,1,3.66,6c1.86,4.55,3.37,9.25,5,13.89.74,2.09.55,2.34-1.7,1.92a30.32,30.32,0,0,0-16.84,1.29c-.73.29-1.41.71-2.12,1.07l.19.64,5.62.46c0,.17,0,.34,0,.51a13.36,13.36,0,0,1-1.68.58c-5.67,1.1-11,3-15.64,6.52-2,1.5-3.81,3.13-5.63,4.79-.4.36-.45,1.11-.66,1.67a5.87,5.87,0,0,0,1.69.38,12,12,0,0,0,2.4-.57c3-.89,6-1.8,9-2.71a20,20,0,0,1-3.45,2.85c-.36.27-.48.88-.71,1.34a4.14,4.14,0,0,0,1.46.28c1-.2,1.93-.59,3.43-1.07a39,39,0,0,0-2.71,4.52,40,40,0,0,0-2.85,11.36c-.36,3.63-1.49,7.17-2.16,10.77a9.68,9.68,0,0,0,.23,2.65l2.37-.57c.11,0,.2-.15.3-.23a49,49,0,0,0,10.52-10.61c.3-.43.65-.82,1-1.23.14,2.93-2.62,5.07-1.62,8.27a93.7,93.7,0,0,0,7.8-7.9,86.86,86.86,0,0,0,6.81-8.65c2-3,3.55-6.33,5.31-9.54l1.57,1.88a23.29,23.29,0,0,0,1.37-1.93c.31-.54.42-1.19.68-1.76a12.68,12.68,0,0,1,.76-1.28c.71.72,1.23,1.24,1.74,1.77l.79-2.16c0-.06,0-.12,0-.19.32-1.48.84-1.65,2-.61,1.81,1.59,3.56,3.24,5.4,4.78,6,5,12.22,9.63,19.32,12.95,4.19,1.95,8.44,3.78,12.69,5.6a13.75,13.75,0,0,1,6.27,4.71c.66.95,1.48,1.78,2.48,3,.32-1.33.55-2.23.83-3.38,3.89,2.22,7.65,4.07,11.09,6.39,7.14,4.8,14,10,21.17,14.78,6.23,4.21,12.58,8.24,19,12.21,2.79,1.73,6.05,2.23,8.78.14a25.64,25.64,0,0,0,5.67-6.3c2.87-4.39,5.47-9,7.95-13.61a32.6,32.6,0,0,1,9.74-11.67,19.84,19.84,0,0,0,4.93-5.43C501.75,273.85,500.88,270.61,497.93,268.27Zm-86,3.53c0-.11,0-.06,0,0Zm7.78-140q3.51-4.44,7.09-8.82a3.69,3.69,0,0,1,1.35-1,2.2,2.2,0,0,1,1.56-.15c.3.14.33.86.36,1-.44,6-3.72,9.76-8,12.88a1.25,1.25,0,0,1-.87.23C420.64,135.73,419.32,132.25,419.7,131.77Zm-15.16-1.55c-.1-1.32,1.21-3,2.3-4.1a55.66,55.66,0,0,1,6.65-5.6c1-.72,2.38-.86,3.59-1.27l.53.55a32.68,32.68,0,0,1-1.91,3.43,26.88,26.88,0,0,1-2.58,2.77,10.74,10.74,0,0,0-2.78,10.48c.55,2.36.85,2.48,3.62,1.51-1.52,2.14-2.72,3.85-4.1,5.78C407,139.47,404.91,135.12,404.54,130.22Zm-53.07,38.42.56-.76,2.3,1.65-.61.83ZM420,243.78a15.62,15.62,0,0,1-2.82,0A15.62,15.62,0,0,0,420,243.78Zm-38.52-17.15a1.75,1.75,0,0,1,.13-1.62,12.39,12.39,0,0,1,2.72-2.34c5-3.1,9.9-6.36,15.07-9.11a187.92,187.92,0,0,1,17.83-8.39c3.16-1.28,6.76-1.49,10.17-2.15a1.45,1.45,0,0,1,1.07.1c1.15,1.11,2.23,2.29,3.38,3.5a61.14,61.14,0,0,0-5.88,5c-4.72,5.11-9.54,10.18-12.38,16.66-1.42,3.24-2.66,6.63-2.13,10.26a21.26,21.26,0,0,0,1.52,4.16,13.55,13.55,0,0,0,2.79.86,13.55,13.55,0,0,1-2.79-.86,9.27,9.27,0,0,0,2.43,1.23,17.93,17.93,0,0,0,10.88-1.18l3.75-1.6,5-1.81h0c3.68-1.29,7.36-2.59,11.06-3.87.27-.1.82-.13.88,0,.81,1.6,2.41,1.06,3.67,1.38a15.27,15.27,0,0,1,7.12,3.76,3.25,3.25,0,0,1,.73,3.82c-1.4-.87-2.68-1.71-4-2.48-1.52-.88-3.63-.75-4.47-2.8-.1-.26-.92-.35-1.39-.32-1.76.11-3.52.3-5.28.46a9.26,9.26,0,0,0-5.52,2,1,1,0,0,0,.78.32c1.84-.38,3.67-.79,5.5-1.19l-1.93-.13,1.93.13c5-.29,11.84,3.51,13.88,7.71,1.1,2.27.62,3.95-1.76,4.62a22,22,0,0,1-5.81.49c-.53,0-1.18-.7-1.56-1.24-.61-.85-.9-1.94-1.57-2.71a14.67,14.67,0,0,0-2.55-1.92c.24-1.2,3-.2,2-2.37-3.56-1.3-7-.49-10.45.55a2.25,2.25,0,0,0,0,.49c1,.07,2,.08,3,.23a4.3,4.3,0,0,1,1.44.64c1,.61,2,1.27,3,1.91,1.39.73,2.75,1.38,3.1,3.25.14.75,1.09,1.35,1.67,2,1.8,2.07,2.33,4.79,1.25,6.44-1.59,2.42-4.93,4-7.35,3.1a48.66,48.66,0,0,1-6.61-3.23c-2.26-1.26-4.42-2.7-6.62-4.07-3.81-2.38-8.16-2.53-12.43-3.06-4.07-.5-8.16-.95-12.19-1.71-2.48-.46-3.08-1.54-3.05-4.06.06-3.79,1.57-7.13,3.38-10.35,2.73-4.83,5.51-9.65,8.27-14.47,1.38-2.4,3.09-4.64,3.25-7.56a5.39,5.39,0,0,0,.08-1.32c-.32-1.55.64-2,1.86-2.28a8.46,8.46,0,0,0,2.31-.76c-3.34-.54-6.34.69-9.34,1.85h0c-1.69.67-3.44,1.23-5.07,2-5.71,2.86-10.14,7.24-14.29,12-2,2.34-4.41,4.4-6.43,6.38C384,230.69,382.67,228.7,381.46,226.63Zm-61.25-99.38c-1.65,1.27-4.28,1.41-6.6.57.37-2.16,1-4.2-.65-6.06a1.58,1.58,0,0,1,.21-1.49,42.15,42.15,0,0,1,4.87-5.2,53.35,53.35,0,0,1,6.07-3.86c1-.64,1.59-.28,1.89.89C327.77,119,326.43,122.46,320.21,127.25Zm14.25-3.09a1.17,1.17,0,0,1-.58,1c-3.08.62-6.17,1.16-9.26,1.72,0,0-.08-.08-.29-.27l3.27-4c.14,1,.23,1.62.36,2.62,3-.72,2.25-4.26,4.73-5.51C333.29,121.15,333.93,122.63,334.46,124.16Zm4.64-49.42c-.43-9.36-.91-18.71-1.36-28.07a1.13,1.13,0,0,1,.38-1c.43,1.49.88,3,1.29,4.49A93.31,93.31,0,0,1,343,77.92a26.7,26.7,0,0,0,.53,4.09l2.35-1.64.41.31c-6,7.72-10.73,16.09-12.6,25.82l-.82-.06a27.11,27.11,0,0,1,.15-2.86c.53-3.81,1.13-7.61,1.68-11.42.1-.76.08-1.55.13-2.42.38.17.52.18.59.26l1.25,1.57a6.68,6.68,0,0,0,.8-2.26c-.18-4-.5-7.93-.78-11.88C338.91,77.52,339.22,77.27,339.1,74.74Zm-16.73-3,4.05,1.74q-2.19-11.46-4.37-22.9l.38-.19c.25.22.52.42.76.66,1.1,1.07,1.74.46,2-.67s.19-2.27.32-3.4c.21-1.94.44-3.89.71-5.83,0-.31.33-.59.67-1.16.46,1.17.8,2.07,1.15,3h.72c-.83-8.75-.09-17.13,5.64-24.53l2.9,54.84-.75.13-1.29-2.17a5.15,5.15,0,0,0-.45,1.39c.16,3.39.39,6.77.56,10.16.06,1.2,0,2.41,0,3.61,0,.31.05.75-.12.91-2.68,2.6-1.83,6.28-2.88,9.37a30.43,30.43,0,0,0-.77,3.46c-2.59-.63-3.2-2.81-4.15-4.68a.86.86,0,0,1,.25-.77,1.53,1.53,0,0,1,1,.14,7,7,0,0,0,2.05.89C326.41,88.35,324.06,80.48,322.37,71.75Zm-2,21.83c-2.15-4.48-6.26-6.47-10.62-8.28a7,7,0,0,1,.35-.72c.42-.65.86-1.29,1.3-1.93-.83-.35-1.65-.74-2.49-1-2.22-.78-4.45-1.52-6.67-2.28l.15-.74a16.48,16.48,0,0,0,1.86,0c.75-.09,1.48-.29,2.23-.45a6.63,6.63,0,0,0-1-1.85c-3.81-3.58-7.68-7.09-11.54-10.64a2.3,2.3,0,0,1,.9,0c2.88,1.08,5.8,2.1,8.6,3.37,1.51.69,2.34.56,2.85-1,.06-.21.31-.36.66-.75a37.42,37.42,0,0,1,2.72,3.69c1.2,2.16,1.59,2.33,3.5.91.78,2.38,1.48,4.78,2.35,7.12,1.6,4.33,3.29,8.63,5,12.93a6.35,6.35,0,0,0,.59,1c1.41,2.48,2.81,5,4.21,7.45l-.71.41Q322.53,97.13,320.41,93.58Zm-.61,8.62a2.83,2.83,0,0,1,.48-1,3.34,3.34,0,0,1,1.05.59c1.7,2,1.41,2.82-1.55,4.16C319.78,104.58,319.74,103.39,319.8,102.2Zm-11.94,3c.31-.8.75-1.89,1.16-3,.88-2.41.49-3.2-2-3.87,1.5-2.77,3.91-2.33,6.62-1.58l-1-3.76a4.39,4.39,0,0,1,4.84,4.35c.27,3.34.36,6.7.59,10a8.33,8.33,0,0,0,.55,1.85,9.44,9.44,0,0,0,1.44-1c1.66-1.69,3.28-3.43,5.16-5.42.21,1.06.38,2,.66,3.36l5.12-3.86a19.46,19.46,0,0,1-.33,3.48c-.28.94-.25,1.47.76,1.7.12,0,.29,0,.36.11.64.72,1.27,1.46,1.91,2.19l-2.53.72a8.79,8.79,0,0,0,.38,1.69,8,8,0,0,1-1.93,8.22c-.24.2-.81.35-1,.22a1.63,1.63,0,0,1-.59-1.1c0-1.39.08-2.79.08-4.18a10,10,0,0,0-2.45-6.22L317,113.52c-.51-3.38.69-7.32-2.65-10l-2.57,3.89C310.38,106.65,309.25,106,307.86,105.17Zm-2.55,12.64a48.09,48.09,0,0,1,3.34-4.78c1.88-2.35,3.89-4.59,5.94-7,1.85,3,1.33,8-.37,10.64a47,47,0,0,0-4.16,8.84c-.51,1.37-1,1.6-2.28,1.33s-2.22-.48-1.84-2.13.73-3.59-.75-5.19A1.93,1.93,0,0,1,305.31,117.81Zm-14.51,9.24c.44-.65.82-1.34,1.35-2.22a11.43,11.43,0,0,1,2.16-.7,2.5,2.5,0,0,1,1.64.43c1.94,1.32,3.91,2,6.22,1a2.36,2.36,0,0,1,1.52.18c.17.06.31.78.27.8a5.37,5.37,0,0,1-1.49.56c-3.17.57-6.34,1.11-9.51,1.65a5.35,5.35,0,0,1-1.68.13,6,6,0,0,1-1.46-.63A13.37,13.37,0,0,0,290.8,127.05Zm-37.31,20.69c-1-.09-1.89-.47-1.48-1.86a8,8,0,0,1,5.07-5.43,1.74,1.74,0,0,1,1.58.7C259.28,143,255.61,147.66,253.49,147.74Zm91.91,47.42c1.45,1.11,1.63,2,.63,3.74s-4.18,2.14-6.68,1ZM339.05,197a4.74,4.74,0,0,1-5.49,2.24c-1.33-.33-2.35-1.88-3.5-2.89,0,0,0-.16,0-.18,1.63-1.1,3.23-2.26,4.92-3.28,1.21-.72,1.62.37,2.12,1.17S338.35,196,339.05,197Zm-7.85,2.75-3.48,1.05c.38-1.25.6-2,.95-3.14Zm-9,19.18c.79-2.15,2.77-3.1,4.53-2Zm15.43-13.21a14.05,14.05,0,0,1-3.78-.33c-3.66-1-6.37.84-9,2.9a2.1,2.1,0,0,0-.63,1.43c0,.18.76.49,1.22.59,3,.66,6.07,1.21,9.07,1.93a5.8,5.8,0,0,1,4.5,4.42,18.15,18.15,0,0,1-7.5-.58,11.19,11.19,0,0,1-2.84-1.08c-2.82-1.73-5.27-1.1-7.65.89-.92.77-2,1.3-2.93,2.1-3.58,3.17-7.49,2.55-11.63,1.4-5.33-1.46-9-5.32-13-8.62-2.26-1.85-4.43-3.78-6.63-5.69-.75-.65-1.46-1.23-2.19.29l-1.68-4.3-2,3.1c-1.08-2.9,1.81-5.93-.85-8.6,1.84-1.23,3.73-2.57,5.69-3.79,5.63-3.51,9.94-8.38,14.11-13.42,3.11-3.76,6-7.61,7.62-12.34.8-2.3,1.32-4.86,3.56-6.56,1.7-1.28,3-2.61,5.51-1.89,2.67.77,4.91-.51,6.48-3.1,1.48,3.09,3.23,5.6,2.36,9.25a36,36,0,0,0-.48,10c.09,1.88,1,3.73,1.71,5.54.19.49.84.81,1.28,1.2a15.82,15.82,0,0,0,.88-1.55,8.71,8.71,0,0,0,.35-1.49c1.21,2.51,2.28,4.77,3.45,7.22a14.36,14.36,0,0,0-9.07,5.38c-.27-1-.47-1.76-.83-3.07-.68,1.09-1.05,1.68-1.41,2.27l-.52.05c-.28-1.42-.59-2.83-.83-4.26s-.39-2.81-.57-4.21l-.73-.15L317,183.86c-.59-4.22-.62-8.31,1.56-12.39-8.1,4.1-15.61,8.28-20.58,15.76-1.56,2.36-3.07,4.75-4.61,7.12h0c-.57,2.59-2.37.36-3.45.69l3.46,5.49c.14-.65.27-1.3.41-1.95.13-1,.27-2,.41-3,5.14-9.17,12.94-15.64,22-21.57-2.27,5.27-2.47,10.06,1,14.66l.78-4.2.49-.1c.27,3.12.69,6.19,2.75,8.94.3-1,.54-1.71.91-2.87.38.64.6.84.59,1-.15,2.71-.21,5.43-.58,8.1a9,9,0,0,1-1.51,3.4c-1.41,2.24-2.88,4.46-4.5,6.56a36.58,36.58,0,0,1-4.34,4.72,4.5,4.5,0,0,1-6,0c-3.1-3.21-6.06-6.58-8.86-10a39.69,39.69,0,0,1-3.19-5.54l-.41,1.95c2,6.82,6.94,11.4,12.4,15.38,2.31,1.68,5.23,1,7.25-.9,4.73-4.33,9.12-9,10.63-15.57a26.44,26.44,0,0,0,.64-4.7c.18-4.26,3.08-6.18,6.56-7.1a38.86,38.86,0,0,1,8.85-.87c.81,0,2.23.85,2.35,1.49.26,1.43-1.15,1.63-2.3,1.89a76.85,76.85,0,0,0-7.67,1.94c-3.55,1.19-5.64,5.75-6,9.07-.1,1.07.41,1.31,1.38,1.17,1.75-.26,3.51-.5,5.28-.62a18.72,18.72,0,0,1,3.59.11q4.11.54,8.18,1.28a6.54,6.54,0,0,1,1.69.89c-.5.47-1,1.29-1.5,1.35C342.38,205.61,340,205.71,337.59,205.75Zm-2,2.19c-2,1.86-4.63,2.05-7.22.64C329.68,206.8,332.47,206.53,335.55,207.94Zm26,42.95L358.4,252c-.91-1.13-1.65-.7-2.38.72-1.68,3.31-3.38,6.61-5.25,9.81a64.57,64.57,0,0,1-4.27,6.26c-2.27,3-4.64,6-7,9a5.07,5.07,0,0,1-.78.68l-.5-.24c.86-2.3,1.69-4.62,2.57-6.91.16-.39.63-.67.78-1.06a5.33,5.33,0,0,0,.11-1.39c-.42.12-1,.1-1.25.38-2,2.21-4,4.38-5.76,6.73a45.81,45.81,0,0,1-8.86,9.32,16.07,16.07,0,0,1-1.4.8c0-.53-.13-.8,0-1,1.93-4.22,2.12-8.81,3-13.28s1.43-8.75,4.53-12.29c.86-1,1.38-2.25-.39-3l4.21-3.59-.34-.83a24.53,24.53,0,0,0-3.44.63c-3.66,1.18-7.3,2.47-10.95,3.7a8.23,8.23,0,0,1-1.54.16c7.79-7.91,17.62-10.52,27.89-12.17-.05-.29-.11-.58-.16-.88l-5.93-.63v-.39a12.44,12.44,0,0,1,1.57-.31c4-.3,7.95-.6,11.93-.82a1.87,1.87,0,0,1,1.45.56c1.83,2.8,3.58,5.66,5.33,8.5C361.59,250.59,361.52,250.81,361.52,250.89Z"/><path d="M355.85,313.54h.07l0,0Z"/><path d="M175.27,284.18a6.48,6.48,0,0,1-.06-.76c.08-2.28,1.69-3.16,3.67-2a3.2,3.2,0,0,0,1,.2c-.51-6.39,3-7.82,8.56-7-2.11-2.17-2.1-2.15-.12-4.34a7,7,0,0,1,7.11-2.33c.06-4.65,3.36-7.82,7.76-7.63,4.65.21,7.87,3.19,7.63,7.08a10.63,10.63,0,0,1,12.47,6c2.4-1.65,4.82-.8,7.2.06a5,5,0,0,1,3.42,5.13c-.26,2-2.43,3.87-5,4a11.62,11.62,0,0,0,2.56,1.25c3.3.64,4.38,4,2.4,6.81-1.14,1.62-3.06,2.71-4.68,4a29.28,29.28,0,0,1-2.77,1.74c.1.21.19.41.29.61,1.39.08,3.08-.28,4.09.38s1.3,2.35,2,3.78c2.27-3.22,4-.05,6.44.8-.4-.91-.65-1.38-.82-1.89a5.44,5.44,0,0,1-.58-2.1,9.9,9.9,0,0,1,3.33-6.42,5.4,5.4,0,0,1,6-1c2.25.9,4.22,2.22,4.57,4.85a10.57,10.57,0,0,1-.52,3.07c.25.1.43.26.59.24,3.32-.55,3.46-.41,3.12,3a1.34,1.34,0,0,0,.41,1.09c1.07.62,2.22,1.11,3.83,1.88-.43-.9-.73-1.58-1.08-2.23a15.17,15.17,0,0,0-1-1.79c-.85-1.19-1.77-2.33-2.63-3.5a4,4,0,0,1-1-1.53,7.85,7.85,0,0,0-4.13-5.81c-2.86-1.73-5.84-2.5-8.75-.54a8.12,8.12,0,0,0-3.55,7.53,17.8,17.8,0,0,1-.08,1.78c-3.49-.29-3.49-.29-5.58-2.11.92-.86,1.87-1.67,2.73-2.58,3.14-3.33,3.12-7.06.12-10.33a1.94,1.94,0,0,1,0-1.88c2.07-2.3,1.53-4.68.4-7.08a5.64,5.64,0,0,0-5.39-3.25c-1.63,0-3.26.18-4.82.28-2.75-5.25-7.4-6.07-12.58-5.7-1.59-6.85-5.75-8.05-9.74-7.61-3.44.39-7.47,3.32-7.78,6.35-.21,2.1-1.1,2.16-2.71,2.21a7.48,7.48,0,0,0-7,5.53,2.65,2.65,0,0,1-1.29,1.17,9.3,9.3,0,0,0-4.58,4.59,2.49,2.49,0,0,1-1.43,1.16,4,4,0,0,0-2.83,3.44,41.63,41.63,0,0,1-1.93,5.24C175.67,287.35,175.67,287.33,175.27,284.18Z"/><path d="M172.43,288.05h0l0-.07-.08,0h0l0,.05Z"/><path d="M307.24,324.37c-2.54.95-2.85.89-5.73-.21-.39-.15-1.2.26-1.56.65-2.24,2.42-4.83,4.64-8.06,5a25.63,25.63,0,0,1-17.17-4.06,4.09,4.09,0,0,0-3.29-.65c-1.47.25-3.52.38-4.5-.43-1.67-1.38-3.1-.88-4.72-.56-3.16-.08-6.33-.1-9.48-.25a3.26,3.26,0,0,1-3-2.26,13.88,13.88,0,0,0-2.29-2.92c2.05,4.28,1.41,5.87-2.83,6.21a6.07,6.07,0,0,1-2.39-.45c-1.42-.52-2.8-1.18-4.2-1.76a3.07,3.07,0,0,0-3.5.44,3.09,3.09,0,0,1-2.67.47,2.65,2.65,0,0,0-3.25.45,7.44,7.44,0,0,1-6.56,1.75c-1.78-.39-3.78-.64-5.21-1.63-3.07-2.13-6.52-1.92-9.83-2-7.28-.08-14.56.27-21.83.42l-69,1.47q-27.86.6-55.72,1.18c-8.49.17-17,.25-25.48.36l-35,.44v2.67c2.59-.08,5.18-.13,7.77-.24,1.55-.06,1.75.58,1.13,1.86-1.43,3-2.91,6-4.19,9.08S3.47,342.67,0,342.82v2.66c.5,0,1.09-.24,1.47,0s1.06,1,1,1.24c-.72,2-1.6,4-2.43,6v7.61l4.32-11.06a4.63,4.63,0,0,0,.11-.56c.81-3.31.81-3.3,4.14-3.44,3.09-.12,6.17-.29,9.7-.45-.6,1.68-1,3.1-1.6,4.43Q9.18,365.79,1.6,382.3c-.48,1.07-1.06,2.1-1.59,3.14,0,1.33,0,2.66,0,4,0,.21.48.39.73.58q9.06-20.07,18.11-40.13a16.68,16.68,0,0,0,1.27-3.36c.38-1.76,1.44-2.13,3-2.06,2.18.09,4.36,0,7,0-1.57,3.49-2.78,6.68-4.39,9.64-3.29,6.06-6.83,12-10.21,18S9,384,5.72,390H8c3.85-6.68,7.68-13.36,11.57-20,1.94-3.33,4.16-6.5,5.91-9.92,2.36-4.6,4.38-9.36,6.55-14.06a3.3,3.3,0,0,1,1.1-1.48C29.4,360,23.33,374.74,19,390H21.7c1-3.56,2-7.16,3.14-10.67,1.89-5.61,3.95-11.17,5.94-16.75.84-3,1.69-6.07,2.52-9.1.71-2.56,1.43-5.12,2.08-7.69.26-1,.64-1.66,1.88-1.65q22.14.11,44.27.13c1.16,0,1.7.45,1.21,1.65-1.32,3.28-2.58,6.59-4,9.82a2.59,2.59,0,0,1-2,1c-4,.15-8,.05-12,.24-9.48.45-19,1-28.43,1.55a3,3,0,0,0-1.8.68H53.29l24.37-1.28c-4.41,11.36-9.82,21.57-14.48,32.11h3.43c5.17-9.32,9-19.23,13-29.08.81-2,1.81-3,4-2.78,1.62.15,3.27,0,5.15,0a14.4,14.4,0,0,0-.78,2.59c-.05.51.36,1.08.57,1.62.49-.21,1-.41,1.47-.66a.78.78,0,0,0,.3-.47c.85-3.12,3.05-3.78,6-3.46a54.29,54.29,0,0,0,5.6,0c-1.53,3.55-2.8,6.77-4.27,9.88-3.3,7-6.7,13.9-10,20.85a9.73,9.73,0,0,0-.43,1.45h2.28c.86-1.74,1.74-3.47,2.57-5.23,3.94-8.41,7.9-16.81,11.75-25.26a2.69,2.69,0,0,1,2.84-1.88c4.24,0,8.49-.25,12.73-.43a10.87,10.87,0,0,0,1.92-.38v-.53a14.68,14.68,0,0,0-2.08-.22c-4,.07-8,.22-12,.27-1.75,0-1.88-.33-1.21-1.88,1-2.26,1.9-4.54,2.74-6.85a1.81,1.81,0,0,1,2.14-1.37q15.33,1.33,30.67,2.64c.75.07,1.49.25,2.66.46a69.41,69.41,0,0,1-5.23,6.18c-4,3.71-8,7.42-12.28,10.71a33,33,0,0,0-11.27,14.43c-1.28,3.27-3.33,6.23-5,9.34h3.43c1.88-3.85,3.62-7.78,5.68-11.53,2.42-4.38,6.39-7.3,10.4-10.09,6.33-4.42,12.73-8.72,19-13.16,1.65-1.16,3.06-2.64,4.61-3.93.47-.39,1.07-.94,1.59-.91,2.8.17,5.6.49,9,.83-2.94,2.79-5.25,5.46-8,7.49-2.29,1.68-5.23,2.44-7.7,3.9a19.2,19.2,0,0,0-5.42,4.25A80.64,80.64,0,0,0,132.49,385c-.73,1.68-1.55,3.31-2.33,5h3c3.21-5.95,6.35-11.93,9.65-17.83,1.91-3.42,3.92-6.76,8.06-8.12a26.73,26.73,0,0,0,11.53-8,21.21,21.21,0,0,1,3.16-3c3.05-2.26,6-4.56,8.18-7.79,1.16-1.7,2.89-3.3,5.16-3.17,4.24.26,7.28-1.7,9.84-4.73a13.34,13.34,0,0,1,9.06-4.94c4.07-.46,7.59-2,10.07-5.63,1.5-2.18,5.23-2.65,7.68-1.37,4.74,2.47,9.39,3.41,14-.43.41-.35,1.36-.05,2.06-.07,1,0,2.39.29,3-.24,1.54-1.35,2.8-1,4.27-.1.85.54,1.79,1,2.69,1.41a6.09,6.09,0,0,0,7.61-1.16c1-1.19,1.65-.93,2.8-.39,4,1.87,8,2.61,12.18.5a3.28,3.28,0,0,1,1.18.39c2,1.73,4.16,2.57,6.77,1.22a1.72,1.72,0,0,1,1.54.24,21.09,21.09,0,0,0,8.64,4.12c5.81,1.46,11.52,1.68,16.21-2.79,2-1.91,4-2.7,6.6-2.1a3.3,3.3,0,0,1,1.51.56c2.95,2.87,6.3,3.41,9.75,1.3a20.56,20.56,0,0,0,3-2.69,29,29,0,0,1-3.66,1.63C312.55,327.79,308.92,326.68,307.24,324.37ZM158,325.62c6.33-.24,12.66-.54,19-.81a4.6,4.6,0,0,1,1,.2c-5.3,2.68-9.13,6.85-13.06,10.86a5.24,5.24,0,0,1-3.95,1.83c-1.58,0-3.17.11-4.74.25-1,.1-1.57-.13-1.08-1.23a20.51,20.51,0,0,0,1.51-9.48C156.71,326.33,156.85,325.66,158,325.62Zm-35.27.24c10.56-.05,21.12-.21,31.68-.36,1.05,0,1.71.18,1.33,1.33-1.17,3.59-2.35,7.18-3.69,10.71-.2.5-1.33.88-2.05.92-7.14.39-14.29.71-21.43,1v.24c-4.81,0-9.62,0-14.43,0-1.49,0-1.93-.46-1.21-1.76,1.84-3.3,3.72-6.58,5.6-9.86A4.39,4.39,0,0,1,122.77,325.86Zm-22.8,2.6c.08-1.21.53-1.73,1.71-1.73h7l.21.5c-1.21,1.35-2.55,2.61-3.62,4.07-1.74,2.37-3.31,4.88-5,7.33a3.1,3.1,0,0,1-.68.9,9.44,9.44,0,0,1-1.41.63c-.12-.51-.42-1.06-.31-1.51.36-1.54,1-3,1.28-4.57A42.72,42.72,0,0,0,100,328.46ZM88.44,336.7a33.17,33.17,0,0,0,.86-6.91c.14-2.65,0-2.66,2.76-2.75,1.39,0,2.78-.05,4.18-.1,1.16-.05,1.87.37,1.61,1.65-.7,3.51-1.38,7-2.23,10.51-.12.5-1,1-1.65,1.13a11.69,11.69,0,0,1-2.65,0C87.43,340.64,87.42,340.46,88.44,336.7Zm5.72,6.44c-.76.69-6.45.1-7.59-1,1-.11,1.75-.23,2.49-.26,1.51-.06,3-.1,4.53-.09a1.18,1.18,0,0,1,.92.42A1.15,1.15,0,0,1,94.16,343.14Zm-74.24-2.33c-.21.5-.79,1.19-1.21,1.2-4,.09-8.08.05-12.42.05.78-1.93,1.57-3.84,2.3-5.77s1.61-4.14,2.2-6.27a1.6,1.6,0,0,1,1.85-1.39c3.86,0,7.71,0,11.8,0a12.49,12.49,0,0,1-.36,1.59C22.72,333.76,21.35,337.3,19.92,340.81Zm18.57.76c-1.55.09-2.39-.24-1.73-2,.39-1,.63-2.13.93-3.2.45-1.17.91-2.33,1.36-3.49l-.33-.29-2.58,2.24c-1.42,1.89-2.81,3.82-4.31,5.66A3.28,3.28,0,0,1,30,341.74c-2.14.23-4.3.19-6.45.28-1.23.05-1.55-.43-1.18-1.63,1-3.39,2.11-6.77,2.93-10.21.34-1.44,1-1.63,2.24-1.64,15-.17,29.9-.32,44.84-.58,4.37-.07,8.73-.38,13.09-.75,1.85-.15,2.25.43,1.86,2.12-.73,3.14-1.37,6.31-2,9.47a2.19,2.19,0,0,1-2.51,1.95c-12.92.19-25.85.45-38.77.7C42.16,341.48,40.32,341.47,38.49,341.57Zm38.77,1.16,0-.57,6.59-.39,0,1C81.68,343.36,79.46,342.71,77.26,342.73Zm12.74,13a1,1,0,0,1-.7.55c-2.42.05-4.84,0-7.49,0,1-2.73,2-5.35,3-8,1.24-3.42,1.22-3.42,4.93-3.26,1.17.05,2.35,0,4.11,0C92.44,349,91.24,352.34,90,355.69Zm16.44-8c-1.06,2.57-2.16,5.12-3.36,7.63a2.1,2.1,0,0,1-1.47.83,29.82,29.82,0,0,1-3.41,0v.07H94.78c-1.07,0-1.38-.55-.92-1.47,1.36-2.71,2.68-5.44,4.18-8.07a2.88,2.88,0,0,1,2.11-1.06c1.7,0,3.4.29,5.1.35C106.52,346,106.89,346.59,106.44,347.65Zm.75-3.39a76.34,76.34,0,0,1-7.74-.42c.76-1.76,1.63-2.41,3.1-2.37s3-.15,4.52-.08a6,6,0,0,1,1.84.75C108.34,342.89,107.79,344.24,107.19,344.26Zm2.48-4.65c-2.46.24-4.93.34-7.4.49l-.25-.64c1.24-1.86,2.48-3.73,3.74-5.58,1.56-2.3,3.13-4.6,4.72-6.87.23-.34.61-.79.94-.8,2.18-.07,4.37,0,6.55,0,.08.14.15.28.23.41-3.64,3.3-5.17,7.88-7.57,11.94C110.39,338.94,110,339.58,109.67,339.61Zm33.84,8.1c-7.51-.6-15-1.31-22.51-2-2.84-.25-5.69-.43-8.51-.77-.75-.09-1.82-.48-2.08-1-.39-.82,1.41-2.9,2.35-3s2-.07,3-.1l33.41-1.05a8.5,8.5,0,0,1,1.61.35c-1.73,2.48-3.15,4.73-4.81,6.77A3.24,3.24,0,0,1,143.51,347.71Zm-3,11.14h-1.92c2.24-2.48,4.49-5,6.72-7.46,1.71-1.93,3-2.23,6.06-1.06C148,353.73,144.19,356.22,140.49,358.85Zm7.86-10.94c1.8-2.74,3.45-5.24,5.12-7.74a1,1,0,0,1,.61-.41c2.41-.21,4.83-.38,7.57-.59a6.05,6.05,0,0,1-.57,1.11,69.2,69.2,0,0,0-5.55,6C153.59,348.87,151.22,348.48,148.35,347.91Zm33.1-7.33c-4.88-.29-8.08,2.14-10.85,5.75-1.93,2.5-4.32,4.16-7.85,3.32a51,51,0,0,0-6.65-.64l1.86-2c2.13-2.34,4.22-4.71,6.41-7a3.7,3.7,0,0,1,2.06-1.14c6.47-.76,12.95-1.42,19.43-2.1a4.84,4.84,0,0,1,.91.09C186.37,338.58,183.71,340.71,181.45,340.58ZM201,329.68c-1.85.64-3.81,1-5.64,1.67a18.61,18.61,0,0,0-4.64,2.36,7.66,7.66,0,0,1-4,1.79c-5.85.57-11.69,1.25-17.53,1.87a17.42,17.42,0,0,1-1.77,0l-.31-.57c2-2,4-4.1,6-6.06a23.5,23.5,0,0,1,3.06-2.23A19,19,0,0,1,189,324.81c5.52.46,11.12,0,16.68,0,.55,0,1.09.06,1.63.1.08.2.17.41.25.62A18.94,18.94,0,0,1,201,329.68Z"/><path d="M319.45,325.13l-.07.07.11-.05h0Z"/><path d="M401.8,323.87a18.87,18.87,0,0,1-11.91.75,4.69,4.69,0,0,0-3.56.56c-4.22,2-8.68,2.49-13,.57-2.1-.93-3.92-1.38-6-.29a2.41,2.41,0,0,1-.53.2c-5.21,1.34-10.42,2.22-15.58-.23a8.58,8.58,0,0,0-2-.23c.67,1,.92,1.67,1.41,2a15.74,15.74,0,0,0,3.42,1.56c5,1.49,9.61.36,13.92-2.43a2.48,2.48,0,0,1,2.15-.23c5.14,3.13,10.5,2.93,15.84.89a8,8,0,0,1,4.93-.48,18.43,18.43,0,0,0,11.54-.74c1.62-.66,3.56-.58,5.36-.77,1.27-.13,2.54-.15,3.81-.22a24.08,24.08,0,0,0-5.38-1.18A10.64,10.64,0,0,0,401.8,323.87Z"/><path d="M349,128.23h0l0,0,0,0h0Z"/><path d="M343,128a10.55,10.55,0,0,0,1.18.61,17.7,17.7,0,0,1,9.11,6.17,3.73,3.73,0,0,1,.69,4.13L350,135.23c-.46,4.24,2.71,7.31,1.53,11.25l-1.9-1.79.08.57c-1.81.74-3.6,1.51-5.43,2.21a4.76,4.76,0,0,1-5.37-1.37,15.17,15.17,0,0,0-11.76-4.75c-1,0-2.08,0-3.12,0a13.17,13.17,0,0,0,4.17,1.51,18,18,0,0,1,9.22,3.79c2.69,2.08,5.53,3.62,9,1.84,1.2-.6,2.45-1.12,3.83-1.75l2.73,3.43c.32-3.61.59-6.62.87-9.72l1.58.29a7.87,7.87,0,0,1-.51-2.51c.65-4-1.71-6.34-4.54-8.46a11.94,11.94,0,0,1-1.46-1.55C347.13,127.88,345.3,127.11,343,128Z"/><path d="M407.87,319.57c-1.27.08-2.56-.14-3.83,0-1,.08-2.37.14-2.87.77-1.1,1.37-2.28,1.37-3.71,1.09S396,320,395.82,319c-.38-1.95-2.81-3.75-5.26-4-2-.25-3.38.51-4.5,2.68-.47.92-.82.84-1.73.44-3-1.29-6.14-2.1-9.12.21-.64,0-1.54.32-1.87,0-1.74-1.62-3.8-1.68-5.89-1.4a2.09,2.09,0,0,1-2.33-1c-1-1.35-2.3-2.46-3.4-3.73a2,2,0,0,1-.46-1.44c.49-3.14-.46-5.3-3.33-6.39-1.6-.6-2-1.2-1.52-2.87.86-3.26-.67-6.58-3.38-7.39a18.72,18.72,0,0,0-5.79-.85,7.17,7.17,0,0,0-3.95,1.49c-1.16.9-1.69.93-2.79-.07-4.22-3.87-11.77-1.75-12.84,3.55a3.3,3.3,0,0,1-1.79,2.73c-1.1.62-1.86,1.52-3.36,1.47-.6,0-1.67,1-1.79,1.66a29.2,29.2,0,0,0-.08,4.88c-2.14.44-2.32.13-2.37-2.2a7.29,7.29,0,0,0-1.28-4.35c-3.1-3.63-7.62-2.65-9.51,1.78a11,11,0,0,1-1.61,2.18,15.08,15.08,0,0,1-1.76-1.72c-1.37-1.89-4-3.1-5.59-2.09-1.36.85-2.06.46-3.08-.38-1.18-1-3-1.27-3.82-.13-1.4,2-3,1.79-4.89,1.45a3.9,3.9,0,0,0-1.5.17c-1,.25-1.35-.18-1.41-1.17a10.67,10.67,0,0,0-.53-3.15c-2-4.9-9.3-7.13-13.76-4.26-.37.23-.88.54-.94.89-.6,3.1-2.56,2.66-4.7,1.92a4.46,4.46,0,0,0-1.32-.13c-2,0-3.91,1-4.54,2.4,3.19-1.32,6-.55,8.7,1.15,2.19,1.38,2.44,1.11,2.72-1.55.12-1.16.49-2.73,1.32-3.31,3.18-2.24,9.42-.09,10.89,3.46,1,2.45-.35,4.23-1.44,6.16a5.46,5.46,0,0,0-.27,2c.58-.34,1.33-.54,1.7-1,1.7-2.22,2.9-2.7,5.64-2a5.84,5.84,0,0,1,1.46.41c1.25.71,1.71.13,2.28-1,.4-.77,1.37-1.74,2.07-1.72.88,0,1.83.85,2.59,1.51a8.52,8.52,0,0,1,1.23,1.95c.34-.4.57-.56.64-.77.44-1.33,1.42-2.2,2.7-1.79,1.09.34,2.57,1.2,2.82,2.13.65,2.32,2.34,2,3.55,1.45a6.19,6.19,0,0,0,2.44-2.88c1.09-2.08,2.37-2.83,4.59-2.27,3,.74,4,2.52,3.5,5.61-.13.78.3,2.35.61,2.39a45.94,45.94,0,0,0,5.63.08c.06-.21.13-.41.2-.62-1.47-1.52-3.51-3-1.75-5.26.6-.75,2.25-.66,3.7-1,.2-1.41,1.5-1.9,2.76-1.75.54-1.66.68-3.34,1.54-4.49,2.64-3.54,7.09-3.75,10.26-.68,1,1,1.93,2.08,3.14,3.4a6.7,6.7,0,0,0,.35-1.55c-.15-2.25.59-3.48,2.78-3.55a21.5,21.5,0,0,1,6.34.73,4,4,0,0,1,2.19,2.51,5.91,5.91,0,0,1-1,5.58,4.45,4.45,0,0,0-.49,1.16c3.84.06,5.8,1.72,6.1,5,.22,2.36-.73,3.41-3.62,4l1.23,1.84a17.68,17.68,0,0,0,1.56-.89c1.19-.88,2.58-1.19,3.65-.22s3.33,1.72,2.61,4.13c-.07.24.7,1,1.14,1.05s1-.44,1.51-.69c2.38-1.14,5.66-.31,6.81,1.72.36,1.29,1.15.82,1.91.47a23.69,23.69,0,0,1,3.61-1.63c1.91-.52,3.89-.78,5.53.81s1.81,1.46,2.44-.68a3.2,3.2,0,0,1,3.51-2.52,3.15,3.15,0,0,1,3.28,3,3,3,0,0,0,2.32,2.89c1.51.41,3.3.56,4.19-.86,1.48-2.35,3.22-.72,4.88-.79s3.41-1.33,5,.64c.76.95,1.92,2.27,3.78,1-1.23-.74-2.53-1.16-3.29-2.05C410.51,319.51,409.31,319.47,407.87,319.57Z"/><path d="M47.06,248.37c-.29-.93-1-2.22-1.7-2.39s-1.75.8-2.58,1.38c-.31.22-.41.73-.68,1.24a23.66,23.66,0,0,0-2.33-1.71c-1.73-.95-4.39.08-4.51,1.93-.1,1.43-.18,2.49-1.67,3.09-.28.11-.33,1-.31,1.55a12.79,12.79,0,0,0,.35,2.69c.41,1.5,1.67,2.76,1.27,4.52,0,.18.48.64.8.72,1.14.3,2.41.9,3.43.63a4.42,4.42,0,0,1,5.25,1.89c.89,1.2,2.23,1.89,3.67,1,2.58-1.48,3.32-2.7,2.52-5.23a19.51,19.51,0,0,0-1.9-3.47c1.86-2.55,1.53-3.83-1.55-5A10.26,10.26,0,0,0,47.06,248.37Zm1.29,5.28c-.39.6-.75,1.22-1.17,1.79-.29.39-.66.73-1.14,1.25.76.41,1.37.71,2,1.05a3.46,3.46,0,0,1,.12,6.14c-1.39.85-2.42.65-3.34-.8-1.66-2.61-2.25-2.75-5.37-2.24a9,9,0,0,1-2.77-.19,1.61,1.61,0,0,1-.78-.65c1-1.63-.31-2.47-1.37-3.46,1.3-.91,2.52-1.78.32-2.84-.26-.12-.49-.94-.35-1.09a2,2,0,0,1,1.26-.51c.39,0,.78.3,1.52.22-.25-.48-.7-1-.72-1.45a4.72,4.72,0,0,1,.36-2.69,2,2,0,0,1,2.88-.24c1,.69,2,1.32,3,2a18.55,18.55,0,0,1,1-1.91c.24-.36.93-.77,1.2-.65a1.77,1.77,0,0,1,.92,1.22c.06.93-.27,1.88-.21,2.81a2.39,2.39,0,0,0,.91,1.4A7.8,7.8,0,0,0,48.35,253.65Z"/><path d="M43.09,250.09l-.31-.19c-.14.29-.28.59-.43.88Z"/><path d="M340.44,325.67c-1.15-.09-1.72-.39-.92-1.64,1.81-2.82.74-5.11-2.73-6,2.66,2.88,2.63,3,.24,6.13a2.36,2.36,0,0,0,0,2c.76,1.74.56,3.35-.71,4s-4.22,0-4.75-1.37c-.46-1.16-1.17-1.26-2.21-1.15-1.65.18-3.16.05-3.91-1.86-.16-.41-1-.59-1.57-.79s-1.27-.08-1.6-.41c-1.26-1.28-2-.52-2.79.5,1.76.74,3.76,1.17,5.19,2.3a6.06,6.06,0,0,0,3.57,1.73,2.93,2.93,0,0,1,2.1.83c1.27,2.15,3.2,2.07,5.17,1.79a4,4,0,0,0,3.35-3.23c.29-1.25.94-1.37,2-1.38,2,0,4.05-.25,6.2-.41a3.85,3.85,0,0,0-.24-.57Q343.64,325.91,340.44,325.67Z"/><path d="M161.57,306.16c-.66,1.08-1.24,1.1-2.29.54a10.44,10.44,0,0,0-7.92-.74,4.86,4.86,0,0,0-3.82,4.45c-.14,1.94.12,4,2.7,4.55.25.06.49.78.5,1.2a5.51,5.51,0,0,1-.38,1.5,3.79,3.79,0,0,0,1.33-1.13c1.6-1.65,1.64-1.71-.56-2.68a2.25,2.25,0,0,1-1.68-2.38c.05-2.42,1.55-3.81,4.44-4.12a9.82,9.82,0,0,1,7.72,2.48c.31-3,1.73-4.6,4.27-5.17.11,0,.18-.27.27-.43C164.29,304.09,162.6,304.46,161.57,306.16Z"/><path d="M172.17,293c3.82-.77,6.65.67,7.69,4,.52,1.67.87,3.4,1.29,5.1.23.33.44.93.69.95,1.53.11,3,.5,4.34-1,1.67-1.92,3.09-1.58,4.19.66a9.17,9.17,0,0,0,1.18,1.92c1.37,1.59,4.07,1.55,5.09-.07.82-1.3.67-3.35,3.09-3.42-2.33-.81-3.12-.44-3.75,1.07-.31.74-.95,1.74-1.6,1.88-1.38.3-1.91-.94-2.26-2.06-.92-3-3.23-3.68-5.6-1.67-.67.56-1.18,1.33-1.86,1.88a2.31,2.31,0,0,1-1.62.62c-.41-.11-.65-.91-.9-1.43a3.77,3.77,0,0,1-.2-.91,30.45,30.45,0,0,0-.72-3.69,7.81,7.81,0,0,0-11-4.76c-5.36,2.6-6.64,5-4.14,10.31a5.52,5.52,0,0,1,.14,1.84l1.67.85a54.31,54.31,0,0,1-1.11-5.51C166.44,296.2,168.57,293.74,172.17,293Z"/><path d="M166.19,304.21l0,0,0,0h0v0h0Z"/><path d="M150,268.12a6.13,6.13,0,0,0-1.3-.23,3.21,3.21,0,0,0-1,.54c.23.25.43.65.69.71a10.32,10.32,0,0,0,2.8.34,3.61,3.61,0,0,0,3.06-3.59c-.08-1.09-.92-2.93-1.6-3-2.27-.29-4.67-1.34-7,0a1.51,1.51,0,0,1-2.37-.49,4.2,4.2,0,0,0-2.66-1.54,2.78,2.78,0,0,0-2.94,2.45,4.28,4.28,0,0,0,.9,3c.67.82,1.92,1.15,2.83,1.81a3.48,3.48,0,0,1,1.35,1.59c.61,2.21,2,2.7,4.18,1-2.69.63-3,.32-2.63-2.23.17-1-.12-1.29-1.11-1.45a8.24,8.24,0,0,1-3.16-1.08,3,3,0,0,1-1.41-2.11,3.15,3.15,0,0,1,1.63-2c1.12-.56,1.85.3,2.36,1.28s1.44,1.81,2.44,1c1.72-1.31,3.6-.65,5.4-.8,2-.16,2.91.7,2.78,2.19A2.69,2.69,0,0,1,150,268.12Z"/><path d="M217.83,332.68a3.49,3.49,0,0,0-2.91-.42c-.66.26-.91,1.54-1.09,1.88.27,4,1,7.15,4.17,8.88a5.18,5.18,0,0,0,4,.26c1.52-.67,1.23-2.49.81-3.9A13.43,13.43,0,0,0,217.83,332.68Zm3.62,9.27c-.38.28-1.33.07-1.9-.21-2.48-1.22-4.37-5.18-4-8.31,2-.28,2.85,1.13,3.72,2.28a24.1,24.1,0,0,1,2.51,4.39A2,2,0,0,1,221.45,342Z"/><path d="M222.73,264.66c1.44.41,3,.58,4.37,1.06a2.61,2.61,0,0,0,3.49-1.34c.76-1.35.17-2.44-.89-3.32a9.32,9.32,0,0,0-1.38-.94c-1.47-.85-2.95-1.68-3.73-2.12-2.8.07-4.21,1.46-4.49,3.56S221.19,264.23,222.73,264.66Zm-.85-3.47c.14-1.4.94-2.14,2.72-2.16a3.6,3.6,0,0,1,1,.46,25.7,25.7,0,0,1,3,2.55,4.81,4.81,0,0,1,.68,1.72,7.73,7.73,0,0,1-2,.17c-1.15-.19-2.26-.64-3.41-.84S221.72,262.69,221.88,261.19Z"/><path d="M291.25,309.92c1.26-.79,2.9-1,4.38-1.45a6.08,6.08,0,0,0-.6-.25c-3.72-1.19-5.68,0-6.56,3.76-.1.44-.89.84-1.43,1a33.21,33.21,0,0,0-4.32,1.27c-2.23,1.12-2.88,2.68-2.24,4.42.75,2.08,2.79,3.27,5.42,2.87-1-.69-1.89-1.18-2.67-1.75-1.92-1.4-1.92-3,0-4.37a9.17,9.17,0,0,1,7.95-1.1C291.28,312.76,289.47,311,291.25,309.92Z"/><path d="M339.35,153.33c-1.55.9-3.28,1.69-4.78.47a24.89,24.89,0,0,1-4.82-5.17c-.87-1.27-1-3-1.45-4.61-.91,6.12,2.18,10.12,6.81,12.08a4.7,4.7,0,0,0,3.25-.38,47.06,47.06,0,0,0,4.72-2.72C341.77,152.11,340.53,152.64,339.35,153.33Z"/><path d="M377.37,309.49l.31-.49c.38,0,.85.15,1.12,0,1-.65,2.3-1.21,2.77-2.16.55-1.14-.44-2-1.66-2.49-.42-.16-.53-1-.87-1.48s-.85-1.39-1.43-1.54-1.26.42-1.86.76-.86.7-1.34,1c-1.73,1-2.22,2.4-.89,3.85A19.36,19.36,0,0,0,377.37,309.49Zm-1.43-5.59c.26-.09.45-.39.66-.61s.66-.71,1-1.07a13.48,13.48,0,0,1,1,1.47c.23.44.22,1,.47,1.44a10.17,10.17,0,0,0,1.18,1.37l-1.75,1a14.57,14.57,0,0,1-2.77-1.34C374.89,305.49,374.06,304.53,375.94,303.9Z"/><path d="M346.66,172.16c-.91-1.47-2-2.82-3.3-4.61l2.42.14,0-.24-5.71-2.36-.22.44,7.23,8.47-1,.29a8,8,0,0,0-.26,2.48c.48,2,1.15,4,1.79,6a15.92,15.92,0,0,0,.8,1.73l.66-.23L347,176.49l2.43.73C348.32,175.2,347.58,173.62,346.66,172.16Z"/><path d="M26.69,289.21a1.64,1.64,0,0,0,1.06.55,26.35,26.35,0,0,0,2.86-.45,6.3,6.3,0,0,1-1.3-.49,20,20,0,0,1-3.56-2.8c-.32-.37.31-1.59.52-2.41a5.57,5.57,0,0,0-1.66-5.73C22.73,276.1,20.54,275,17.8,276a7.57,7.57,0,0,1,6.51,3.33,4.87,4.87,0,0,1-.43,6.58C25,287.24,25.81,288.26,26.69,289.21Z"/><path d="M350.84,312.53a4.34,4.34,0,0,0-3.94,2.81A2.53,2.53,0,0,0,347,317c.6,1.42,1.33,2.78,2,4.24.43-.38,1.13-1,1.8-1.61a3.45,3.45,0,0,0,.46-.73c-.45-.39-.87-.76-1.29-1.11-1.54-1.25-1.52-2.59.21-3.57a7.48,7.48,0,0,1,2.86-.8,15.78,15.78,0,0,1,2.74.08C354.49,311.57,352.52,312.32,350.84,312.53Z"/><path d="M355.85,313.54l0-.05h-.09Z"/><path d="M346.8,153.68l-6.08,2.59.15.58,3.7-.3c0,.54,0,.92.06,1.35C346.86,157.12,347.39,156.07,346.8,153.68Z"/><path d="M106.55,276.21a7.38,7.38,0,0,1,7.16,1.8c2.73,2.38,3.35,8.7-.86,11.05-.77.43-1.7,1.2-1.84,1.94a17.54,17.54,0,0,0,.22,4.05c1.21-1.32,2.76-2.23,4.61-1.39a3.78,3.78,0,0,1,1.86,2.11,2.82,2.82,0,0,1-.93,2.24c-.32.3-1.33-.09-2-.26a19.72,19.72,0,0,0-3.26-.88c-5-.31-8.42,4.22-7.29,9.36.14.63-.17,1.92-.44,2-1.07.19-2.25,1.6-3.31-.14-2.1-3.42-5.41-4.32-9.16-4.19-4.23.14-8.66,5.21-5.88,9.42a25.21,25.21,0,0,0,1.82,2.22c-3.21,2.34-3.81,4.34-2,6.09,0-4.22.71-5.24,4.73-6.14a5.19,5.19,0,0,0-.94-1.19c-2-1.33-2.86-2.82-2.5-4.66a4.83,4.83,0,0,1,4.28-4A9.36,9.36,0,0,1,98.39,308a35.66,35.66,0,0,1,2.59,3c1.29-1.51,2.73-2.59,5-1.76-1.39-3.52-1.87-6.92.83-9.57,3.33-3.27,6.89-1.6,10.46.48.77-2.45,2-4.21,4.91-3.33.36-3.24,1.48-4,3.52-2.61,1.66,1.17,1.76,1.12,2-.93a5.21,5.21,0,0,1,4.69-4.24c2,0,3.67,1.72,3.94,4.11a23.41,23.41,0,0,0,.41,4,6.23,6.23,0,0,0,1.89,3.09,4,4,0,0,0,3,.18c.3-.07.26-1.48.4-2.28.12-.62.11-1.63.46-1.78,1.79-.76,1.61-2,1.13-3.43a3.85,3.85,0,0,1-.1-1.69c.08-.45.34-1.16.64-1.23a1.92,1.92,0,0,1,1.51.45c.54.5.79,1.31,1.32,1.83a4.06,4.06,0,0,0,1.44.57c.14-.48.46-1,.38-1.44a6.73,6.73,0,0,1,8.87-7.62,20.62,20.62,0,0,0,2.2.48c-1.61-4.51-1.46-6,.58-7.38a5,5,0,0,1,6.31.23c2.08,1.89,2,3.48-.07,7.2,1.36,1.4,2.72,2.64,3.86,4,1,1.19,1.45,1.1,1.86-.31a32.85,32.85,0,0,0-2.88-3,1.56,1.56,0,0,1-.5-2.25,5,5,0,0,0,.13-4.92,6.12,6.12,0,0,0-7.05-3.14,6,6,0,0,0-4.84,6.19c0,1.27-.41,1.45-1.53,1.45a8,8,0,0,0-7.66,5.44c-.36,1.12-.63,1.49-1.8.76-1.57-1-3.12-.43-3.58,1.35-.27,1.08.16,2.32.14,3.49,0,.69-.07,1.85-.42,2a2.2,2.2,0,0,0-1.52,2.67c0,.44-.11,1.18-.37,1.29a1.51,1.51,0,0,1-1.36-.32,5.73,5.73,0,0,1-1.17-2.22,8.17,8.17,0,0,1,.08-2.46,6.32,6.32,0,0,0-4.85-6.6c-2-.55-5.37,1.34-6.46,3.77-.46,1-.86,1.26-2,1.05a2.46,2.46,0,0,0-3,2.29c-.08.48-.52,1.31-.67,1.28-.67-.13-1.57-.32-1.89-.81-1.74-2.71-2.15-2.93-5.18-2.45-.45.07-1.28-.17-1.38-.45a2.73,2.73,0,0,1,.08-1.89c.21-.44.89-.66,1.35-1,3.49-2.58,4.13-7.25,1.81-11.22-1.83-3.12-7.11-4.25-10.08-2.43-.53.36-1,.76-1.58,1.09a6.56,6.56,0,0,1-1.1.41l-.46.06c.07.58.14,1.16.21,1.78Z"/></g></g></svg>