<svg xmlns="http://www.w3.org/2000/svg" viewBox="0 0 949.46 566.2"><defs><style>.cls-1{fill:#2d2d2d;}.cls-2{fill:#231f20;}.cls-3{fill:#c78a5e;}.cls-4{fill:#f8d033;}.cls-5{fill:#79377e;}.cls-6{fill:#e98940;}.cls-7{fill:#cd317b;}</style></defs><title>Asset 1</title><g id="Layer_2" data-name="Layer 2"><g id="Layer_1-2" data-name="Layer 1"><path class="cls-1" d="M191.52,566.2a9.57,9.57,0,0,1,0-1.5c5.8-.76,11.53-3.18,17.45-1,.72.27,1,1.65,1.54,2.52Z"/><path class="cls-1" d="M162.52,566.2c-.12-.28-.24-.56-.37-.84,4.64-.3,9.28-.62,13.92-.83.13,0,.3,1.09.45,1.67Z"/><path class="cls-2" d="M304.38,540.4c-11-6.84-23.44-9-36.12-10.2l0-1.08c2.46,0,4.91,0,7.37,0,2.66,0,5.46-.33,8,.37,6.38,1.76,12.63,4,18.89,6.13.81.27,1.35,1.32,2,2C304.47,538.56,304.42,539.48,304.38,540.4Z"/><path class="cls-2" d="M230.69,548.15l1.71,1.77L215.33,556l-.56-1.56C219.81,551.7,224.8,548.89,230.69,548.15Z"/><path class="cls-2" d="M256.53,557.09c-1.63.8-3.19,1.92-4.91,2.35a79.49,79.49,0,0,1-13.49,2.25c5.91-2.55,11.65-5.73,18.45-4.53Z"/><path class="cls-1" d="M307.57,542.86c-.3-.72-.59-1.45-.89-2.17l2.34.9Z"/><path class="cls-1" d="M304.38,540.4c0-.92.09-1.84.14-2.75l1.7,2.06Z"/><polygon class="cls-3" points="239.18 545.6 239.01 545.9 238.78 545.66 238.94 545.38 239.18 545.6"/><path class="cls-4" d="M800.1,372.17a27.31,27.31,0,0,1,3.19,2.82c3.84,4.66,7,5.71,11.84,2.85a8.31,8.31,0,0,1,8.47-.53c4.18,2,8.25,4.25,12.36,6.4l-.41,1.39c-3.88,1.16-7.71,2.51-11.64,3.44-27.28,6.44-54.81,10.94-83,9.2-27.6-1.71-54.44-7-79.33-19.55-24.11-12.18-45.21-28-58.74-52.12-3.43-6.1-5.45-13-8.26-19.88,6.55-.16,8.13.78,10.06,5.29,3.55,8.33,12.3,11.87,22.58,8.68.34,5.6,2.48,10.31,7.63,13,6.06,3.12,9.41-1.78,13.94-5.45.21,3.28.4,5.84.52,8.41.3,6.19,4.11,10.12,9,13s10,1.08,12.78-3.83a48.23,48.23,0,0,0,4.17-8.47c1.29-3.93,3.77-4.11,7-3.13,6.51,2,13,4,19.54,5.91,13.2,4,26.41,7.82,39.59,11.83,9.63,2.93,19.21,6,28.82,9,2.81.88,3.69,2.18,2.11,5.15a32.49,32.49,0,0,0-3.32,9.28c-.92,5.15,2.59,9,7.83,9.25,6.61.29,11.51-3.73,16.72-6.85A68.29,68.29,0,0,0,800.1,372.17Z"/><path class="cls-5" d="M418,557c1.78-3.94,2.06-7.47,6.39-8a3.14,3.14,0,0,0,2.08-1.81c2.43-7,5.64-13.89,6.73-21.1.73-4.76-1.44-10-2.7-15a44.61,44.61,0,0,0-3.32-7.71c-1.62-3.43.14-5.32,2.92-6.81a9.65,9.65,0,0,1,1-.26c9.12-3.41,9.4-4,6.37-13.44a50,50,0,0,1-1.8-6.66c-1.24-7.09-1.2-7.17,5.47-9a25.83,25.83,0,0,1,6.37-.89c9-.15,18,0,27-.27,7.46-.23,14.91-1,22.37-1.37,5.43-.27,10.88-.4,16.32-.37,5.89,0,7.86,2.72,7.15,8.56a175.32,175.32,0,0,0-1.68,19.78c-.07,8.11,1.66,9.47,9.7,9.6,1.81,0,3.62,0,6.24,0-.44,3.8-.55,7.2-1.26,10.48-3.1,14.25,2,26.29,9.69,37.75,1.79,2.68,3.23,5.6,5.07,8.81-8.47,2.73-16.36,1.54-24.24,1.4-12.1-.21-24.21,0-36.32.1-8.82,0-17.64.2-26.46.08-5.81-.09-11.62-.38-17.4-.93C435.29,559.2,427,558.08,418,557Zm56.93-10.83a49.49,49.49,0,0,0,24.73-6.86c7.44-4.32,11.85-17.41,8.31-25.62-4.18-9.72-10.41-16.55-20.24-20.12a30.44,30.44,0,0,0-17.63-.69c-6.17,1.44-11.67,4.08-15.85,9-5.12,6-8.91,12.82-9.44,20.76-.34,5,.18,10.41,4.69,14C457.46,542.9,466.12,547.36,474.93,546.2Z"/><path class="cls-4" d="M801.89,137.9l-5.54,4.9.81,1.21c2-1.18,4.07-2.22,5.91-3.58,3.81-2.82,7.65-4.45,12.24-1.36l-21.23,7.84c.27-.48.73-1.3.83-1.49a50.54,50.54,0,0,1-5.52-5.24c-1.63-2.06-1.06-3.84,1.84-4,3.41-.14,6.83,0,10.24,0Z"/><path class="cls-3" d="M710.66,264.6c.51,3.85,1.29,7.68,1.49,11.55.53,10.56.82,21.12,1.2,31.68-.45-4.88-1.05-9.75-1.33-14.64C711.47,283.67,711.1,274.13,710.66,264.6Z"/><path class="cls-3" d="M309,5.92l-24.43-.53a51.67,51.67,0,0,1,6.59-1c4.45-.1,8.91,0,13.35.2C306.07,4.68,307.54,5.46,309,5.92Z"/><path class="cls-2" d="M425,530l-6.89.24-.32-1.8,7-1.22Z"/><path class="cls-3" d="M322.13,6.84c-3.24,0-6.68,1.81-9.62-1Z"/><path class="cls-4" d="M725.11,143.18l-.7-1.54c-6.13,1.91-12.32,3.65-18.33,5.89-1.17.44-2.28,2.82-2.27,4.3,0,5,.56,10,.9,15.08A47.33,47.33,0,0,1,725.11,143.18Z"/><path class="cls-4" d="M740.53,206.16h0s0,0,0,0l0,0Z"/><path class="cls-4" d="M706.69,182.05c-1.73,7.45-.6,14.7.65,21.94l.18,2.46c-.06,1.49-.23,3-.16,4.47q1.08,23.15,2.26,46.3a12.74,12.74,0,0,0,.78,2.75l.26,4.63c.51,3.85,1.29,7.68,1.49,11.55.53,10.56.82,21.12,1.2,31.68.35,3.54.69,7.08,1.13,11.53a35.51,35.51,0,0,0,4.54-3.17c1.65-1.61,2.93-3.61,4.58-5.23,8.83-8.61,17.54-17.34,26.63-25.66,11.75-10.75,23.45-21.59,35.82-31.58,20.11-16.26,40.27-32.42,58.54-50.8l21-19.5a30.07,30.07,0,0,1,2.68-2.84c6-4.93,12-9.85,18.14-14.66a11.85,11.85,0,0,1,3.09-1.42c-4.59-6.16-8.45-10.34-15.14-10.18-1.63,0-3.28-1.48-5-2.2-1.21-.51-2.49-.88-3.74-1.31l-9.46-3.62-.48,1.07,8.48,7c3.92,7,4.27,14.12.61,21.36a8.66,8.66,0,0,0-.48,1.93l0,.36-.32.19a1.07,1.07,0,0,0-.38.71c-2.27,2.75-4.41,5.62-6.83,8.24-5.6,6.05-13,9.5-20.12,13.23l-2.43.71-.2.21-.28-.1c-6.75.68-13.59,2.38-20.23,1.81-11.32-1-21.82-4.67-28.38-15.12-1.51-2.4-3.09-2.47-5.29-.73-6.69,5.27-14.48,8-22.76,9.6l-2.29.31-2.72.38c-4.22-.1-8.44-.25-12.65-.2-.4,0-.79,1.23-1.18,1.89.75,2.05,1.49,4.09,2.24,6.13,2.27,1.56,3.49,4.3,7,4.5,2.85.15,2.63,3.87-.39,6.52-2.47-.69-5.36-.57-4.09-5,.47-1.63-1.61-4-2.55-6-1.33-1.47-2.69-2.92-4-4.42s-2.38-4.09-4-4.63C722.89,194,714.07,189.79,706.69,182.05Z"/><path class="cls-4" d="M937,223.8c-6.53-21.46-18.87-38.62-36.23-52.39-6.67-5.29-6.92-5.24-13.32.29-15.21,13.16-30.2,26.56-45.46,39.65-19.8,17-40.17,33.34-59.57,50.76-19,17.08-37.15,35.12-55.58,52.83-3.46,3.33-6.33,7.27-9.83,10.53a7.68,7.68,0,0,1-5.65,1.89c-.9-.14-1.65-3.22-1.91-5.05-.35-2.45,0-5-.21-7.48-1.56-22.58-3.21-45.16-4.75-67.75-1.7-25.08-3.3-50.17-5-75.26-.44-6.56-1-13.11-1.59-20.27-2.7,1-4.88,1.69-7,2.6C667.08,164.53,646.72,180,629,198.65c-17.17,18-32.57,37.43-35,63.83-1,10.6-1.74,21.13-.67,31.9l9.6,2.82c3.52-13,19.34-29.49,27.89-29.17a9.64,9.64,0,0,1-1.39,2.53c-3.45,3.13-6.88,6.29-10.52,9.2-6.74,5.37-9.39,12.77-10.32,20.86-.68,5.83,1.57,10.75,6.26,14.46,4.53,3.58,7.91,2.95,10.11-2.33a120.47,120.47,0,0,0,4.46-13.2c.89-3.15,3.19-4,5.65-3.39.86.23,1.31,3.22,1.36,5,0,1.41-1.06,2.82-1.21,4.28-.59,5.57-1.31,11.16-1.35,16.74,0,3,1.57,6,5.07,6.63s5-2.2,6.4-4.61c4.52-7.8,8.47-15.84,10.09-24.85.78-4.35,3.13-7.05,5.17-6,3.54,1.82,1.1,4.59.58,7-2.15,9.9-4.66,19.73-6.33,29.7a21.48,21.48,0,0,0,1.47,11.15c2.25,5.46,8,5.77,10.66.68,4.15-7.8,7.41-15.91,7.64-25a113.26,113.26,0,0,0-3.15-30.21c-.83-3.36-1.47-6.78-2.31-10.69,5.61,1.17,6.47,5.13,7.47,8.71,3.06,11,4.71,22.15,3.83,33.56-.24,3.2.76,4.93,3.88,5.84,10.67,3.12,21.31,6.38,32,9.6,20,6.07,40.08,12.12,60.09,18.29a4.64,4.64,0,0,0,5.3-1.2,186,186,0,0,1,14.53-12.84c7.11-5.45,14.55-10.47,21.93-15.57,2.18-1.5,4.62-2.77,7.71,1.23-1.14.67-2.31,1.28-3.4,2-7,4.67-14.16,9.24-21.1,14.08-9.8,6.83-18.06,15.18-23.79,25.77-2.47,4.55-4.27,9.32-2.1,14.71,4.68.39,8.24-1.53,11.48-4.26a144.34,144.34,0,0,0,29.29-34.42c1.57-2.53,3.2-2.9,6.32-2.14-.42,1.68-.5,3.34-1.22,4.65-2.32,4.22-5.13,8.19-7.29,12.49a76.66,76.66,0,0,0-5.45,13.3c-1,3.43,1.31,5.05,4.62,3.59a16,16,0,0,0,5.68-3.88c5.06-5.9,9.88-12,14.69-18.13,1.23-1.57,2-3.82,4.57-2.53,2.91,1.46,1,3.26.18,5-2.19,4.64-4.43,9.26-6.5,14-1.44,3.25-1.71,6.55,1.29,9.16s6,.92,8.84-.43a41,41,0,0,0,18.79-17.95c1.79-3.29,3.82-6.44,5.74-9.66l1.6.24c.25,1.33,1,2.83.65,4a24.47,24.47,0,0,1-3.57,7.52c-3.76,4.77-8,9.19-12.16,13.94,3.07,2.31,6.61,3.5,10.41,1.64,9.54-4.65,19.29-9,28.35-14.46,13.91-8.4,24.68-20.07,32.67-34.32,7.68-13.69,11.82-28.5,14.64-43.79C942.76,263.45,943,243.64,937,223.8Z"/><path class="cls-3" d="M280.16,171.81l3.69-.33c0,.49,0,1,0,1.46l-3.7-.36A.84.84,0,0,1,280.16,171.81Z"/><path class="cls-3" d="M425.75,520.7c-.08-1-.15-1.92-.23-2.88C425.6,518.78,425.67,519.74,425.75,520.7Z"/><path class="cls-3" d="M757.13,197.65l-2.29.31Z"/><path class="cls-3" d="M408.93,545.61h0Z"/><path class="cls-3" d="M337.17,233.41l-.3.11a1.49,1.49,0,0,1-.08-.4c0-.05.18-.08.28-.12Z"/><path class="cls-2" d="M256.58,557.16l.1-.06h-.15Z"/><path class="cls-2" d="M332.69,225.33h0v0Z"/><path class="cls-2" d="M916.51,349.39a110.05,110.05,0,0,0,21.19-33.45c9.37-22.34,14.11-45.21,10.6-69.56-2.65-18.43-6.24-36.38-17.6-51.83-10.54-14.33-22.56-26.87-39.2-34.16a23.44,23.44,0,0,1-5.68-3,44.11,44.11,0,0,0-13.32-7.86c-4.63-1.66-9.24-3.36-14-4.72-10.5-3-21-6-31.61-8.74-4.17-1.08-8.52-1.47-13.78-2.34,2.33-2.06,3.85-3.31,5.27-4.67,6.36-6.13,12.72-12.26,14.94-21.3.26-1.79.51-3.57.77-5.36-.22-.85-.43-1.71-.65-2.56.12-.51.24-1,.37-1.51.27-1.82.54-3.65.82-5.47-.33-.35-.65-.71-1-1.06l-4.38-1.22-1.51.13-2.6,0L823,89.57l-3.75-.66-9.69-2.17-.42,1.71,9.09,2.36,2.67.78c.22.85.43,1.7.64,2.56-2,3-.67,4.64,2.27,5.65,2,1.69,6.19-.18,6.79,4l-.54,2.65c-.14.47-.28.94-.43,1.41-3.89,10.63-12,17.75-20.61,24.36-1,.79-2.8.86-4.23.86-4.65,0-9.32,0-14-.41a6.56,6.56,0,0,1-4.38-2.43c-6.12-9.41-15.47-14.42-25.27-18.69-4.38-1.9-9-3.61-14-1.59.41,5.87,4.71,9.1,8.3,5.83,2.74-2.5,4.75-1.69,7.09-.55a64.32,64.32,0,0,1,9.1,5.11c4.28,3,8.55,6.18,11,11.63a19.72,19.72,0,0,1-3.54.86c-9.29.41-18.6.57-27.88,1.14-18.72,1.14-37,4.8-54.3,12-32,13.38-60.19,32.54-83.51,58.37-17.92,19.85-27.45,43.3-27.93,70.22-.1,5.45,0,10.91,0,16.63a19.82,19.82,0,0,1-3.83-.42c-13.55-4.53-27-9.32-40.65-13.56-4-1.24-4.85-2.93-4.33-6.76,1.72-12.73-4.26-21.22-15.15-27.12A46.59,46.59,0,0,0,500,237.87c-17.24-.44-31.42,4.92-40.05,20.83-1.51,2.78-3.18,2.72-5.71,1.87-12.43-4.18-24.91-8.22-37.36-12.35-6.4-2.13-12.77-4.33-20.06-6.81,1.82-1.55,2.86-2.48,4-3.37,17.13-13.78,33.91-27.95,47.06-45.8,11-14.94,17.94-31.43,17.93-50.38,0-11.19-2.91-21.65-7.12-31.91-7.05-17.19-15.57-33.36-28.18-47.31-13.52-15-29.34-27-46-38C359.81,8.32,332.89-.41,303.1,0c-17.54.26-35,1.24-52.1,5.15-19,4.33-36.41,12.53-53,22.5-13.16,7.88-25.71,16.68-36.56,27.55-11.82,11.86-23.15,24.19-34.77,36.24a12.29,12.29,0,0,1-4.79,3.3c-4.4,1.39-9,2.28-13.45,3.43-19.5,5-38.5,11.39-56.36,20.8a8.37,8.37,0,0,1-7.59.35c-7-2.72-13.94-5.39-21-7.7a28.78,28.78,0,0,0-9.24-1.2,4.51,4.51,0,0,0-3.35,2.78c-.19,1,1.27,3,2.46,3.52,4.53,2,9.24,3.65,13.87,5.44,3.43,1.33,6.84,2.69,10.87,4.28-1.71,1.24-2.61,2-3.57,2.59a44.88,44.88,0,0,0-16.74,19.29c-2.6,5.78-1.23,8.71,5,8.15a77,77,0,0,0,17.77-4.29c4.21-1.46,8-4.13,12.15-6.35,1,3.68-1.44,8.63,4.18,9.16,3.65.34,7.39-.23,11.09-.4.49,9.18.49,9.18,6.82,12.84a12.19,12.19,0,0,1-.66,2.76c-4.61,9.35-9.43,18.6-13.91,28-5,10.49-10,21-14.51,31.72-7,16.89-13.19,34.13-20.43,50.92a199.84,199.84,0,0,0-15.7,60q-4.08,41.51-7.95,83Q.62,433.85,0,443.82c-.19,3.13,1.35,5.1,4.69,5.17s3.49-2.26,3.71-4.75c.55-6.19,1.93-12.06,5.77-17.26a190.73,190.73,0,0,1,45.55-44.32C81,368,104.28,356.8,127.68,345.93c17.4-8.08,35.24-15.42,51.94-24.78,26.64-14.92,49.07-34.77,64.12-62a34.12,34.12,0,0,1,2.75-3.56c0,2.45.27,4,0,5.43-2.36,11-4.51,22-7.33,32.92-4.54,17.53-9.84,34.88-14.27,52.44-3.69,14.68-6.88,29.49-9.77,44.35-2,10.43-3.27,21-4.67,31.58-.26,1.94-.77,5.08,2.32,5.06,1.63,0,3.37-2.1,4.82-3.5.61-.61.68-1.84.85-2.82a36.25,36.25,0,0,1,8.09-17.37c5.55-6.62,11.2-13.18,16.32-20.12,20-27.16,39.86-54.46,59.78-81.69,2.49-3.4,5.07-6.73,7.61-10.1l1.07.35c.09,1.6.21,3.2.26,4.81.43,14,.68,28,1.32,42,1,21.12,2.62,42.22,3.24,63.35q1.19,40.69,1.14,81.41c0,19.48-1,39-1.58,58.45a21.94,21.94,0,0,1-1,4.22L309,541.59l-1.45,1.27,3.93,6.32-.93,1.09c-1.93-.57-3.92-1-5.8-1.75-21.55-8.17-43.43-8.65-65.59-2.92l-.17.3-.23-.24-8.09,2.49,1.71,1.77c4.7-1,9.38-2.14,14.1-3,17.07-3.32,34-3.15,50.63,2.49a41.07,41.07,0,0,1,4.82,2.33c-1,1-1.59,1.28-2.18,1.21-13.15-1.47-26.16-.35-39.09,2.07-1.42.26-2.67,1.38-4,2.13a18.9,18.9,0,0,0,3.6.09c4-.56,7.94-1.49,12-1.88,4.3-.41,8.64-.45,13-.5,9.33-.11,18.67-.17,27.49,3.58a23.21,23.21,0,0,1,3.58,2.35,7.47,7.47,0,0,1-3.8,1.35c-1.33.15-2.67.19-4,.44a137.32,137.32,0,0,1-50,.43,13.2,13.2,0,0,0-3.42.18,68.56,68.56,0,0,1-6.82.82c-5.79.08-11.59-.15-17.38,0-.79,0-1.55,1.46-2.32,2.25h351c-.53-.82-.91-2.13-1.62-2.35a28.58,28.58,0,0,0-7.33-1.43c-11.13-.28-17.78-7.3-23.3-15.63-8.5-12.85-9.76-26.92-5.86-41.6,1.39-5.23.15-6.76-5.28-6.17-2.43.27-4.84.94-7.26.92-3,0-4.89-1.7-4.88-5,0-9.83.23-19.62,3.23-29.15,1.62-5.13.46-6.78-5-6.8-8.82,0-17.66.14-26.47.67-3.4.21-5-1-5.57-4-1.54-8-3.06-16-4.46-24-.37-2.12-.13-4.34-.43-6.48-.58-4.21-1.43-8.25,4.33-9.91,1.37-.4,2.25-2.74,3.21-4.28,2.08-3.31,3.63-7.06,6.16-10,5.88-6.75,12.07-13.26,18.46-19.54,2-2,4.89-3.19,7.6-4.15,4.25-1.49,7-7.07,5-10.72-2-3.47-8.11-5-11.93-1.7-5.11,4.47-10.65,3.68-16.38,3.59-5.33-.07-10.66-.08-16-.2-5-.11-9.94-4.48-10.32-9.45-.64-8.27-1-16.57-1.47-25.6,5.18-.58,10.37-1.36,15.58-1.59,1.15-.05,2.5,1.72,3.54,2.86a10.76,10.76,0,0,0,11.88,2.72c4-1.52,6.09-5,5.91-9.44-.13-3.13-1.26-5.66-4.48-6.41-2.84-.67-3.71-2.35-3.64-5,.08-3.3,0-6.61,0-9.63,4.79-2,9.29-3.64,13.61-5.7,6.49-3.08,11.12-8.37,15.13-14.12,1.66-2.37,2.91-2.77,5.68-1.8,15.34,5.35,30.8,10.34,46.14,15.68,1.74.6,3.9,2.36,4.33,4,8.22,31.23,28.91,52.33,55.26,69a179.61,179.61,0,0,0,45.92,20.31c.93.28,1.84.63,4,1.39-29.72,18-55.33,39.77-81.09,63.08,5.7,8.25,11.38,17.19,17.78,25.58,16.22,21.28,32.78,42.31,49.17,63.46a11.75,11.75,0,0,1,2,4.54c-11.64-5.7-23.13-11.41-35.81-14.07s-25.39-3-38,1.37c17.86-1.57,35.4-1.08,51.72,7.12,0,.57-.05,1.14-.08,1.71-4.3-.19-8.8.37-12.85-.74-8.22-2.26-16.12-.37-24.15.45-6.54.6-12.44,3-18.14,6.18a77.1,77.1,0,0,0,10.85-2c2.77-.7,5.47-1.62,8.21-2.45l13.46-.28v.31l.34-.08c5.34.55,10.7,1,16,1.69a16.6,16.6,0,0,1,6,2.13c-10.38,1.27-19.2,5.58-27.14,11.9-10.89-.09-21.78-.19-32.67-.22-.66,0-1.31.61-2,.94h42c1-1.07,1.83-2.53,3.07-3.13A47.21,47.21,0,0,1,676,559.83c4.07,1.14,8,2.94,11.92,4.49.15.06.09.68.13,1-14.12,0-28.24-.07-42.35,0a20.56,20.56,0,0,0-4.16.87h176c-.9-2.08-.9-2.15-3.4-2.18-4.89,0-9.79,0-14.68,0l-.22-1.51,9.78-2.44,10.11-1.78c10.9-.39,21.84-1.54,32.67-.84,5.6.36,11,4,16.46,6.17,1.31.53,2,1.3.17,2.17a9.06,9.06,0,0,0-1.93-.43q-19.23,0-38.47,0c-.5,0-1,.56-1.49.86h46a.5.5,0,0,1,.25-.75c-5.14-7.71-13.51-8.85-21.58-10.59l-.19-.29-.21.27-5.72-.15-10.1-.05-7.7.2-.22-.25-.15.34.05,0-.05,0-6.78.74c-5.31-1.15-10.11.74-14.93,2.51l-3-.22A132.91,132.91,0,0,1,845,542l3.27-1.25,5.65-.79c3.44-.39,6.9-.68,10.32-1.19,6.18-.91,12.34-1.94,18.52-2.92-9.63-2.82-19.07.86-28.61,1-.43,0-.86.77-1.28,1.19l-8.67,1.29-1.41.48c-12.83,2.25-25,6.58-36.87,11.85a42.25,42.25,0,0,1-4.75,1.49l-1-1.44a785.87,785.87,0,0,1,76.09-90.75c-27-23.2-55-43.95-87.46-59.95a14.54,14.54,0,0,1,2.14-1.16,33.86,33.86,0,0,1,3.41-.71c18.28-2.73,36.09-7.4,53.77-12.69a13.77,13.77,0,0,1,7.29,0c19.51,5.46,39,11.2,58.44,16.71,2.67.75,5.55.71,9,1.12-1.25-7.39-6.22-9.24-11-10.79-13-4.15-26-8-39-12a20.19,20.19,0,0,1-3.41-2c6-2.83,11.39-5.29,16.7-7.88A103.67,103.67,0,0,0,916.51,349.39Zm-790-252.62c3.12-3.78,6.68-7.21,10.17-10.67,8.41-8.35,16.61-16.92,25.4-24.84,15.77-14.2,32.35-27.4,51.2-37.44a20,20,0,0,1,2.78-1h.23c4.43-2.11,8.7-4.64,13.3-6.24,8.54-3,17.15-6,26-7.87,8.49-1.79,17.29-2.13,25.95-3.11l3.09-.2a51.67,51.67,0,0,1,6.59-1c4.45-.1,8.91,0,13.35.2,1.52.08,3,.86,4.49,1.32l3.47-.11,9.62,1a.39.39,0,0,1,.64-.2c8.67-.44,16.6,2.56,24.55,5.37,16.88,6,32.12,15,46.45,25.55,23.31,17.18,42.61,37.79,54.6,64.59C454.1,115,459.55,128,458.82,142.26a85.83,85.83,0,0,1-5.18,25.14c-7,18.86-19.36,34.25-34.27,47.56-5.79,5.16-11.93,9.93-17.91,14.88a1.26,1.26,0,0,1-.72.56c-4.05,3.41-7.25,8.4-15,7.72l3.67-6.79,3.75-9.28a91.66,91.66,0,0,0,1.44-9.13c.07-.86-1.3-1.83-2-2.75-1,.85-2.54,1.5-3,2.58-2.7,6.57-4.56,13.57-7.94,19.74-2,3.68-6.08,6.41-9.67,8.95-1.4,1-4.6,1.13-5.88.18s-1.74-3.82-1.56-5.75,1.59-3.89,2.49-5.81a13.52,13.52,0,0,0,1.51-3.05,44.62,44.62,0,0,0,.34-5.56l-6.13.64-.25.34c-3,11.28-9.49,20.07-19,27.64-2.32-4.48-3.63-8-2.16-12.65,3-9.38,7.56-17.91,12.44-26.35a16.23,16.23,0,0,0,1-2.95c-3.32-1.46-5.77-1.22-7.94,1.71A47.72,47.72,0,0,1,342,214.7l-.07,0c-1.55,4.87-4.31,8.67-9.24,10.58.82,4.48-2.45,7.17-4.91,9.81-5.42,5.8-11.28,11.22-17.15,16.58-1.56,1.43-3.84,2.06-6.41,2.44,1.36-16,10.65-27.32,20.87-38.15l1.32-1.17c5.07-3.62,10-7.55,15.27-10.79,7.74-4.71,15.81-8.91,23.68-13.41.59-.34.77-1.38,1.15-2.09l-1.33-1.32c-4.89,1.94-10.1,3.33-14.58,5.95-8.63,5-17.45,10.06-25,16.45-6.18,5.21-11.61,5.21-18.51,2.73-28.84-10.37-57.79-20.46-86.69-30.69-1.37-.48-2.62-1.28-5.12-2.51a69.11,69.11,0,0,1,7.56-1.93c11.53-1.41,23.07-3.58,34.62-3.66,5.78,0,11.54.26,17.29-.61a1.69,1.69,0,0,1,.49.09l4.9-.46a.84.84,0,0,1,.05-.77l-.28-.23c-4.3.21-8.42.35-12.07-3-1-.94-4.6-.64-5.74.44-2.54,2.39-5.26,2.38-8.25,2.33-3.31-.06-6.62,0-9.94,0l-3.44.47-23.57,2.71-4.3,1.13c-4.63,2.4-8.76-.29-12.94-1.46-4.79-1.34-9.37-3.42-14.16-4.79-2.68-.77-3.39-2.3-3.26-4.72.4-7.84.13-15.57-3.18-22.92-.44-1,.31-2.46.55-3.93l-5.51-3c-.71,1.78-1.35,3.36-2.18,5.43,5.25.78,6.23,4.39,6.33,8.36.14,5.73,0,11.47,0,17.9-7.46-2.54-14.51-4.84-21.5-7.34-17.81-6.36-35.57-12.85-53.39-19.2-5.34-1.9-5.41-2.3-2.69-7.08C108.06,120,117.06,108.23,126.52,96.77ZM337.17,233.41l-.3.11a1.49,1.49,0,0,1-.08-.4c0-.05.18-.08.28-.12ZM190.3,181.09,177,185.49C178.72,175.75,180.84,175,190.3,181.09Zm-16.64,28.44c-4.23-2-7-2-14.53-.21-1.73-3.09.49-4.92,2.57-6,4.52-2.3,9.15-4.9,14-5.89,11.3-2.28,22.75-3.15,34,1,8.69,3.24,16.43,8.06,22.39,15.17,6.49,7.74,6.44,19.67.87,29.57-5.29,9.41-13.92,14.71-23.3,18.63-18,7.49-36,6.15-52.89-3.11-7-3.85-13.42-9.4-15.24-18.2-1.38-6.65-.49-12.46,5.59-16.67a71.25,71.25,0,0,0,5.81-5c4.61,8.59,12.82,11,21.21,6.51a8.53,8.53,0,0,0,4.75-8.58C178.68,213,176.65,211,173.66,209.53Zm-7.22-24.35a30.28,30.28,0,0,1-13.08-6.34c-7.1-5.89-15.88-8.71-25.1-9.82-4.94-.59-9.88-1.25-14.83-1.67-9.13-.78-17.81,1.54-26.46,4-2,.56-4,.7-7,1.21.72-2.59.89-4.24,1.6-5.6,3.12-6,6.47-11.92,9.6-17.94,1.4-2.69,2.8-3.25,5.93-2.1,14.66,5.36,29.47,10.29,44.21,15.45,10.48,3.67,20.92,7.46,31.37,11.21,2.46.88,3.64,2.32,2,4.92-1,1.55-1.95,3.08-2.81,4.69C170.61,185.55,169,185.78,166.44,185.18Zm-93.7-42.79c-2.89,2.82-5.69,5.76-8.77,8.36a3.65,3.65,0,0,1-3.54-.21c-.63-.55-.72-2.6-.18-3.44,3-4.7,6.2-9.23,9.34-13.82,2.51-3.44,5.18-6.77,7.41-10.38.66-1.07.6-3.83,0-4.19-1.28-.73-3.21-.44-4.85-.32-.47,0-.91.89-1.33,1.41-2.35,2.92-4.6,5.93-7,8.79-9.14,10.7-19.65,19.35-34,22-1.9.36-3.92,0-6.56,0,3.46-6.95,8.31-11.38,13.24-15.73,11.92-10.52,26.17-16.66,41-21.8,11.28-3.93,22.53-8,33.81-11.89a17.85,17.85,0,0,1,7.54-1c-2.9,3.55-5.71,7.17-8.73,10.62-12.35,14.12-21.44,30.28-29.76,47a31.85,31.85,0,0,1-3.46,4.65l-1.74-.95a32.79,32.79,0,0,1,1.78-5.72c4-7.62,8.36-15.09,12.32-22.74,1-2,1.06-4.4,1.55-6.62a.41.41,0,0,1-.36-.33c-3.58-.72-5.84.9-7.59,3.92a88.91,88.91,0,0,1-6,9C75.76,140.36,74.11,141.27,72.74,142.39Zm-8.87,62.54c1.8-4.43,3-9.11,4.71-13.58,2.27-5.91,6.94-9.52,12.38-12.39,20-10.54,40.33-9.44,60.78-1.66,3.17,1.2,5.95,3.43,9.76,5.68-7.29,2.09-13.36,3.27-19,5.55-11.63,4.72-22.36,11.05-31.52,19.82-1.56,1.5-3.64,2.47-6.26,4.21l-.57,4.22c3.56-1,5.74-2.18,7.55-5.9s6.81-6,10.53-8.76a39.74,39.74,0,0,1,5.05-2.77c.35.67.69,1,.61,1.24-3,8.11-.08,13.43,8.51,14.37a27.58,27.58,0,0,0,10.74-.86c5.16-1.55,7.5-5.63,7.21-10.62-.28-4.73-2.5-7.17-8-8.85a14.72,14.72,0,0,1-4-1.84,46.85,46.85,0,0,1,19.5-4.93c1.44,0,3.56,1.9,4.24,3.42a12.5,12.5,0,0,1-3.38,14.11,50.78,50.78,0,0,0-13.56,17,15.3,15.3,0,0,1-4.72,4.9c-6.74,4.94-14,8.9-22.58,9.3a176,176,0,0,1-18.94.13c-10.88-.67-19.73-6-26.37-14.26A16.85,16.85,0,0,1,63.87,204.93Zm249.61,74.36c-3,1.66-5.49,4.56-7.74,7.3-3.43,4.2-6.46,8.73-9.67,13.11-2.11,3.51-3.95,7.23-6.39,10.49-5.73,7.64-11.75,15.06-17.65,22.56-2.26,3.25-4.48,6.54-6.79,9.75-10.85,15.11-21.65,30.26-32.65,45.26-3.51,4.77-7.61,9.12-12.22,14.58-.33-2.14-.71-3-.55-3.83,3.25-16.62,6.12-33.34,10-49.81,3.23-13.72,7.84-27.11,11.52-40.73,4.11-15.22,8.21-30.46,11.59-45.86,1.28-5.85.8-12.16.52-18.24a6.29,6.29,0,0,0-3.64-4.59c-2.69-.79-3.51,1.72-4.53,4.06C238,260,227.6,274.49,215.52,288c-12.4,13.83-27.34,24.36-43.52,32.92-16.41,8.7-33.57,16-50.38,23.95-20.75,9.82-42,18.8-61.1,31.65a168.27,168.27,0,0,0-23.2,19.4c-9.49,9.25-18.23,19.26-27.32,28.93a20.46,20.46,0,0,1-2.76,1.8c.48-5.22.83-9.39,1.26-13.55.92-8.76,1.9-17.51,2.83-26.27,2.45-23,4.21-46.05,7.63-68.87,1.66-11,5.85-21.81,9.9-32.32,7.87-20.41,16.42-40.56,24.75-60.79,1.22-3,2.78-5.77,4.58-9.48C65.43,234,80,239.28,97.25,240.2c10.39.55,20.61.21,30.24-4.58,1.78-.88,4.19-.48,6.58-.7a19.45,19.45,0,0,1,1,3.5c.91,12.19,9.12,18.71,18.81,23.83,14,7.39,28.92,10.51,44.43,7,16.75-3.77,32-10.61,40.21-27.2,8.38-16.85,4-28.39-9.56-39.46A51.3,51.3,0,0,0,196.17,191c-7.7,0-15.4.61-24.24,1l13.34-5.61c.15-.07.35,0,.48-.12,10-6.14,19.37-1.06,28.61,2.13,22.74,7.86,45.34,16.17,68,24.2,8.92,3.16,17.94,6,27.93,9.4-1.46,2.88-2.85,5.35-4,7.93-2.82,6.31-5.7,12.6-8.21,19-1.43,3.64-.05,7,3,9.28a7.7,7.7,0,0,0,10.15-.41c7.26-6.52,14.18-13.42,21.22-20.19.7-.68,1.27-1.49,2-2.17.18-.18.62-.09,1.45-.19-.61,3.07-1.06,6-1.82,8.9-.93,3.5-.77,6.68,2.37,8.94,2.75,2,7.9,1.64,10.87-.57,3.3-2.46,6.5-5.05,10.25-8,3.72,4.58,9.2,3.7,15.62,3.58-1,1.92-1.25,3.59-2.23,4.27a176.43,176.43,0,0,1-44.85,22.39C321.85,276.19,317.35,277.17,313.48,279.29Zm42.29,276.45c-.09,2-.3,3.89-2.75,3.91-9.93.09-19.86,0-30.15,0,0-4.76-.13-9.71,0-14.65,1.5-48.79.37-97.55-1.37-146.31-.82-23-1.58-45.91-2.4-68.87-.52-14.3-1.15-28.6-1.55-42.9,0-1.55.72-4.06,1.81-4.55,10.73-4.79,21.61-9.24,33.53-14.24,0,9.55.1,18.33,0,27.11-.31,21.82-1.49,43.65-.91,65.43.89,33.77,2.26,67.55,4.69,101.24C358.93,493.3,357.3,524.49,355.77,555.74Zm8-19.46c-.44-27-.57-53.94-1.47-80.89-1.15-34.11-3.72-68.18-4.21-102.29-.41-28.11,1.31-56.25,2.05-84.38.09-3.4,1.16-5.65,4.44-7.45,6.39-3.49,12.32-7.81,18.61-11.48a7.35,7.35,0,0,1,5.38-.59c11.83,3.89,23.57,8,35.34,12.11,10,3.49,20,7,30.56,10.72a29.77,29.77,0,0,0,.28,5.08c1.12,5.13,1.11,11.18,4,15.13,6.11,8.48,6.25,17.92,7.22,27.41.1,1,0,2,.18,3,.92,5.93.93,5.93-5.23,6.37a79.52,79.52,0,0,1-9,.54,19.74,19.74,0,0,1-6.93-1.49c-3.5-1.53-7.63-1.32-10.27,1.12-2.48,2.28-2.44,5.21-.49,8a19.69,19.69,0,0,1,3.33,6.88c2.65,12.17,5.05,24.39,7.43,36.62.23,1.17-.4,2.5-.4,3.75,0,1.55-.35,3.8.48,4.49,1.36,1.12,3.54,1.5,5.42,1.66,1.2.1,2.45-1,3.73-1.17,6.41-1.05,7.57.21,6.37,6.59-.46,2.45-.41,5-1.17,7.38a50.26,50.26,0,0,1-4.18,9.84c-2.16,3.71-2.05,7.31,1,10.38.78.79,1.82,1.65,2,2.63,1.93,9.26,3.77,18.54,5.46,27.85.31,1.73-.17,3.59-.32,5.9-5.94.29-11.7.45-17.45.89-4.31.33-8.62.84-12.88,1.59-5.51,1-6.89,3.4-5.22,8.79,1.37,4.45,3,8.81,4.33,13.27a54.18,54.18,0,0,1,1.13,6.36L418,495.77c2.57,7.53,5.06,14.79,7.54,22.05.08,1,.15,1.92.23,2.88l-1,6.47L425,530c-.88,3-1.56,6-2.68,8.87-3,7.65-3.06,7.63-11.16,6.78h-2.26c-5.93.37-11.88.56-17.79,1.16s-11.59,1.59-17.38,2.41c-.18-.45-.35-.9-.53-1.36,7.14-3.23,14.16-6.76,21.44-9.61,7.69-3,15.64-5.37,23.47-8l-.32-1.8c-14.12,3.13-27.9,7.31-40.83,13.89-4.24,2.16-8.19,4.88-13.18,7.88C363.81,545,363.88,540.66,363.8,536.28Zm6.3,23.77c0-.43-.07-.86-.1-1.29l28.79-2c0,.46,0,.92.07,1.38C389.51,562,379.66,559,370.1,560.05Zm41-4.47v.29l-.26-.16c-9.23-.49-18.46-1.08-27.7-1.41-2.37-.09-4.76.78-7.15,1a6.86,6.86,0,0,1-3.55-1,115.06,115.06,0,0,1,43.94-5.52Zm85.7-90.85c5.43-.27,10.88-.4,16.32-.37,5.89,0,7.86,2.72,7.15,8.56a175.32,175.32,0,0,0-1.68,19.78c-.07,8.11,1.66,9.47,9.7,9.6,1.81,0,3.62,0,6.24,0-.44,3.8-.55,7.2-1.26,10.48-3.1,14.25,2,26.29,9.69,37.75,1.79,2.68,3.23,5.6,5.07,8.81-8.47,2.73-16.36,1.54-24.24,1.4-12.1-.21-24.21,0-36.32.1-8.82,0-17.64.2-26.46.08-5.81-.09-11.62-.38-17.4-.93-8.34-.79-16.64-1.91-25.63-3,1.78-3.94,2.06-7.47,6.39-8a3.14,3.14,0,0,0,2.08-1.81c2.43-7,5.64-13.89,6.73-21.1.73-4.76-1.44-10-2.7-15a44.61,44.61,0,0,0-3.32-7.71c-1.62-3.43.14-5.32,2.92-6.81a9.65,9.65,0,0,1,1-.26c9.12-3.41,9.4-4,6.37-13.44a50,50,0,0,1-1.8-6.66c-1.24-7.09-1.2-7.17,5.47-9a25.83,25.83,0,0,1,6.37-.89c9-.15,18,0,27-.27C481.91,465.87,489.36,465.1,496.82,464.73Zm-21.6-89.89c11.82-.3,23.63-.7,35.45-1a21.6,21.6,0,0,1,3.78.57c.22.41.43.82.65,1.22-3.85,4.06-7.59,8.22-11.57,12.13-4.16,4.08-8.42,8.06-12.9,11.76-1.63,1.34-4,1.78-6.09,2.55-2.59.95-5.52,1.35-7.75,2.82-5,3.28-5,7.46-.77,11.45a7,7,0,0,1,2.32,3.8c1.25,11.75,2.29,23.52,3.36,35.29.11,1.3,0,2.61,0,3.83-6.29,1.84-7.23,1.53-9.62-3.59a74.12,74.12,0,0,1-6.85-29.45c-.06-1.85.83-3.81,1.57-5.6,1.15-2.82,1.31-5.24-.72-7.91a8,8,0,0,1-1.08-5.35c.61-4.77,1.64-9.49,2.59-14.22.29-1.43.53-3.09,1.41-4.12,1.83-2.14,3-4.41.85-6.58a6.36,6.36,0,0,0-8.24-1.06c-.57.34-1,.91-1.59,1.2-4.47,2.27-8.66.61-9.6-4.23-2.33-12.08-4.41-24.21-6.5-36.33-.46-2.7,2.12-6.4,5.11-6.81,5.88-.82,11.82-1.16,18-1.73.72,8.82,1.5,17.06,1.95,25.32.07,1.19-1.34,2.54-2.23,3.68s-2.2,2-3,3.25c-2.76,4.1-1.71,7.48,3.07,8.73C469.47,375.16,472.41,374.91,475.22,374.84Zm15.67-48.93c-.32.07-.66.06-1,.1l-16.59,1.67c-.42-7.95-.8-15.2-1.23-23.14,2.8.44,5.14.94,7.51,1.14,4.31.37,8.63.74,12.94.77,3,0,4.32,1,4.13,4.06-.16,2.64,0,5.31,0,8A7.15,7.15,0,0,1,490.89,325.91Zm33.67-38.43c-5.24,7.79-13.6,12-22.67,14.42a11.53,11.53,0,0,1-3.4-.13l-4,.25c-3.87,0-7.81.46-11.61-.07-7.28-1-13.73-4.08-18.24-10.14-3.94-5.3-4.14-11.36-2.89-17.62,1.68-8.46,8.93-16.32,16.65-17.91l8.16-1.24,10,.31,1.79.28,2.29.63c5.32,1.75,9.16,5.31,12.13,9.92,3.32,3.38,2.1,7.3.5,10.61-4.19,8.71-10.7,15-20.92,15.38a22.29,22.29,0,0,1-14.94-4.61c-5.2-4.12-4.17-15.37,1.6-18.83a14.15,14.15,0,0,1,15.11-.09c1.68,1,3.37,3.71,3.27,5.54-.14,2.41.4,6-3.28,7-2.32.64-4.21,3.55-7.16.94s-3-5.22-2.08-8.76l-4.44,3.38c1.5,4.1,2.91,8.07,7.6,8.38,5.68.39,11.26-1.14,13.75-6.6,1.27-2.78,0-6.71-.12-10.13l-2.74-3-10.43-3.52-9.92.85a44.3,44.3,0,0,1-3.56,3.3c-9.39,7-8.77,21,1.75,26.2,5.18,2.54,11.32,3.11,17,4.57l2.7-.67c3.22-1.51,6.44-3,9.68-4.54,6.36-2.93,9.77-8.49,12.13-14.57,3.6-9.32-2.2-19.34-12.95-23.62-10.95-4.37-21.77-3.64-32.59.38a19.35,19.35,0,0,1-2.37.66c-.11,0-.27-.17-.71-.47,2-4.92,6.17-7.77,10.68-9.28,11.88-4,24.19-4.47,35.47,1.36C533.4,255.18,536.13,270.28,524.56,287.48ZM856.2,147.19l9.46,3.62c1.25.43,2.53.8,3.74,1.31,1.67.72,3.32,2.24,5,2.2,6.69-.16,10.55,4,15.14,10.18a11.85,11.85,0,0,0-3.09,1.42c-6.1,4.81-12.13,9.73-18.14,14.66a30.07,30.07,0,0,0-2.68,2.84l-21,19.5c-18.27,18.38-38.43,34.54-58.54,50.8-12.37,10-24.07,20.83-35.82,31.58-9.09,8.32-17.8,17.05-26.63,25.66-1.65,1.62-2.93,3.62-4.58,5.23a35.51,35.51,0,0,1-4.54,3.17c-.44-4.45-.78-8-1.13-11.53-.45-4.88-1.05-9.75-1.33-14.64-.55-9.52-.92-19.06-1.36-28.59L710.4,260a12.74,12.74,0,0,1-.78-2.75q-1.18-23.15-2.26-46.3c-.07-1.49.1-3,.16-4.47l-.18-2.46c-1.25-7.24-2.38-14.49-.65-21.94,7.38,7.74,16.2,12,25.8,15.09,1.67.54,2.69,3.06,4,4.63s2.67,3,4,4.44L738.29,200c.39-.66.78-1.89,1.18-1.89,4.21,0,8.43.1,12.65.2l2.72-.38,2.29-.31c8.28-1.56,16.07-4.33,22.76-9.6,2.2-1.74,3.78-1.67,5.29.73,6.56,10.45,17.06,14.15,28.38,15.12,6.64.57,13.48-1.13,20.23-1.81l.2-.31.28.2,2.43-.71c7.15-3.73,14.52-7.18,20.12-13.23,2.42-2.62,4.56-5.49,6.83-8.24a1.07,1.07,0,0,1,.38-.71l-.09-.42.39-.13a8.66,8.66,0,0,1,.48-1.93c3.66-7.24,3.31-14.35-.61-21.36l-8.48-7ZM790.53,158c1.73,7.31-.07,12.53-4.46,18C785.12,169.24,785.52,163.69,790.53,158Zm65.34-4.3c6.72,6.41,8,12.87,4,21.18-5.92,12.45-15.87,20-29.07,23.74-11.34,3.18-22,1.06-32.38-3.56-5.21-2.31-8-6.87-10.1-11.82-.47-1.12.48-3,1.1-4.38,1.83-4,4.31-7.87,5.58-12.08.81-2.65-.14-5.82-.23-8.76-.06-1.74,0-3.48.06-5.22l1.42.26c-.11,11.81,9.75,14,20.66,9.67,7.51-3,9.3-10.51,4.08-15.81-1.44-1.45-3.4-2.39-5-4C830.48,142.38,844.58,142.94,855.87,153.72Zm-64.64-17.5c3.41-.14,6.83,0,10.24,0l.42,1.71-5.54,4.9.81,1.21c2-1.18,4.07-2.22,5.91-3.58,3.81-2.82,7.65-4.45,12.24-1.36l-21.23,7.84c.27-.48.73-1.3.83-1.49a50.54,50.54,0,0,1-5.52-5.24C787.76,138.12,788.33,136.34,791.23,136.22ZM768.18,141c-2.44,2.12-5.75,4.11-7.77,7a8.59,8.59,0,0,0,1,11.1c3.69,3.94,8.68,4,13.47,2.53,5.44-1.68,9.2-5.21,9.67-11.42,3.35,2.13,3.74,4,1.43,7.35-3.93,5.66-4.42,12.5-4.09,19.16.17,3.55-1.23,5.38-3.74,7.4-11.34,9.15-24.44,11.27-38.45,10.21-3.49-.27-4.63-1.92-5-5.41-1.6-16.92,6.66-29.6,17.24-41.36,1.22-1.36,2.56-2.61,3.82-3.92C760,139.32,762.82,138.81,768.18,141Zm-13.85-.65c-13.67,14.8-24.85,30.33-21.88,51.81-21.3-2.21-26.78-20.57-17-34.91C724.43,144,738.46,139.81,754.33,140.36Zm-48.25,7.17c6-2.24,12.2-4,18.33-5.89l.7,1.54a47.33,47.33,0,0,0-20.4,23.73c-.34-5-.88-10.06-.9-15.08C703.8,150.35,704.91,148,706.08,147.53ZM850.33,445.79c4.8,3.84,9.5,7.8,14.18,11.78,4,3.4,4.1,3.59.81,7.45-7.53,8.84-14.9,17.86-22.92,26.24-13,13.59-24.62,28.29-35.89,43.3-5.79,7.69-11.7,15.29-17.35,23.07-1.7,2.34-2.69,5.18-4,7.8H693.93c-1.76-8.92-7.65-15.57-12.88-22.4-15.83-20.7-32.16-41-48.08-61.67-4.24-5.5-7.8-11.53-11.52-17.42-1.68-2.64-1.42-4.77,1.17-7.37C638.36,440.75,655,426,674,414.22c6.48-4,12.46-8.84,18.61-13.39A14.19,14.19,0,0,1,704.91,398a267.9,267.9,0,0,0,69.61,3.85,18.35,18.35,0,0,1,9.49,1.77C807.24,415.87,829.74,429.35,850.33,445.79ZM835.55,385.1c-3.88,1.16-7.71,2.51-11.64,3.44-27.28,6.44-54.81,10.94-83,9.2-27.6-1.71-54.44-7-79.33-19.55-24.11-12.18-45.21-28-58.74-52.12-3.43-6.1-5.45-13-8.26-19.88,6.55-.16,8.13.78,10.06,5.29,3.55,8.33,12.3,11.87,22.58,8.68.34,5.6,2.48,10.31,7.63,13,6.06,3.12,9.41-1.78,13.94-5.45.21,3.28.4,5.84.52,8.41.3,6.19,4.11,10.12,9,13s10,1.08,12.78-3.83a48.23,48.23,0,0,0,4.17-8.47c1.29-3.93,3.77-4.11,7-3.13,6.51,2,13,4,19.54,5.91,13.2,4,26.41,7.82,39.59,11.83,9.63,2.93,19.21,6,28.82,9,2.81.88,3.69,2.18,2.11,5.15a32.49,32.49,0,0,0-3.32,9.28c-.92,5.15,2.59,9,7.83,9.25,6.61.29,11.51-3.73,16.72-6.85a68.29,68.29,0,0,0,6.53-5.05,27.31,27.31,0,0,1,3.19,2.82c3.84,4.66,7,5.71,11.84,2.85a8.31,8.31,0,0,1,8.47-.53c4.18,2,8.25,4.25,12.36,6.4Zm27.84-9c-3.8,1.86-7.34.67-10.41-1.64,4.2-4.75,8.4-9.17,12.16-13.94a24.47,24.47,0,0,0,3.57-7.52c.38-1.13-.4-2.63-.65-4l-1.6-.24c-1.92,3.22-4,6.37-5.74,9.66a41,41,0,0,1-18.79,17.95c-2.82,1.35-5.86,3-8.84.43s-2.73-5.91-1.29-9.16c2.07-4.7,4.31-9.32,6.5-14,.81-1.72,2.73-3.52-.18-5-2.58-1.29-3.34,1-4.57,2.53-4.81,6.11-9.63,12.23-14.69,18.13a16,16,0,0,1-5.68,3.88c-3.31,1.46-5.59-.16-4.62-3.59a76.66,76.66,0,0,1,5.45-13.3c2.16-4.3,5-8.27,7.29-12.49.72-1.31.8-3,1.22-4.65-3.12-.76-4.75-.39-6.32,2.14a144.34,144.34,0,0,1-29.29,34.42c-3.24,2.73-6.8,4.65-11.48,4.26-2.17-5.39-.37-10.16,2.1-14.71,5.73-10.59,14-18.94,23.79-25.77,6.94-4.84,14-9.41,21.1-14.08,1.09-.72,2.26-1.33,3.4-2-3.09-4-5.53-2.73-7.71-1.23-7.38,5.1-14.82,10.12-21.93,15.57a186,186,0,0,0-14.53,12.84,4.64,4.64,0,0,1-5.3,1.2c-20-6.17-40.05-12.22-60.09-18.29-10.64-3.22-21.28-6.48-32-9.6-3.12-.91-4.12-2.64-3.88-5.84.88-11.41-.77-22.59-3.83-33.56-1-3.58-1.86-7.54-7.47-8.71.84,3.91,1.48,7.33,2.31,10.69a113.26,113.26,0,0,1,3.15,30.21c-.23,9.13-3.49,17.24-7.64,25-2.71,5.09-8.41,4.78-10.66-.68A21.48,21.48,0,0,1,654.82,330c1.67-10,4.18-19.8,6.33-29.7.52-2.38,3-5.15-.58-7-2-1-4.39,1.66-5.17,6-1.62,9-5.57,17.05-10.09,24.85-1.39,2.41-2.89,5.25-6.4,4.61s-5.08-3.6-5.07-6.63c0-5.58.76-11.17,1.35-16.74.15-1.46,1.25-2.87,1.21-4.28,0-1.75-.5-4.74-1.36-5-2.46-.64-4.76.24-5.65,3.39a120.47,120.47,0,0,1-4.46,13.2c-2.2,5.28-5.58,5.91-10.11,2.33-4.69-3.71-6.94-8.63-6.26-14.46.93-8.09,3.58-15.49,10.32-20.86,3.64-2.91,7.07-6.07,10.52-9.2a9.64,9.64,0,0,0,1.39-2.53c-8.55-.32-24.37,16.15-27.89,29.17l-9.6-2.82c-1.07-10.77-.31-21.3.67-31.9,2.44-26.4,17.84-45.78,35-63.83,17.74-18.66,38.1-34.12,61.95-44.5,2.08-.91,4.26-1.6,7-2.6.57,7.16,1.15,13.71,1.59,20.27,1.69,25.09,3.29,50.18,5,75.26,1.54,22.59,3.19,45.17,4.75,67.75.17,2.49-.14,5,.21,7.48.26,1.83,1,4.91,1.91,5.05a7.68,7.68,0,0,0,5.65-1.89c3.5-3.26,6.37-7.2,9.83-10.53,18.43-17.71,36.57-35.75,55.58-52.83,19.4-17.42,39.77-33.77,59.57-50.76,15.26-13.09,30.25-26.49,45.46-39.65,6.4-5.53,6.65-5.58,13.32-.29,17.36,13.77,29.7,30.93,36.23,52.39,6,19.84,5.78,39.65,2.07,59.71-2.82,15.29-7,30.1-14.64,43.79-8,14.25-18.76,25.92-32.67,34.32C882.68,367.09,872.93,371.43,863.39,376.08Z"/><path class="cls-2" d="M883.24,536c-.14-.06-.3-.18-.43-.16h0l.41.11Z"/><path class="cls-3" d="M416.42,548.69v0l.29-.12Z"/><polygon class="cls-3" points="410.85 555.71 410.85 555.39 411.12 555.58 411.11 555.87 410.85 555.71"/><polygon class="cls-3" points="834.27 201.98 834.07 202.19 833.79 202.09 833.99 201.78 834.27 201.98"/><polygon class="cls-3" points="864.33 178.54 864.35 178.9 864.03 179.09 863.94 178.67 864.33 178.54"/><path class="cls-3" d="M111.49,132.94l-.35-.28c.13-.07.27-.2.4-.18s.24.16.36.25Z"/><path class="cls-1" d="M747.17,217.18c-2.47-.69-5.36-.57-4.09-5,.47-1.64-1.64-4-2.57-6.08,2.29,1.55,3.5,4.31,7,4.51C750.41,210.81,750.19,214.53,747.17,217.18Z"/><path class="cls-1" d="M474.93,546.2c-8.81,1.16-17.47-3.3-25.43-9.57-4.51-3.56-5-8.94-4.69-14,.53-7.94,4.32-14.74,9.44-20.76,4.18-4.91,9.68-7.55,15.85-9a30.44,30.44,0,0,1,17.63.69c9.83,3.57,16.06,10.4,20.24,20.12,3.54,8.21-.87,21.3-8.31,25.62A49.49,49.49,0,0,1,474.93,546.2Zm.64-26.25c-8.33-.73-15.55-1.55-22.79-1.85-1.22-.05-3.29,1.93-3.63,3.31a12.18,12.18,0,0,0,.36,6.71c3,8.29,10.16,11.49,17.9,13.63a3.88,3.88,0,0,0,3.31-1.9C472.43,533.7,473.79,527.45,475.57,520Zm17.2,1v-.08c-2.15,0-4.31-.13-6.46,0-5.26.39-6.15,1.21-7.33,6.26-.6,2.58-1.24,5.15-1.85,7.73-1.39,5.83,1.1,8.7,7,7.15a37.68,37.68,0,0,0,12.6-5.55c3-2.21,5.28-5.91,6.87-9.41,1.7-3.74-.11-5.82-4.32-6.11C497.09,520.85,494.93,521,492.77,521Zm11.12-4.12c-3-9.77-8.16-16.23-17-19.4-1.78-.63-3.81-1.52-4.52,1.06-1.63,5.9-2.66,11.91-1.62,18.34Zm-25.95-19.27c-11.35-1.65-22.27,5.59-24.22,15.38,6.34,3.5,13.44,2.55,20.25,3.15.68.07,2-1.33,2.17-2.18C476.87,508.58,477.35,503.2,477.94,497.58Z"/><path class="cls-1" d="M92.25,219.17l-.19.33a.8.8,0,0,1-.09-.36c0-.11.12-.22.18-.32Z"/><path class="cls-6" d="M375.55,224.4a25.26,25.26,0,0,0,.4,3.16,5.43,5.43,0,0,0,1,1.9c.42.54,1.51,1.19,1.42,1.38a4.83,4.83,0,0,1-1.75,2.14c-.43.22-1.45-.35-2-.79-3-2.35.14-5.07-.72-7.58Z"/><path class="cls-6" d="M368,238.22a38.4,38.4,0,0,1,2.53-4.9c.16-.23,1.85.59,2.83.92q-1.5,2.59-3,5.19Z"/><path class="cls-6" d="M448.37,102.15c-12-26.8-31.29-47.41-54.6-64.59C379.44,27,364.2,18,347.32,12c-7.95-2.81-15.88-5.81-24.55-5.37a.39.39,0,0,0-.64.2c-3.24,0-6.68,1.81-9.62-1L309,5.92l-24.43-.53-3.09.2c-8.66,1-17.46,1.32-25.95,3.11-8.82,1.86-17.43,4.9-26,7.87-4.6,1.6-8.87,4.13-13.3,6.24h-.23a20,20,0,0,0-2.78,1c-18.85,10-35.43,23.24-51.2,37.44-8.79,7.92-17,16.49-25.4,24.84-3.49,3.46-7.05,6.89-10.17,10.67C117.06,108.23,108.06,120,100.67,133,98,137.74,98,138.14,103.36,140c17.82,6.35,35.58,12.84,53.39,19.2,7,2.5,14,4.8,21.5,7.34,0-6.43.11-12.17,0-17.9-.1-4-1.08-7.58-6.33-8.36.83-2.07,1.47-3.65,2.18-5.43l5.51,3c-.24,1.47-1,3-.55,3.93,3.31,7.35,3.58,15.08,3.18,22.92-.13,2.42.58,3.95,3.26,4.72,4.79,1.37,9.37,3.45,14.16,4.79,4.18,1.17,8.31,3.86,12.94,1.46l4.3-1.13,23.57-2.71,3.44-.47a4.15,4.15,0,0,1,.94-1.1,4.15,4.15,0,0,0-.94,1.1c3.32,0,6.63-.09,9.94,0,3,.05,5.71.06,8.25-2.33,1.14-1.08,4.72-1.38,5.74-.44,3.65,3.32,7.77,3.18,12.07,3l.28.23,3.69-.33c0,.49,0,1,0,1.46l-3.7-.36-4.9.46a1.69,1.69,0,0,0-.49-.09c-5.75.87-11.51.58-17.29.61-11.55.08-23.09,2.25-34.62,3.66a69.11,69.11,0,0,0-7.56,1.93c2.5,1.23,3.75,2,5.12,2.51,28.9,10.23,57.85,20.32,86.69,30.69,6.9,2.48,12.33,2.48,18.51-2.73,7.59-6.39,16.41-11.41,25-16.45,4.48-2.62,9.69-4,14.58-5.95l1.33,1.32c-.38.71-.56,1.75-1.15,2.09-7.87,4.5-15.94,8.7-23.68,13.41-5.31,3.24-10.2,7.17-15.27,10.79L325.1,216c-10.22,10.83-19.51,22.17-20.87,38.15,2.57-.38,4.85-1,6.41-2.44,5.87-5.36,11.73-10.78,17.15-16.58,2.46-2.64,5.73-5.33,4.91-9.81,4.93-1.91,7.69-5.71,9.24-10.58l.07,0a47.72,47.72,0,0,0,4.78-4.87c2.17-2.93,4.62-3.17,7.94-1.71a16.23,16.23,0,0,1-1,2.95c-4.88,8.44-9.47,17-12.44,26.35-1.47,4.61-.16,8.17,2.16,12.65,9.5-7.57,16-16.36,19-27.64l.25-.34,6.13-.64a44.62,44.62,0,0,1-.34,5.56,13.52,13.52,0,0,1-1.51,3.05c-.9,1.92-2.29,3.81-2.49,5.81s.28,4.78,1.56,5.75,4.48.82,5.88-.18c3.59-2.54,7.66-5.27,9.67-8.95,3.38-6.17,5.24-13.17,7.94-19.74.45-1.08,2-1.73,3-2.58.72.92,2.09,1.89,2,2.75a91.66,91.66,0,0,1-1.44,9.13l-3.75,9.28-3.67,6.79c7.77.68,11-4.31,15-7.72a1.26,1.26,0,0,0,.72-.56c6-5,12.12-9.72,17.91-14.88,14.91-13.31,27.26-28.7,34.27-47.56a85.83,85.83,0,0,0,5.18-25.14C459.55,128,454.1,115,448.37,102.15ZM111.49,132.94l-.35-.28c.13-.07.27-.2.4-.18s.24.16.36.25ZM370.37,239.43,368,238.22a38.4,38.4,0,0,1,2.53-4.9c.16-.23,1.85.59,2.83.92Q371.88,236.83,370.37,239.43Zm6.28-6.45c-.43.22-1.45-.35-2-.79-3-2.35.14-5.07-.72-7.58l1.64-.21a25.26,25.26,0,0,0,.4,3.16,5.43,5.43,0,0,0,1,1.9c.42.54,1.51,1.19,1.42,1.38A4.83,4.83,0,0,1,376.65,233Z"/><path class="cls-6" d="M357.56,244.54c-3.75,2.94-6.95,5.53-10.25,8-3,2.21-8.12,2.54-10.87.57-3.14-2.26-3.3-5.44-2.37-8.94.76-2.88,1.21-5.83,1.82-8.9-.83.1-1.27,0-1.45.19-.7.68-1.27,1.49-2,2.17-7,6.77-14,13.67-21.22,20.19a7.7,7.7,0,0,1-10.15.41c-3-2.26-4.42-5.64-3-9.28,2.51-6.43,5.39-12.72,8.21-19,1.15-2.58,2.54-5,4-7.93-10-3.35-19-6.24-27.93-9.4-22.69-8-45.29-16.34-68-24.2-9.24-3.19-18.57-8.27-28.61-2.13-.13.08-.33.05-.48.12L171.93,192c8.84-.38,16.54-1,24.24-1a51.3,51.3,0,0,1,32.77,11.61c13.56,11.07,17.94,22.61,9.56,39.46-8.25,16.59-23.46,23.43-40.21,27.2-15.51,3.5-30.47.38-44.43-7-9.69-5.12-17.9-11.64-18.81-23.83a19.45,19.45,0,0,0-1-3.5c-2.39.22-4.8-.18-6.58.7-9.63,4.79-19.85,5.13-30.24,4.58C80,239.28,65.43,234,58.19,215.34c-1.8,3.71-3.36,6.52-4.58,9.48-8.33,20.23-16.88,40.38-24.75,60.79-4.05,10.51-8.24,21.29-9.9,32.32-3.42,22.82-5.18,45.9-7.63,68.87-.93,8.76-1.91,17.51-2.83,26.27-.43,4.16-.78,8.33-1.26,13.55a20.46,20.46,0,0,0,2.76-1.8c9.09-9.67,17.83-19.68,27.32-28.93a168.27,168.27,0,0,1,23.2-19.4c19.12-12.85,40.35-21.83,61.1-31.65,16.81-8,34-15.25,50.38-23.95,16.18-8.56,31.12-19.09,43.52-32.92,12.08-13.48,22.5-28,29.76-44.63,1-2.34,1.84-4.85,4.53-4.06a6.29,6.29,0,0,1,3.64,4.59c.28,6.08.76,12.39-.52,18.24-3.38,15.4-7.48,30.64-11.59,45.86-3.68,13.62-8.29,27-11.52,40.73-3.88,16.47-6.75,33.19-10,49.81-.16.79.22,1.69.55,3.83,4.61-5.46,8.71-9.81,12.22-14.58,11-15,21.8-30.15,32.65-45.26,2.31-3.21,4.53-6.5,6.79-9.75,5.9-7.5,11.92-14.92,17.65-22.56,2.44-3.26,4.28-7,6.39-10.49-.19-.19-.39-.37-.59-.55h0c.2.18.4.36.59.55,3.21-4.38,6.24-8.91,9.67-13.11,2.25-2.74,4.73-5.64,7.74-7.3,3.87-2.12,8.37-3.1,12.62-4.51A176.43,176.43,0,0,0,371,252.39c1-.68,1.27-2.35,2.23-4.27C366.76,248.24,361.28,249.12,357.56,244.54Z"/><path class="cls-6" d="M29.76,150.59c14.33-2.65,24.84-11.3,34-22,2.44-2.86,4.69-5.87,7-8.79.42-.52.86-1.37,1.33-1.41,1.64-.12,3.57-.41,4.85.32.64.36.7,3.12,0,4.19-2.23,3.61-4.9,6.94-7.41,10.38-3.14,4.59-6.37,9.12-9.34,13.82-.54.84-.45,2.89.18,3.44a3.65,3.65,0,0,0,3.54.21c3.08-2.6,5.88-5.54,8.77-8.36,1.38-1.12,3-2,4.06-3.4a88.91,88.91,0,0,0,6-9c1.75-3,4-4.64,7.59-3.92a.41.41,0,0,0,.36.33c-.49,2.22-.54,4.66-1.55,6.62-4,7.65-8.28,15.12-12.32,22.74a32.79,32.79,0,0,0-1.78,5.72l1.74.95a31.85,31.85,0,0,0,3.46-4.65c8.32-16.68,17.41-32.84,29.76-47,3-3.45,5.83-7.07,8.73-10.62a17.85,17.85,0,0,0-7.54,1c-11.28,3.92-22.53,8-33.81,11.89-14.78,5.14-29,11.28-40.95,21.8-4.93,4.35-9.78,8.78-13.24,15.73C25.84,150.64,27.86,151,29.76,150.59Z"/><path class="cls-6" d="M91.12,149.06c-3.13,6-6.48,11.92-9.6,17.94-.71,1.36-.88,3-1.6,5.6,3-.51,5.1-.65,7-1.21,8.65-2.5,17.33-4.82,26.46-4,4.95.42,9.89,1.08,14.83,1.67,9.22,1.11,18,3.93,25.1,9.82a30.28,30.28,0,0,0,13.08,6.34c2.51.6,4.17.37,5.42-2,.86-1.61,1.85-3.14,2.81-4.69,1.6-2.6.42-4-2-4.92-10.45-3.75-20.89-7.54-31.37-11.21-14.74-5.16-29.55-10.09-44.21-15.45C93.92,145.81,92.52,146.37,91.12,149.06Z"/><path class="cls-6" d="M177,185.49l13.35-4.4C180.84,175,178.72,175.75,177,185.49Z"/><path class="cls-7" d="M492.77,521c2.16,0,4.32-.12,6.47,0,4.21.29,6,2.37,4.32,6.11-1.59,3.5-3.86,7.2-6.87,9.41a37.68,37.68,0,0,1-12.6,5.55c-5.86,1.55-8.35-1.32-7-7.15.61-2.58,1.25-5.15,1.85-7.73,1.18-5,2.07-5.87,7.33-6.26,2.15-.16,4.31,0,6.46,0Z"/><path class="cls-7" d="M477.94,497.58c-.59,5.62-1.07,11-1.8,16.35-.12.85-1.49,2.25-2.17,2.18-6.81-.6-13.91.35-20.25-3.15C455.67,503.17,466.59,495.93,477.94,497.58Z"/></g></g></svg>