<?xml version="1.0" encoding="UTF-8" standalone="no"?>
<!DOCTYPE svg PUBLIC "-//W3C//DTD SVG 1.1//EN" "http://www.w3.org/Graphics/SVG/1.1/DTD/svg11.dtd">
<!-- Generated by Microsoft Visio, SVG Export ansi-integers.svg Page-1 -->
<svg xmlns="http://www.w3.org/2000/svg" xmlns:xlink="http://www.w3.org/1999/xlink" xmlns:ev="http://www.w3.org/2001/xml-events"
		xmlns:v="http://schemas.microsoft.com/visio/2003/SVGExtensions/" width="6.16987in" height="2.75079in"
		viewBox="0 0 444.23 198.057" xml:space="preserve" color-interpolation-filters="sRGB" class="st9">
	<v:documentProperties v:langID="1036" v:metric="true" v:viewMarkup="false">
		<v:userDefs>
			<v:ud v:nameU="msvSubprocessMaster" v:prompt="" v:val="VT4(Rectangle)"/>
			<v:ud v:nameU="msvNoAutoConnect" v:val="VT0(1):26"/>
		</v:userDefs>
	</v:documentProperties>

	<style type="text/css">
	<![CDATA[
		.st1 {fill:#ffffff;stroke:#000000;stroke-linecap:round;stroke-linejoin:round;stroke-width:0.75}
		.st2 {fill:#000000;stroke:#000000;stroke-linecap:round;stroke-linejoin:round;stroke-width:0.75}
		.st3 {fill:#d8d8d8;stroke:none;stroke-linecap:round;stroke-linejoin:round;stroke-width:0.75}
		.st4 {fill:#000000;font-family:Calibri;font-size:0.833336em}
		.st5 {marker-end:url(#mrkr4-28);stroke:#000000;stroke-linecap:round;stroke-linejoin:round;stroke-width:0.237638}
		.st6 {fill:#000000;fill-opacity:1;stroke:#000000;stroke-opacity:1;stroke-width:0.086174404659928}
		.st7 {stroke:#000000;stroke-linecap:round;stroke-linejoin:round;stroke-width:0.237638}
		.st8 {marker-end:url(#);stroke:#000000;stroke-linecap:round;stroke-linejoin:round;stroke-width:0.237638}
		.st9 {fill:none;fill-rule:evenodd;font-size:12px;overflow:visible;stroke-linecap:square;stroke-miterlimit:3}
	]]>
	</style>

	<defs id="Markers">
		<g id="lend4">
			<path d="M 2 1 L 0 0 L 2 -1 L 2 1 " style="stroke:none"/>
		</g>
		<marker id="mrkr4-28" class="st6" v:arrowType="4" v:arrowSize="2" v:setback="23.2087" refX="-23.208747514911" orient="auto"
				markerUnits="strokeWidth" overflow="visible">
			<use xlink:href="#lend4" transform="scale(-11.604373757455,-11.604373757455) "/>
		</marker>
	</defs>
	<g v:mID="0" v:index="1" v:groupContext="foregroundPage">
		<v:userDefs>
			<v:ud v:nameU="msvThemeOrder" v:val="VT0(0):26"/>
		</v:userDefs>
		<title>Page 1</title>
		<v:pageProperties v:drawingScale="0.0393701" v:pageScale="0.0393701" v:drawingUnits="24" v:shadowOffsetX="8.50394"
				v:shadowOffsetY="-8.50394"/>
		<v:layer v:name="Lien" v:index="0"/>
		<g id="shape10-1" v:mID="10" v:groupContext="shape" transform="translate(18.375,-160.1)">
			<title>Cercle</title>
			<v:userDefs>
				<v:ud v:nameU="visVersion" v:val="VT0(15):26"/>
			</v:userDefs>
			<path d="M0 191.86 A6.20079 6.20079 0 0 1 12.4 191.86 A6.20079 6.20079 0 1 1 0 191.86 Z" class="st1"/>
		</g>
		<g id="shape26-3" v:mID="26" v:groupContext="shape" transform="translate(413.454,-160.1)">
			<title>Cercle.31</title>
			<v:userDefs>
				<v:ud v:nameU="visVersion" v:val="VT0(15):26"/>
			</v:userDefs>
			<path d="M0 191.86 A6.20079 6.20079 0 0 1 12.4 191.86 A6.20079 6.20079 0 1 1 0 191.86 Z" class="st2"/>
		</g>
		<g id="shape28-5" v:mID="28" v:groupContext="shape" transform="translate(65.4413,-52.9222)">
			<title>Rectangle.28</title>
			<desc>signed</desc>
			<v:userDefs>
				<v:ud v:nameU="visVersion" v:val="VT0(15):26"/>
			</v:userDefs>
			<v:textBlock v:margins="rect(4,4,4,4)" v:tabSpace="42.5197"/>
			<v:textRect cx="26.7165" cy="184.769" width="53.44" height="26.5748"/>
			<rect x="0" y="171.482" width="53.4331" height="26.5748" rx="8.50394" ry="8.50394" class="st3"/>
			<text x="13.52" y="187.77" class="st4" v:langID="1033"><v:paragraph v:horizAlign="1"/><v:tabList/>signed</text>		</g>
		<g id="shape29-8" v:mID="29" v:groupContext="shape" transform="translate(65.4413,-18.375)">
			<title>Rectangle.29</title>
			<desc>unsigned</desc>
			<v:userDefs>
				<v:ud v:nameU="visVersion" v:val="VT0(15):26"/>
			</v:userDefs>
			<v:textBlock v:margins="rect(4,4,4,4)" v:tabSpace="42.5197"/>
			<v:textRect cx="26.7165" cy="184.769" width="53.44" height="26.5748"/>
			<rect x="0" y="171.482" width="53.4331" height="26.5748" rx="8.50394" ry="8.50394" class="st3"/>
			<text x="8.26" y="187.77" class="st4" v:langID="1033"><v:paragraph v:horizAlign="1"/><v:tabList/>unsigned</text>		</g>
		<g id="shape30-11" v:mID="30" v:groupContext="shape" transform="translate(286.827,-153.107)">
			<title>Rectangle.30</title>
			<desc>short</desc>
			<v:userDefs>
				<v:ud v:nameU="visVersion" v:val="VT0(15):26"/>
			</v:userDefs>
			<v:textBlock v:margins="rect(4,4,4,4)" v:tabSpace="42.5197"/>
			<v:textRect cx="17.7165" cy="184.769" width="35.44" height="26.5748"/>
			<rect x="0" y="171.482" width="35.4331" height="26.5748" rx="8.50394" ry="8.50394" class="st3"/>
			<text x="7.08" y="187.77" class="st4" v:langID="1033"><v:paragraph v:horizAlign="1"/><v:tabList/>short</text>		</g>
		<g id="shape31-14" v:mID="31" v:groupContext="shape" transform="translate(286.827,-112.527)">
			<title>Rectangle.31</title>
			<desc>int</desc>
			<v:userDefs>
				<v:ud v:nameU="visVersion" v:val="VT0(15):26"/>
			</v:userDefs>
			<v:textBlock v:margins="rect(4,4,4,4)" v:tabSpace="42.5197"/>
			<v:textRect cx="17.7165" cy="184.769" width="35.44" height="26.5748"/>
			<rect x="0" y="171.482" width="35.4331" height="26.5748" rx="8.50394" ry="8.50394" class="st3"/>
			<text x="12.27" y="187.77" class="st4" v:langID="1033"><v:paragraph v:horizAlign="1"/><v:tabList/>int</text>		</g>
		<g id="shape32-17" v:mID="32" v:groupContext="shape" transform="translate(286.827,-74.7904)">
			<title>Rectangle.32</title>
			<desc>long</desc>
			<v:userDefs>
				<v:ud v:nameU="visVersion" v:val="VT0(15):26"/>
			</v:userDefs>
			<v:textBlock v:margins="rect(4,4,4,4)" v:tabSpace="42.5197"/>
			<v:textRect cx="17.7165" cy="184.769" width="35.44" height="26.5748"/>
			<rect x="0" y="171.482" width="35.4331" height="26.5748" rx="8.50394" ry="8.50394" class="st3"/>
			<text x="8.95" y="187.77" class="st4" v:langID="1033"><v:paragraph v:horizAlign="1"/><v:tabList/>long</text>		</g>
		<g id="shape33-20" v:mID="33" v:groupContext="shape" transform="translate(180.528,-112.312)">
			<title>Rectangle.33</title>
			<desc>long</desc>
			<v:userDefs>
				<v:ud v:nameU="visVersion" v:val="VT0(15):26"/>
			</v:userDefs>
			<v:textBlock v:margins="rect(4,4,4,4)" v:tabSpace="42.5197"/>
			<v:textRect cx="17.7165" cy="184.769" width="35.44" height="26.5748"/>
			<rect x="0" y="171.482" width="35.4331" height="26.5748" rx="8.50394" ry="8.50394" class="st3"/>
			<text x="8.95" y="187.77" class="st4" v:langID="1033"><v:paragraph v:horizAlign="1"/><v:tabList/>long</text>		</g>
		<g id="shape34-23" v:mID="34" v:groupContext="shape" v:layerMember="0" transform="translate(30.7766,-159.261)">
			<title>Lien dynamique</title>
			<path d="M0 191.02 L10.63 191.02 L10.63 190.92 L250.54 190.92" class="st5"/>
		</g>
		<g id="shape35-29" v:mID="35" v:groupContext="shape" v:layerMember="0" transform="translate(322.26,-173.434)">
			<title>Lien dynamique.35</title>
			<path d="M0 205.1 L10.63 205.1 L10.63 205.19 L85.68 205.19" class="st5"/>
		</g>
		<g id="shape36-34" v:mID="36" v:groupContext="shape" v:layerMember="0" transform="translate(30.7766,-166.301)">
			<title>Lien dynamique.36</title>
			<path d="M0 198.06 L208.85 198.06 A11.3386 11.3386 0 0 1 220.19 209.4 L220.19 227.2 A11.3386 11.3386 -180 0 0 231.53
						 238.54 L250.54 238.54" class="st5"/>
		</g>
		<g id="shape37-39" v:mID="37" v:groupContext="shape" v:layerMember="0" transform="translate(30.7766,-166.301)">
			<title>Lien dynamique.37</title>
			<path d="M0 198.06 L208.85 198.06 A11.3386 11.3386 0 0 1 220.19 209.4 L220.19 264.94 A11.3386 11.3386 -180 0 0 231.53
						 276.28 L250.54 276.28" class="st5"/>
		</g>
		<g id="shape38-44" v:mID="38" v:groupContext="shape" v:layerMember="0" transform="translate(30.7766,-166.301)">
			<title>Lien dynamique.38</title>
			<path d="M0 198.06 L5.31 198.06 A5.31496 5.31496 0 0 1 10.63 203.37 L10.63 286.81 A11.3386 11.3386 -180 0 0 21.97 298.15
						 L29.15 298.15" class="st5"/>
		</g>
		<g id="shape39-49" v:mID="39" v:groupContext="shape" v:layerMember="0" transform="translate(30.7766,-166.301)">
			<title>Lien dynamique.39</title>
			<path d="M0 198.06 L5.31 198.06 A5.31496 5.31496 0 0 1 10.63 203.37 L10.63 321.36 A11.3386 11.3386 -180 0 0 21.97 332.7
						 L29.15 332.7" class="st5"/>
		</g>
		<g id="shape40-54" v:mID="40" v:groupContext="shape" v:layerMember="0" transform="translate(118.874,-66.2096)">
			<title>Lien dynamique.40</title>
			<path d="M0 198.06 L8.5 198.06 A8.50394 8.50394 -180 0 0 17.01 189.55 L17.01 109.21 A11.3386 11.3386 0 0 1 28.35 97.87
						 L162.44 97.87" class="st5"/>
		</g>
		<g id="shape41-59" v:mID="41" v:groupContext="shape" v:layerMember="0" transform="translate(118.874,-31.6624)">
			<title>Lien dynamique.41</title>
			<path d="M0 198.06 L8.5 198.06 A8.50394 8.50394 -180 0 0 17.01 189.55 L17.01 74.66 A11.3386 11.3386 0 0 1 28.35 63.32
						 L162.44 63.32" class="st5"/>
		</g>
		<g id="shape42-64" v:mID="42" v:groupContext="shape" v:layerMember="0" transform="translate(30.7766,-166.301)">
			<title>Lien dynamique.42</title>
			<path d="M0 198.06 L115.74 198.06 A11.3386 11.3386 0 0 1 127.07 209.4 L127.07 227.42 A11.3386 11.3386 -180 0 0 138.41
						 238.76 L144.24 238.76" class="st5"/>
		</g>
		<g id="shape44-69" v:mID="44" v:groupContext="shape" v:layerMember="0" transform="translate(215.961,-125.6)">
			<title>Lien dynamique.44</title>
			<path d="M0 198.06 L23.67 198.06 A11.3386 11.3386 0 0 1 35.01 209.4 L35.01 224.24 A11.3386 11.3386 -180 0 0 46.35 235.58
						 L65.35 235.58" class="st5"/>
		</g>
		<g id="shape45-74" v:mID="45" v:groupContext="shape" v:layerMember="0" transform="translate(322.26,-125.814)">
			<title>Lien dynamique.45</title>
			<path d="M0 198.06 L20.55 198.06 A11.3386 11.3386 -180 0 0 31.89 186.72 L31.89 168.91 A11.3386 11.3386 0 0 1 43.23 157.57
						 L85.68 157.57" class="st5"/>
		</g>
		<g id="shape46-79" v:mID="46" v:groupContext="shape" v:layerMember="0" transform="translate(322.26,-88.0778)">
			<title>Lien dynamique.46</title>
			<path d="M0 198.06 L20.55 198.06 A11.3386 11.3386 -180 0 0 31.89 186.72 L31.89 131.17 A11.3386 11.3386 0 0 1 43.23 119.83
						 L85.68 119.83" class="st5"/>
		</g>
		<g id="shape48-84" v:mID="48" v:groupContext="shape" v:layerMember="0" transform="translate(118.874,-31.6624)">
			<title>Lien dynamique.48</title>
			<path d="M0 198.06 L223.94 198.06 A11.3386 11.3386 -180 0 0 235.28 186.72 L235.28 74.76 A11.3386 11.3386 0 0 1 246.61
						 63.42 L289.06 63.42" class="st5"/>
		</g>
		<g id="shape49-89" v:mID="49" v:groupContext="shape" v:layerMember="0" transform="translate(118.874,-66.2096)">
			<title>Lien dynamique.49</title>
			<path d="M0 198.06 L14.65 198.06" class="st7"/>
			<path d="M19.37 198.06 L223.94 198.06 A11.3386 11.3386 -180 0 0 235.28 186.72 L235.28 109.3 A11.3386 11.3386 0 0 1 246.61
						 97.97 L289.06 97.97" class="st8"/>
		</g>
		<g id="shape50-95" v:mID="50" v:groupContext="shape" v:layerMember="0" transform="translate(215.961,-118.62)">
			<title>Lien dynamique.50</title>
			<path d="M0 191.08 L10.63 191.08 L10.63 190.86 L32.65 190.86" class="st7"/>
			<path d="M37.37 190.86 L65.35 190.86" class="st8"/>
		</g>
	</g>
</svg>
