<?xml version="1.0" encoding="UTF-8" standalone="no"?>
<!DOCTYPE svg PUBLIC "-//W3C//DTD SVG 1.1//EN" "http://www.w3.org/Graphics/SVG/1.1/DTD/svg11.dtd">
<!-- Generated by Microsoft Visio, SVG Export binary-tree.svg Page-1 -->
<svg xmlns="http://www.w3.org/2000/svg" xmlns:xlink="http://www.w3.org/1999/xlink" xmlns:ev="http://www.w3.org/2001/xml-events"
		xmlns:v="http://schemas.microsoft.com/visio/2003/SVGExtensions/" width="4.38396in" height="4.05372in"
		viewBox="0 0 315.645 291.868" xml:space="preserve" color-interpolation-filters="sRGB" class="st8">
	<v:documentProperties v:langID="1036" v:metric="true" v:viewMarkup="false">
		<v:userDefs>
			<v:ud v:nameU="msvSubprocessMaster" v:prompt="" v:val="VT4(Rectangle)"/>
			<v:ud v:nameU="msvNoAutoConnect" v:val="VT0(1):26"/>
		</v:userDefs>
	</v:documentProperties>

	<style type="text/css">
	<![CDATA[
		.st1 {fill:#ffffff;stroke:#000000;stroke-linecap:round;stroke-linejoin:round;stroke-width:0.75}
		.st2 {stroke:#000000;stroke-linecap:round;stroke-linejoin:round;stroke-width:0.237638}
		.st3 {fill:#000000;stroke:#000000;stroke-linecap:round;stroke-linejoin:round;stroke-width:0.75}
		.st4 {fill:#000000;font-family:Calibri;font-size:0.833336em}
		.st5 {marker-end:url(#mrkr4-71);stroke:#000000;stroke-linecap:round;stroke-linejoin:round;stroke-width:0.237638}
		.st6 {fill:#000000;fill-opacity:1;stroke:#000000;stroke-opacity:1;stroke-width:0.086174404659928}
		.st7 {marker-end:url(#mrkr4-134);stroke:#000000;stroke-linecap:round;stroke-linejoin:round;stroke-width:0.237638}
		.st8 {fill:none;fill-rule:evenodd;font-size:12px;overflow:visible;stroke-linecap:square;stroke-miterlimit:3}
	]]>
	</style>

	<defs id="Markers">
		<g id="lend4">
			<path d="M 2 1 L 0 0 L 2 -1 L 2 1 " style="stroke:none"/>
		</g>
		<marker id="mrkr4-71" class="st6" v:arrowType="4" v:arrowSize="2" v:setback="23.2087" refX="-23.208747514911" orient="auto"
				markerUnits="strokeWidth" overflow="visible">
			<use xlink:href="#lend4" transform="scale(-11.604373757455,-11.604373757455) "/>
		</marker>
		<marker id="mrkr4-134" class="st6" v:arrowType="4" v:arrowSize="2" v:setback="0" refX="-0" orient="auto"
				markerUnits="strokeWidth" overflow="visible">
			<use xlink:href="#lend4" transform="scale(-11.604373757455,-11.604373757455) "/>
		</marker>
	</defs>
	<g v:mID="0" v:index="1" v:groupContext="foregroundPage">
		<v:userDefs>
			<v:ud v:nameU="msvThemeOrder" v:val="VT0(0):26"/>
		</v:userDefs>
		<title>Page 1</title>
		<v:pageProperties v:drawingScale="0.0393701" v:pageScale="0.0393701" v:drawingUnits="24" v:shadowOffsetX="8.50394"
				v:shadowOffsetY="-8.50394"/>
		<v:layer v:name="Diagramme de flux" v:index="0"/>
		<v:layer v:name="Lien" v:index="1"/>
		<g id="group142-1" transform="translate(23.8268,-18.375)" v:mID="142" v:groupContext="group">
			<title>Sheet.142</title>
			<g id="shape115-2" v:mID="115" v:groupContext="shape" transform="translate(6.96085E-07,-6.96085E-07)">
				<title>Carré.115</title>
				<v:userDefs>
					<v:ud v:nameU="visVersion" v:val="VT0(15):26"/>
				</v:userDefs>
				<rect x="0" y="263.522" width="28.3465" height="28.3465" class="st1"/>
			</g>
			<g id="shape116-4" v:mID="116" v:groupContext="shape" transform="translate(206.382,57.1397) rotate(45)">
				<title>Sheet.116</title>
				<path d="M0 291.87 L40.09 291.87" class="st2"/>
			</g>
			<g id="shape117-7" v:mID="117" v:groupContext="shape" transform="translate(234.728,469.904) rotate(135)">
				<title>Sheet.117</title>
				<path d="M0 291.87 L40.09 291.87" class="st2"/>
			</g>
		</g>
		<g id="group155-10" transform="translate(58.8026,-138.847)" v:mID="155" v:groupContext="group">
			<title>Sheet.155</title>
			<g id="group148-11" v:mID="148" v:groupContext="group">
				<title>Sheet.148</title>
				<g id="shape149-12" v:mID="149" v:groupContext="shape">
					<title>Carré.106</title>
					<v:userDefs>
						<v:ud v:nameU="visVersion" v:val="VT0(15):26"/>
					</v:userDefs>
					<rect x="0" y="263.522" width="28.3465" height="28.3465" class="st1"/>
				</g>
				<g id="shape150-14" v:mID="150" v:groupContext="shape" transform="translate(10.6299,-10.6299)">
					<title>Cercle.107</title>
					<v:userDefs>
						<v:ud v:nameU="visVersion" v:val="VT0(15):26"/>
					</v:userDefs>
					<path d="M0 288.32 A3.54331 3.54331 0 0 1 7.09 288.32 A3.54331 3.54331 0 1 1 0 288.32 Z" class="st3"/>
				</g>
			</g>
			<g id="shape151-16" v:mID="151" v:groupContext="shape" transform="translate(0,-28.3465)">
				<title>Rectangle.151</title>
				<desc>7</desc>
				<v:userDefs>
					<v:ud v:nameU="visVersion" v:val="VT0(15):26"/>
				</v:userDefs>
				<v:textBlock v:margins="rect(4,4,4,4)" v:tabSpace="42.5197"/>
				<v:textRect cx="28.3465" cy="277.695" width="56.7" height="28.3465"/>
				<rect x="0" y="263.522" width="56.6929" height="28.3465" class="st1"/>
				<text x="25.81" y="280.69" class="st4" v:langID="1033"><v:paragraph v:horizAlign="1"/><v:tabList/>7</text>			</g>
			<g id="group152-19" transform="translate(28.3465,5.68434E-14)" v:mID="152" v:groupContext="group">
				<title>Sheet.152</title>
				<g id="shape153-20" v:mID="153" v:groupContext="shape">
					<title>Carré.106</title>
					<v:userDefs>
						<v:ud v:nameU="visVersion" v:val="VT0(15):26"/>
					</v:userDefs>
					<rect x="0" y="263.522" width="28.3465" height="28.3465" class="st1"/>
				</g>
				<g id="shape154-22" v:mID="154" v:groupContext="shape" transform="translate(10.6299,-10.6299)">
					<title>Cercle.107</title>
					<v:userDefs>
						<v:ud v:nameU="visVersion" v:val="VT0(15):26"/>
					</v:userDefs>
					<path d="M0 288.32 A3.54331 3.54331 0 0 1 7.09 288.32 A3.54331 3.54331 0 1 1 0 288.32 Z" class="st3"/>
				</g>
			</g>
		</g>
		<g id="group156-24" transform="translate(133.098,-216.8)" v:mID="156" v:groupContext="group">
			<title>Sheet.156</title>
			<g id="group108-25" v:mID="108" v:groupContext="group">
				<title>Sheet.108</title>
				<g id="shape106-26" v:mID="106" v:groupContext="shape">
					<title>Carré.106</title>
					<v:userDefs>
						<v:ud v:nameU="visVersion" v:val="VT0(15):26"/>
					</v:userDefs>
					<rect x="0" y="263.522" width="28.3465" height="28.3465" class="st1"/>
				</g>
				<g id="shape107-28" v:mID="107" v:groupContext="shape" transform="translate(10.6299,-10.6299)">
					<title>Cercle.107</title>
					<v:userDefs>
						<v:ud v:nameU="visVersion" v:val="VT0(15):26"/>
					</v:userDefs>
					<path d="M0 288.32 A3.54331 3.54331 0 0 1 7.09 288.32 A3.54331 3.54331 0 1 1 0 288.32 Z" class="st3"/>
				</g>
			</g>
			<g id="shape144-30" v:mID="144" v:groupContext="shape" transform="translate(0,-28.3465)">
				<title>Rectangle</title>
				<desc>12</desc>
				<v:userDefs>
					<v:ud v:nameU="visVersion" v:val="VT0(15):26"/>
				</v:userDefs>
				<v:textBlock v:margins="rect(4,4,4,4)" v:tabSpace="42.5197"/>
				<v:textRect cx="28.3465" cy="277.695" width="56.7" height="28.3465"/>
				<rect x="0" y="263.522" width="56.6929" height="28.3465" class="st1"/>
				<text x="23.28" y="280.69" class="st4" v:langID="1033"><v:paragraph v:horizAlign="1"/><v:tabList/>12</text>			</g>
			<g id="group145-33" transform="translate(28.3465,5.68434E-14)" v:mID="145" v:groupContext="group">
				<title>Sheet.145</title>
				<g id="shape146-34" v:mID="146" v:groupContext="shape">
					<title>Carré.106</title>
					<v:userDefs>
						<v:ud v:nameU="visVersion" v:val="VT0(15):26"/>
					</v:userDefs>
					<rect x="0" y="263.522" width="28.3465" height="28.3465" class="st1"/>
				</g>
				<g id="shape147-36" v:mID="147" v:groupContext="shape" transform="translate(10.6299,-10.6299)">
					<title>Cercle.107</title>
					<v:userDefs>
						<v:ud v:nameU="visVersion" v:val="VT0(15):26"/>
					</v:userDefs>
					<path d="M0 288.32 A3.54331 3.54331 0 0 1 7.09 288.32 A3.54331 3.54331 0 1 1 0 288.32 Z" class="st3"/>
				</g>
			</g>
		</g>
		<g id="group165-38" transform="translate(23.8268,-58.06)" v:mID="165" v:groupContext="group">
			<title>Sheet.165</title>
			<g id="group166-39" v:mID="166" v:groupContext="group">
				<title>Sheet.166</title>
				<g id="shape167-40" v:mID="167" v:groupContext="shape">
					<title>Carré.106</title>
					<v:userDefs>
						<v:ud v:nameU="visVersion" v:val="VT0(15):26"/>
					</v:userDefs>
					<rect x="0" y="263.522" width="28.3465" height="28.3465" class="st1"/>
				</g>
				<g id="shape168-42" v:mID="168" v:groupContext="shape" transform="translate(10.6299,-10.6299)">
					<title>Cercle.107</title>
					<v:userDefs>
						<v:ud v:nameU="visVersion" v:val="VT0(15):26"/>
					</v:userDefs>
					<path d="M0 288.32 A3.54331 3.54331 0 0 1 7.09 288.32 A3.54331 3.54331 0 1 1 0 288.32 Z" class="st3"/>
				</g>
			</g>
			<g id="shape169-44" v:mID="169" v:groupContext="shape" transform="translate(0,-28.3465)">
				<title>Rectangle.151</title>
				<desc>4</desc>
				<v:userDefs>
					<v:ud v:nameU="visVersion" v:val="VT0(15):26"/>
				</v:userDefs>
				<v:textBlock v:margins="rect(4,4,4,4)" v:tabSpace="42.5197"/>
				<v:textRect cx="28.3465" cy="277.695" width="56.7" height="28.3465"/>
				<rect x="0" y="263.522" width="56.6929" height="28.3465" class="st1"/>
				<text x="25.81" y="280.69" class="st4" v:langID="1033"><v:paragraph v:horizAlign="1"/><v:tabList/>4</text>			</g>
			<g id="group170-47" transform="translate(28.3465,5.68434E-14)" v:mID="170" v:groupContext="group">
				<title>Sheet.170</title>
				<g id="shape171-48" v:mID="171" v:groupContext="shape">
					<title>Carré.106</title>
					<v:userDefs>
						<v:ud v:nameU="visVersion" v:val="VT0(15):26"/>
					</v:userDefs>
					<rect x="0" y="263.522" width="28.3465" height="28.3465" class="st1"/>
				</g>
				<g id="shape172-50" v:mID="172" v:groupContext="shape" transform="translate(10.6299,-10.6299)">
					<title>Cercle.107</title>
					<v:userDefs>
						<v:ud v:nameU="visVersion" v:val="VT0(15):26"/>
					</v:userDefs>
					<path d="M0 288.32 A3.54331 3.54331 0 0 1 7.09 288.32 A3.54331 3.54331 0 1 1 0 288.32 Z" class="st3"/>
				</g>
			</g>
		</g>
		<g id="group173-52" transform="translate(93.7785,-58.06)" v:mID="173" v:groupContext="group">
			<title>Sheet.173</title>
			<g id="group174-53" v:mID="174" v:groupContext="group">
				<title>Sheet.174</title>
				<g id="shape175-54" v:mID="175" v:groupContext="shape">
					<title>Carré.106</title>
					<v:userDefs>
						<v:ud v:nameU="visVersion" v:val="VT0(15):26"/>
					</v:userDefs>
					<rect x="0" y="263.522" width="28.3465" height="28.3465" class="st1"/>
				</g>
				<g id="shape176-56" v:mID="176" v:groupContext="shape" transform="translate(10.6299,-10.6299)">
					<title>Cercle.107</title>
					<v:userDefs>
						<v:ud v:nameU="visVersion" v:val="VT0(15):26"/>
					</v:userDefs>
					<path d="M0 288.32 A3.54331 3.54331 0 0 1 7.09 288.32 A3.54331 3.54331 0 1 1 0 288.32 Z" class="st3"/>
				</g>
			</g>
			<g id="shape177-58" v:mID="177" v:groupContext="shape" transform="translate(0,-28.3465)">
				<title>Rectangle.151</title>
				<desc>8</desc>
				<v:userDefs>
					<v:ud v:nameU="visVersion" v:val="VT0(15):26"/>
				</v:userDefs>
				<v:textBlock v:margins="rect(4,4,4,4)" v:tabSpace="42.5197"/>
				<v:textRect cx="28.3465" cy="277.695" width="56.7" height="28.3465"/>
				<rect x="0" y="263.522" width="56.6929" height="28.3465" class="st1"/>
				<text x="25.81" y="280.69" class="st4" v:langID="1033"><v:paragraph v:horizAlign="1"/><v:tabList/>8</text>			</g>
			<g id="group178-61" transform="translate(28.3465,5.68434E-14)" v:mID="178" v:groupContext="group">
				<title>Sheet.178</title>
				<g id="shape179-62" v:mID="179" v:groupContext="shape">
					<title>Carré.106</title>
					<v:userDefs>
						<v:ud v:nameU="visVersion" v:val="VT0(15):26"/>
					</v:userDefs>
					<rect x="0" y="263.522" width="28.3465" height="28.3465" class="st1"/>
				</g>
				<g id="shape180-64" v:mID="180" v:groupContext="shape" transform="translate(10.6299,-10.6299)">
					<title>Cercle.107</title>
					<v:userDefs>
						<v:ud v:nameU="visVersion" v:val="VT0(15):26"/>
					</v:userDefs>
					<path d="M0 288.32 A3.54331 3.54331 0 0 1 7.09 288.32 A3.54331 3.54331 0 1 1 0 288.32 Z" class="st3"/>
				</g>
			</g>
		</g>
		<g id="shape181-66" v:mID="181" v:groupContext="shape" v:layerMember="1" transform="translate(72.9759,-149.477)">
			<title>Lien dynamique.181</title>
			<path d="M0 291.87 L0 302.87 A10.4013 10.4013 0 0 1 -10.4 313.27 L-14.14 313.27 A6.66142 6.66142 -180 0 0 -20.8 319.93
						 L-20.8 321.08" class="st5"/>
		</g>
		<g id="shape182-72" v:mID="182" v:groupContext="shape" v:layerMember="1" transform="translate(101.322,-149.477)">
			<title>Lien dynamique.182</title>
			<path d="M0 291.87 L0 302.87 A10.4013 10.4013 -180 0 0 10.4 313.27 L14.14 313.27 A6.66142 6.66142 0 0 1 20.8 319.93 L20.8
						 321.08" class="st5"/>
		</g>
		<g id="group183-77" transform="translate(200.15,-138.847)" v:mID="183" v:groupContext="group">
			<title>Sheet.183</title>
			<g id="group184-78" v:mID="184" v:groupContext="group">
				<title>Sheet.184</title>
				<g id="shape185-79" v:mID="185" v:groupContext="shape">
					<title>Carré.106</title>
					<v:userDefs>
						<v:ud v:nameU="visVersion" v:val="VT0(15):26"/>
					</v:userDefs>
					<rect x="0" y="263.522" width="28.3465" height="28.3465" class="st1"/>
				</g>
				<g id="shape186-81" v:mID="186" v:groupContext="shape" transform="translate(10.6299,-10.6299)">
					<title>Cercle.107</title>
					<v:userDefs>
						<v:ud v:nameU="visVersion" v:val="VT0(15):26"/>
					</v:userDefs>
					<path d="M0 288.32 A3.54331 3.54331 0 0 1 7.09 288.32 A3.54331 3.54331 0 1 1 0 288.32 Z" class="st3"/>
				</g>
			</g>
			<g id="shape187-83" v:mID="187" v:groupContext="shape" transform="translate(0,-28.3465)">
				<title>Rectangle.151</title>
				<desc>16</desc>
				<v:userDefs>
					<v:ud v:nameU="visVersion" v:val="VT0(15):26"/>
				</v:userDefs>
				<v:textBlock v:margins="rect(4,4,4,4)" v:tabSpace="42.5197"/>
				<v:textRect cx="28.3465" cy="277.695" width="56.7" height="28.3465"/>
				<rect x="0" y="263.522" width="56.6929" height="28.3465" class="st1"/>
				<text x="23.28" y="280.69" class="st4" v:langID="1033"><v:paragraph v:horizAlign="1"/><v:tabList/>16</text>			</g>
			<g id="group188-86" transform="translate(28.3465,5.68434E-14)" v:mID="188" v:groupContext="group">
				<title>Sheet.188</title>
				<g id="shape189-87" v:mID="189" v:groupContext="shape">
					<title>Carré.106</title>
					<v:userDefs>
						<v:ud v:nameU="visVersion" v:val="VT0(15):26"/>
					</v:userDefs>
					<rect x="0" y="263.522" width="28.3465" height="28.3465" class="st1"/>
				</g>
				<g id="shape190-89" v:mID="190" v:groupContext="shape" transform="translate(10.6299,-10.6299)">
					<title>Cercle.107</title>
					<v:userDefs>
						<v:ud v:nameU="visVersion" v:val="VT0(15):26"/>
					</v:userDefs>
					<path d="M0 288.32 A3.54331 3.54331 0 0 1 7.09 288.32 A3.54331 3.54331 0 1 1 0 288.32 Z" class="st3"/>
				</g>
			</g>
		</g>
		<g id="group191-91" transform="translate(165.174,-58.06)" v:mID="191" v:groupContext="group">
			<title>Sheet.191</title>
			<g id="group192-92" v:mID="192" v:groupContext="group">
				<title>Sheet.192</title>
				<g id="shape193-93" v:mID="193" v:groupContext="shape">
					<title>Carré.106</title>
					<v:userDefs>
						<v:ud v:nameU="visVersion" v:val="VT0(15):26"/>
					</v:userDefs>
					<rect x="0" y="263.522" width="28.3465" height="28.3465" class="st1"/>
				</g>
				<g id="shape194-95" v:mID="194" v:groupContext="shape" transform="translate(10.6299,-10.6299)">
					<title>Cercle.107</title>
					<v:userDefs>
						<v:ud v:nameU="visVersion" v:val="VT0(15):26"/>
					</v:userDefs>
					<path d="M0 288.32 A3.54331 3.54331 0 0 1 7.09 288.32 A3.54331 3.54331 0 1 1 0 288.32 Z" class="st3"/>
				</g>
			</g>
			<g id="shape195-97" v:mID="195" v:groupContext="shape" transform="translate(0,-28.3465)">
				<title>Rectangle.151</title>
				<desc>14</desc>
				<v:userDefs>
					<v:ud v:nameU="visVersion" v:val="VT0(15):26"/>
				</v:userDefs>
				<v:textBlock v:margins="rect(4,4,4,4)" v:tabSpace="42.5197"/>
				<v:textRect cx="28.3465" cy="277.695" width="56.7" height="28.3465"/>
				<rect x="0" y="263.522" width="56.6929" height="28.3465" class="st1"/>
				<text x="23.28" y="280.69" class="st4" v:langID="1033"><v:paragraph v:horizAlign="1"/><v:tabList/>14</text>			</g>
			<g id="group196-100" transform="translate(28.3465,5.68434E-14)" v:mID="196" v:groupContext="group">
				<title>Sheet.196</title>
				<g id="shape197-101" v:mID="197" v:groupContext="shape">
					<title>Carré.106</title>
					<v:userDefs>
						<v:ud v:nameU="visVersion" v:val="VT0(15):26"/>
					</v:userDefs>
					<rect x="0" y="263.522" width="28.3465" height="28.3465" class="st1"/>
				</g>
				<g id="shape198-103" v:mID="198" v:groupContext="shape" transform="translate(10.6299,-10.6299)">
					<title>Cercle.107</title>
					<v:userDefs>
						<v:ud v:nameU="visVersion" v:val="VT0(15):26"/>
					</v:userDefs>
					<path d="M0 288.32 A3.54331 3.54331 0 0 1 7.09 288.32 A3.54331 3.54331 0 1 1 0 288.32 Z" class="st3"/>
				</g>
			</g>
		</g>
		<g id="group199-105" transform="translate(235.126,-58.06)" v:mID="199" v:groupContext="group">
			<title>Sheet.199</title>
			<g id="group200-106" v:mID="200" v:groupContext="group">
				<title>Sheet.200</title>
				<g id="shape201-107" v:mID="201" v:groupContext="shape">
					<title>Carré.106</title>
					<v:userDefs>
						<v:ud v:nameU="visVersion" v:val="VT0(15):26"/>
					</v:userDefs>
					<rect x="0" y="263.522" width="28.3465" height="28.3465" class="st1"/>
				</g>
				<g id="shape202-109" v:mID="202" v:groupContext="shape" transform="translate(10.6299,-10.6299)">
					<title>Cercle.107</title>
					<v:userDefs>
						<v:ud v:nameU="visVersion" v:val="VT0(15):26"/>
					</v:userDefs>
					<path d="M0 288.32 A3.54331 3.54331 0 0 1 7.09 288.32 A3.54331 3.54331 0 1 1 0 288.32 Z" class="st3"/>
				</g>
			</g>
			<g id="shape203-111" v:mID="203" v:groupContext="shape" transform="translate(0,-28.3465)">
				<title>Rectangle.151</title>
				<desc>22</desc>
				<v:userDefs>
					<v:ud v:nameU="visVersion" v:val="VT0(15):26"/>
				</v:userDefs>
				<v:textBlock v:margins="rect(4,4,4,4)" v:tabSpace="42.5197"/>
				<v:textRect cx="28.3465" cy="277.695" width="56.7" height="28.3465"/>
				<rect x="0" y="263.522" width="56.6929" height="28.3465" class="st1"/>
				<text x="23.28" y="280.69" class="st4" v:langID="1033"><v:paragraph v:horizAlign="1"/><v:tabList/>22</text>			</g>
			<g id="group204-114" transform="translate(28.3465,5.68434E-14)" v:mID="204" v:groupContext="group">
				<title>Sheet.204</title>
				<g id="shape205-115" v:mID="205" v:groupContext="shape">
					<title>Carré.106</title>
					<v:userDefs>
						<v:ud v:nameU="visVersion" v:val="VT0(15):26"/>
					</v:userDefs>
					<rect x="0" y="263.522" width="28.3465" height="28.3465" class="st1"/>
				</g>
				<g id="shape206-117" v:mID="206" v:groupContext="shape" transform="translate(10.6299,-10.6299)">
					<title>Cercle.107</title>
					<v:userDefs>
						<v:ud v:nameU="visVersion" v:val="VT0(15):26"/>
					</v:userDefs>
					<path d="M0 288.32 A3.54331 3.54331 0 0 1 7.09 288.32 A3.54331 3.54331 0 1 1 0 288.32 Z" class="st3"/>
				</g>
			</g>
		</g>
		<g id="shape207-119" v:mID="207" v:groupContext="shape" v:layerMember="1" transform="translate(214.323,-149.477)">
			<title>Lien dynamique.207</title>
			<path d="M0 291.87 L0 302.87 A10.4013 10.4013 0 0 1 -10.4 313.27 L-14.14 313.27 A6.66142 6.66142 -180 0 0 -20.8 319.93
						 L-20.8 321.08" class="st5"/>
		</g>
		<g id="shape208-124" v:mID="208" v:groupContext="shape" v:layerMember="1" transform="translate(242.67,-149.477)">
			<title>Lien dynamique.208</title>
			<path d="M0 291.87 L-0 302.87 A10.4013 10.4013 -180 0 0 10.4 313.27 L14.14 313.27 A6.66142 6.66142 0 0 1 20.8 319.93
						 L20.8 321.08" class="st5"/>
		</g>
		<g id="shape209-129" v:mID="209" v:groupContext="shape" v:layerMember="1" transform="translate(147.271,-227.43)">
			<title>Lien dynamique.209</title>
			<path d="M0 291.87 L0 302.5 A10.6299 10.6299 0 0 1 -10.63 313.13 L-54.81 313.13 A5.31496 5.31496 -180 0 0 -60.12 318.44
						 L-60.12 323.76" class="st7"/>
		</g>
		<g id="shape210-135" v:mID="210" v:groupContext="shape" v:layerMember="1" transform="translate(175.617,-227.43)">
			<title>Lien dynamique.210</title>
			<path d="M0 291.87 L0 302.5 A10.6299 10.6299 -180 0 0 10.63 313.13 L47.56 313.13 A5.31496 5.31496 0 0 1 52.88 318.44
						 L52.88 323.76" class="st7"/>
		</g>
		<g id="shape211-140" v:mID="211" v:groupContext="shape" v:layerMember="1" transform="translate(30.9134,-68.69)">
			<title>Lien dynamique.211</title>
			<path d="M7.09 291.87 L7.09 308.32" class="st5"/>
		</g>
		<g id="group212-145" transform="translate(52.1732,-18.375)" v:mID="212" v:groupContext="group">
			<title>Sheet.212</title>
			<g id="shape213-146" v:mID="213" v:groupContext="shape" transform="translate(6.96085E-07,-6.96085E-07)">
				<title>Carré.115</title>
				<v:userDefs>
					<v:ud v:nameU="visVersion" v:val="VT0(15):26"/>
				</v:userDefs>
				<rect x="0" y="263.522" width="28.3465" height="28.3465" class="st1"/>
			</g>
			<g id="shape214-148" v:mID="214" v:groupContext="shape" transform="translate(206.382,57.1397) rotate(45)">
				<title>Sheet.214</title>
				<path d="M0 291.87 L40.09 291.87" class="st2"/>
			</g>
			<g id="shape215-151" v:mID="215" v:groupContext="shape" transform="translate(234.728,469.904) rotate(135)">
				<title>Sheet.215</title>
				<path d="M0 291.87 L40.09 291.87" class="st2"/>
			</g>
		</g>
		<g id="group224-154" transform="translate(93.7785,-18.375)" v:mID="224" v:groupContext="group">
			<title>Sheet.224</title>
			<g id="group216-155" v:mID="216" v:groupContext="group">
				<title>Sheet.216</title>
				<g id="shape217-156" v:mID="217" v:groupContext="shape" transform="translate(6.96085E-07,-6.96085E-07)">
					<title>Carré.115</title>
					<v:userDefs>
						<v:ud v:nameU="visVersion" v:val="VT0(15):26"/>
					</v:userDefs>
					<rect x="0" y="263.522" width="28.3465" height="28.3465" class="st1"/>
				</g>
				<g id="shape218-158" v:mID="218" v:groupContext="shape" transform="translate(206.382,57.1397) rotate(45)">
					<title>Sheet.218</title>
					<path d="M0 291.87 L40.09 291.87" class="st2"/>
				</g>
				<g id="shape219-161" v:mID="219" v:groupContext="shape" transform="translate(234.728,469.904) rotate(135)">
					<title>Sheet.219</title>
					<path d="M0 291.87 L40.09 291.87" class="st2"/>
				</g>
			</g>
			<g id="group220-164" transform="translate(28.3465,0)" v:mID="220" v:groupContext="group">
				<title>Sheet.220</title>
				<g id="shape221-165" v:mID="221" v:groupContext="shape" transform="translate(6.96085E-07,-6.96085E-07)">
					<title>Carré.115</title>
					<v:userDefs>
						<v:ud v:nameU="visVersion" v:val="VT0(15):26"/>
					</v:userDefs>
					<rect x="0" y="263.522" width="28.3465" height="28.3465" class="st1"/>
				</g>
				<g id="shape222-167" v:mID="222" v:groupContext="shape" transform="translate(206.382,57.1397) rotate(45)">
					<title>Sheet.222</title>
					<path d="M0 291.87 L40.09 291.87" class="st2"/>
				</g>
				<g id="shape223-170" v:mID="223" v:groupContext="shape" transform="translate(234.728,469.904) rotate(135)">
					<title>Sheet.223</title>
					<path d="M0 291.87 L40.09 291.87" class="st2"/>
				</g>
			</g>
		</g>
		<g id="group225-173" transform="translate(165.174,-18.375)" v:mID="225" v:groupContext="group">
			<title>Sheet.225</title>
			<g id="shape226-174" v:mID="226" v:groupContext="shape" transform="translate(6.96085E-07,-6.96085E-07)">
				<title>Carré.115</title>
				<v:userDefs>
					<v:ud v:nameU="visVersion" v:val="VT0(15):26"/>
				</v:userDefs>
				<rect x="0" y="263.522" width="28.3465" height="28.3465" class="st1"/>
			</g>
			<g id="shape227-176" v:mID="227" v:groupContext="shape" transform="translate(206.382,57.1397) rotate(45)">
				<title>Sheet.227</title>
				<path d="M0 291.87 L40.09 291.87" class="st2"/>
			</g>
			<g id="shape228-179" v:mID="228" v:groupContext="shape" transform="translate(234.728,469.904) rotate(135)">
				<title>Sheet.228</title>
				<path d="M0 291.87 L40.09 291.87" class="st2"/>
			</g>
		</g>
		<g id="group229-182" transform="translate(193.52,-18.375)" v:mID="229" v:groupContext="group">
			<title>Sheet.229</title>
			<g id="shape230-183" v:mID="230" v:groupContext="shape" transform="translate(6.96085E-07,-6.96085E-07)">
				<title>Carré.115</title>
				<v:userDefs>
					<v:ud v:nameU="visVersion" v:val="VT0(15):26"/>
				</v:userDefs>
				<rect x="0" y="263.522" width="28.3465" height="28.3465" class="st1"/>
			</g>
			<g id="shape231-185" v:mID="231" v:groupContext="shape" transform="translate(206.382,57.1397) rotate(45)">
				<title>Sheet.231</title>
				<path d="M0 291.87 L40.09 291.87" class="st2"/>
			</g>
			<g id="shape232-188" v:mID="232" v:groupContext="shape" transform="translate(234.728,469.904) rotate(135)">
				<title>Sheet.232</title>
				<path d="M0 291.87 L40.09 291.87" class="st2"/>
			</g>
		</g>
		<g id="group233-191" transform="translate(235.126,-18.375)" v:mID="233" v:groupContext="group">
			<title>Sheet.233</title>
			<g id="shape234-192" v:mID="234" v:groupContext="shape" transform="translate(6.96085E-07,-6.96085E-07)">
				<title>Carré.115</title>
				<v:userDefs>
					<v:ud v:nameU="visVersion" v:val="VT0(15):26"/>
				</v:userDefs>
				<rect x="0" y="263.522" width="28.3465" height="28.3465" class="st1"/>
			</g>
			<g id="shape235-194" v:mID="235" v:groupContext="shape" transform="translate(206.382,57.1397) rotate(45)">
				<title>Sheet.235</title>
				<path d="M0 291.87 L40.09 291.87" class="st2"/>
			</g>
			<g id="shape236-197" v:mID="236" v:groupContext="shape" transform="translate(234.728,469.904) rotate(135)">
				<title>Sheet.236</title>
				<path d="M0 291.87 L40.09 291.87" class="st2"/>
			</g>
		</g>
		<g id="group237-200" transform="translate(263.472,-18.375)" v:mID="237" v:groupContext="group">
			<title>Sheet.237</title>
			<g id="shape238-201" v:mID="238" v:groupContext="shape" transform="translate(6.96085E-07,-6.96085E-07)">
				<title>Carré.115</title>
				<v:userDefs>
					<v:ud v:nameU="visVersion" v:val="VT0(15):26"/>
				</v:userDefs>
				<rect x="0" y="263.522" width="28.3465" height="28.3465" class="st1"/>
			</g>
			<g id="shape239-203" v:mID="239" v:groupContext="shape" transform="translate(206.382,57.1397) rotate(45)">
				<title>Sheet.239</title>
				<path d="M0 291.87 L40.09 291.87" class="st2"/>
			</g>
			<g id="shape240-206" v:mID="240" v:groupContext="shape" transform="translate(234.728,469.904) rotate(135)">
				<title>Sheet.240</title>
				<path d="M0 291.87 L40.09 291.87" class="st2"/>
			</g>
		</g>
		<g id="shape241-209" v:mID="241" v:groupContext="shape" v:layerMember="1" transform="translate(59.2598,-68.69)">
			<title>Lien dynamique</title>
			<path d="M7.09 291.87 L7.09 308.32" class="st5"/>
		</g>
		<g id="shape242-214" v:mID="242" v:groupContext="shape" v:layerMember="1" transform="translate(100.865,-68.69)">
			<title>Lien dynamique.242</title>
			<path d="M7.09 291.87 L7.09 308.32" class="st5"/>
		</g>
		<g id="shape243-219" v:mID="243" v:groupContext="shape" v:layerMember="1" transform="translate(129.212,-68.69)">
			<title>Lien dynamique.243</title>
			<path d="M7.09 291.87 L7.09 308.32" class="st5"/>
		</g>
		<g id="shape244-224" v:mID="244" v:groupContext="shape" v:layerMember="1" transform="translate(172.261,-68.69)">
			<title>Lien dynamique.244</title>
			<path d="M7.09 291.87 L7.09 308.32" class="st5"/>
		</g>
		<g id="shape245-229" v:mID="245" v:groupContext="shape" v:layerMember="1" transform="translate(200.607,-68.69)">
			<title>Lien dynamique.245</title>
			<path d="M7.09 291.87 L7.09 308.32" class="st5"/>
		</g>
		<g id="shape246-234" v:mID="246" v:groupContext="shape" v:layerMember="1" transform="translate(242.212,-68.69)">
			<title>Lien dynamique.246</title>
			<path d="M7.09 291.87 L7.09 308.32" class="st5"/>
		</g>
		<g id="shape247-239" v:mID="247" v:groupContext="shape" v:layerMember="1" transform="translate(270.559,-68.69)">
			<title>Lien dynamique.247</title>
			<path d="M7.09 291.87 L7.09 308.32" class="st5"/>
		</g>
	</g>
</svg>
