<?xml version="1.0" encoding="UTF-8" standalone="no"?>
<!DOCTYPE svg PUBLIC "-//W3C//DTD SVG 1.1//EN" "http://www.w3.org/Graphics/SVG/1.1/DTD/svg11.dtd">
<!-- Generated by Microsoft Visio, SVG Export build.svg Page-1 -->
<svg xmlns="http://www.w3.org/2000/svg" xmlns:xlink="http://www.w3.org/1999/xlink" xmlns:ev="http://www.w3.org/2001/xml-events"
		xmlns:v="http://schemas.microsoft.com/visio/2003/SVGExtensions/" width="8.62065in" height="2.5242in"
		viewBox="0 0 620.687 181.742" xml:space="preserve" color-interpolation-filters="sRGB" class="st12">
	<v:documentProperties v:langID="1036" v:metric="true" v:viewMarkup="false">
		<v:userDefs>
			<v:ud v:nameU="msvSubprocessMaster" v:prompt="" v:val="VT4(Rectangle)"/>
			<v:ud v:nameU="msvNoAutoConnect" v:val="VT0(1):26"/>
		</v:userDefs>
	</v:documentProperties>

	<style type="text/css">
	<![CDATA[
		.st1 {fill:#ffffff;stroke:none;stroke-linecap:butt;stroke-width:0.75}
		.st2 {fill:url(#grad10-7);stroke:none;stroke-linecap:butt;stroke-width:0.75}
		.st3 {fill:#a6a6a6;stroke:none;stroke-linecap:butt;stroke-width:0.75}
		.st4 {fill:none;stroke:#000000;stroke-linecap:round;stroke-linejoin:round;stroke-width:0.75}
		.st5 {fill:url(#grad0-21);stroke:none;stroke-linecap:butt;stroke-width:0.75}
		.st6 {fill:#000000;font-family:Calibri;font-size:1.00001em}
		.st7 {fill:#ffffff;stroke:#000000;stroke-linecap:round;stroke-linejoin:round;stroke-width:0.75}
		.st8 {fill:#000000;font-family:Calibri;font-size:0.833336em}
		.st9 {font-size:1em;font-weight:bold}
		.st10 {marker-end:url(#mrkr4-89);stroke:#000000;stroke-linecap:round;stroke-linejoin:round;stroke-width:0.237638}
		.st11 {fill:#000000;fill-opacity:1;stroke:#000000;stroke-opacity:1;stroke-width:0.086174404659928}
		.st12 {fill:none;fill-rule:evenodd;font-size:12px;overflow:visible;stroke-linecap:square;stroke-miterlimit:3}
	]]>
	</style>

	<defs id="Patterns_And_Gradients">
		<pattern id="grad10-7" x="0" y="0" width="1" height="1" patternContentUnits="objectBoundingBox">
			<path d="M 0.5 0.5 L 0 0 L 0 1 z" style="fill:url(#grad0-8)"/>
			<path d="M 0.5 0.5 L 1 0 L 1 1 z" style="fill:url(#grad0-9)"/>
			<path d="M 0.5 0.5 L 0 0 L 1 0 z" style="fill:url(#grad0-10)"/>
			<path d="M 0.5 0.5 L 0 1 L 1 1 z" style="fill:url(#grad0-11)"/>
		</pattern>
		<linearGradient id="grad0-8" x1="0" y1="0" x2="1" y2="0" gradientTransform="rotate(180 0.5 0.5)">
			<stop offset="0" stop-color="#ffffff" stop-opacity="1"/>
			<stop offset="1" stop-color="#ffffff" stop-opacity="1"/>
		</linearGradient>
		<linearGradient id="grad0-9" x1="0" y1="0" x2="1" y2="0" gradientTransform="rotate(360 0.5 0.5)">
			<stop offset="0" stop-color="#ffffff" stop-opacity="1"/>
			<stop offset="1" stop-color="#ffffff" stop-opacity="1"/>
		</linearGradient>
		<linearGradient id="grad0-10" x1="0" y1="0" x2="1" y2="0" gradientTransform="rotate(270 0.5 0.5)">
			<stop offset="0" stop-color="#ffffff" stop-opacity="1"/>
			<stop offset="1" stop-color="#ffffff" stop-opacity="1"/>
		</linearGradient>
		<linearGradient id="grad0-11" x1="0" y1="0" x2="1" y2="0" gradientTransform="rotate(90 0.5 0.5)">
			<stop offset="0" stop-color="#ffffff" stop-opacity="1"/>
			<stop offset="1" stop-color="#ffffff" stop-opacity="1"/>
		</linearGradient>
		<linearGradient id="grad0-21" x1="0" y1="0" x2="1" y2="0" gradientTransform="rotate(90 0.5 0.5)">
			<stop offset="0" stop-color="#ffffff" stop-opacity="1"/>
			<stop offset="1" stop-color="#a4a4a4" stop-opacity="1"/>
		</linearGradient>
	</defs>
	<defs id="Markers">
		<g id="lend4">
			<path d="M 2 1 L 0 0 L 2 -1 L 2 1 " style="stroke:none"/>
		</g>
		<marker id="mrkr4-89" class="st11" v:arrowType="4" v:arrowSize="2" v:setback="23.2087" refX="-23.208747514911"
				orient="auto" markerUnits="strokeWidth" overflow="visible">
			<use xlink:href="#lend4" transform="scale(-11.604373757455,-11.604373757455) "/>
		</marker>
	</defs>
	<g v:mID="0" v:index="1" v:groupContext="foregroundPage">
		<v:userDefs>
			<v:ud v:nameU="msvThemeOrder" v:val="VT0(0):26"/>
		</v:userDefs>
		<title>Page 1</title>
		<v:pageProperties v:drawingScale="0.0393701" v:pageScale="0.0393701" v:drawingUnits="24" v:shadowOffsetX="8.50394"
				v:shadowOffsetY="-8.50394"/>
		<v:layer v:name="Diagramme de flux" v:index="0"/>
		<v:layer v:name="Lien" v:index="1"/>
		<g id="group27-1" transform="translate(35.9552,-49.6063)" v:mID="27" v:groupContext="group">
			<v:userDefs>
				<v:ud v:nameU="visVersion" v:prompt="" v:val="VT0(15):26"/>
			</v:userDefs>
			<title>Document.27</title>
			<desc>.i</desc>
			<g id="shape28-2" v:mID="28" v:groupContext="shape" transform="translate(3.56517,-6.0201)">
				<title>Sheet.28</title>
				<path d="M48.52 136.36 L36.12 124.2 L0 124.22 L0 181.74 L48.5 181.74 L48.5 138.15 L48.52 138.15 L48.52 136.36 Z"
						class="st1"/>
			</g>
			<g id="shape29-4" v:mID="29" v:groupContext="shape" transform="translate(3.61376,-5.9996)">
				<title>Sheet.29</title>
				<path d="M36.07 124.24 L0 124.24 L0 181.74 L48.41 181.74 L48.41 136.34 L36.07 124.24 Z" class="st2"/>
			</g>
			<g id="shape30-12" v:mID="30" v:groupContext="shape" transform="translate(38.8615,-51.0136)">
				<title>Sheet.30</title>
				<path d="M13.16 181.35 L0.82 169.26 L0 169.26 L0 181.74 L13.16 181.74 L13.16 181.35 Z" class="st3"/>
			</g>
			<g id="shape31-14" v:mID="31" v:groupContext="shape" transform="translate(39.5616,-51.713)">
				<title>Sheet.31</title>
				<path d="M0 181.74 L11.73 181.74 L0 170.36 L0 181.74 Z" class="st1"/>
			</g>
			<g id="shape32-16" v:mID="32" v:groupContext="shape" transform="translate(3.56517,-6.0239)">
				<title>Sheet.32</title>
				<path d="M48.52 136.36 L36.12 124.2 L0 124.22 L0 181.74 L48.5 181.74 L48.5 138.15 L48.52 138.15 L48.52 136.36 Z"
						class="st4"/>
			</g>
			<g id="shape33-18" v:mID="33" v:groupContext="shape" transform="translate(8.4181,-49.5361)">
				<title>Sheet.33</title>
				<rect x="0" y="181.217" width="22.4661" height="0.524899" class="st5"/>
			</g>
			<g id="shape34-22" v:mID="34" v:groupContext="shape" transform="translate(8.4181,-43.4441)">
				<title>Sheet.34</title>
				<rect x="0" y="181.217" width="36.9358" height="0.524899" class="st5"/>
			</g>
			<g id="shape35-25" v:mID="35" v:groupContext="shape" transform="translate(8.4181,-37.7321)">
				<title>Sheet.35</title>
				<rect x="0" y="181.218" width="36.9358" height="0.524163" class="st5"/>
			</g>
			<g id="shape36-28" v:mID="36" v:groupContext="shape" transform="translate(8.4181,-32.02)">
				<title>Sheet.36</title>
				<rect x="0" y="181.217" width="36.9358" height="0.524899" class="st5"/>
			</g>
			<g id="shape37-31" v:mID="37" v:groupContext="shape" transform="translate(8.4181,-26.308)">
				<title>Sheet.37</title>
				<rect x="0" y="181.217" width="36.9358" height="0.524899" class="st5"/>
			</g>
			<g id="shape38-34" v:mID="38" v:groupContext="shape" transform="translate(8.4181,-20.5967)">
				<title>Sheet.38</title>
				<rect x="0" y="181.217" width="36.9358" height="0.524899" class="st5"/>
			</g>
			<g id="shape39-37" v:mID="39" v:groupContext="shape" transform="translate(8.4181,-14.8853)">
				<title>Sheet.39</title>
				<rect x="0" y="181.218" width="36.9358" height="0.524163" class="st5"/>
			</g>
			<g id="shape27-40" v:mID="27" v:groupContext="groupContent">
				<v:textBlock v:margins="rect(4,4,4,4)" v:tabSpace="42.5197"/>
				<v:textRect cx="28.3465" cy="148.92" width="16.5" height="22.4037"/>
				<text x="25.45" y="152.52" class="st6" v:langID="1033"><v:paragraph v:horizAlign="1"/><v:tabList/>.i</text>			</g>
		</g>
		<g id="group44-42" transform="translate(147.252,-59.77)" v:mID="44" v:groupContext="group">
			<title>Sheet.44</title>
			<g id="shape43-43" v:mID="43" v:groupContext="shape">
				<title>Rectangle</title>
				<desc>Compilation gcc -S</desc>
				<v:userDefs>
					<v:ud v:nameU="visVersion" v:val="VT0(15):26"/>
				</v:userDefs>
				<v:textBlock v:margins="rect(4,4,4,4)" v:tabSpace="42.5197"/>
				<v:textRect cx="46.3987" cy="157.125" width="92.8" height="49.2333"/>
				<rect x="0" y="132.509" width="92.7973" height="49.2333" class="st7"/>
				<text x="21.7" y="154.13" class="st8" v:langID="1033"><v:paragraph v:horizAlign="1"/><v:tabList/>Compilation<v:newlineChar/><tspan
							x="34.82" dy="1.2em" class="st9">gcc </tspan><tspan class="st9">-</tspan><tspan class="st9">S</tspan></text>			</g>
		</g>
		<g id="group45-49" transform="translate(285.702,-49.6063)" v:mID="45" v:groupContext="group">
			<v:userDefs>
				<v:ud v:nameU="visVersion" v:prompt="" v:val="VT0(15):26"/>
			</v:userDefs>
			<title>Document.45</title>
			<desc>.s</desc>
			<g id="shape46-50" v:mID="46" v:groupContext="shape" transform="translate(3.56517,-6.0201)">
				<title>Sheet.46</title>
				<path d="M48.52 136.36 L36.12 124.2 L0 124.22 L0 181.74 L48.5 181.74 L48.5 138.15 L48.52 138.15 L48.52 136.36 Z"
						class="st1"/>
			</g>
			<g id="shape47-52" v:mID="47" v:groupContext="shape" transform="translate(3.61376,-5.9996)">
				<title>Sheet.47</title>
				<path d="M36.07 124.24 L0 124.24 L0 181.74 L48.41 181.74 L48.41 136.34 L36.07 124.24 Z" class="st2"/>
			</g>
			<g id="shape48-55" v:mID="48" v:groupContext="shape" transform="translate(38.8615,-51.0136)">
				<title>Sheet.48</title>
				<path d="M13.16 181.35 L0.82 169.26 L0 169.26 L0 181.74 L13.16 181.74 L13.16 181.35 Z" class="st3"/>
			</g>
			<g id="shape49-57" v:mID="49" v:groupContext="shape" transform="translate(39.5616,-51.713)">
				<title>Sheet.49</title>
				<path d="M0 181.74 L11.73 181.74 L0 170.36 L0 181.74 Z" class="st1"/>
			</g>
			<g id="shape50-59" v:mID="50" v:groupContext="shape" transform="translate(3.56517,-6.0239)">
				<title>Sheet.50</title>
				<path d="M48.52 136.36 L36.12 124.2 L0 124.22 L0 181.74 L48.5 181.74 L48.5 138.15 L48.52 138.15 L48.52 136.36 Z"
						class="st4"/>
			</g>
			<g id="shape51-61" v:mID="51" v:groupContext="shape" transform="translate(8.4181,-49.5361)">
				<title>Sheet.51</title>
				<rect x="0" y="181.217" width="22.4661" height="0.524899" class="st5"/>
			</g>
			<g id="shape52-64" v:mID="52" v:groupContext="shape" transform="translate(8.4181,-43.4441)">
				<title>Sheet.52</title>
				<rect x="0" y="181.217" width="36.9358" height="0.524899" class="st5"/>
			</g>
			<g id="shape53-67" v:mID="53" v:groupContext="shape" transform="translate(8.4181,-37.7321)">
				<title>Sheet.53</title>
				<rect x="0" y="181.218" width="36.9358" height="0.524163" class="st5"/>
			</g>
			<g id="shape54-70" v:mID="54" v:groupContext="shape" transform="translate(8.4181,-32.02)">
				<title>Sheet.54</title>
				<rect x="0" y="181.217" width="36.9358" height="0.524899" class="st5"/>
			</g>
			<g id="shape55-73" v:mID="55" v:groupContext="shape" transform="translate(8.4181,-26.308)">
				<title>Sheet.55</title>
				<rect x="0" y="181.217" width="36.9358" height="0.524899" class="st5"/>
			</g>
			<g id="shape56-76" v:mID="56" v:groupContext="shape" transform="translate(8.4181,-20.5967)">
				<title>Sheet.56</title>
				<rect x="0" y="181.217" width="36.9358" height="0.524899" class="st5"/>
			</g>
			<g id="shape57-79" v:mID="57" v:groupContext="shape" transform="translate(8.4181,-14.8853)">
				<title>Sheet.57</title>
				<rect x="0" y="181.218" width="36.9358" height="0.524163" class="st5"/>
			</g>
			<g id="shape45-82" v:mID="45" v:groupContext="groupContent">
				<v:textBlock v:margins="rect(4,4,4,4)" v:tabSpace="42.5197"/>
				<v:textRect cx="28.3465" cy="148.92" width="18.44" height="22.4037"/>
				<text x="24.49" y="152.52" class="st6" v:langID="1033"><v:paragraph v:horizAlign="1"/><v:tabList/>.s</text>			</g>
		</g>
		<g id="shape59-84" v:mID="59" v:groupContext="shape" v:layerMember="1" transform="translate(88.0224,-77.3)">
			<title>Lien dynamique.59</title>
			<path d="M0 174.66 L53.71 174.66" class="st10"/>
		</g>
		<g id="shape60-90" v:mID="60" v:groupContext="shape" v:layerMember="1" transform="translate(240.05,-77.3)">
			<title>Lien dynamique.60</title>
			<path d="M0 174.66 L43.7 174.66" class="st10"/>
		</g>
		<g id="group62-95" transform="translate(390.286,-59.77)" v:mID="62" v:groupContext="group">
			<title>Sheet.62</title>
			<g id="shape63-96" v:mID="63" v:groupContext="shape">
				<title>Rectangle</title>
				<desc>Assemblage as</desc>
				<v:userDefs>
					<v:ud v:nameU="visVersion" v:val="VT0(15):26"/>
				</v:userDefs>
				<v:textBlock v:margins="rect(4,4,4,4)" v:tabSpace="42.5197"/>
				<v:textRect cx="46.3987" cy="157.125" width="92.8" height="49.2333"/>
				<rect x="0" y="132.509" width="92.7973" height="49.2333" class="st7"/>
				<text x="22.1" y="154.13" class="st8" v:langID="1033"><v:paragraph v:horizAlign="1"/><v:tabList/>Assemblage<v:newlineChar/><tspan
							x="41.94" dy="1.2em" class="st9">as</tspan></text>			</g>
		</g>
		<g id="group64-100" transform="translate(532.018,-49.6063)" v:mID="64" v:groupContext="group">
			<v:userDefs>
				<v:ud v:nameU="visVersion" v:prompt="" v:val="VT0(15):26"/>
			</v:userDefs>
			<title>Document.64</title>
			<desc>.o</desc>
			<g id="shape65-101" v:mID="65" v:groupContext="shape" transform="translate(3.56517,-6.0201)">
				<title>Sheet.65</title>
				<path d="M48.52 136.36 L36.12 124.2 L0 124.22 L0 181.74 L48.5 181.74 L48.5 138.15 L48.52 138.15 L48.52 136.36 Z"
						class="st1"/>
			</g>
			<g id="shape66-103" v:mID="66" v:groupContext="shape" transform="translate(3.61376,-5.9996)">
				<title>Sheet.66</title>
				<path d="M36.07 124.24 L0 124.24 L0 181.74 L48.41 181.74 L48.41 136.34 L36.07 124.24 Z" class="st2"/>
			</g>
			<g id="shape67-106" v:mID="67" v:groupContext="shape" transform="translate(38.8615,-51.0136)">
				<title>Sheet.67</title>
				<path d="M13.16 181.35 L0.82 169.26 L0 169.26 L0 181.74 L13.16 181.74 L13.16 181.35 Z" class="st3"/>
			</g>
			<g id="shape68-108" v:mID="68" v:groupContext="shape" transform="translate(39.5616,-51.713)">
				<title>Sheet.68</title>
				<path d="M0 181.74 L11.73 181.74 L0 170.36 L0 181.74 Z" class="st1"/>
			</g>
			<g id="shape69-110" v:mID="69" v:groupContext="shape" transform="translate(3.56517,-6.0239)">
				<title>Sheet.69</title>
				<path d="M48.52 136.36 L36.12 124.2 L0 124.22 L0 181.74 L48.5 181.74 L48.5 138.15 L48.52 138.15 L48.52 136.36 Z"
						class="st4"/>
			</g>
			<g id="shape70-112" v:mID="70" v:groupContext="shape" transform="translate(8.4181,-49.5361)">
				<title>Sheet.70</title>
				<rect x="0" y="181.217" width="22.4661" height="0.524899" class="st5"/>
			</g>
			<g id="shape71-115" v:mID="71" v:groupContext="shape" transform="translate(8.4181,-43.4441)">
				<title>Sheet.71</title>
				<rect x="0" y="181.217" width="36.9358" height="0.524899" class="st5"/>
			</g>
			<g id="shape72-118" v:mID="72" v:groupContext="shape" transform="translate(8.4181,-37.7321)">
				<title>Sheet.72</title>
				<rect x="0" y="181.218" width="36.9358" height="0.524163" class="st5"/>
			</g>
			<g id="shape73-121" v:mID="73" v:groupContext="shape" transform="translate(8.4181,-32.02)">
				<title>Sheet.73</title>
				<rect x="0" y="181.217" width="36.9358" height="0.524899" class="st5"/>
			</g>
			<g id="shape74-124" v:mID="74" v:groupContext="shape" transform="translate(8.4181,-26.308)">
				<title>Sheet.74</title>
				<rect x="0" y="181.217" width="36.9358" height="0.524899" class="st5"/>
			</g>
			<g id="shape75-127" v:mID="75" v:groupContext="shape" transform="translate(8.4181,-20.5967)">
				<title>Sheet.75</title>
				<rect x="0" y="181.217" width="36.9358" height="0.524899" class="st5"/>
			</g>
			<g id="shape76-130" v:mID="76" v:groupContext="shape" transform="translate(8.4181,-14.8853)">
				<title>Sheet.76</title>
				<rect x="0" y="181.218" width="36.9358" height="0.524163" class="st5"/>
			</g>
			<g id="shape64-133" v:mID="64" v:groupContext="groupContent">
				<v:textBlock v:margins="rect(4,4,4,4)" v:tabSpace="42.5197"/>
				<v:textRect cx="28.3465" cy="148.92" width="20.08" height="22.4037"/>
				<text x="23.67" y="152.52" class="st6" v:langID="1033"><v:paragraph v:horizAlign="1"/><v:tabList/>.o</text>			</g>
		</g>
		<g id="shape77-135" v:mID="77" v:groupContext="shape" v:layerMember="1" transform="translate(337.77,-77.3)">
			<title>Lien dynamique</title>
			<path d="M0 174.66 L47 174.66" class="st10"/>
		</g>
		<g id="shape78-140" v:mID="78" v:groupContext="shape" v:layerMember="1" transform="translate(483.083,-77.3)">
			<title>Lien dynamique.78</title>
			<path d="M0 174.66 L46.98 174.66" class="st10"/>
		</g>
	</g>
</svg>
