<?xml version="1.0" encoding="UTF-8" standalone="no"?>
<!DOCTYPE svg PUBLIC "-//W3C//DTD SVG 1.1//EN" "http://www.w3.org/Graphics/SVG/1.1/DTD/svg11.dtd">
<!-- Generated by Microsoft Visio, SVG Export c99-integers.svg Page-1 -->
<svg xmlns="http://www.w3.org/2000/svg" xmlns:xlink="http://www.w3.org/1999/xlink" xmlns:ev="http://www.w3.org/2001/xml-events"
		xmlns:v="http://schemas.microsoft.com/visio/2003/SVGExtensions/" width="6.16987in" height="2.50353in"
		viewBox="0 0 444.23 180.254" xml:space="preserve" color-interpolation-filters="sRGB" class="st7">
	<v:documentProperties v:langID="1036" v:metric="true" v:viewMarkup="false">
		<v:userDefs>
			<v:ud v:nameU="msvSubprocessMaster" v:prompt="" v:val="VT4(Rectangle)"/>
			<v:ud v:nameU="msvNoAutoConnect" v:val="VT0(1):26"/>
		</v:userDefs>
	</v:documentProperties>

	<style type="text/css">
	<![CDATA[
		.st1 {fill:#d8d8d8;stroke:none;stroke-linecap:round;stroke-linejoin:round;stroke-width:0.75}
		.st2 {fill:#000000;font-family:Calibri;font-size:0.833336em}
		.st3 {fill:#ffffff;stroke:#000000;stroke-linecap:round;stroke-linejoin:round;stroke-width:0.75}
		.st4 {marker-end:url(#mrkr4-35);stroke:#000000;stroke-linecap:round;stroke-linejoin:round;stroke-width:0.237638}
		.st5 {fill:#000000;fill-opacity:1;stroke:#000000;stroke-opacity:1;stroke-width:0.086174404659928}
		.st6 {fill:#000000;stroke:#000000;stroke-linecap:round;stroke-linejoin:round;stroke-width:0.75}
		.st7 {fill:none;fill-rule:evenodd;font-size:12px;overflow:visible;stroke-linecap:square;stroke-miterlimit:3}
	]]>
	</style>

	<defs id="Markers">
		<g id="lend4">
			<path d="M 2 1 L 0 0 L 2 -1 L 2 1 " style="stroke:none"/>
		</g>
		<marker id="mrkr4-35" class="st5" v:arrowType="4" v:arrowSize="2" v:setback="23.2087" refX="-23.208747514911" orient="auto"
				markerUnits="strokeWidth" overflow="visible">
			<use xlink:href="#lend4" transform="scale(-11.604373757455,-11.604373757455) "/>
		</marker>
	</defs>
	<g v:mID="0" v:index="1" v:groupContext="foregroundPage">
		<v:userDefs>
			<v:ud v:nameU="msvThemeOrder" v:val="VT0(0):26"/>
		</v:userDefs>
		<title>Page 1</title>
		<v:pageProperties v:drawingScale="0.0393701" v:pageScale="0.0393701" v:drawingUnits="24" v:shadowOffsetX="8.50394"
				v:shadowOffsetY="-8.50394"/>
		<v:layer v:name="Lien" v:index="0"/>
		<g id="shape1-1" v:mID="1" v:groupContext="shape" transform="translate(52.0364,-98.0994)">
			<title>Rectangle</title>
			<desc>u</desc>
			<v:userDefs>
				<v:ud v:nameU="visVersion" v:val="VT0(15):26"/>
			</v:userDefs>
			<v:textBlock v:margins="rect(4,4,4,4)" v:tabSpace="42.5197"/>
			<v:textRect cx="17.7165" cy="166.967" width="35.44" height="26.5748"/>
			<rect x="0" y="153.679" width="35.4331" height="26.5748" rx="8.50394" ry="8.50394" class="st1"/>
			<text x="15.09" y="169.97" class="st2" v:langID="1033"><v:paragraph v:horizAlign="1"/><v:tabList/>u</text>		</g>
		<g id="shape3-4" v:mID="3" v:groupContext="shape" transform="translate(114.044,-135.304)">
			<title>Rectangle.3</title>
			<desc>int</desc>
			<v:userDefs>
				<v:ud v:nameU="visVersion" v:val="VT0(15):26"/>
			</v:userDefs>
			<v:textBlock v:margins="rect(4,4,4,4)" v:tabSpace="42.5197"/>
			<v:textRect cx="17.7165" cy="166.967" width="35.44" height="26.5748"/>
			<rect x="0" y="153.679" width="35.4331" height="26.5748" rx="8.50394" ry="8.50394" class="st1"/>
			<text x="12.27" y="169.97" class="st2" v:langID="1033"><v:paragraph v:horizAlign="1"/><v:tabList/>int</text>		</g>
		<g id="shape4-7" v:mID="4" v:groupContext="shape" transform="translate(285.895,-135.304)">
			<title>Rectangle.4</title>
			<desc>8</desc>
			<v:userDefs>
				<v:ud v:nameU="visVersion" v:val="VT0(15):26"/>
			</v:userDefs>
			<v:textBlock v:margins="rect(4,4,4,4)" v:tabSpace="42.5197"/>
			<v:textRect cx="17.7165" cy="166.967" width="35.44" height="26.5748"/>
			<rect x="0" y="153.679" width="35.4331" height="26.5748" rx="8.50394" ry="8.50394" class="st1"/>
			<text x="15.18" y="169.97" class="st2" v:langID="1033"><v:paragraph v:horizAlign="1"/><v:tabList/>8</text>		</g>
		<g id="shape5-10" v:mID="5" v:groupContext="shape" transform="translate(285.895,-96.3278)">
			<title>Rectangle.5</title>
			<desc>16</desc>
			<v:userDefs>
				<v:ud v:nameU="visVersion" v:val="VT0(15):26"/>
			</v:userDefs>
			<v:textBlock v:margins="rect(4,4,4,4)" v:tabSpace="42.5197"/>
			<v:textRect cx="17.7165" cy="166.967" width="35.44" height="26.5748"/>
			<rect x="0" y="153.679" width="35.4331" height="26.5748" rx="8.50394" ry="8.50394" class="st1"/>
			<text x="12.65" y="169.97" class="st2" v:langID="1033"><v:paragraph v:horizAlign="1"/><v:tabList/>16</text>		</g>
		<g id="shape6-13" v:mID="6" v:groupContext="shape" transform="translate(285.895,-57.3514)">
			<title>Rectangle.6</title>
			<desc>32</desc>
			<v:userDefs>
				<v:ud v:nameU="visVersion" v:val="VT0(15):26"/>
			</v:userDefs>
			<v:textBlock v:margins="rect(4,4,4,4)" v:tabSpace="42.5197"/>
			<v:textRect cx="17.7165" cy="166.967" width="35.44" height="26.5748"/>
			<rect x="0" y="153.679" width="35.4331" height="26.5748" rx="8.50394" ry="8.50394" class="st1"/>
			<text x="12.65" y="169.97" class="st2" v:langID="1033"><v:paragraph v:horizAlign="1"/><v:tabList/>32</text>		</g>
		<g id="shape7-16" v:mID="7" v:groupContext="shape" transform="translate(285.895,-18.375)">
			<title>Rectangle.7</title>
			<desc>64</desc>
			<v:userDefs>
				<v:ud v:nameU="visVersion" v:val="VT0(15):26"/>
			</v:userDefs>
			<v:textBlock v:margins="rect(4,4,4,4)" v:tabSpace="42.5197"/>
			<v:textRect cx="17.7165" cy="166.967" width="35.44" height="26.5748"/>
			<rect x="0" y="153.679" width="35.4331" height="26.5748" rx="8.50394" ry="8.50394" class="st1"/>
			<text x="12.65" y="169.97" class="st2" v:langID="1033"><v:paragraph v:horizAlign="1"/><v:tabList/>64</text>		</g>
		<g id="shape8-19" v:mID="8" v:groupContext="shape" transform="translate(358.532,-135.304)">
			<title>Rectangle.8</title>
			<desc>_t</desc>
			<v:userDefs>
				<v:ud v:nameU="visVersion" v:val="VT0(15):26"/>
			</v:userDefs>
			<v:textBlock v:margins="rect(4,4,4,4)" v:tabSpace="42.5197"/>
			<v:textRect cx="17.7165" cy="166.967" width="35.44" height="26.5748"/>
			<rect x="0" y="153.679" width="35.4331" height="26.5748" rx="8.50394" ry="8.50394" class="st1"/>
			<text x="13.55" y="169.97" class="st2" v:langID="1033"><v:paragraph v:horizAlign="1"/><v:tabList/>_t</text>		</g>
		<g id="shape9-22" v:mID="9" v:groupContext="shape" transform="translate(179.595,-96.3278)">
			<title>Rectangle.9</title>
			<desc>_least</desc>
			<v:userDefs>
				<v:ud v:nameU="visVersion" v:val="VT0(15):26"/>
			</v:userDefs>
			<v:textBlock v:margins="rect(4,4,4,4)" v:tabSpace="42.5197"/>
			<v:textRect cx="17.7165" cy="166.967" width="35.44" height="26.5748"/>
			<rect x="0" y="153.679" width="35.4331" height="26.5748" rx="8.50394" ry="8.50394" class="st1"/>
			<text x="5.57" y="169.97" class="st2" v:langID="1033"><v:paragraph v:horizAlign="1"/><v:tabList/>_least</text>		</g>
		<g id="shape10-25" v:mID="10" v:groupContext="shape" transform="translate(179.595,-57.3514)">
			<title>Rectangle.10</title>
			<desc>_fast</desc>
			<v:userDefs>
				<v:ud v:nameU="visVersion" v:val="VT0(15):26"/>
			</v:userDefs>
			<v:textBlock v:margins="rect(4,4,4,4)" v:tabSpace="42.5197"/>
			<v:textRect cx="17.7165" cy="166.967" width="35.44" height="26.5748"/>
			<rect x="0" y="153.679" width="35.4331" height="26.5748" rx="8.50394" ry="8.50394" class="st1"/>
			<text x="7.68" y="169.97" class="st2" v:langID="1033"><v:paragraph v:horizAlign="1"/><v:tabList/>_fast</text>		</g>
		<g id="shape11-28" v:mID="11" v:groupContext="shape" transform="translate(18.375,-142.391)">
			<title>Cercle</title>
			<v:userDefs>
				<v:ud v:nameU="visVersion" v:val="VT0(15):26"/>
			</v:userDefs>
			<path d="M0 174.05 A6.20079 6.20079 0 0 1 12.4 174.05 A6.20079 6.20079 0 1 1 0 174.05 Z" class="st3"/>
		</g>
		<g id="shape13-30" v:mID="13" v:groupContext="shape" v:layerMember="0" transform="translate(30.7766,-148.592)">
			<title>Lien dynamique</title>
			<path d="M0 180.25 L10.63 180.25 L10.63 217.46 L15.74 217.46" class="st4"/>
		</g>
		<g id="shape14-36" v:mID="14" v:groupContext="shape" v:layerMember="0" transform="translate(30.7766,-141.505)">
			<title>Lien dynamique.14</title>
			<path d="M0 173.17 L77.75 173.17" class="st4"/>
		</g>
		<g id="shape15-41" v:mID="15" v:groupContext="shape" v:layerMember="0" transform="translate(87.4695,-111.387)">
			<title>Lien dynamique.15</title>
			<path d="M0 180.25 L5.31 180.25 A5.31496 5.31496 -180 0 0 10.63 174.94 L10.63 151.02 A7.97244 7.97244 0 0 1 18.6 143.05
						 L21.06 143.05" class="st4"/>
		</g>
		<g id="shape17-46" v:mID="17" v:groupContext="shape" v:layerMember="0" transform="translate(149.477,-141.505)">
			<title>Lien dynamique.17</title>
			<path d="M0 173.17 L130.9 173.17" class="st4"/>
		</g>
		<g id="shape18-51" v:mID="18" v:groupContext="shape" v:layerMember="0" transform="translate(149.477,-148.592)">
			<title>Lien dynamique.18</title>
			<path d="M0 180.25 L96.73 180.25 A11.3386 11.3386 0 0 1 108.07 191.59 L108.07 207.89 A11.3386 11.3386 -180 0 0 119.41
						 219.23 L130.9 219.23" class="st4"/>
		</g>
		<g id="shape19-56" v:mID="19" v:groupContext="shape" v:layerMember="0" transform="translate(149.477,-148.592)">
			<title>Lien dynamique.19</title>
			<path d="M0 180.25 L96.73 180.25 A11.3386 11.3386 0 0 1 108.07 191.59 L108.07 246.87 A11.3386 11.3386 -180 0 0 119.41
						 258.21 L130.9 258.21" class="st4"/>
		</g>
		<g id="shape20-61" v:mID="20" v:groupContext="shape" v:layerMember="0" transform="translate(149.477,-148.592)">
			<title>Lien dynamique.20</title>
			<path d="M0 180.25 L96.73 180.25 A11.3386 11.3386 0 0 1 108.07 191.59 L108.07 285.84 A11.3386 11.3386 -180 0 0 119.41
						 297.18 L130.9 297.18" class="st4"/>
		</g>
		<g id="shape21-66" v:mID="21" v:groupContext="shape" v:layerMember="0" transform="translate(149.477,-148.592)">
			<title>Lien dynamique.21</title>
			<path d="M0 180.25 L5.31 180.25 A5.31496 5.31496 0 0 1 10.63 185.57 L10.63 209.49 A9.74409 9.74409 -180 0 0 20.37 219.23
						 L24.6 219.23" class="st4"/>
		</g>
		<g id="shape22-71" v:mID="22" v:groupContext="shape" v:layerMember="0" transform="translate(149.477,-148.592)">
			<title>Lien dynamique.22</title>
			<path d="M0 180.25 L5.31 180.25 A5.31496 5.31496 0 0 1 10.63 185.57 L10.63 248.46 A9.74409 9.74409 -180 0 0 20.37 258.21
						 L24.6 258.21" class="st4"/>
		</g>
		<g id="shape25-76" v:mID="25" v:groupContext="shape" v:layerMember="0" transform="translate(321.328,-141.505)">
			<title>Lien dynamique.25</title>
			<path d="M0 173.17 L31.69 173.17" class="st4"/>
		</g>
		<g id="shape26-81" v:mID="26" v:groupContext="shape" v:layerMember="0" transform="translate(321.328,-109.615)">
			<title>Lien dynamique.26</title>
			<path d="M0 180.25 L8.49 180.25 A8.48679 8.48679 -180 0 0 16.97 171.77 L16.97 151.39 A10.1156 10.1156 0 0 1 27.09 141.28
						 L31.69 141.28" class="st4"/>
		</g>
		<g id="shape27-86" v:mID="27" v:groupContext="shape" v:layerMember="0" transform="translate(321.328,-70.6388)">
			<title>Lien dynamique.27</title>
			<path d="M0 180.25 L8.49 180.25 A8.48679 8.48679 -180 0 0 16.97 171.77 L16.97 112.42 A10.1156 10.1156 0 0 1 27.09 102.3
						 L31.69 102.3" class="st4"/>
		</g>
		<g id="shape28-91" v:mID="28" v:groupContext="shape" v:layerMember="0" transform="translate(321.328,-31.6624)">
			<title>Lien dynamique.28</title>
			<path d="M0 180.25 L8.49 180.25 A8.48679 8.48679 -180 0 0 16.97 171.77 L16.97 73.44 A10.1156 10.1156 0 0 1 27.09 63.32
						 L31.69 63.32" class="st4"/>
		</g>
		<g id="shape29-96" v:mID="29" v:groupContext="shape" v:layerMember="0" transform="translate(215.029,-109.615)">
			<title>Lien dynamique.29</title>
			<path d="M0 180.25 L5.31 180.25 A5.31496 5.31496 -180 0 0 10.63 174.94 L10.63 152.62 A11.3386 11.3386 0 0 1 21.97 141.28
						 L65.35 141.28" class="st4"/>
		</g>
		<g id="shape30-101" v:mID="30" v:groupContext="shape" v:layerMember="0" transform="translate(215.029,-70.6388)">
			<title>Lien dynamique.30</title>
			<path d="M0 180.25 L5.31 180.25 A5.31496 5.31496 -180 0 0 10.63 174.94 L10.63 113.64 A11.3386 11.3386 0 0 1 21.97 102.3
						 L65.35 102.3" class="st4"/>
		</g>
		<g id="shape31-106" v:mID="31" v:groupContext="shape" transform="translate(413.454,-142.391)">
			<title>Cercle.31</title>
			<v:userDefs>
				<v:ud v:nameU="visVersion" v:val="VT0(15):26"/>
			</v:userDefs>
			<path d="M0 174.05 A6.20079 6.20079 0 0 1 12.4 174.05 A6.20079 6.20079 0 1 1 0 174.05 Z" class="st6"/>
		</g>
		<g id="shape32-108" v:mID="32" v:groupContext="shape" v:layerMember="0" transform="translate(393.966,-141.505)">
			<title>Lien dynamique.32</title>
			<path d="M0 173.17 L13.97 173.17" class="st4"/>
		</g>
	</g>
</svg>
