<svg xmlns="http://www.w3.org/2000/svg" viewBox="0 0 586.06 236.13"><defs><style>.cls-1,.cls-10,.cls-11,.cls-12,.cls-2,.cls-4,.cls-7,.cls-8,.cls-9{fill:none;}.cls-11,.cls-2{stroke:#231f20;}.cls-10,.cls-11,.cls-12,.cls-2,.cls-4,.cls-7,.cls-8,.cls-9{stroke-miterlimit:10;}.cls-3,.cls-5{fill:#231f20;}.cls-4{stroke:#bc3856;}.cls-10,.cls-11,.cls-12,.cls-4,.cls-7,.cls-8,.cls-9{stroke-width:0.57px;}.cls-5{font-size:12px;font-family:MyriadPro-Regular, Myriad Pro;}.cls-6{font-size:10px;}.cls-7{stroke:#4766a9;}.cls-8{stroke:#7ca03e;}.cls-9{stroke:#c56b40;}.cls-10{stroke:#a9519f;}.cls-12{stroke:#06734a;}.cls-13{letter-spacing:0em;}.cls-14{letter-spacing:-0.01em;}.cls-15{letter-spacing:-0.07em;}</style></defs><g id="Layer_2" data-name="Layer 2"><g id="Layer_1-2" data-name="Layer 1"><rect class="cls-1" width="586.06" height="236.13"/><line class="cls-2" x1="141.14" y1="217.62" x2="141.14" y2="25.66"/><polygon class="cls-3" points="144.05 27.64 141.14 16.8 138.24 27.64 144.05 27.64"/><line class="cls-2" x1="141.14" y1="217.62" x2="451.96" y2="217.62"/><polygon class="cls-3" points="449.98 220.52 460.82 217.62 449.98 214.71 449.98 220.52"/><path class="cls-4" d="M141.14,217.62s24.1-29.1,298.21-29.1"/><text class="cls-5" transform="translate(399.48 186.19)">O(log n)</text><text class="cls-5" transform="translate(399.48 205.94)">O(1)</text><text class="cls-5" transform="translate(414.58 60.77)">O(n)</text><text class="cls-5" transform="translate(389.42 29.03)">O(n log n)</text><text class="cls-5" transform="translate(309.68 31.74)">O(n2)</text><text class="cls-5" transform="translate(230.71 31.74)">O(2<tspan class="cls-6" x="17.83" y="-5">n</tspan><tspan x="23.38" y="0">)</tspan></text><text class="cls-5" transform="translate(185.42 31.74)">O(n!)</text><line class="cls-7" x1="141.14" y1="217.62" x2="436.65" y2="32.13"/><path class="cls-8" d="M141.14,217.62s147.21-65.26,244.8-198.27"/><path class="cls-9" d="M141.14,217.62S283.9,131.7,303.1,21.29"/><path class="cls-10" d="M141.14,217.62s71.38-85.92,81-196.33"/><path class="cls-11" d="M141.14,217.62s33.57-85.92,38.09-196.33"/><line class="cls-12" x1="141.14" y1="209.42" x2="439.35" y2="209.42"/><text class="cls-5" transform="translate(417.6 231.72)">E<tspan class="cls-13" x="5.9" y="0">n</tspan><tspan x="12.52" y="0">t</tspan><tspan class="cls-14" x="16.49" y="0">r</tspan><tspan x="20.29" y="0">ée</tspan></text><text class="cls-5" transform="translate(135.15 129.58) rotate(-90)"><tspan class="cls-15">T</tspan><tspan x="5.11" y="0">emps</tspan></text></g></g></svg>