<?xml version="1.0" encoding="UTF-8" standalone="no"?>
<!DOCTYPE svg PUBLIC "-//W3C//DTD SVG 1.1//EN" "http://www.w3.org/Graphics/SVG/1.1/DTD/svg11.dtd">
<!-- Generated by Microsoft Visio, SVG Export encoding-trends.svg svg2 -->
<svg xmlns="http://www.w3.org/2000/svg" xmlns:xlink="http://www.w3.org/1999/xlink" xmlns:ev="http://www.w3.org/2001/xml-events"
		xmlns:v="http://schemas.microsoft.com/visio/2003/SVGExtensions/" width="6.69291in" height="3.93701in"
		viewBox="0 0 481.89 283.465" xml:space="preserve" color-interpolation-filters="sRGB" class="st14">
	<v:documentProperties v:langID="4108" v:viewMarkup="false"/>

	<style type="text/css">
	<![CDATA[
		.st1 {fill:none;stroke:none;stroke-linecap:butt;stroke-width:0.868119}
		.st2 {fill:none;stroke:#b3b3b3;stroke-linecap:butt;stroke-width:0.868119}
		.st3 {fill:none}
		.st4 {stroke:#b3b3b3;stroke-linecap:butt;stroke-width:0.868119}
		.st5 {stroke:#579d1c;stroke-linecap:butt;stroke-width:2.46083}
		.st6 {stroke:#993366;stroke-linecap:butt;stroke-width:2.46083}
		.st7 {stroke:#0084d1;stroke-linecap:butt;stroke-width:2.46083}
		.st8 {stroke:#ffd320;stroke-linecap:butt;stroke-width:2.46083}
		.st9 {stroke:#ff420e;stroke-linecap:butt;stroke-width:2.46083}
		.st10 {fill:none;stroke:none;stroke-linecap:butt;stroke-width:0.75}
		.st11 {fill:#000000;font-family:Calibri;font-size:0.924225em;font-stretch:normal}
		.st12 {font-size:1em}
		.st13 {fill:#000000;font-family:Calibri;font-size:1.01587em;font-stretch:normal}
		.st14 {fill:none;fill-rule:evenodd;font-size:12px;overflow:visible;stroke-linecap:square;stroke-miterlimit:3}
	]]>
	</style>

	<g v:mID="0" v:index="1" v:groupContext="foregroundPage">
		<title>svg2</title>
		<v:pageProperties v:drawingScale="1" v:pageScale="1" v:drawingUnits="19" v:shadowOffsetX="9" v:shadowOffsetY="-9"/>
		<g id="group1-1" v:mID="1" v:groupContext="group">
			<title>id2</title>
		</g>
		<g id="shape3-2" v:mID="3" v:groupContext="shape" transform="translate(0.348983,-0.410092)">
			<title>rect152</title>
			<rect x="0" y="0.666205" width="481.825" height="282.798" class="st1"/>
		</g>
		<g id="shape5-4" v:mID="5" v:groupContext="shape" transform="translate(59.045,-26.4561)">
			<title>path156</title>
			<path d="M162.26 283.46 L0 283.46 L0 66.74 L324.53 66.74 L324.53 283.46 L162.26 283.46 Z" class="st2"/>
		</g>
		<g id="shape6-6" v:mID="6" v:groupContext="shape" transform="translate(59.045,-26.4875)">
			<title>path158</title>
			<path d="M324.53 283.46 L0 283.46 L324.53 283.46 Z" class="st3"/>
			<path d="M324.53 283.46 L0 283.46" class="st4"/>
		</g>
		<g id="shape13-9" v:mID="13" v:groupContext="shape" transform="translate(59.045,-243.213)">
			<title>path172</title>
			<path d="M324.53 283.46 L0 283.46 L324.53 283.46 Z" class="st3"/>
			<path d="M324.53 283.46 L0 283.46" class="st4"/>
		</g>
		<g id="shape14-12" v:mID="14" v:groupContext="shape" transform="translate(59.045,-21.7747)">
			<title>path174</title>
			<path d="M0 283.46 L0 278.75 L0 283.46 Z" class="st3"/>
			<path d="M0 283.46 L0 278.75" class="st4"/>
		</g>
		<g id="shape15-15" v:mID="15" v:groupContext="shape" transform="translate(59.045,-21.7747)">
			<title>path176</title>
			<path d="M0 283.46 L0 278.75 L0 283.46 Z" class="st3"/>
			<path d="M0 283.46 L0 278.75" class="st4"/>
		</g>
		<g id="shape16-18" v:mID="16" v:groupContext="shape" transform="translate(105.393,-21.7747)">
			<title>path178</title>
			<path d="M0 283.46 L0 278.75 L0 283.46 Z" class="st3"/>
			<path d="M0 283.46 L0 278.75" class="st4"/>
		</g>
		<g id="shape17-21" v:mID="17" v:groupContext="shape" transform="translate(105.393,-21.7747)">
			<title>path180</title>
			<path d="M0 283.46 L0 278.75 L0 283.46 Z" class="st3"/>
			<path d="M0 283.46 L0 278.75" class="st4"/>
		</g>
		<g id="shape18-24" v:mID="18" v:groupContext="shape" transform="translate(151.742,-21.7747)">
			<title>path182</title>
			<path d="M0 283.46 L0 278.75 L0 283.46 Z" class="st3"/>
			<path d="M0 283.46 L0 278.75" class="st4"/>
		</g>
		<g id="shape19-27" v:mID="19" v:groupContext="shape" transform="translate(151.742,-21.7747)">
			<title>path184</title>
			<path d="M0 283.46 L0 278.75 L0 283.46 Z" class="st3"/>
			<path d="M0 283.46 L0 278.75" class="st4"/>
		</g>
		<g id="shape20-30" v:mID="20" v:groupContext="shape" transform="translate(198.12,-21.7747)">
			<title>path186</title>
			<path d="M0 283.46 L0 278.75 L0 283.46 Z" class="st3"/>
			<path d="M0 283.46 L0 278.75" class="st4"/>
		</g>
		<g id="shape21-33" v:mID="21" v:groupContext="shape" transform="translate(198.12,-21.7747)">
			<title>path188</title>
			<path d="M0 283.46 L0 278.75 L0 283.46 Z" class="st3"/>
			<path d="M0 283.46 L0 278.75" class="st4"/>
		</g>
		<g id="shape22-36" v:mID="22" v:groupContext="shape" transform="translate(244.469,-21.7747)">
			<title>path190</title>
			<path d="M0 283.46 L0 278.75 L0 283.46 Z" class="st3"/>
			<path d="M0 283.46 L0 278.75" class="st4"/>
		</g>
		<g id="shape23-39" v:mID="23" v:groupContext="shape" transform="translate(244.469,-21.7747)">
			<title>path192</title>
			<path d="M0 283.46 L0 278.75 L0 283.46 Z" class="st3"/>
			<path d="M0 283.46 L0 278.75" class="st4"/>
		</g>
		<g id="shape24-42" v:mID="24" v:groupContext="shape" transform="translate(290.848,-21.7747)">
			<title>path194</title>
			<path d="M0 283.46 L0 278.75 L0 283.46 Z" class="st3"/>
			<path d="M0 283.46 L0 278.75" class="st4"/>
		</g>
		<g id="shape25-45" v:mID="25" v:groupContext="shape" transform="translate(290.848,-21.7747)">
			<title>path196</title>
			<path d="M0 283.46 L0 278.75 L0 283.46 Z" class="st3"/>
			<path d="M0 283.46 L0 278.75" class="st4"/>
		</g>
		<g id="shape26-48" v:mID="26" v:groupContext="shape" transform="translate(337.196,-21.7747)">
			<title>path198</title>
			<path d="M0 283.46 L0 278.75 L0 283.46 Z" class="st3"/>
			<path d="M0 283.46 L0 278.75" class="st4"/>
		</g>
		<g id="shape27-51" v:mID="27" v:groupContext="shape" transform="translate(337.196,-21.7747)">
			<title>path200</title>
			<path d="M0 283.46 L0 278.75 L0 283.46 Z" class="st3"/>
			<path d="M0 283.46 L0 278.75" class="st4"/>
		</g>
		<g id="shape28-54" v:mID="28" v:groupContext="shape" transform="translate(383.575,-21.7747)">
			<title>path202</title>
			<path d="M0 283.46 L0 278.75 L0 283.46 Z" class="st3"/>
			<path d="M0 283.46 L0 278.75" class="st4"/>
		</g>
		<g id="shape29-57" v:mID="29" v:groupContext="shape" transform="translate(383.575,-21.7747)">
			<title>path204</title>
			<path d="M0 283.46 L0 278.75 L0 283.46 Z" class="st3"/>
			<path d="M0 283.46 L0 278.75" class="st4"/>
		</g>
		<g id="shape30-60" v:mID="30" v:groupContext="shape" transform="translate(59.045,-26.4875)">
			<title>path206</title>
			<path d="M0 283.46 L324.53 283.46 L0 283.46 Z" class="st3"/>
			<path d="M0 283.46 L324.53 283.46" class="st4"/>
		</g>
		<g id="shape31-63" v:mID="31" v:groupContext="shape" transform="translate(54.5276,-26.4875)">
			<title>path208</title>
			<path d="M0 283.46 L4.52 283.46 L0 283.46 Z" class="st3"/>
			<path d="M0 283.46 L4.52 283.46" class="st4"/>
		</g>
		<g id="shape32-66" v:mID="32" v:groupContext="shape" transform="translate(54.5276,-26.4875)">
			<title>path210</title>
			<path d="M0 283.46 L4.52 283.46 L0 283.46 Z" class="st3"/>
			<path d="M0 283.46 L4.52 283.46" class="st4"/>
		</g>
		<g id="shape33-69" v:mID="33" v:groupContext="shape" transform="translate(54.5276,-57.4662)">
			<title>path212</title>
			<path d="M0 283.46 L4.52 283.46 L0 283.46 Z" class="st3"/>
			<path d="M0 283.46 L4.52 283.46" class="st4"/>
		</g>
		<g id="shape34-72" v:mID="34" v:groupContext="shape" transform="translate(54.5276,-57.4662)">
			<title>path214</title>
			<path d="M0 283.46 L4.52 283.46 L0 283.46 Z" class="st3"/>
			<path d="M0 283.46 L4.52 283.46" class="st4"/>
		</g>
		<g id="shape35-75" v:mID="35" v:groupContext="shape" transform="translate(54.5276,-88.4134)">
			<title>path216</title>
			<path d="M0 283.46 L4.52 283.46 L0 283.46 Z" class="st3"/>
			<path d="M0 283.46 L4.52 283.46" class="st4"/>
		</g>
		<g id="shape36-78" v:mID="36" v:groupContext="shape" transform="translate(54.5276,-88.4134)">
			<title>path218</title>
			<path d="M0 283.46 L4.52 283.46 L0 283.46 Z" class="st3"/>
			<path d="M0 283.46 L4.52 283.46" class="st4"/>
		</g>
		<g id="shape37-81" v:mID="37" v:groupContext="shape" transform="translate(54.5276,-119.392)">
			<title>path220</title>
			<path d="M0 283.46 L4.52 283.46 L0 283.46 Z" class="st3"/>
			<path d="M0 283.46 L4.52 283.46" class="st4"/>
		</g>
		<g id="shape38-84" v:mID="38" v:groupContext="shape" transform="translate(54.5276,-119.392)">
			<title>path222</title>
			<path d="M0 283.46 L4.52 283.46 L0 283.46 Z" class="st3"/>
			<path d="M0 283.46 L4.52 283.46" class="st4"/>
		</g>
		<g id="shape39-87" v:mID="39" v:groupContext="shape" transform="translate(54.5276,-150.339)">
			<title>path224</title>
			<path d="M0 283.46 L4.52 283.46 L0 283.46 Z" class="st3"/>
			<path d="M0 283.46 L4.52 283.46" class="st4"/>
		</g>
		<g id="shape40-90" v:mID="40" v:groupContext="shape" transform="translate(54.5276,-150.339)">
			<title>path226</title>
			<path d="M0 283.46 L4.52 283.46 L0 283.46 Z" class="st3"/>
			<path d="M0 283.46 L4.52 283.46" class="st4"/>
		</g>
		<g id="shape41-93" v:mID="41" v:groupContext="shape" transform="translate(54.5276,-181.318)">
			<title>path228</title>
			<path d="M0 283.46 L4.52 283.46 L0 283.46 Z" class="st3"/>
			<path d="M0 283.46 L4.52 283.46" class="st4"/>
		</g>
		<g id="shape42-96" v:mID="42" v:groupContext="shape" transform="translate(54.5276,-181.318)">
			<title>path230</title>
			<path d="M0 283.46 L4.52 283.46 L0 283.46 Z" class="st3"/>
			<path d="M0 283.46 L4.52 283.46" class="st4"/>
		</g>
		<g id="shape43-99" v:mID="43" v:groupContext="shape" transform="translate(54.5276,-212.265)">
			<title>path232</title>
			<path d="M0 283.46 L4.52 283.46 L0 283.46 Z" class="st3"/>
			<path d="M0 283.46 L4.52 283.46" class="st4"/>
		</g>
		<g id="shape44-102" v:mID="44" v:groupContext="shape" transform="translate(54.5276,-212.265)">
			<title>path234</title>
			<path d="M0 283.46 L4.52 283.46 L0 283.46 Z" class="st3"/>
			<path d="M0 283.46 L4.52 283.46" class="st4"/>
		</g>
		<g id="shape45-105" v:mID="45" v:groupContext="shape" transform="translate(54.5276,-243.213)">
			<title>path236</title>
			<path d="M0 283.46 L4.52 283.46 L0 283.46 Z" class="st3"/>
			<path d="M0 283.46 L4.52 283.46" class="st4"/>
		</g>
		<g id="shape46-108" v:mID="46" v:groupContext="shape" transform="translate(54.5276,-243.213)">
			<title>path238</title>
			<path d="M0 283.46 L4.52 283.46 L0 283.46 Z" class="st3"/>
			<path d="M0 283.46 L4.52 283.46" class="st4"/>
		</g>
		<g id="shape47-111" v:mID="47" v:groupContext="shape" transform="translate(59.045,-26.4875)">
			<title>path240</title>
			<path d="M0 283.46 L0 66.74 L0 283.46 Z" class="st3"/>
			<path d="M0 283.46 L0 66.74" class="st4"/>
		</g>
		<g id="shape48-114" v:mID="48" v:groupContext="shape" transform="translate(82.2042,-46.6268)">
			<title>path242</title>
			<path d="M0 261.79 L23.19 257.14 L46.38 263.33 L69.54 266.44 L92.73 257.14 L115.92 247.87 L139.11 227.73 L162.26 241.68
						 L185.45 237.03 L208.64 266.44 L231.8 269.55 L254.99 283.46 L0 261.79 Z" class="st3"/>
			<path d="M0 261.79 L23.19 257.14 L46.38 263.33 L69.54 266.44 L92.73 257.14 L115.92 247.87 L139.11 227.73 L162.26 241.68
						 L185.45 237.03 L208.64 266.44 L231.8 269.55 L254.99 283.46" class="st5"/>
		</g>
		<g id="shape49-117" v:mID="49" v:groupContext="shape" transform="translate(82.2042,-35.7874)">
			<title>path244</title>
			<path d="M0 274.16 L23.19 267.98 L46.38 267.98 L69.54 271.09 L92.73 274.16 L115.92 277.28 L139.11 275.74 L162.26 277.28
						 L185.45 278.81 L208.64 283.46 L231.8 277.28 L254.99 281.93 L0 274.16 Z" class="st3"/>
			<path d="M0 274.16 L23.19 267.98 L46.38 267.98 L69.54 271.09 L92.73 274.16 L115.92 277.28 L139.11 275.74 L162.26 277.28
						 L185.45 278.81 L208.64 283.46 L231.8 277.28 L254.99 281.93" class="st6"/>
		</g>
		<g id="shape50-120" v:mID="50" v:groupContext="shape" transform="translate(82.2042,-26.4875)">
			<title>path246</title>
			<path d="M0 283.46 L23.19 283.46 L46.38 280.35 L69.54 277.24 L92.73 274.16 L115.92 264.86 L139.11 240.11 L162.26 202.94
						 L185.45 184.37 L208.64 141.04 L231.8 116.26 L254.99 85.31 L0 283.46 Z" class="st3"/>
			<path d="M0 283.46 L23.19 283.46 L46.38 280.35 L69.54 277.24 L92.73 274.16 L115.92 264.86 L139.11 240.11 L162.26 202.94
						 L185.45 184.37 L208.64 141.04 L231.8 116.26 L254.99 85.31" class="st7"/>
		</g>
		<g id="shape51-123" v:mID="51" v:groupContext="shape" transform="translate(82.2042,-57.4662)">
			<title>path248</title>
			<path d="M0 241.68 L23.19 230.84 L46.38 221.54 L69.54 215.35 L92.73 212.27 L115.92 215.35 L139.11 233.92 L162.26 237.03
						 L185.45 258.71 L208.64 255.6 L231.8 277.28 L254.99 283.46 L0 241.68 Z" class="st3"/>
			<path d="M0 241.68 L23.19 230.84 L46.38 221.54 L69.54 215.35 L92.73 212.27 L115.92 215.35 L139.11 233.92 L162.26 237.03
						 L185.45 258.71 L208.64 255.6 L231.8 277.28 L254.99 283.46" class="st8"/>
		</g>
		<g id="shape52-126" v:mID="52" v:groupContext="shape" transform="translate(82.2042,-76.0345)">
			<title>path250</title>
			<path d="M0 156.53 L23.19 178.18 L46.38 184.37 L69.54 187.48 L92.73 199.86 L115.92 212.24 L139.11 240.11 L162.26 258.68
						 L185.45 258.68 L208.64 271.09 L231.8 277.28 L254.99 283.46 L0 156.53 Z" class="st3"/>
			<path d="M0 156.53 L23.19 178.18 L46.38 184.37 L69.54 187.48 L92.73 199.86 L115.92 212.24 L139.11 240.11 L162.26 258.68
						 L185.45 258.68 L208.64 271.09 L231.8 277.28 L254.99 283.46" class="st9"/>
		</g>
		<g id="shape53-129" v:mID="53" v:groupContext="shape" transform="translate(47.5708,-5.22027)">
			<title>text252</title>
			<desc>2000</desc>
			<v:textBlock v:margins="rect(0,0,0,0)"/>
			<v:textRect cx="21.2619" cy="276.81" width="42.53" height="13.3089"/>
			<rect x="0" y="270.156" width="42.5237" height="13.3089" class="st10"/>
			<text x="0" y="280.14" class="st11" v:langID="4108"><v:paragraph/><v:tabList/>2000</text>		</g>
		<g id="shape54-132" v:mID="54" v:groupContext="shape" transform="translate(93.9193,-5.22027)">
			<title>text260</title>
			<desc>2002</desc>
			<v:textBlock v:margins="rect(0,0,0,0)"/>
			<v:textRect cx="21.2619" cy="276.81" width="42.53" height="13.3089"/>
			<rect x="0" y="270.156" width="42.5237" height="13.3089" class="st10"/>
			<text x="0" y="280.14" class="st11" v:langID="4108"><v:paragraph/><v:tabList/>2002</text>		</g>
		<g id="shape55-135" v:mID="55" v:groupContext="shape" transform="translate(140.268,-5.22027)">
			<title>text268</title>
			<desc>2004</desc>
			<v:textBlock v:margins="rect(0,0,0,0)"/>
			<v:textRect cx="21.2619" cy="276.81" width="42.53" height="13.3089"/>
			<rect x="0" y="270.156" width="42.5237" height="13.3089" class="st10"/>
			<text x="0" y="280.14" class="st11" v:langID="4108"><v:paragraph/><v:tabList/>2004</text>		</g>
		<g id="shape56-138" v:mID="56" v:groupContext="shape" transform="translate(186.646,-5.22027)">
			<title>text276</title>
			<desc>2006</desc>
			<v:textBlock v:margins="rect(0,0,0,0)"/>
			<v:textRect cx="21.2619" cy="276.81" width="42.53" height="13.3089"/>
			<rect x="0" y="270.156" width="42.5237" height="13.3089" class="st10"/>
			<text x="0" y="280.14" class="st11" v:langID="4108"><v:paragraph/><v:tabList/>2006</text>		</g>
		<g id="shape57-141" v:mID="57" v:groupContext="shape" transform="translate(232.995,-5.22027)">
			<title>text284</title>
			<desc>2008</desc>
			<v:textBlock v:margins="rect(0,0,0,0)"/>
			<v:textRect cx="21.2619" cy="276.81" width="42.53" height="13.3089"/>
			<rect x="0" y="270.156" width="42.5237" height="13.3089" class="st10"/>
			<text x="0" y="280.14" class="st11" v:langID="4108"><v:paragraph/><v:tabList/>2008</text>		</g>
		<g id="shape58-144" v:mID="58" v:groupContext="shape" transform="translate(279.373,-5.22027)">
			<title>text292</title>
			<desc>2010</desc>
			<v:textBlock v:margins="rect(0,0,0,0)"/>
			<v:textRect cx="21.2619" cy="276.81" width="42.53" height="13.3089"/>
			<rect x="0" y="270.156" width="42.5237" height="13.3089" class="st10"/>
			<text x="0" y="280.14" class="st11" v:langID="4108"><v:paragraph/><v:tabList/>2010</text>		</g>
		<g id="shape59-147" v:mID="59" v:groupContext="shape" transform="translate(325.722,-5.22027)">
			<title>text300</title>
			<desc>2012</desc>
			<v:textBlock v:margins="rect(0,0,0,0)"/>
			<v:textRect cx="21.2619" cy="276.81" width="42.53" height="13.3089"/>
			<rect x="0" y="270.156" width="42.5237" height="13.3089" class="st10"/>
			<text x="0" y="280.14" class="st11" v:langID="4108"><v:paragraph/><v:tabList/>2012</text>		</g>
		<g id="shape60-150" v:mID="60" v:groupContext="shape" transform="translate(372.1,-5.22027)">
			<title>text308</title>
			<desc>2014</desc>
			<v:textBlock v:margins="rect(0,0,0,0)"/>
			<v:textRect cx="21.2619" cy="276.81" width="42.53" height="13.3089"/>
			<rect x="0" y="270.156" width="42.5237" height="13.3089" class="st10"/>
			<text x="0" y="280.14" class="st11" v:langID="4108"><v:paragraph/><v:tabList/>2014</text>		</g>
		<g id="shape61-153" v:mID="61" v:groupContext="shape" transform="translate(30.4874,-19.2329)">
			<title>text316</title>
			<desc>0 %</desc>
			<v:textBlock v:margins="rect(0,0,0,0)"/>
			<v:textRect cx="10.0126" cy="276.81" width="20.03" height="13.3089"/>
			<rect x="0" y="270.156" width="20.0253" height="13.3089" class="st10"/>
			<text x="4.64" y="280.14" class="st11" v:langID="4108"><v:paragraph v:horizAlign="2"/><v:tabList/>0<tspan class="st12"
						v:langID="1033"> </tspan><tspan class="st12" v:langID="1033">%</tspan></text>		</g>
		<g id="shape62-158" v:mID="62" v:groupContext="shape" transform="translate(28.8075,-50.2116)">
			<title>text324</title>
			<desc>10 %</desc>
			<v:textBlock v:margins="rect(0,0,0,0)"/>
			<v:textRect cx="11.6925" cy="276.81" width="23.39" height="13.3089"/>
			<rect x="0" y="270.156" width="23.385" height="13.3089" class="st10"/>
			<text x="2.61" y="280.14" class="st11" v:langID="1033"><v:paragraph v:horizAlign="2"/><v:tabList/>10 %</text>		</g>
		<g id="shape63-161" v:mID="63" v:groupContext="shape" transform="translate(28.8075,-81.1589)">
			<title>text332</title>
			<desc>20 %</desc>
			<v:textBlock v:margins="rect(0,0,0,0)"/>
			<v:textRect cx="11.6925" cy="276.81" width="23.39" height="13.3089"/>
			<rect x="0" y="270.156" width="23.385" height="13.3089" class="st10"/>
			<text x="2.61" y="280.14" class="st11" v:langID="4108"><v:paragraph v:horizAlign="2"/><v:tabList/>20<tspan class="st12"
						v:langID="1033"> </tspan><tspan class="st12" v:langID="1033">%</tspan></text>		</g>
		<g id="shape64-166" v:mID="64" v:groupContext="shape" transform="translate(28.8075,-112.138)">
			<title>text340</title>
			<desc>30 %</desc>
			<v:textBlock v:margins="rect(0,0,0,0)"/>
			<v:textRect cx="11.6925" cy="276.81" width="23.39" height="13.3089"/>
			<rect x="0" y="270.156" width="23.385" height="13.3089" class="st10"/>
			<text x="2.61" y="280.14" class="st11" v:langID="4108"><v:paragraph v:horizAlign="2"/><v:tabList/>30<tspan class="st12"
						v:langID="1033"> </tspan><tspan class="st12" v:langID="1033">%</tspan></text>		</g>
		<g id="shape65-171" v:mID="65" v:groupContext="shape" transform="translate(28.8075,-143.085)">
			<title>text348</title>
			<desc>40 %</desc>
			<v:textBlock v:margins="rect(0,0,0,0)"/>
			<v:textRect cx="11.6925" cy="276.81" width="23.39" height="13.3089"/>
			<rect x="0" y="270.156" width="23.385" height="13.3089" class="st10"/>
			<text x="2.61" y="280.14" class="st11" v:langID="4108"><v:paragraph v:horizAlign="2"/><v:tabList/>40<tspan class="st12"
						v:langID="1033"> </tspan><tspan class="st12" v:langID="1033">%</tspan></text>		</g>
		<g id="shape66-176" v:mID="66" v:groupContext="shape" transform="translate(28.8075,-174.064)">
			<title>text356</title>
			<desc>50 %</desc>
			<v:textBlock v:margins="rect(0,0,0,0)"/>
			<v:textRect cx="11.6925" cy="276.81" width="23.39" height="13.3089"/>
			<rect x="0" y="270.156" width="23.385" height="13.3089" class="st10"/>
			<text x="2.61" y="280.14" class="st11" v:langID="4108"><v:paragraph v:horizAlign="2"/><v:tabList/>50<tspan class="st12"
						v:langID="1033"> </tspan><tspan class="st12" v:langID="1033">%</tspan></text>		</g>
		<g id="shape67-181" v:mID="67" v:groupContext="shape" transform="translate(28.8075,-205.011)">
			<title>text364</title>
			<desc>60 %</desc>
			<v:textBlock v:margins="rect(0,0,0,0)"/>
			<v:textRect cx="11.6925" cy="276.81" width="23.39" height="13.3089"/>
			<rect x="0" y="270.156" width="23.385" height="13.3089" class="st10"/>
			<text x="2.61" y="280.14" class="st11" v:langID="4108"><v:paragraph v:horizAlign="2"/><v:tabList/>60<tspan class="st12"
						v:langID="1033"> </tspan><tspan class="st12" v:langID="1033">%</tspan></text>		</g>
		<g id="shape68-186" v:mID="68" v:groupContext="shape" transform="translate(28.8075,-235.958)">
			<title>text372</title>
			<desc>70 %</desc>
			<v:textBlock v:margins="rect(0,0,0,0)"/>
			<v:textRect cx="11.6925" cy="276.81" width="23.39" height="13.3089"/>
			<rect x="0" y="270.156" width="23.385" height="13.3089" class="st10"/>
			<text x="2.61" y="280.14" class="st11" v:langID="4108"><v:paragraph v:horizAlign="2"/><v:tabList/>70<tspan class="st12"
						v:langID="1033"> </tspan><tspan class="st12" v:langID="1033">%</tspan></text>		</g>
		<g id="shape70-191" v:mID="70" v:groupContext="shape" transform="translate(82.7073,-247.5)">
			<title>text388</title>
			<desc>Pages Web avec différents encodage (Google Trends)</desc>
			<v:textBlock v:margins="rect(0,0,0,0)"/>
			<v:textRect cx="137.793" cy="276.15" width="275.59" height="14.6285"/>
			<rect x="0" y="268.836" width="275.585" height="14.6285" class="st10"/>
			<text x="11.33" y="279.81" class="st13" v:langID="1033"><v:paragraph v:horizAlign="1"/><v:tabList/>Pages Web avec différents encodage (Google Trends)</text>		</g>
		<g id="shape71-194" v:mID="71" v:groupContext="shape" transform="translate(393.904,-161.933)">
			<title>path396</title>
			<path d="M0 283.46 L24.09 283.46 L0 283.46 Z" class="st3"/>
			<path d="M0 283.46 L24.09 283.46" class="st9"/>
		</g>
		<g id="shape72-197" v:mID="72" v:groupContext="shape" transform="translate(393.904,-146.349)">
			<title>path398</title>
			<path d="M0 283.46 L24.09 283.46 L0 283.46 Z" class="st3"/>
			<path d="M0 283.46 L24.09 283.46" class="st8"/>
		</g>
		<g id="shape73-200" v:mID="73" v:groupContext="shape" transform="translate(393.904,-130.766)">
			<title>path400</title>
			<path d="M0 283.46 L24.09 283.46 L0 283.46 Z" class="st3"/>
			<path d="M0 283.46 L24.09 283.46" class="st7"/>
		</g>
		<g id="shape74-203" v:mID="74" v:groupContext="shape" transform="translate(393.904,-115.182)">
			<title>path402</title>
			<path d="M0 283.46 L24.09 283.46 L0 283.46 Z" class="st3"/>
			<path d="M0 283.46 L24.09 283.46" class="st6"/>
		</g>
		<g id="shape75-206" v:mID="75" v:groupContext="shape" transform="translate(393.904,-99.5985)">
			<title>path404</title>
			<path d="M0 283.46 L24.09 283.46 L0 283.46 Z" class="st3"/>
			<path d="M0 283.46 L24.09 283.46" class="st5"/>
		</g>
		<g id="shape76-209" v:mID="76" v:groupContext="shape" transform="translate(421.009,-154.71)">
			<title>text406</title>
			<desc>ASCII only</desc>
			<v:textBlock v:margins="rect(0,0,0,0)"/>
			<v:textRect cx="53.1547" cy="276.81" width="106.31" height="13.3089"/>
			<rect x="0" y="270.156" width="106.309" height="13.3089" class="st10"/>
			<text x="0" y="280.14" class="st11" v:langID="4108"><v:paragraph/><v:tabList/>ASCII only</text>		</g>
		<g id="shape77-212" v:mID="77" v:groupContext="shape" transform="translate(421.009,-139.126)">
			<title>text414</title>
			<desc>W Europe</desc>
			<v:textBlock v:margins="rect(0,0,0,0)"/>
			<v:textRect cx="42.5237" cy="276.81" width="85.05" height="13.3089"/>
			<rect x="0" y="270.156" width="85.0475" height="13.3089" class="st10"/>
			<text x="0" y="280.14" class="st11" v:langID="4108"><v:paragraph/><v:tabList/>W Europe</text>		</g>
		<g id="shape78-215" v:mID="78" v:groupContext="shape" transform="translate(421.009,-123.543)">
			<title>text422</title>
			<desc>UTF-8</desc>
			<v:textBlock v:margins="rect(0,0,0,0)"/>
			<v:textRect cx="26.5773" cy="276.81" width="53.16" height="13.3089"/>
			<rect x="0" y="270.156" width="53.1547" height="13.3089" class="st10"/>
			<text x="0" y="280.14" class="st11" v:langID="4108"><v:paragraph/><v:tabList/>UTF-8</text>		</g>
		<g id="shape79-218" v:mID="79" v:groupContext="shape" transform="translate(421.009,-107.959)">
			<title>text430</title>
			<desc>JIS</desc>
			<v:textBlock v:margins="rect(0,0,0,0)"/>
			<v:textRect cx="15.9464" cy="276.81" width="31.9" height="13.3089"/>
			<rect x="0" y="270.156" width="31.8928" height="13.3089" class="st10"/>
			<text x="0" y="280.14" class="st11" v:langID="4108"><v:paragraph/><v:tabList/>JIS</text>		</g>
		<g id="shape80-221" v:mID="80" v:groupContext="shape" transform="translate(421.009,-92.3753)">
			<title>text438</title>
			<desc>others</desc>
			<v:textBlock v:margins="rect(0,0,0,0)"/>
			<v:textRect cx="31.8928" cy="276.81" width="63.79" height="13.3089"/>
			<rect x="0" y="270.156" width="63.7856" height="13.3089" class="st10"/>
			<text x="0" y="280.14" class="st11" v:langID="4108"><v:paragraph/><v:tabList/>others</text>		</g>
	</g>
</svg>
