<?xml version="1.0" encoding="UTF-8" standalone="no"?>
<!DOCTYPE svg PUBLIC "-//W3C//DTD SVG 1.1//EN" "http://www.w3.org/Graphics/SVG/1.1/DTD/svg11.dtd">
<!-- Generated by Microsoft Visio, SVG Export formats.svg Page-1 -->
<svg xmlns="http://www.w3.org/2000/svg" xmlns:xlink="http://www.w3.org/1999/xlink" xmlns:ev="http://www.w3.org/2001/xml-events"
		xmlns:v="http://schemas.microsoft.com/visio/2003/SVGExtensions/" width="11.3372in" height="5.28265in"
		viewBox="0 0 816.278 380.351" xml:space="preserve" color-interpolation-filters="sRGB" class="st13">
	<v:documentProperties v:langID="1036" v:metric="true" v:viewMarkup="false">
		<v:userDefs>
			<v:ud v:nameU="msvSubprocessMaster" v:prompt="" v:val="VT4(Rectangle)"/>
			<v:ud v:nameU="msvNoAutoConnect" v:val="VT0(1):26"/>
		</v:userDefs>
	</v:documentProperties>

	<style type="text/css">
	<![CDATA[
		.st1 {fill:#ffffff;stroke:#000000;stroke-linecap:round;stroke-linejoin:round;stroke-width:0.75}
		.st2 {fill:#000000;stroke:#000000;stroke-linecap:round;stroke-linejoin:round;stroke-width:0.75}
		.st3 {fill:#d8d8d8;stroke:none;stroke-linecap:round;stroke-linejoin:round;stroke-width:0.75}
		.st4 {fill:#000000;font-family:Calibri;font-size:0.833336em}
		.st5 {marker-end:url(#mrkr4-13);stroke:#000000;stroke-linecap:round;stroke-linejoin:round;stroke-width:0.237638}
		.st6 {fill:#000000;fill-opacity:1;stroke:#000000;stroke-opacity:1;stroke-width:0.086174404659928}
		.st7 {fill:#000000;font-family:Calibri;font-size:0.499992em}
		.st8 {marker-end:url(#mrkr4-151);stroke:#000000;stroke-linecap:round;stroke-linejoin:round;stroke-width:0.237638}
		.st9 {fill:none;stroke:none;stroke-linecap:round;stroke-linejoin:round;stroke-width:0.75}
		.st10 {fill:#000000;font-family:Calibri;font-size:1.00001em}
		.st11 {fill:#000000;font-family:Calibri;font-size:0.833336em;font-style:italic}
		.st12 {font-size:1em}
		.st13 {fill:none;fill-rule:evenodd;font-size:12px;overflow:visible;stroke-linecap:square;stroke-miterlimit:3}
	]]>
	</style>

	<defs id="Markers">
		<g id="lend4">
			<path d="M 2 1 L 0 0 L 2 -1 L 2 1 " style="stroke:none"/>
		</g>
		<marker id="mrkr4-13" class="st6" v:arrowType="4" v:arrowSize="2" v:setback="23.2087" refX="-23.208747514911" orient="auto"
				markerUnits="strokeWidth" overflow="visible">
			<use xlink:href="#lend4" transform="scale(-11.604373757455,-11.604373757455) "/>
		</marker>
		<marker id="mrkr4-151" class="st6" v:arrowType="4" v:arrowSize="2" v:setback="0" refX="-0" orient="auto"
				markerUnits="strokeWidth" overflow="visible">
			<use xlink:href="#lend4" transform="scale(-11.604373757455,-11.604373757455) "/>
		</marker>
	</defs>
	<g v:mID="0" v:index="1" v:groupContext="foregroundPage">
		<v:userDefs>
			<v:ud v:nameU="msvThemeOrder" v:val="VT0(0):26"/>
		</v:userDefs>
		<title>Page 1</title>
		<v:pageProperties v:drawingScale="0.0393701" v:pageScale="0.0393701" v:drawingUnits="24" v:shadowOffsetX="8.50394"
				v:shadowOffsetY="-8.50394"/>
		<v:layer v:name="Lien" v:index="0"/>
		<g id="shape10-1" v:mID="10" v:groupContext="shape" transform="translate(18.375,-303.511)">
			<title>Cercle</title>
			<v:userDefs>
				<v:ud v:nameU="visVersion" v:val="VT0(15):26"/>
			</v:userDefs>
			<path d="M0 374.15 A6.20079 6.20079 0 0 1 12.4 374.15 A6.20079 6.20079 0 1 1 0 374.15 Z" class="st1"/>
		</g>
		<g id="shape26-3" v:mID="26" v:groupContext="shape" transform="translate(785.501,-303.511)">
			<title>Cercle.31</title>
			<v:userDefs>
				<v:ud v:nameU="visVersion" v:val="VT0(15):26"/>
			</v:userDefs>
			<path d="M0 374.15 A6.20079 6.20079 0 0 1 12.4 374.15 A6.20079 6.20079 0 1 1 0 374.15 Z" class="st2"/>
		</g>
		<g id="shape28-5" v:mID="28" v:groupContext="shape" transform="translate(52.0364,-296.425)">
			<title>Rectangle.28</title>
			<desc>%</desc>
			<v:userDefs>
				<v:ud v:nameU="visVersion" v:val="VT0(15):26"/>
			</v:userDefs>
			<v:textBlock v:margins="rect(4,4,4,4)" v:tabSpace="42.5197"/>
			<v:textRect cx="15.2876" cy="367.063" width="30.58" height="26.5748"/>
			<rect x="0" y="353.776" width="30.5752" height="26.5748" rx="8.50394" ry="8.50394" class="st3"/>
			<text x="11.71" y="370.06" class="st4" v:langID="1033"><v:paragraph v:horizAlign="1"/><v:tabList/>%</text>		</g>
		<g id="shape34-8" v:mID="34" v:groupContext="shape" v:layerMember="0" transform="translate(30.7766,-302.625)">
			<title>Lien dynamique</title>
			<path d="M0 373.26 L15.74 373.26" class="st5"/>
		</g>
		<g id="shape51-14" v:mID="51" v:groupContext="shape" transform="translate(343.142,-243.032)">
			<title>Rectangle.51</title>
			<desc>\d</desc>
			<v:userDefs>
				<v:ud v:nameU="visVersion" v:val="VT0(15):26"/>
			</v:userDefs>
			<v:textBlock v:margins="rect(4,4,4,4)" v:tabSpace="42.5197"/>
			<v:textRect cx="15.2876" cy="367.063" width="30.58" height="26.5748"/>
			<rect x="0" y="353.776" width="30.5752" height="26.5748" rx="8.50394" ry="8.50394" class="st3"/>
			<text x="10.73" y="370.06" class="st4" v:langID="1033"><v:paragraph v:horizAlign="1"/><v:tabList/>\d</text>		</g>
		<g id="shape53-17" v:mID="53" v:groupContext="shape" transform="translate(259.32,-241.503)">
			<title>Rectangle.53</title>
			<desc>-</desc>
			<v:userDefs>
				<v:ud v:nameU="visVersion" v:val="VT0(15):26"/>
			</v:userDefs>
			<v:textBlock v:margins="rect(4,4,4,4)" v:tabSpace="42.5197"/>
			<v:textRect cx="15.2876" cy="367.063" width="30.58" height="26.5748"/>
			<rect x="0" y="353.776" width="30.5752" height="26.5748" rx="8.50394" ry="8.50394" class="st3"/>
			<text x="13.76" y="370.06" class="st4" v:langID="1033"><v:paragraph v:horizAlign="1"/><v:tabList/>-</text>		</g>
		<g id="shape54-20" v:mID="54" v:groupContext="shape" transform="translate(259.32,-198.984)">
			<title>Rectangle.54</title>
			<desc>+</desc>
			<v:userDefs>
				<v:ud v:nameU="visVersion" v:val="VT0(15):26"/>
			</v:userDefs>
			<v:textBlock v:margins="rect(4,4,4,4)" v:tabSpace="42.5197"/>
			<v:textRect cx="15.2876" cy="367.063" width="30.58" height="26.5748"/>
			<rect x="0" y="353.776" width="30.5752" height="26.5748" rx="8.50394" ry="8.50394" class="st3"/>
			<text x="12.8" y="370.06" class="st4" v:langID="1033"><v:paragraph v:horizAlign="1"/><v:tabList/>+</text>		</g>
		<g id="shape55-23" v:mID="55" v:groupContext="shape" transform="translate(259.776,-151.592)">
			<title>Rectangle.55</title>
			<desc>(space)</desc>
			<v:userDefs>
				<v:ud v:nameU="visVersion" v:val="VT0(15):26"/>
			</v:userDefs>
			<v:textBlock v:margins="rect(4,4,4,4)" v:tabSpace="42.5197"/>
			<v:textRect cx="15.2876" cy="367.063" width="30.58" height="26.5748"/>
			<rect x="0" y="353.776" width="30.5752" height="26.5748" rx="8.50394" ry="8.50394" class="st3"/>
			<text x="6.52" y="372.46" class="st7" v:langID="1033"><v:paragraph v:horizAlign="1"/><v:tabList/><v:space/><v:newlineChar/>(space)</text>		</g>
		<g id="shape57-26" v:mID="57" v:groupContext="shape" transform="translate(259.776,-119.259)">
			<title>Rectangle.57</title>
			<desc>0</desc>
			<v:userDefs>
				<v:ud v:nameU="visVersion" v:val="VT0(15):26"/>
			</v:userDefs>
			<v:textBlock v:margins="rect(4,4,4,4)" v:tabSpace="42.5197"/>
			<v:textRect cx="15.2876" cy="367.063" width="30.58" height="26.5748"/>
			<rect x="0" y="353.776" width="30.5752" height="26.5748" rx="8.50394" ry="8.50394" class="st3"/>
			<text x="12.75" y="370.06" class="st4" v:langID="1033"><v:paragraph v:horizAlign="1"/><v:tabList/>0</text>		</g>
		<g id="shape58-29" v:mID="58" v:groupContext="shape" transform="translate(259.32,-53.3594)">
			<title>Rectangle.58</title>
			<desc>#</desc>
			<v:userDefs>
				<v:ud v:nameU="visVersion" v:val="VT0(15):26"/>
			</v:userDefs>
			<v:textBlock v:margins="rect(4,4,4,4)" v:tabSpace="42.5197"/>
			<v:textRect cx="15.2876" cy="367.063" width="30.58" height="26.5748"/>
			<rect x="0" y="353.776" width="30.5752" height="26.5748" rx="8.50394" ry="8.50394" class="st3"/>
			<text x="12.8" y="370.06" class="st4" v:langID="1033"><v:paragraph v:horizAlign="1"/><v:tabList/>#</text>		</g>
		<g id="shape60-32" v:mID="60" v:groupContext="shape" transform="translate(160.107,-241.503)">
			<title>Rectangle.60</title>
			<desc>$</desc>
			<v:userDefs>
				<v:ud v:nameU="visVersion" v:val="VT0(15):26"/>
			</v:userDefs>
			<v:textBlock v:margins="rect(4,4,4,4)" v:tabSpace="42.5197"/>
			<v:textRect cx="15.2876" cy="367.063" width="30.58" height="26.5748"/>
			<rect x="0" y="353.776" width="30.5752" height="26.5748" rx="8.50394" ry="8.50394" class="st3"/>
			<text x="12.75" y="370.06" class="st4" v:langID="1033"><v:paragraph v:horizAlign="1"/><v:tabList/>$</text>		</g>
		<g id="shape61-35" v:mID="61" v:groupContext="shape" transform="translate(117.588,-241.503)">
			<title>Rectangle.61</title>
			<desc>\d</desc>
			<v:userDefs>
				<v:ud v:nameU="visVersion" v:val="VT0(15):26"/>
			</v:userDefs>
			<v:textBlock v:margins="rect(4,4,4,4)" v:tabSpace="42.5197"/>
			<v:textRect cx="15.2876" cy="367.063" width="30.58" height="26.5748"/>
			<rect x="0" y="353.776" width="30.5752" height="26.5748" rx="8.50394" ry="8.50394" class="st3"/>
			<text x="10.73" y="370.06" class="st4" v:langID="1033"><v:paragraph v:horizAlign="1"/><v:tabList/>\d</text>		</g>
		<g id="shape62-38" v:mID="62" v:groupContext="shape" v:layerMember="0" transform="translate(82.6116,-309.712)">
			<title>Lien dynamique.62</title>
			<path d="M0 380.35 L10.52 380.35 A10.5157 10.5157 0 0 1 21.03 390.87 L21.03 428.3 A6.97235 6.97235 -180 0 0 28 435.27
						 L29.46 435.27" class="st5"/>
		</g>
		<g id="shape64-43" v:mID="64" v:groupContext="shape" v:layerMember="0" transform="translate(147.048,-247.704)">
			<title>Lien dynamique.64</title>
			<path d="M1.11 373.26 L7.54 373.26" class="st5"/>
		</g>
		<g id="shape65-48" v:mID="65" v:groupContext="shape" v:layerMember="0" transform="translate(82.6116,-309.712)">
			<title>Lien dynamique.65</title>
			<path d="M0 380.35 L129.94 380.35 A11.3386 11.3386 0 0 1 141.28 391.69 L141.28 423.93 A11.3386 11.3386 -180 0 0 152.61
						 435.27 L171.19 435.27" class="st5"/>
		</g>
		<g id="shape66-53" v:mID="66" v:groupContext="shape" v:layerMember="0" transform="translate(190.682,-254.791)">
			<title>Lien dynamique.66</title>
			<path d="M0 380.35 L5.97 380.35 A5.97226 5.97226 -180 0 0 11.94 374.38 L11.94 336.06 A10.6299 10.6299 0 0 1 22.57 325.43
						 L22.57 325.43 A10.6299 10.6299 0 0 1 33.2 336.06 L33.2 411.53 A11.3386 11.3386 -180 0 0 44.54 422.87 L63.12
						 422.87" class="st5"/>
		</g>
		<g id="shape67-58" v:mID="67" v:groupContext="shape" v:layerMember="0" transform="translate(82.6116,-309.712)">
			<title>Lien dynamique.67</title>
			<path d="M0 380.35 L129.94 380.35 A11.3386 11.3386 0 0 1 141.28 391.69 L141.28 513.84 A11.3386 11.3386 -180 0 0 152.61
						 525.18 L171.65 525.18" class="st5"/>
		</g>
		<g id="shape68-63" v:mID="68" v:groupContext="shape" v:layerMember="0" transform="translate(82.6116,-309.712)">
			<title>Lien dynamique.68</title>
			<path d="M0 380.35 L129.94 380.35 A11.3386 11.3386 0 0 1 141.28 391.69 L141.28 546.18 A11.3386 11.3386 -180 0 0 152.61
						 557.52 L171.65 557.52" class="st5"/>
		</g>
		<g id="shape69-68" v:mID="69" v:groupContext="shape" v:layerMember="0" transform="translate(82.6116,-309.712)">
			<title>Lien dynamique.69</title>
			<path d="M0 380.35 L129.94 380.35 A11.3386 11.3386 0 0 1 141.28 391.69 L141.28 612.08 A11.3386 11.3386 -180 0 0 152.61
						 623.42 L171.19 623.42" class="st5"/>
		</g>
		<g id="shape70-73" v:mID="70" v:groupContext="shape" v:layerMember="0" transform="translate(289.895,-59.5602)">
			<title>Lien dynamique.70</title>
			<path d="M0 373.26 L17.17 373.26 A11.3386 11.3386 -180 0 0 28.51 361.93 L28.51 154.82 A11.3386 11.3386 -180 0 0 17.17
						 143.49 L-54.67 143.49 A11.3386 11.3386 -180 0 0 -66.01 154.82 L-66.01 361.93 A11.3386 11.3386 -180 0 0 -54.67
						 373.26 L-36.09 373.26" class="st5"/>
		</g>
		<g id="shape71-78" v:mID="71" v:groupContext="shape" v:layerMember="0" transform="translate(290.352,-125.46)">
			<title>Lien dynamique.71</title>
			<path d="M0 373.26 L16.72 373.26 A11.3386 11.3386 -180 0 0 28.05 361.93 L28.05 220.72 A11.3386 11.3386 -180 0 0 16.72
						 209.39 L-55.13 209.39 A11.3386 11.3386 -180 0 0 -66.46 220.72 L-66.46 361.93 A11.3386 11.3386 -180 0 0 -55.13
						 373.26 L-36.09 373.26" class="st5"/>
		</g>
		<g id="shape72-83" v:mID="72" v:groupContext="shape" v:layerMember="0" transform="translate(290.352,-157.793)">
			<title>Lien dynamique.72</title>
			<path d="M0 373.26 L16.72 373.26 A11.3386 11.3386 -180 0 0 28.05 361.93 L28.05 253.06 A11.3386 11.3386 -180 0 0 16.72
						 241.72 L-55.13 241.72 A11.3386 11.3386 -180 0 0 -66.46 253.06 L-66.46 361.93 A11.3386 11.3386 -180 0 0 -55.13
						 373.26 L-36.09 373.26" class="st5"/>
		</g>
		<g id="shape73-88" v:mID="73" v:groupContext="shape" v:layerMember="0" transform="translate(289.895,-205.184)">
			<title>Lien dynamique.73</title>
			<path d="M0 373.26 L17.17 373.26 A11.3386 11.3386 -180 0 0 28.51 361.93 L28.51 300.45 A11.3386 11.3386 -180 0 0 17.17
						 289.11 L-54.67 289.11 A11.3386 11.3386 -180 0 0 -66.01 300.45 L-66.01 361.93 A11.3386 11.3386 -180 0 0 -54.67
						 373.26 L-36.09 373.26" class="st5"/>
		</g>
		<g id="shape74-93" v:mID="74" v:groupContext="shape" v:layerMember="0" transform="translate(289.895,-247.704)">
			<title>Lien dynamique.74</title>
			<path d="M0 373.26 L17.17 373.26 A11.3386 11.3386 -180 0 0 28.51 361.93 L28.51 342.97 A11.3386 11.3386 -180 0 0 17.17
						 331.63 L-54.67 331.63 A11.3386 11.3386 -180 0 0 -66.01 342.97 L-66.01 361.93 A11.3386 11.3386 -180 0 0 -54.67
						 373.26 L-36.09 373.26" class="st5"/>
		</g>
		<g id="shape75-98" v:mID="75" v:groupContext="shape" transform="translate(343.142,-209.556)">
			<title>Rectangle.75</title>
			<desc>*</desc>
			<v:userDefs>
				<v:ud v:nameU="visVersion" v:val="VT0(15):26"/>
			</v:userDefs>
			<v:textBlock v:margins="rect(4,4,4,4)" v:tabSpace="42.5197"/>
			<v:textRect cx="15.2876" cy="367.063" width="30.58" height="26.5748"/>
			<rect x="0" y="353.776" width="30.5752" height="26.5748" rx="8.50394" ry="8.50394" class="st3"/>
			<text x="12.8" y="370.06" class="st4" v:langID="1033"><v:paragraph v:horizAlign="1"/><v:tabList/>*</text>		</g>
		<g id="shape79-101" v:mID="79" v:groupContext="shape" v:layerMember="0" transform="translate(82.6116,-309.712)">
			<title>Lien dynamique.79</title>
			<path d="M0 380.35 L224.46 380.35 A11.3386 11.3386 0 0 1 235.79 391.69 L235.79 422.41 A11.3386 11.3386 -180 0 0 247.13
						 433.74 L255.02 433.74" class="st5"/>
		</g>
		<g id="shape80-106" v:mID="80" v:groupContext="shape" v:layerMember="0" transform="translate(82.6116,-309.712)">
			<title>Lien dynamique.80</title>
			<path d="M0 380.35 L224.46 380.35 A11.3386 11.3386 0 0 1 235.79 391.69 L235.79 455.88 A11.3386 11.3386 -180 0 0 247.13
						 467.22 L255.02 467.22" class="st5"/>
		</g>
		<g id="shape82-111" v:mID="82" v:groupContext="shape" transform="translate(427.17,-241.353)">
			<title>Rectangle.82</title>
			<desc>.</desc>
			<v:userDefs>
				<v:ud v:nameU="visVersion" v:val="VT0(15):26"/>
			</v:userDefs>
			<v:textBlock v:margins="rect(4,4,4,4)" v:tabSpace="42.5197"/>
			<v:textRect cx="15.2876" cy="367.063" width="30.58" height="26.5748"/>
			<rect x="0" y="353.776" width="30.5752" height="26.5748" rx="8.50394" ry="8.50394" class="st3"/>
			<text x="14.03" y="370.06" class="st4" v:langID="1033"><v:paragraph v:horizAlign="1"/><v:tabList/>.</text>		</g>
		<g id="shape83-114" v:mID="83" v:groupContext="shape" transform="translate(483.863,-241.503)">
			<title>Rectangle.83</title>
			<desc>\d</desc>
			<v:userDefs>
				<v:ud v:nameU="visVersion" v:val="VT0(15):26"/>
			</v:userDefs>
			<v:textBlock v:margins="rect(4,4,4,4)" v:tabSpace="42.5197"/>
			<v:textRect cx="15.2876" cy="367.063" width="30.58" height="26.5748"/>
			<rect x="0" y="353.776" width="30.5752" height="26.5748" rx="8.50394" ry="8.50394" class="st3"/>
			<text x="10.73" y="370.06" class="st4" v:langID="1033"><v:paragraph v:horizAlign="1"/><v:tabList/>\d</text>		</g>
		<g id="shape84-117" v:mID="84" v:groupContext="shape" transform="translate(482.748,-208.028)">
			<title>Rectangle.84</title>
			<desc>*</desc>
			<v:userDefs>
				<v:ud v:nameU="visVersion" v:val="VT0(15):26"/>
			</v:userDefs>
			<v:textBlock v:margins="rect(4,4,4,4)" v:tabSpace="42.5197"/>
			<v:textRect cx="15.2876" cy="367.063" width="30.58" height="26.5748"/>
			<rect x="0" y="353.776" width="30.5752" height="26.5748" rx="8.50394" ry="8.50394" class="st3"/>
			<text x="12.8" y="370.06" class="st4" v:langID="1033"><v:paragraph v:horizAlign="1"/><v:tabList/>*</text>		</g>
		<g id="shape90-120" v:mID="90" v:groupContext="shape" v:layerMember="0" transform="translate(82.6116,-309.712)">
			<title>Lien dynamique.90</title>
			<path d="M0 380.35 L317.85 380.35 A11.3386 11.3386 0 0 1 329.18 391.69 L329.18 427.74 A7.68676 7.68676 -180 0 0 336.87
						 435.42 L339.04 435.42" class="st5"/>
		</g>
		<g id="shape93-125" v:mID="93" v:groupContext="shape" v:layerMember="0" transform="translate(373.717,-256.319)">
			<title>Lien dynamique.93</title>
			<path d="M0 380.35 L10.02 380.35 A10.0214 10.0214 -180 0 0 20.04 370.33 L20.04 338.3 A11.3386 11.3386 0 0 1 31.38 326.96
						 L266.58 326.96" class="st5"/>
		</g>
		<g id="shape94-130" v:mID="94" v:groupContext="shape" v:layerMember="0" transform="translate(373.717,-222.844)">
			<title>Lien dynamique.94</title>
			<path d="M0 380.35 L10.02 380.35 A10.0214 10.0214 -180 0 0 20.04 370.33 L20.04 304.82 A11.3386 11.3386 0 0 1 31.38 293.48
						 L266.58 293.48" class="st5"/>
		</g>
		<g id="shape95-135" v:mID="95" v:groupContext="shape" transform="translate(135.437,-175.952)">
			<title>Rectangle.95</title>
			<desc>0..9</desc>
			<v:userDefs>
				<v:ud v:nameU="visVersion" v:val="VT0(15):26"/>
			</v:userDefs>
			<v:textBlock v:margins="rect(4,4,4,4)" v:tabSpace="42.5197"/>
			<v:textRect cx="15.2876" cy="367.063" width="30.58" height="26.5748"/>
			<rect x="0" y="353.776" width="30.5752" height="26.5748" rx="8.50394" ry="8.50394" class="st3"/>
			<text x="7.7" y="370.06" class="st4" v:langID="1033"><v:paragraph v:horizAlign="1"/><v:tabList/>0..9</text>		</g>
		<g id="shape96-138" v:mID="96" v:groupContext="shape" transform="translate(85.8308,-175.952)">
			<title>Rectangle.96</title>
			<desc>1..9</desc>
			<v:userDefs>
				<v:ud v:nameU="visVersion" v:val="VT0(15):26"/>
			</v:userDefs>
			<v:textBlock v:margins="rect(4,4,4,4)" v:tabSpace="42.5197"/>
			<v:textRect cx="15.2876" cy="367.063" width="30.58" height="26.5748"/>
			<rect x="0" y="353.776" width="30.5752" height="26.5748" rx="8.50394" ry="8.50394" class="st3"/>
			<text x="7.7" y="370.06" class="st4" v:langID="1033"><v:paragraph v:horizAlign="1"/><v:tabList/>1..9</text>		</g>
		<g id="shape97-141" v:mID="97" v:groupContext="shape" v:layerMember="0" transform="translate(116.406,-182.153)">
			<title>Lien dynamique.97</title>
			<path d="M0 373.26 L13.52 373.26" class="st5"/>
		</g>
		<g id="shape98-146" v:mID="98" v:groupContext="shape" v:layerMember="0" transform="translate(166.012,-182.153)">
			<title>Lien dynamique.98</title>
			<path d="M0 373.26 L6.97 373.26 A6.97231 6.97231 -180 0 0 13.94 366.29 L13.94 360.69 A11.3386 11.3386 -180 0 0 2.61 349.35
						 L-29.87 349.35 A11.3386 11.3386 -180 0 0 -41.21 360.69 L-41.21 367.95 A5.31496 5.31496 -180 0 0 -35.89 373.26
						 L-30.58 373.26" class="st8"/>
		</g>
		<g id="shape99-152" v:mID="99" v:groupContext="shape" transform="translate(54.3981,-183.039)">
			<title>Cercle.99</title>
			<v:userDefs>
				<v:ud v:nameU="visVersion" v:val="VT0(15):26"/>
			</v:userDefs>
			<path d="M0 374.15 A6.20079 6.20079 0 0 1 12.4 374.15 A6.20079 6.20079 0 1 1 0 374.15 Z" class="st1"/>
		</g>
		<g id="shape101-154" v:mID="101" v:groupContext="shape" transform="translate(192.13,-183.039)">
			<title>Cercle.101</title>
			<v:userDefs>
				<v:ud v:nameU="visVersion" v:val="VT0(15):26"/>
			</v:userDefs>
			<path d="M0 374.15 A6.20079 6.20079 0 0 1 12.4 374.15 A6.20079 6.20079 0 1 1 0 374.15 Z" class="st2"/>
		</g>
		<g id="shape102-156" v:mID="102" v:groupContext="shape" v:layerMember="0" transform="translate(66.7997,-182.153)">
			<title>Lien dynamique.102</title>
			<path d="M0 373.26 L13.52 373.26" class="st5"/>
		</g>
		<g id="shape103-161" v:mID="103" v:groupContext="shape" v:layerMember="0" transform="translate(166.012,-182.153)">
			<title>Lien dynamique.103</title>
			<path d="M0 373.26 L20.6 373.26" class="st5"/>
		</g>
		<g id="shape104-166" v:mID="104" v:groupContext="shape" transform="translate(32.5482,-179.24)">
			<title>Sheet.104</title>
			<desc>\d</desc>
			<v:textBlock v:margins="rect(4,4,4,4)" v:tabSpace="42.5197"/>
			<v:textRect cx="12.4681" cy="370.351" width="24.94" height="20"/>
			<rect x="0" y="360.351" width="24.9362" height="20" class="st9"/>
			<text x="7" y="373.95" class="st10" v:langID="1033"><v:paragraph v:horizAlign="1"/><v:tabList/>\d</text>		</g>
		<g id="shape105-169" v:mID="105" v:groupContext="shape" v:layerMember="0" transform="translate(457.745,-247.629)">
			<title>Lien dynamique.105</title>
			<path d="M0 373.34 L10.63 373.34 L10.63 373.19 L20.6 373.19" class="st5"/>
		</g>
		<g id="shape106-174" v:mID="106" v:groupContext="shape" v:layerMember="0" transform="translate(457.745,-254.64)">
			<title>Lien dynamique.106</title>
			<path d="M0 380.35 L5.31 380.35 A5.31496 5.31496 0 0 1 10.63 385.67 L10.63 406.49 A7.18674 7.18674 -180 0 0 17.82 413.68
						 L19.49 413.68" class="st5"/>
		</g>
		<g id="shape107-179" v:mID="107" v:groupContext="shape" v:layerMember="0" transform="translate(514.438,-254.791)">
			<title>Lien dynamique.107</title>
			<path d="M0 380.35 L8.12 380.35 A8.11532 8.11532 -180 0 0 16.23 372.24 L16.23 336.77 A11.3386 11.3386 0 0 1 27.57 325.43
						 L125.86 325.43" class="st5"/>
		</g>
		<g id="shape108-184" v:mID="108" v:groupContext="shape" v:layerMember="0" transform="translate(513.324,-221.316)">
			<title>Lien dynamique.108</title>
			<path d="M0 380.35 L8.67 380.35 A8.67249 8.67249 -180 0 0 17.34 371.68 L17.34 303.29 A11.3386 11.3386 0 0 1 28.68 291.95
						 L126.97 291.95" class="st5"/>
		</g>
		<g id="shape109-189" v:mID="109" v:groupContext="shape" transform="translate(575.532,-244.704)">
			<title>Rectangle.109</title>
			<desc>hh</desc>
			<v:userDefs>
				<v:ud v:nameU="visVersion" v:val="VT0(15):26"/>
			</v:userDefs>
			<v:textBlock v:margins="rect(4,4,4,4)" v:tabSpace="42.5197"/>
			<v:textRect cx="15.2876" cy="367.063" width="30.58" height="26.5748"/>
			<rect x="0" y="353.776" width="30.5752" height="26.5748" rx="8.50394" ry="8.50394" class="st3"/>
			<text x="10.03" y="370.06" class="st4" v:langID="1033"><v:paragraph v:horizAlign="1"/><v:tabList/>hh</text>		</g>
		<g id="shape110-192" v:mID="110" v:groupContext="shape" transform="translate(575.532,-212.371)">
			<title>Rectangle.110</title>
			<desc>h</desc>
			<v:userDefs>
				<v:ud v:nameU="visVersion" v:val="VT0(15):26"/>
			</v:userDefs>
			<v:textBlock v:margins="rect(4,4,4,4)" v:tabSpace="42.5197"/>
			<v:textRect cx="15.2876" cy="367.063" width="30.58" height="26.5748"/>
			<rect x="0" y="353.776" width="30.5752" height="26.5748" rx="8.50394" ry="8.50394" class="st3"/>
			<text x="12.66" y="370.06" class="st4" v:langID="1033"><v:paragraph v:horizAlign="1"/><v:tabList/>h</text>		</g>
		<g id="shape112-195" v:mID="112" v:groupContext="shape" transform="translate(575.989,-147.706)">
			<title>Rectangle.112</title>
			<desc>ll</desc>
			<v:userDefs>
				<v:ud v:nameU="visVersion" v:val="VT0(15):26"/>
			</v:userDefs>
			<v:textBlock v:margins="rect(4,4,4,4)" v:tabSpace="42.5197"/>
			<v:textRect cx="15.2876" cy="367.063" width="30.58" height="26.5748"/>
			<rect x="0" y="353.776" width="30.5752" height="26.5748" rx="8.50394" ry="8.50394" class="st3"/>
			<text x="12.99" y="370.06" class="st4" v:langID="1033"><v:paragraph v:horizAlign="1"/><v:tabList/>ll</text>		</g>
		<g id="shape113-198" v:mID="113" v:groupContext="shape" transform="translate(575.989,-115.373)">
			<title>Rectangle.113</title>
			<desc>L</desc>
			<v:userDefs>
				<v:ud v:nameU="visVersion" v:val="VT0(15):26"/>
			</v:userDefs>
			<v:textBlock v:margins="rect(4,4,4,4)" v:tabSpace="42.5197"/>
			<v:textRect cx="15.2876" cy="367.063" width="30.58" height="26.5748"/>
			<rect x="0" y="353.776" width="30.5752" height="26.5748" rx="8.50394" ry="8.50394" class="st3"/>
			<text x="13.19" y="370.06" class="st4" v:langID="1033"><v:paragraph v:horizAlign="1"/><v:tabList/>L</text>		</g>
		<g id="shape114-201" v:mID="114" v:groupContext="shape" transform="translate(575.532,-180.038)">
			<title>Rectangle.114</title>
			<desc>l</desc>
			<v:userDefs>
				<v:ud v:nameU="visVersion" v:val="VT0(15):26"/>
			</v:userDefs>
			<v:textBlock v:margins="rect(4,4,4,4)" v:tabSpace="42.5197"/>
			<v:textRect cx="15.2876" cy="367.063" width="30.58" height="26.5748"/>
			<rect x="0" y="353.776" width="30.5752" height="26.5748" rx="8.50394" ry="8.50394" class="st3"/>
			<text x="14.14" y="370.06" class="st4" v:langID="1033"><v:paragraph v:horizAlign="1"/><v:tabList/>l</text>		</g>
		<g id="shape115-204" v:mID="115" v:groupContext="shape" transform="translate(575.989,-83.0404)">
			<title>Rectangle.115</title>
			<desc>z</desc>
			<v:userDefs>
				<v:ud v:nameU="visVersion" v:val="VT0(15):26"/>
			</v:userDefs>
			<v:textBlock v:margins="rect(4,4,4,4)" v:tabSpace="42.5197"/>
			<v:textRect cx="15.2876" cy="367.063" width="30.58" height="26.5748"/>
			<rect x="0" y="353.776" width="30.5752" height="26.5748" rx="8.50394" ry="8.50394" class="st3"/>
			<text x="13.31" y="370.06" class="st4" v:langID="1033"><v:paragraph v:horizAlign="1"/><v:tabList/>z</text>		</g>
		<g id="shape116-207" v:mID="116" v:groupContext="shape" transform="translate(575.989,-50.7077)">
			<title>Rectangle.116</title>
			<desc>j</desc>
			<v:userDefs>
				<v:ud v:nameU="visVersion" v:val="VT0(15):26"/>
			</v:userDefs>
			<v:textBlock v:margins="rect(4,4,4,4)" v:tabSpace="42.5197"/>
			<v:textRect cx="15.2876" cy="367.063" width="30.58" height="26.5748"/>
			<rect x="0" y="353.776" width="30.5752" height="26.5748" rx="8.50394" ry="8.50394" class="st3"/>
			<text x="14.09" y="370.06" class="st4" v:langID="1033"><v:paragraph v:horizAlign="1"/><v:tabList/>j</text>		</g>
		<g id="shape117-210" v:mID="117" v:groupContext="shape" transform="translate(575.989,-18.375)">
			<title>Rectangle.117</title>
			<desc>t</desc>
			<v:userDefs>
				<v:ud v:nameU="visVersion" v:val="VT0(15):26"/>
			</v:userDefs>
			<v:textBlock v:margins="rect(4,4,4,4)" v:tabSpace="42.5197"/>
			<v:textRect cx="15.2876" cy="367.063" width="30.58" height="26.5748"/>
			<rect x="0" y="353.776" width="30.5752" height="26.5748" rx="8.50394" ry="8.50394" class="st3"/>
			<text x="13.61" y="370.06" class="st4" v:langID="1033"><v:paragraph v:horizAlign="1"/><v:tabList/>t</text>		</g>
		<g id="shape118-213" v:mID="118" v:groupContext="shape" v:layerMember="0" transform="translate(82.6116,-309.712)">
			<title>Lien dynamique.118</title>
			<path d="M0 380.35 L464.61 380.35 A11.3386 11.3386 0 0 1 475.95 391.69 L475.95 423.58 A8.48723 8.48723 -180 0 0 484.43
						 432.07 L487.41 432.07" class="st5"/>
		</g>
		<g id="shape119-218" v:mID="119" v:groupContext="shape" v:layerMember="0" transform="translate(82.6116,-309.712)">
			<title>Lien dynamique.119</title>
			<path d="M0 380.35 L464.61 380.35 A11.3386 11.3386 0 0 1 475.95 391.69 L475.95 455.92 A8.48723 8.48723 -180 0 0 484.43
						 464.4 L487.41 464.4" class="st5"/>
		</g>
		<g id="shape120-223" v:mID="120" v:groupContext="shape" v:layerMember="0" transform="translate(82.6116,-309.712)">
			<title>Lien dynamique.120</title>
			<path d="M0 380.35 L464.61 380.35 A11.3386 11.3386 0 0 1 475.95 391.69 L475.95 488.25 A8.48723 8.48723 -180 0 0 484.43
						 496.74 L487.41 496.74" class="st5"/>
		</g>
		<g id="shape121-228" v:mID="121" v:groupContext="shape" v:layerMember="0" transform="translate(82.6116,-309.712)">
			<title>Lien dynamique.121</title>
			<path d="M0 380.35 L464.61 380.35 A11.3386 11.3386 0 0 1 475.95 391.69 L475.95 520.35 A8.71547 8.71547 -180 0 0 484.66
						 529.07 L487.86 529.07" class="st5"/>
		</g>
		<g id="shape122-233" v:mID="122" v:groupContext="shape" v:layerMember="0" transform="translate(82.6116,-309.712)">
			<title>Lien dynamique.122</title>
			<path d="M0 380.35 L464.61 380.35 A11.3386 11.3386 0 0 1 475.95 391.69 L475.95 552.69 A8.71547 8.71547 -180 0 0 484.66
						 561.4 L487.86 561.4" class="st5"/>
		</g>
		<g id="shape123-238" v:mID="123" v:groupContext="shape" v:layerMember="0" transform="translate(82.6116,-309.712)">
			<title>Lien dynamique.123</title>
			<path d="M0 380.35 L464.61 380.35 A11.3386 11.3386 0 0 1 475.95 391.69 L475.95 585.02 A8.71547 8.71547 -180 0 0 484.66
						 593.74 L487.86 593.74" class="st5"/>
		</g>
		<g id="shape124-243" v:mID="124" v:groupContext="shape" v:layerMember="0" transform="translate(82.6116,-309.712)">
			<title>Lien dynamique.124</title>
			<path d="M0 380.35 L464.61 380.35 A11.3386 11.3386 0 0 1 475.95 391.69 L475.95 617.35 A8.71547 8.71547 -180 0 0 484.66
						 626.07 L487.86 626.07" class="st5"/>
		</g>
		<g id="shape125-248" v:mID="125" v:groupContext="shape" v:layerMember="0" transform="translate(82.6116,-309.712)">
			<title>Lien dynamique.125</title>
			<path d="M0 380.35 L464.61 380.35 A11.3386 11.3386 0 0 1 475.95 391.69 L475.95 649.68 A8.71547 8.71547 -180 0 0 484.66
						 658.4 L487.86 658.4" class="st5"/>
		</g>
		<g id="shape126-253" v:mID="126" v:groupContext="shape" v:layerMember="0" transform="translate(606.108,-257.991)">
			<title>Lien dynamique.126</title>
			<path d="M0 380.35 L7.54 380.35 A7.54345 7.54345 -180 0 0 15.09 372.81 L15.09 339.97 A11.3386 11.3386 0 0 1 26.43 328.63
						 L34.19 328.63" class="st5"/>
		</g>
		<g id="shape127-258" v:mID="127" v:groupContext="shape" v:layerMember="0" transform="translate(606.108,-225.658)">
			<title>Lien dynamique.127</title>
			<path d="M0 380.35 L7.54 380.35 A7.54345 7.54345 -180 0 0 15.09 372.81 L15.09 307.64 A11.3386 11.3386 0 0 1 26.43 296.3
						 L34.19 296.3" class="st5"/>
		</g>
		<g id="shape128-263" v:mID="128" v:groupContext="shape" v:layerMember="0" transform="translate(606.108,-193.326)">
			<title>Lien dynamique.128</title>
			<path d="M0 380.35 L7.54 380.35 A7.54345 7.54345 -180 0 0 15.09 372.81 L15.09 275.3 A11.3386 11.3386 0 0 1 26.43 263.96
						 L34.19 263.96" class="st5"/>
		</g>
		<g id="shape129-268" v:mID="129" v:groupContext="shape" v:layerMember="0" transform="translate(606.564,-160.993)">
			<title>Lien dynamique.129</title>
			<path d="M0 380.35 L7.32 380.35 A7.31521 7.31521 -180 0 0 14.63 373.04 L14.63 242.97 A11.3386 11.3386 0 0 1 25.97 231.63
						 L33.73 231.63" class="st5"/>
		</g>
		<g id="shape130-273" v:mID="130" v:groupContext="shape" v:layerMember="0" transform="translate(606.564,-128.66)">
			<title>Lien dynamique.130</title>
			<path d="M0 380.35 L7.32 380.35 A7.31521 7.31521 -180 0 0 14.63 373.04 L14.63 210.64 A11.3386 11.3386 0 0 1 25.97 199.3
						 L33.73 199.3" class="st5"/>
		</g>
		<g id="shape131-278" v:mID="131" v:groupContext="shape" v:layerMember="0" transform="translate(606.564,-96.3278)">
			<title>Lien dynamique.131</title>
			<path d="M0 380.35 L7.32 380.35 A7.31521 7.31521 -180 0 0 14.63 373.04 L14.63 178.31 A11.3386 11.3386 0 0 1 25.97 166.97
						 L33.73 166.97" class="st5"/>
		</g>
		<g id="shape132-283" v:mID="132" v:groupContext="shape" v:layerMember="0" transform="translate(606.564,-63.9951)">
			<title>Lien dynamique.132</title>
			<path d="M0 380.35 L7.32 380.35 A7.31521 7.31521 -180 0 0 14.63 373.04 L14.63 145.97 A11.3386 11.3386 0 0 1 25.97 134.63
						 L33.73 134.63" class="st5"/>
		</g>
		<g id="shape133-288" v:mID="133" v:groupContext="shape" v:layerMember="0" transform="translate(606.564,-31.6624)">
			<title>Lien dynamique.133</title>
			<path d="M0 380.35 L7.32 380.35 A7.31521 7.31521 -180 0 0 14.63 373.04 L14.63 113.64 A11.3386 11.3386 0 0 1 25.97 102.3
						 L33.73 102.3" class="st5"/>
		</g>
		<g id="shape134-293" v:mID="134" v:groupContext="shape" transform="translate(335.044,-335.401)">
			<title>Rectangle.134</title>
			<desc>%</desc>
			<v:userDefs>
				<v:ud v:nameU="visVersion" v:val="VT0(15):26"/>
			</v:userDefs>
			<v:textBlock v:margins="rect(4,4,4,4)" v:tabSpace="42.5197"/>
			<v:textRect cx="15.2876" cy="367.063" width="30.58" height="26.5748"/>
			<rect x="0" y="353.776" width="30.5752" height="26.5748" rx="8.50394" ry="8.50394" class="st3"/>
			<text x="11.71" y="370.06" class="st4" v:langID="1033"><v:paragraph v:horizAlign="1"/><v:tabList/>%</text>		</g>
		<g id="shape135-296" v:mID="135" v:groupContext="shape" v:layerMember="0" transform="translate(82.6116,-309.712)">
			<title>Lien dynamique.135</title>
			<path d="M0 380.35 L10.52 380.35 A10.5157 10.5157 -180 0 0 21.03 369.84 L21.03 352.71 A11.3386 11.3386 0 0 1 32.37 341.37
						 L246.92 341.37" class="st5"/>
		</g>
		<g id="shape136-301" v:mID="136" v:groupContext="shape" v:layerMember="0" transform="translate(365.619,-348.688)">
			<title>Lien dynamique.136</title>
			<path d="M0 380.35 L385.51 380.35 A11.3386 11.3386 0 0 1 396.85 391.69 L396.85 407.99 A11.3386 11.3386 -180 0 0 408.19
						 419.33 L414.37 419.33" class="st5"/>
		</g>
		<g id="shape137-306" v:mID="137" v:groupContext="shape" transform="translate(99.589,-272.251)">
			<title>Sheet.137</title>
			<desc>Numéro d’argument</desc>
			<v:textBlock v:margins="rect(4,4,4,4)" v:tabSpace="42.5197" v:verticalAlign="0"/>
			<v:textRect cx="52.1275" cy="370.351" width="104.26" height="20"/>
			<rect x="0" y="360.351" width="104.255" height="20" class="st9"/>
			<text x="10.5" y="373.35" class="st4" v:langID="1033"><v:paragraph v:horizAlign="1"/><v:tabList/>Numéro d’argument</text>		</g>
		<g id="shape139-309" v:mID="139" v:groupContext="shape" transform="translate(228.684,-268.078)">
			<title>Sheet.139</title>
			<desc>Alignment à gauche</desc>
			<v:textBlock v:margins="rect(4,4,4,4)" v:tabSpace="42.5197" v:verticalAlign="0"/>
			<v:textRect cx="44.809" cy="370.351" width="89.62" height="20"/>
			<rect x="0" y="360.351" width="89.618" height="20" class="st9"/>
			<text x="4.6" y="373.35" class="st4" v:langID="1033"><v:paragraph v:horizAlign="1"/><v:tabList/>Alignment à gauche</text>		</g>
		<g id="shape140-312" v:mID="140" v:groupContext="shape" transform="translate(330.186,-273.393)">
			<title>Sheet.140</title>
			<desc>Largeur</desc>
			<v:textBlock v:margins="rect(4,4,4,4)" v:tabSpace="42.5197" v:verticalAlign="0"/>
			<v:textRect cx="28.2437" cy="370.351" width="56.49" height="20"/>
			<rect x="0" y="360.351" width="56.4875" height="20" class="st9"/>
			<text x="12.79" y="373.35" class="st4" v:langID="1033"><v:paragraph v:horizAlign="1"/><v:tabList/>Largeur</text>		</g>
		<g id="shape141-315" v:mID="141" v:groupContext="shape" transform="translate(443.777,-274.678)">
			<title>Sheet.141</title>
			<desc>Précision</desc>
			<v:textBlock v:margins="rect(4,4,4,4)" v:tabSpace="42.5197" v:verticalAlign="0"/>
			<v:textRect cx="28.2437" cy="370.351" width="56.49" height="20"/>
			<rect x="0" y="360.351" width="56.4875" height="20" class="st9"/>
			<text x="9.8" y="373.35" class="st4" v:langID="1033"><v:paragraph v:horizAlign="1"/><v:tabList/>Précision</text>		</g>
		<g id="shape142-318" v:mID="142" v:groupContext="shape" transform="translate(565.467,-277.036)">
			<title>Sheet.142</title>
			<desc>Longueur</desc>
			<v:textBlock v:margins="rect(4,4,4,4)" v:tabSpace="42.5197" v:verticalAlign="0"/>
			<v:textRect cx="28.2437" cy="370.351" width="56.49" height="20"/>
			<rect x="0" y="360.351" width="56.4875" height="20" class="st9"/>
			<text x="9.04" y="373.35" class="st4" v:langID="1033"><v:paragraph v:horizAlign="1"/><v:tabList/>Longueur</text>		</g>
		<g id="shape143-321" v:mID="143" v:groupContext="shape" transform="translate(246.364,-221.503)">
			<title>Sheet.143</title>
			<desc>Préfixe +</desc>
			<v:textBlock v:margins="rect(4,4,4,4)" v:tabSpace="42.5197" v:verticalAlign="0"/>
			<v:textRect cx="28.2437" cy="370.351" width="56.49" height="20"/>
			<rect x="0" y="360.351" width="56.4875" height="20" class="st9"/>
			<text x="10.48" y="373.35" class="st4" v:langID="1033"><v:paragraph v:horizAlign="1"/><v:tabList/>Préfixe +</text>		</g>
		<g id="shape144-324" v:mID="144" v:groupContext="shape" transform="translate(246.364,-180.038)">
			<title>Sheet.144</title>
			<desc>Padding</desc>
			<v:textBlock v:margins="rect(4,4,4,4)" v:tabSpace="42.5197" v:verticalAlign="0"/>
			<v:textRect cx="28.2437" cy="370.351" width="56.49" height="20"/>
			<rect x="0" y="360.351" width="56.4875" height="20" class="st9"/>
			<text x="11.66" y="373.35" class="st11" v:langID="1033"><v:paragraph v:horizAlign="1"/><v:tabList/>Padding</text>		</g>
		<g id="shape145-327" v:mID="145" v:groupContext="shape" transform="translate(230.255,-83.0404)">
			<title>Sheet.145</title>
			<desc>Forme alternative</desc>
			<v:textBlock v:margins="rect(4,4,4,4)" v:tabSpace="42.5197" v:verticalAlign="0"/>
			<v:textRect cx="44.809" cy="363.794" width="89.62" height="33.1127"/>
			<rect x="0" y="347.238" width="89.618" height="33.1127" class="st9"/>
			<text x="31.65" y="360.24" class="st4" v:langID="1033"><v:paragraph v:horizAlign="1"/><v:tabList/>Forme <v:newlineChar/><tspan
						x="22.77" dy="1.2em" class="st12">alternative</tspan></text>		</g>
		<g id="shape147-331" v:mID="147" v:groupContext="shape" transform="translate(645.813,-296.425)">
			<title>Rectangle.147</title>
			<desc>[diufFeEgGxXoscpaAn]</desc>
			<v:userDefs>
				<v:ud v:nameU="visVersion" v:val="VT0(15):26"/>
			</v:userDefs>
			<v:textBlock v:margins="rect(4,4,4,4)" v:tabSpace="42.5197"/>
			<v:textRect cx="52.1275" cy="367.063" width="104.26" height="26.5748"/>
			<rect x="0" y="353.776" width="104.255" height="26.5748" rx="8.50394" ry="8.50394" class="st3"/>
			<text x="6.39" y="370.06" class="st4" v:langID="1033"><v:paragraph v:horizAlign="1"/><v:tabList/>[diufFeEgGxXoscpaAn]</text>		</g>
		<g id="shape149-334" v:mID="149" v:groupContext="shape" v:layerMember="0" transform="translate(652.9,-302.625)">
			<title>Lien dynamique.149</title>
			<path d="M-7.09 373.26 L-14.17 373.26 L-12.6 373.26" class="st5"/>
		</g>
		<g id="shape150-339" v:mID="150" v:groupContext="shape" v:layerMember="0" transform="translate(750.068,-302.625)">
			<title>Lien dynamique.150</title>
			<path d="M0 373.26 L29.92 373.26" class="st5"/>
		</g>
		<g id="shape151-344" v:mID="151" v:groupContext="shape" transform="translate(667.202,-324.614)">
			<title>Sheet.151</title>
			<desc>Type</desc>
			<v:textBlock v:margins="rect(4,4,4,4)" v:tabSpace="42.5197" v:verticalAlign="0"/>
			<v:textRect cx="28.2437" cy="370.351" width="56.49" height="20"/>
			<rect x="0" y="360.351" width="56.4875" height="20" class="st9"/>
			<text x="18.43" y="373.35" class="st4" v:langID="1033"><v:paragraph v:horizAlign="1"/><v:tabList/>Type</text>		</g>
	</g>
</svg>
