<?xml version="1.0" encoding="UTF-8" standalone="no"?>
<!DOCTYPE svg PUBLIC "-//W3C//DTD SVG 1.1//EN" "http://www.w3.org/Graphics/SVG/1.1/DTD/svg11.dtd">
<!-- Generated by Microsoft Visio, SVG Export gcc.svg Page-1 -->
<svg xmlns="http://www.w3.org/2000/svg" xmlns:xlink="http://www.w3.org/1999/xlink" xmlns:ev="http://www.w3.org/2001/xml-events"
		xmlns:v="http://schemas.microsoft.com/visio/2003/SVGExtensions/" width="11.6929in" height="8.26772in"
		viewBox="0 0 841.89 595.276" xml:space="preserve" color-interpolation-filters="sRGB" class="st20">
	<v:documentProperties v:langID="1033" v:metric="true" v:viewMarkup="false">
		<v:userDefs>
			<v:ud v:nameU="msvSubprocessMaster" v:prompt="" v:val="VT4(Rectangle)"/>
			<v:ud v:nameU="msvNoAutoConnect" v:val="VT0(1):26"/>
		</v:userDefs>
	</v:documentProperties>

	<style type="text/css">
	<![CDATA[
		.st1 {fill:#d8d8d8;stroke:none;stroke-linecap:round;stroke-linejoin:round;stroke-width:0.75}
		.st2 {fill:#ffffff;stroke:#000000;stroke-linecap:round;stroke-linejoin:round;stroke-width:0.75}
		.st3 {fill:#000000;font-family:Calibri;font-size:0.833336em}
		.st4 {font-size:1em;font-style:italic}
		.st5 {font-size:1em}
		.st6 {fill:#ffffff;stroke:none;stroke-linecap:butt;stroke-width:0.75}
		.st7 {fill:url(#grad10-26);stroke:none;stroke-linecap:butt;stroke-width:0.75}
		.st8 {fill:#a6a6a6;stroke:none;stroke-linecap:butt;stroke-width:0.75}
		.st9 {fill:none;stroke:#000000;stroke-linecap:round;stroke-linejoin:round;stroke-width:0.75}
		.st10 {fill:url(#grad0-40);stroke:none;stroke-linecap:butt;stroke-width:0.75}
		.st11 {fill:#000000;font-family:Calibri;font-size:1.00001em}
		.st12 {fill:none;stroke:none;stroke-linecap:round;stroke-linejoin:round;stroke-width:0.75}
		.st13 {fill:#000000;font-family:Calibri;font-size:1.5em;font-weight:bold}
		.st14 {marker-end:url(#mrkr4-69);stroke:#000000;stroke-linecap:round;stroke-linejoin:round;stroke-width:0.237638}
		.st15 {fill:#000000;fill-opacity:1;stroke:#000000;stroke-opacity:1;stroke-width:0.086174404659928}
		.st16 {stroke:#000000;stroke-dasharray:1.5,3;stroke-linecap:round;stroke-linejoin:round;stroke-width:1.5}
		.st17 {fill:#000000;font-family:Calibri;font-size:1.16666em;font-weight:bold}
		.st18 {stroke:#000000;stroke-linecap:round;stroke-linejoin:round;stroke-width:0.75}
		.st19 {fill:#000000;font-family:Calibri;font-size:1.00001em;font-style:italic}
		.st20 {fill:none;fill-rule:evenodd;font-size:12px;overflow:visible;stroke-linecap:square;stroke-miterlimit:3}
	]]>
	</style>

	<defs id="Patterns_And_Gradients">
		<pattern id="grad10-26" x="0" y="0" width="1" height="1" patternContentUnits="objectBoundingBox">
			<path d="M 0.5 0.5 L 0 0 L 0 1 z" style="fill:url(#grad0-27)"/>
			<path d="M 0.5 0.5 L 1 0 L 1 1 z" style="fill:url(#grad0-28)"/>
			<path d="M 0.5 0.5 L 0 0 L 1 0 z" style="fill:url(#grad0-29)"/>
			<path d="M 0.5 0.5 L 0 1 L 1 1 z" style="fill:url(#grad0-30)"/>
		</pattern>
		<linearGradient id="grad0-27" x1="0" y1="0" x2="1" y2="0" gradientTransform="rotate(180 0.5 0.5)">
			<stop offset="0" stop-color="#ffffff" stop-opacity="1"/>
			<stop offset="1" stop-color="#ffffff" stop-opacity="1"/>
		</linearGradient>
		<linearGradient id="grad0-28" x1="0" y1="0" x2="1" y2="0" gradientTransform="rotate(360 0.5 0.5)">
			<stop offset="0" stop-color="#ffffff" stop-opacity="1"/>
			<stop offset="1" stop-color="#ffffff" stop-opacity="1"/>
		</linearGradient>
		<linearGradient id="grad0-29" x1="0" y1="0" x2="1" y2="0" gradientTransform="rotate(270 0.5 0.5)">
			<stop offset="0" stop-color="#ffffff" stop-opacity="1"/>
			<stop offset="1" stop-color="#ffffff" stop-opacity="1"/>
		</linearGradient>
		<linearGradient id="grad0-30" x1="0" y1="0" x2="1" y2="0" gradientTransform="rotate(90 0.5 0.5)">
			<stop offset="0" stop-color="#ffffff" stop-opacity="1"/>
			<stop offset="1" stop-color="#ffffff" stop-opacity="1"/>
		</linearGradient>
		<linearGradient id="grad0-40" x1="0" y1="0" x2="1" y2="0" gradientTransform="rotate(90 0.5 0.5)">
			<stop offset="0" stop-color="#ffffff" stop-opacity="1"/>
			<stop offset="1" stop-color="#a4a4a4" stop-opacity="1"/>
		</linearGradient>
	</defs>
	<defs id="Markers">
		<g id="lend4">
			<path d="M 2 1 L 0 0 L 2 -1 L 2 1 " style="stroke:none"/>
		</g>
		<marker id="mrkr4-69" class="st15" v:arrowType="4" v:arrowSize="2" v:setback="23.2087" refX="-23.208747514911"
				orient="auto" markerUnits="strokeWidth" overflow="visible">
			<use xlink:href="#lend4" transform="scale(-11.604373757455,-11.604373757455) "/>
		</marker>
	</defs>
	<g v:mID="0" v:index="1" v:groupContext="foregroundPage">
		<v:userDefs>
			<v:ud v:nameU="msvThemeOrder" v:val="VT0(0):26"/>
		</v:userDefs>
		<title>Page-1</title>
		<v:pageProperties v:drawingScale="0.0393701" v:pageScale="0.0393701" v:drawingUnits="24" v:shadowOffsetX="8.50394"
				v:shadowOffsetY="-8.50394"/>
		<v:layer v:name="Flowchart" v:index="0"/>
		<v:layer v:name="Connector" v:index="1"/>
		<g id="shape127-1" v:mID="127" v:groupContext="shape" transform="translate(232.109,-182.551)">
			<title>Sheet.127</title>
			<rect x="0" y="295.937" width="189.921" height="299.339" class="st1"/>
		</g>
		<g id="shape1-3" v:mID="1" v:groupContext="shape" transform="translate(268.959,-440.504)">
			<title>Rectangle</title>
			<desc>Pré-processeur (preprocessing)</desc>
			<v:userDefs>
				<v:ud v:nameU="visVersion" v:val="VT0(15):26"/>
			</v:userDefs>
			<v:textBlock v:margins="rect(4,4,4,4)" v:tabSpace="42.5197"/>
			<v:textRect cx="56.6929" cy="581.102" width="113.39" height="28.3465"/>
			<rect x="0" y="566.929" width="113.386" height="28.3465" class="st2"/>
			<text x="25.97" y="578.1" class="st3" v:langID="1033"><v:paragraph v:horizAlign="1"/><v:tabList/>Pré-processeur<v:lf/><tspan
						x="25.49" dy="1.2em" class="st4">(preprocessing)</tspan></text>		</g>
		<g id="shape5-7" v:mID="5" v:groupContext="shape" transform="translate(268.959,-360.567)">
			<title>Rectangle.5</title>
			<desc>Compilateur (build)</desc>
			<v:userDefs>
				<v:ud v:nameU="visVersion" v:val="VT0(15):26"/>
			</v:userDefs>
			<v:textBlock v:margins="rect(4,4,4,4)" v:tabSpace="42.5197"/>
			<v:textRect cx="56.6929" cy="581.102" width="113.39" height="28.3465"/>
			<rect x="0" y="566.929" width="113.386" height="28.3465" class="st2"/>
			<text x="31.55" y="578.1" class="st3" v:langID="1033"><v:paragraph v:horizAlign="1"/><v:tabList/>Compilateur<v:lf/><tspan
						x="43.65" dy="1.2em" class="st5">(</tspan><tspan class="st4">build</tspan>)</text>		</g>
		<g id="shape6-12" v:mID="6" v:groupContext="shape" transform="translate(268.959,-273.26)">
			<title>Rectangle.6</title>
			<desc>Assembleur (assembly)</desc>
			<v:userDefs>
				<v:ud v:nameU="visVersion" v:val="VT0(15):26"/>
			</v:userDefs>
			<v:textBlock v:margins="rect(4,4,4,4)" v:tabSpace="42.5197"/>
			<v:textRect cx="56.6929" cy="581.102" width="113.39" height="28.3465"/>
			<rect x="0" y="566.929" width="113.386" height="28.3465" class="st2"/>
			<text x="32.77" y="578.1" class="st3" v:langID="1033"><v:paragraph v:horizAlign="1"/><v:tabList/>Assembleur<v:lf/><tspan
						x="34.9" dy="1.2em" class="st4">(assembly)</tspan></text>		</g>
		<g id="shape7-16" v:mID="7" v:groupContext="shape" transform="translate(268.931,-188.504)">
			<title>Rectangle.7</title>
			<desc>Édition des liens (link)</desc>
			<v:userDefs>
				<v:ud v:nameU="visVersion" v:val="VT0(15):26"/>
			</v:userDefs>
			<v:textBlock v:margins="rect(4,4,4,4)" v:tabSpace="42.5197"/>
			<v:textRect cx="56.6929" cy="581.102" width="113.39" height="28.3465"/>
			<rect x="0" y="566.929" width="113.386" height="28.3465" class="st2"/>
			<text x="23.69" y="578.1" class="st3" v:langID="1033"><v:paragraph v:horizAlign="1"/><v:tabList/>Édition des liens<v:newlineChar/><tspan
						x="46.52" dy="1.2em" class="st4">(link)</tspan></text>		</g>
		<g id="group20-20" transform="translate(297.986,-485.291)" v:mID="20" v:groupContext="group">
			<v:userDefs>
				<v:ud v:nameU="visVersion" v:prompt="" v:val="VT0(15):26"/>
			</v:userDefs>
			<title>Document.5</title>
			<desc>Fichier source</desc>
			<g id="shape21-21" v:mID="21" v:groupContext="shape" transform="translate(3.54491,-5.98588)">
				<title>Sheet.21</title>
				<path d="M48.24 550.15 L35.92 538.07 L0 538.08 L0 595.28 L48.23 595.28 L48.23 551.93 L48.24 551.93 L48.24 550.15 Z"
						class="st6"/>
			</g>
			<g id="shape22-23" v:mID="22" v:groupContext="shape" transform="translate(3.59323,-5.96551)">
				<title>Sheet.22</title>
				<path d="M35.87 538.1 L0 538.1 L0 595.28 L48.13 595.28 L48.13 550.13 L35.87 538.1 Z" class="st7"/>
			</g>
			<g id="shape23-31" v:mID="23" v:groupContext="shape" transform="translate(38.6407,-50.7237)">
				<title>Sheet.23</title>
				<path d="M13.08 594.88 L0.82 582.86 L0 582.86 L0 595.28 L13.08 595.27 L13.08 594.88 Z" class="st8"/>
			</g>
			<g id="shape24-33" v:mID="24" v:groupContext="shape" transform="translate(39.3368,-51.4191)">
				<title>Sheet.24</title>
				<path d="M0 595.28 L11.66 595.27 L0 583.96 L0 595.28 Z" class="st6"/>
			</g>
			<g id="shape25-35" v:mID="25" v:groupContext="shape" transform="translate(3.54491,-5.98966)">
				<title>Sheet.25</title>
				<path d="M48.24 550.15 L35.92 538.07 L0 538.08 L0 595.28 L48.23 595.28 L48.23 551.93 L48.24 551.93 L48.24 550.15 Z"
						class="st9"/>
			</g>
			<g id="shape26-37" v:mID="26" v:groupContext="shape" transform="translate(8.37026,-49.2545)">
				<title>Sheet.26</title>
				<rect x="0" y="594.754" width="22.3385" height="0.521916" class="st10"/>
			</g>
			<g id="shape27-41" v:mID="27" v:groupContext="shape" transform="translate(8.37026,-43.1972)">
				<title>Sheet.27</title>
				<rect x="0" y="594.754" width="36.7259" height="0.521916" class="st10"/>
			</g>
			<g id="shape28-44" v:mID="28" v:groupContext="shape" transform="translate(8.37026,-37.5176)">
				<title>Sheet.28</title>
				<rect x="0" y="594.754" width="36.7259" height="0.521184" class="st10"/>
			</g>
			<g id="shape29-47" v:mID="29" v:groupContext="shape" transform="translate(8.37026,-31.8381)">
				<title>Sheet.29</title>
				<rect x="0" y="594.754" width="36.7259" height="0.521916" class="st10"/>
			</g>
			<g id="shape30-50" v:mID="30" v:groupContext="shape" transform="translate(8.37026,-26.1585)">
				<title>Sheet.30</title>
				<rect x="0" y="594.754" width="36.7259" height="0.521916" class="st10"/>
			</g>
			<g id="shape31-53" v:mID="31" v:groupContext="shape" transform="translate(8.37026,-20.4796)">
				<title>Sheet.31</title>
				<rect x="0" y="594.754" width="36.7259" height="0.521916" class="st10"/>
			</g>
			<g id="shape32-56" v:mID="32" v:groupContext="shape" transform="translate(8.37026,-14.8007)">
				<title>Sheet.32</title>
				<rect x="0" y="594.754" width="36.7259" height="0.521184" class="st10"/>
			</g>
			<g id="shape20-59" v:mID="20" v:groupContext="groupContent">
				<v:textBlock v:margins="rect(4,4,4,4)" v:tabSpace="42.5197"/>
				<v:textRect cx="27.6662" cy="522.425" width="78.54" height="22.4037"/>
				<text x="-6.25" y="526.03" class="st11" v:langID="1033"><v:paragraph v:horizAlign="1"/><v:tabList/>Fichier source</text>			</g>
		</g>
		<g id="shape46-61" v:mID="46" v:groupContext="shape" transform="translate(308.304,-506.472)">
			<title>Sheet.46</title>
			<desc>.c</desc>
			<v:textBlock v:margins="rect(4,4,4,4)" v:tabSpace="42.5197"/>
			<v:textRect cx="17.348" cy="585.276" width="34.7" height="20"/>
			<rect x="0" y="575.276" width="34.6961" height="20" class="st12"/>
			<text x="11.18" y="590.68" class="st13" v:langID="1033"><v:paragraph v:horizAlign="1"/><v:tabList/>.c</text>		</g>
		<g id="shape61-64" v:mID="61" v:groupContext="shape" v:layerMember="1" transform="translate(318.565,-491.257)">
			<title>Dynamic connector</title>
			<path d="M7.09 595.28 L7.09 612.17" class="st14"/>
		</g>
		<g id="shape62-70" v:mID="62" v:groupContext="shape" v:layerMember="1" transform="translate(318.565,-440.504)">
			<title>Dynamic connector.62</title>
			<path d="M7.09 595.28 L7.09 641.35" class="st14"/>
		</g>
		<g id="shape63-75" v:mID="63" v:groupContext="shape" v:layerMember="1" transform="translate(318.565,-360.567)">
			<title>Dynamic connector.63</title>
			<path d="M7.09 595.28 L7.09 648.72" class="st14"/>
		</g>
		<g id="shape64-80" v:mID="64" v:groupContext="shape" v:layerMember="1" transform="translate(332.725,-273.26)">
			<title>Dynamic connector.64</title>
			<path d="M-7.07 595.28 L-7.1 646.17" class="st14"/>
		</g>
		<g id="shape65-85" v:mID="65" v:groupContext="shape" v:layerMember="1" transform="translate(325.652,-440.504)">
			<title>Dynamic connector.65</title>
			<path d="M0 595.28 L0 612.28 L136.93 612.28" class="st14"/>
		</g>
		<g id="shape80-90" v:mID="80" v:groupContext="shape" v:layerMember="1" transform="translate(325.652,-360.567)">
			<title>Dynamic connector.80</title>
			<path d="M0 595.28 L0 611.01 L137.61 611.01" class="st14"/>
		</g>
		<g id="shape95-95" v:mID="95" v:groupContext="shape" v:layerMember="1" transform="translate(325.652,-274.961)">
			<title>Dynamic connector.95</title>
			<path d="M0 596.98 L0 607.75 L137.66 607.75" class="st14"/>
		</g>
		<g id="shape110-100" v:mID="110" v:groupContext="shape" v:layerMember="1" transform="translate(318.537,-188.504)">
			<title>Dynamic connector.110</title>
			<path d="M7.09 595.28 L7.09 617.56" class="st14"/>
		</g>
		<g id="group114-105" transform="translate(189.589,-389.48)" v:mID="114" v:groupContext="group">
			<title>Sheet.114</title>
			<g id="shape111-106" v:mID="111" v:groupContext="shape" transform="translate(7.99361E-14,-19.8425)">
				<title>Sheet.111</title>
				<path d="M0 595.28 L206.93 595.28" class="st16"/>
			</g>
			<g id="shape112-109" v:mID="112" v:groupContext="shape" transform="translate(422.685,20.6334) rotate(21.2505)">
				<title>Sheet.112</title>
				<path d="M0 595.28 L54.75 595.28" class="st16"/>
			</g>
			<g id="shape113-112" v:mID="113" v:groupContext="shape" transform="translate(257.953,0)">
				<title>Sheet.113</title>
				<path d="M0 595.28 L153.07 595.28" class="st16"/>
			</g>
		</g>
		<g id="group115-115" transform="translate(465.23,-303.874)" v:mID="115" v:groupContext="group">
			<title>Sheet.115</title>
			<g id="group66-116" transform="translate(0,-7.937)" v:mID="66" v:groupContext="group">
				<v:userDefs>
					<v:ud v:nameU="visVersion" v:prompt="" v:val="VT0(15):26"/>
				</v:userDefs>
				<title>Document.66</title>
				<desc>Fichier source assembleur</desc>
				<g id="shape67-117" v:mID="67" v:groupContext="shape" transform="translate(3.54491,-5.98588)">
					<title>Sheet.67</title>
					<path d="M48.24 550.15 L35.92 538.07 L0 538.08 L0 595.28 L48.23 595.28 L48.23 551.93 L48.24 551.93 L48.24 550.15
								 Z" class="st6"/>
				</g>
				<g id="shape68-119" v:mID="68" v:groupContext="shape" transform="translate(3.59323,-5.96551)">
					<title>Sheet.68</title>
					<path d="M35.87 538.1 L0 538.1 L0 595.28 L48.13 595.28 L48.13 550.13 L35.87 538.1 Z" class="st7"/>
				</g>
				<g id="shape69-122" v:mID="69" v:groupContext="shape" transform="translate(38.6407,-50.7237)">
					<title>Sheet.69</title>
					<path d="M13.08 594.88 L0.82 582.86 L0 582.86 L0 595.28 L13.08 595.27 L13.08 594.88 Z" class="st8"/>
				</g>
				<g id="shape70-124" v:mID="70" v:groupContext="shape" transform="translate(39.3368,-51.4191)">
					<title>Sheet.70</title>
					<path d="M0 595.28 L11.66 595.27 L0 583.96 L0 595.28 Z" class="st6"/>
				</g>
				<g id="shape71-126" v:mID="71" v:groupContext="shape" transform="translate(3.54491,-5.98966)">
					<title>Sheet.71</title>
					<path d="M48.24 550.15 L35.92 538.07 L0 538.08 L0 595.28 L48.23 595.28 L48.23 551.93 L48.24 551.93 L48.24 550.15
								 Z" class="st9"/>
				</g>
				<g id="shape72-128" v:mID="72" v:groupContext="shape" transform="translate(8.37026,-49.2545)">
					<title>Sheet.72</title>
					<rect x="0" y="594.754" width="22.3385" height="0.521916" class="st10"/>
				</g>
				<g id="shape73-131" v:mID="73" v:groupContext="shape" transform="translate(8.37026,-43.1972)">
					<title>Sheet.73</title>
					<rect x="0" y="594.754" width="36.7259" height="0.521916" class="st10"/>
				</g>
				<g id="shape74-134" v:mID="74" v:groupContext="shape" transform="translate(8.37026,-37.5176)">
					<title>Sheet.74</title>
					<rect x="0" y="594.754" width="36.7259" height="0.521184" class="st10"/>
				</g>
				<g id="shape75-137" v:mID="75" v:groupContext="shape" transform="translate(8.37026,-31.8381)">
					<title>Sheet.75</title>
					<rect x="0" y="594.754" width="36.7259" height="0.521916" class="st10"/>
				</g>
				<g id="shape76-140" v:mID="76" v:groupContext="shape" transform="translate(8.37026,-26.1585)">
					<title>Sheet.76</title>
					<rect x="0" y="594.754" width="36.7259" height="0.521916" class="st10"/>
				</g>
				<g id="shape77-143" v:mID="77" v:groupContext="shape" transform="translate(8.37026,-20.4796)">
					<title>Sheet.77</title>
					<rect x="0" y="594.754" width="36.7259" height="0.521916" class="st10"/>
				</g>
				<g id="shape78-146" v:mID="78" v:groupContext="shape" transform="translate(8.37026,-14.8007)">
					<title>Sheet.78</title>
					<rect x="0" y="594.754" width="36.7259" height="0.521184" class="st10"/>
				</g>
				<g id="shape66-149" v:mID="66" v:groupContext="groupContent">
					<v:textBlock v:margins="rect(4,4,4,4)" v:tabSpace="42.5197"/>
					<v:textRect cx="93.5433" cy="563.528" width="81.26" height="36.8038"/>
					<text x="56.92" y="559.93" class="st11" v:langID="1033"><v:paragraph/><v:tabList/>Fichier source <v:lf/><tspan
								x="56.92" dy="1.2em" class="st5">assembleur</tspan></text>				</g>
			</g>
			<g id="shape79-152" v:mID="79" v:groupContext="shape" transform="translate(10.3181,-24.5827)">
				<title>Sheet.79</title>
				<desc>.s</desc>
				<v:textBlock v:margins="rect(4,4,4,4)" v:tabSpace="42.5197"/>
				<v:textRect cx="17.348" cy="585.276" width="34.7" height="20"/>
				<rect x="0" y="575.276" width="34.6961" height="20" class="st12"/>
				<text x="11.35" y="590.68" class="st13" v:langID="1033"><v:paragraph v:horizAlign="1"/><v:tabList/>.s</text>			</g>
		</g>
		<g id="group116-155" transform="translate(465.23,-232.441)" v:mID="116" v:groupContext="group">
			<title>Sheet.116</title>
			<g id="group81-156" v:mID="81" v:groupContext="group">
				<v:userDefs>
					<v:ud v:nameU="visVersion" v:prompt="" v:val="VT0(15):26"/>
				</v:userDefs>
				<title>Document.81</title>
				<desc>Fichier objet assemblé</desc>
				<g id="shape82-157" v:mID="82" v:groupContext="shape" transform="translate(3.54491,-5.98588)">
					<title>Sheet.82</title>
					<path d="M48.24 550.15 L35.92 538.07 L0 538.08 L0 595.28 L48.23 595.28 L48.23 551.93 L48.24 551.93 L48.24 550.15
								 Z" class="st6"/>
				</g>
				<g id="shape83-159" v:mID="83" v:groupContext="shape" transform="translate(3.59323,-5.96551)">
					<title>Sheet.83</title>
					<path d="M35.87 538.1 L0 538.1 L0 595.28 L48.13 595.28 L48.13 550.13 L35.87 538.1 Z" class="st7"/>
				</g>
				<g id="shape84-162" v:mID="84" v:groupContext="shape" transform="translate(38.6407,-50.7237)">
					<title>Sheet.84</title>
					<path d="M13.08 594.88 L0.82 582.86 L0 582.86 L0 595.28 L13.08 595.27 L13.08 594.88 Z" class="st8"/>
				</g>
				<g id="shape85-164" v:mID="85" v:groupContext="shape" transform="translate(39.3368,-51.4191)">
					<title>Sheet.85</title>
					<path d="M0 595.28 L11.66 595.27 L0 583.96 L0 595.28 Z" class="st6"/>
				</g>
				<g id="shape86-166" v:mID="86" v:groupContext="shape" transform="translate(3.54491,-5.98966)">
					<title>Sheet.86</title>
					<path d="M48.24 550.15 L35.92 538.07 L0 538.08 L0 595.28 L48.23 595.28 L48.23 551.93 L48.24 551.93 L48.24 550.15
								 Z" class="st9"/>
				</g>
				<g id="shape87-168" v:mID="87" v:groupContext="shape" transform="translate(8.37026,-49.2545)">
					<title>Sheet.87</title>
					<rect x="0" y="594.754" width="22.3385" height="0.521916" class="st10"/>
				</g>
				<g id="shape88-171" v:mID="88" v:groupContext="shape" transform="translate(8.37026,-43.1972)">
					<title>Sheet.88</title>
					<rect x="0" y="594.754" width="36.7259" height="0.521916" class="st10"/>
				</g>
				<g id="shape89-174" v:mID="89" v:groupContext="shape" transform="translate(8.37026,-37.5176)">
					<title>Sheet.89</title>
					<rect x="0" y="594.754" width="36.7259" height="0.521184" class="st10"/>
				</g>
				<g id="shape90-177" v:mID="90" v:groupContext="shape" transform="translate(8.37026,-31.8381)">
					<title>Sheet.90</title>
					<rect x="0" y="594.754" width="36.7259" height="0.521916" class="st10"/>
				</g>
				<g id="shape91-180" v:mID="91" v:groupContext="shape" transform="translate(8.37026,-26.1585)">
					<title>Sheet.91</title>
					<rect x="0" y="594.754" width="36.7259" height="0.521916" class="st10"/>
				</g>
				<g id="shape92-183" v:mID="92" v:groupContext="shape" transform="translate(8.37026,-20.4796)">
					<title>Sheet.92</title>
					<rect x="0" y="594.754" width="36.7259" height="0.521916" class="st10"/>
				</g>
				<g id="shape93-186" v:mID="93" v:groupContext="shape" transform="translate(8.37026,-14.8007)">
					<title>Sheet.93</title>
					<rect x="0" y="594.754" width="36.7259" height="0.521184" class="st10"/>
				</g>
				<g id="shape81-189" v:mID="81" v:groupContext="groupContent">
					<v:textBlock v:margins="rect(4,4,4,4)" v:tabSpace="42.5197"/>
					<v:textRect cx="115.54" cy="563.528" width="119.92" height="22.4037"/>
					<text x="59.58" y="567.13" class="st11" v:langID="1033"><v:paragraph/><v:tabList/>Fichier objet assemblé</text>				</g>
			</g>
			<g id="shape94-191" v:mID="94" v:groupContext="shape" transform="translate(10.3181,-24.5827)">
				<title>Sheet.94</title>
				<desc>.o</desc>
				<v:textBlock v:margins="rect(4,4,4,4)" v:tabSpace="42.5197"/>
				<v:textRect cx="17.348" cy="585.276" width="34.7" height="20"/>
				<rect x="0" y="575.276" width="34.6961" height="20" class="st12"/>
				<text x="10.11" y="590.68" class="st13" v:langID="1033"><v:paragraph v:horizAlign="1"/><v:tabList/>.o</text>			</g>
		</g>
		<g id="group117-194" transform="translate(464.55,-391.748)" v:mID="117" v:groupContext="group">
			<title>Sheet.117</title>
			<g id="group47-195" v:mID="47" v:groupContext="group">
				<v:userDefs>
					<v:ud v:nameU="visVersion" v:prompt="" v:val="VT0(15):26"/>
				</v:userDefs>
				<title>Document.47</title>
				<desc>Fichier source pré-processé</desc>
				<g id="shape48-196" v:mID="48" v:groupContext="shape" transform="translate(3.54491,-5.98588)">
					<title>Sheet.48</title>
					<path d="M48.24 550.15 L35.92 538.07 L0 538.08 L0 595.28 L48.23 595.28 L48.23 551.93 L48.24 551.93 L48.24 550.15
								 Z" class="st6"/>
				</g>
				<g id="shape49-198" v:mID="49" v:groupContext="shape" transform="translate(3.59323,-5.96551)">
					<title>Sheet.49</title>
					<path d="M35.87 538.1 L0 538.1 L0 595.28 L48.13 595.28 L48.13 550.13 L35.87 538.1 Z" class="st7"/>
				</g>
				<g id="shape50-201" v:mID="50" v:groupContext="shape" transform="translate(38.6407,-50.7237)">
					<title>Sheet.50</title>
					<path d="M13.08 594.88 L0.82 582.86 L0 582.86 L0 595.28 L13.08 595.27 L13.08 594.88 Z" class="st8"/>
				</g>
				<g id="shape51-203" v:mID="51" v:groupContext="shape" transform="translate(39.3368,-51.4191)">
					<title>Sheet.51</title>
					<path d="M0 595.28 L11.66 595.27 L0 583.96 L0 595.28 Z" class="st6"/>
				</g>
				<g id="shape52-205" v:mID="52" v:groupContext="shape" transform="translate(3.54491,-5.98966)">
					<title>Sheet.52</title>
					<path d="M48.24 550.15 L35.92 538.07 L0 538.08 L0 595.28 L48.23 595.28 L48.23 551.93 L48.24 551.93 L48.24 550.15
								 Z" class="st9"/>
				</g>
				<g id="shape53-207" v:mID="53" v:groupContext="shape" transform="translate(8.37026,-49.2545)">
					<title>Sheet.53</title>
					<rect x="0" y="594.754" width="22.3385" height="0.521916" class="st10"/>
				</g>
				<g id="shape54-210" v:mID="54" v:groupContext="shape" transform="translate(8.37026,-43.1972)">
					<title>Sheet.54</title>
					<rect x="0" y="594.754" width="36.7259" height="0.521916" class="st10"/>
				</g>
				<g id="shape55-213" v:mID="55" v:groupContext="shape" transform="translate(8.37026,-37.5176)">
					<title>Sheet.55</title>
					<rect x="0" y="594.754" width="36.7259" height="0.521184" class="st10"/>
				</g>
				<g id="shape56-216" v:mID="56" v:groupContext="shape" transform="translate(8.37026,-31.8381)">
					<title>Sheet.56</title>
					<rect x="0" y="594.754" width="36.7259" height="0.521916" class="st10"/>
				</g>
				<g id="shape57-219" v:mID="57" v:groupContext="shape" transform="translate(8.37026,-26.1585)">
					<title>Sheet.57</title>
					<rect x="0" y="594.754" width="36.7259" height="0.521916" class="st10"/>
				</g>
				<g id="shape58-222" v:mID="58" v:groupContext="shape" transform="translate(8.37026,-20.4796)">
					<title>Sheet.58</title>
					<rect x="0" y="594.754" width="36.7259" height="0.521916" class="st10"/>
				</g>
				<g id="shape59-225" v:mID="59" v:groupContext="shape" transform="translate(8.37026,-14.8007)">
					<title>Sheet.59</title>
					<rect x="0" y="594.754" width="36.7259" height="0.521184" class="st10"/>
				</g>
				<g id="shape47-228" v:mID="47" v:groupContext="groupContent">
					<v:textBlock v:margins="rect(4,4,4,4)" v:tabSpace="42.5197"/>
					<v:textRect cx="93.5433" cy="562.961" width="81.26" height="36.8038"/>
					<text x="56.92" y="559.36" class="st11" v:langID="1033"><v:paragraph/><v:tabList/>Fichier source <v:lf/><tspan
								x="56.92" dy="1.2em" class="st5">pré</tspan>-processé</text>				</g>
			</g>
			<g id="shape60-231" v:mID="60" v:groupContext="shape" transform="translate(10.3181,-24.5827)">
				<title>Sheet.60</title>
				<desc>.i</desc>
				<v:textBlock v:margins="rect(4,4,4,4)" v:tabSpace="42.5197"/>
				<v:textRect cx="17.348" cy="585.276" width="34.7" height="20"/>
				<rect x="0" y="575.276" width="34.6961" height="20" class="st12"/>
				<text x="12.73" y="590.68" class="st13" v:langID="1033"><v:paragraph v:horizAlign="1"/><v:tabList/>.i</text>			</g>
		</g>
		<g id="group118-234" transform="translate(189.589,-308.693)" v:mID="118" v:groupContext="group">
			<title>Sheet.118</title>
			<g id="shape119-235" v:mID="119" v:groupContext="shape" transform="translate(7.99361E-14,-19.8425)">
				<title>Sheet.119</title>
				<path d="M0 595.28 L206.93 595.28" class="st16"/>
			</g>
			<g id="shape120-238" v:mID="120" v:groupContext="shape" transform="translate(422.685,20.6334) rotate(21.2505)">
				<title>Sheet.120</title>
				<path d="M0 595.28 L54.75 595.28" class="st16"/>
			</g>
			<g id="shape121-241" v:mID="121" v:groupContext="shape" transform="translate(257.953,0)">
				<title>Sheet.121</title>
				<path d="M0 595.28 L153.07 595.28" class="st16"/>
			</g>
		</g>
		<g id="shape123-244" v:mID="123" v:groupContext="shape" transform="translate(189.589,-243.496)">
			<title>Sheet.123</title>
			<path d="M0 595.28 L206.93 595.28" class="st16"/>
		</g>
		<g id="shape124-247" v:mID="124" v:groupContext="shape" transform="translate(612.274,-203.02) rotate(21.2505)">
			<title>Sheet.124</title>
			<path d="M0 595.28 L54.75 595.28" class="st16"/>
		</g>
		<g id="shape125-250" v:mID="125" v:groupContext="shape" transform="translate(447.542,-223.654)">
			<title>Sheet.125</title>
			<path d="M0 595.28 L153.07 595.28" class="st16"/>
		</g>
		<g id="group126-253" transform="translate(297.958,-97.5118)" v:mID="126" v:groupContext="group">
			<title>Sheet.126</title>
			<g id="group96-254" v:mID="96" v:groupContext="group">
				<v:userDefs>
					<v:ud v:nameU="visVersion" v:prompt="" v:val="VT0(15):26"/>
				</v:userDefs>
				<title>Document.96</title>
				<desc>Fichier exécutable</desc>
				<g id="shape97-255" v:mID="97" v:groupContext="shape" transform="translate(3.54491,-5.98588)">
					<title>Sheet.97</title>
					<path d="M48.24 550.15 L35.92 538.07 L0 538.08 L0 595.28 L48.23 595.28 L48.23 551.93 L48.24 551.93 L48.24 550.15
								 Z" class="st6"/>
				</g>
				<g id="shape98-257" v:mID="98" v:groupContext="shape" transform="translate(3.59323,-5.96551)">
					<title>Sheet.98</title>
					<path d="M35.87 538.1 L0 538.1 L0 595.28 L48.13 595.28 L48.13 550.13 L35.87 538.1 Z" class="st7"/>
				</g>
				<g id="shape99-260" v:mID="99" v:groupContext="shape" transform="translate(38.6407,-50.7237)">
					<title>Sheet.99</title>
					<path d="M13.08 594.88 L0.82 582.86 L0 582.86 L0 595.28 L13.08 595.27 L13.08 594.88 Z" class="st8"/>
				</g>
				<g id="shape100-262" v:mID="100" v:groupContext="shape" transform="translate(39.3368,-51.4191)">
					<title>Sheet.100</title>
					<path d="M0 595.28 L11.66 595.27 L0 583.96 L0 595.28 Z" class="st6"/>
				</g>
				<g id="shape101-264" v:mID="101" v:groupContext="shape" transform="translate(3.54491,-5.98966)">
					<title>Sheet.101</title>
					<path d="M48.24 550.15 L35.92 538.07 L0 538.08 L0 595.28 L48.23 595.28 L48.23 551.93 L48.24 551.93 L48.24 550.15
								 Z" class="st9"/>
				</g>
				<g id="shape102-266" v:mID="102" v:groupContext="shape" transform="translate(8.37026,-49.2545)">
					<title>Sheet.102</title>
					<rect x="0" y="594.754" width="22.3385" height="0.521916" class="st10"/>
				</g>
				<g id="shape103-269" v:mID="103" v:groupContext="shape" transform="translate(8.37026,-43.1972)">
					<title>Sheet.103</title>
					<rect x="0" y="594.754" width="36.7259" height="0.521916" class="st10"/>
				</g>
				<g id="shape104-272" v:mID="104" v:groupContext="shape" transform="translate(8.37026,-37.5176)">
					<title>Sheet.104</title>
					<rect x="0" y="594.754" width="36.7259" height="0.521184" class="st10"/>
				</g>
				<g id="shape105-275" v:mID="105" v:groupContext="shape" transform="translate(8.37026,-31.8381)">
					<title>Sheet.105</title>
					<rect x="0" y="594.754" width="36.7259" height="0.521916" class="st10"/>
				</g>
				<g id="shape106-278" v:mID="106" v:groupContext="shape" transform="translate(8.37026,-26.1585)">
					<title>Sheet.106</title>
					<rect x="0" y="594.754" width="36.7259" height="0.521916" class="st10"/>
				</g>
				<g id="shape107-281" v:mID="107" v:groupContext="shape" transform="translate(8.37026,-20.4796)">
					<title>Sheet.107</title>
					<rect x="0" y="594.754" width="36.7259" height="0.521916" class="st10"/>
				</g>
				<g id="shape108-284" v:mID="108" v:groupContext="shape" transform="translate(8.37026,-14.8007)">
					<title>Sheet.108</title>
					<rect x="0" y="594.754" width="36.7259" height="0.521184" class="st10"/>
				</g>
				<g id="shape96-287" v:mID="96" v:groupContext="groupContent">
					<v:textBlock v:margins="rect(4,4,4,4)" v:tabSpace="42.5197"/>
					<v:textRect cx="26.9858" cy="602.646" width="99.3" height="22.4037"/>
					<text x="-17.31" y="606.25" class="st11" v:langID="1033"><v:paragraph v:horizAlign="1"/><v:tabList/>Fichier exécutable</text>				</g>
			</g>
			<g id="shape109-289" v:mID="109" v:groupContext="shape" transform="translate(9.60946,-24.5827)">
				<title>Sheet.109</title>
				<desc>.out</desc>
				<v:textBlock v:margins="rect(4,4,4,4)" v:tabSpace="42.5197"/>
				<v:textRect cx="17.348" cy="585.276" width="34.7" height="20"/>
				<rect x="0" y="575.276" width="34.6961" height="20" class="st12"/>
				<text x="5.53" y="589.48" class="st17" v:langID="1033"><v:paragraph v:horizAlign="1"/><v:tabList/>.out</text>			</g>
		</g>
		<g id="shape128-292" v:mID="128" v:groupContext="shape" transform="translate(222.101,-461.685)">
			<title>Sheet.128</title>
			<desc>gcc</desc>
			<v:textBlock v:margins="rect(4,4,4,4)" v:tabSpace="42.5197"/>
			<v:textRect cx="24.1811" cy="585.276" width="48.37" height="20"/>
			<rect x="0" y="575.276" width="48.3622" height="20" class="st12"/>
			<text x="16.28" y="588.88" class="st11" v:langID="1033"><v:paragraph v:horizAlign="1"/><v:tabList/>gcc</text>		</g>
		<g id="group146-295" transform="translate(105.91,-168.094)" v:mID="146" v:groupContext="group">
			<title>Sheet.146</title>
			<g id="group147-296" v:mID="147" v:groupContext="group">
				<v:userDefs>
					<v:ud v:nameU="visVersion" v:prompt="" v:val="VT0(15):26"/>
				</v:userDefs>
				<title>Document.81</title>
				<g id="shape148-297" v:mID="148" v:groupContext="shape" transform="translate(3.54491,-5.98588)">
					<title>Sheet.148</title>
					<path d="M48.24 550.15 L35.92 538.07 L0 538.08 L0 595.28 L48.23 595.28 L48.23 551.93 L48.24 551.93 L48.24 550.15
								 Z" class="st6"/>
				</g>
				<g id="shape149-299" v:mID="149" v:groupContext="shape" transform="translate(3.59323,-5.96551)">
					<title>Sheet.149</title>
					<path d="M35.87 538.1 L0 538.1 L0 595.28 L48.13 595.28 L48.13 550.13 L35.87 538.1 Z" class="st7"/>
				</g>
				<g id="shape150-302" v:mID="150" v:groupContext="shape" transform="translate(38.6407,-50.7237)">
					<title>Sheet.150</title>
					<path d="M13.08 594.88 L0.82 582.86 L0 582.86 L0 595.28 L13.08 595.27 L13.08 594.88 Z" class="st8"/>
				</g>
				<g id="shape151-304" v:mID="151" v:groupContext="shape" transform="translate(39.3368,-51.4191)">
					<title>Sheet.151</title>
					<path d="M0 595.28 L11.66 595.27 L0 583.96 L0 595.28 Z" class="st6"/>
				</g>
				<g id="shape152-306" v:mID="152" v:groupContext="shape" transform="translate(3.54491,-5.98966)">
					<title>Sheet.152</title>
					<path d="M48.24 550.15 L35.92 538.07 L0 538.08 L0 595.28 L48.23 595.28 L48.23 551.93 L48.24 551.93 L48.24 550.15
								 Z" class="st9"/>
				</g>
				<g id="shape153-308" v:mID="153" v:groupContext="shape" transform="translate(8.37026,-49.2545)">
					<title>Sheet.153</title>
					<rect x="0" y="594.754" width="22.3385" height="0.521916" class="st10"/>
				</g>
				<g id="shape154-311" v:mID="154" v:groupContext="shape" transform="translate(8.37026,-43.1972)">
					<title>Sheet.154</title>
					<rect x="0" y="594.754" width="36.7259" height="0.521916" class="st10"/>
				</g>
				<g id="shape155-314" v:mID="155" v:groupContext="shape" transform="translate(8.37026,-37.5176)">
					<title>Sheet.155</title>
					<rect x="0" y="594.754" width="36.7259" height="0.521184" class="st10"/>
				</g>
				<g id="shape156-317" v:mID="156" v:groupContext="shape" transform="translate(8.37026,-31.8381)">
					<title>Sheet.156</title>
					<rect x="0" y="594.754" width="36.7259" height="0.521916" class="st10"/>
				</g>
				<g id="shape157-320" v:mID="157" v:groupContext="shape" transform="translate(8.37026,-26.1585)">
					<title>Sheet.157</title>
					<rect x="0" y="594.754" width="36.7259" height="0.521916" class="st10"/>
				</g>
				<g id="shape158-323" v:mID="158" v:groupContext="shape" transform="translate(8.37026,-20.4796)">
					<title>Sheet.158</title>
					<rect x="0" y="594.754" width="36.7259" height="0.521916" class="st10"/>
				</g>
				<g id="shape159-326" v:mID="159" v:groupContext="shape" transform="translate(8.37026,-14.8007)">
					<title>Sheet.159</title>
					<rect x="0" y="594.754" width="36.7259" height="0.521184" class="st10"/>
				</g>
			</g>
			<g id="shape160-329" v:mID="160" v:groupContext="shape" transform="translate(10.3181,-24.5827)">
				<title>Sheet.160</title>
				<desc>.o</desc>
				<v:textBlock v:margins="rect(4,4,4,4)" v:tabSpace="42.5197"/>
				<v:textRect cx="17.348" cy="585.276" width="34.7" height="20"/>
				<rect x="0" y="575.276" width="34.6961" height="20" class="st12"/>
				<text x="10.11" y="590.68" class="st13" v:langID="1033"><v:paragraph v:horizAlign="1"/><v:tabList/>.o</text>			</g>
		</g>
		<g id="shape161-332" v:mID="161" v:groupContext="shape" v:layerMember="1" transform="translate(157.682,-195.591)">
			<title>Dynamic connector.161</title>
			<path d="M0 588.19 L105.73 588.19" class="st14"/>
		</g>
		<g id="group162-337" transform="translate(105.91,-252.85)" v:mID="162" v:groupContext="group">
			<title>Sheet.162</title>
			<g id="group163-338" v:mID="163" v:groupContext="group">
				<v:userDefs>
					<v:ud v:nameU="visVersion" v:prompt="" v:val="VT0(15):26"/>
				</v:userDefs>
				<title>Document.66</title>
				<g id="shape164-339" v:mID="164" v:groupContext="shape" transform="translate(3.54491,-5.98588)">
					<title>Sheet.164</title>
					<path d="M48.24 550.15 L35.92 538.07 L0 538.08 L0 595.28 L48.23 595.28 L48.23 551.93 L48.24 551.93 L48.24 550.15
								 Z" class="st6"/>
				</g>
				<g id="shape165-341" v:mID="165" v:groupContext="shape" transform="translate(3.59323,-5.96551)">
					<title>Sheet.165</title>
					<path d="M35.87 538.1 L0 538.1 L0 595.28 L48.13 595.28 L48.13 550.13 L35.87 538.1 Z" class="st7"/>
				</g>
				<g id="shape166-344" v:mID="166" v:groupContext="shape" transform="translate(38.6407,-50.7237)">
					<title>Sheet.166</title>
					<path d="M13.08 594.88 L0.82 582.86 L0 582.86 L0 595.28 L13.08 595.27 L13.08 594.88 Z" class="st8"/>
				</g>
				<g id="shape167-346" v:mID="167" v:groupContext="shape" transform="translate(39.3368,-51.4191)">
					<title>Sheet.167</title>
					<path d="M0 595.28 L11.66 595.27 L0 583.96 L0 595.28 Z" class="st6"/>
				</g>
				<g id="shape168-348" v:mID="168" v:groupContext="shape" transform="translate(3.54491,-5.98966)">
					<title>Sheet.168</title>
					<path d="M48.24 550.15 L35.92 538.07 L0 538.08 L0 595.28 L48.23 595.28 L48.23 551.93 L48.24 551.93 L48.24 550.15
								 Z" class="st9"/>
				</g>
				<g id="shape169-350" v:mID="169" v:groupContext="shape" transform="translate(8.37026,-49.2545)">
					<title>Sheet.169</title>
					<rect x="0" y="594.754" width="22.3385" height="0.521916" class="st10"/>
				</g>
				<g id="shape170-353" v:mID="170" v:groupContext="shape" transform="translate(8.37026,-43.1972)">
					<title>Sheet.170</title>
					<rect x="0" y="594.754" width="36.7259" height="0.521916" class="st10"/>
				</g>
				<g id="shape171-356" v:mID="171" v:groupContext="shape" transform="translate(8.37026,-37.5176)">
					<title>Sheet.171</title>
					<rect x="0" y="594.754" width="36.7259" height="0.521184" class="st10"/>
				</g>
				<g id="shape172-359" v:mID="172" v:groupContext="shape" transform="translate(8.37026,-31.8381)">
					<title>Sheet.172</title>
					<rect x="0" y="594.754" width="36.7259" height="0.521916" class="st10"/>
				</g>
				<g id="shape173-362" v:mID="173" v:groupContext="shape" transform="translate(8.37026,-26.1585)">
					<title>Sheet.173</title>
					<rect x="0" y="594.754" width="36.7259" height="0.521916" class="st10"/>
				</g>
				<g id="shape174-365" v:mID="174" v:groupContext="shape" transform="translate(8.37026,-20.4796)">
					<title>Sheet.174</title>
					<rect x="0" y="594.754" width="36.7259" height="0.521916" class="st10"/>
				</g>
				<g id="shape175-368" v:mID="175" v:groupContext="shape" transform="translate(8.37026,-14.8007)">
					<title>Sheet.175</title>
					<rect x="0" y="594.754" width="36.7259" height="0.521184" class="st10"/>
				</g>
			</g>
			<g id="shape176-371" v:mID="176" v:groupContext="shape" transform="translate(10.3181,-24.5827)">
				<title>Sheet.176</title>
				<desc>.s</desc>
				<v:textBlock v:margins="rect(4,4,4,4)" v:tabSpace="42.5197"/>
				<v:textRect cx="17.348" cy="585.276" width="34.7" height="20"/>
				<rect x="0" y="575.276" width="34.6961" height="20" class="st12"/>
				<text x="11.35" y="590.68" class="st13" v:langID="1033"><v:paragraph v:horizAlign="1"/><v:tabList/>.s</text>			</g>
		</g>
		<g id="shape177-374" v:mID="177" v:groupContext="shape" v:layerMember="1" transform="translate(157.682,-280.346)">
			<title>Dynamic connector.177</title>
			<path d="M0 588.19 L105.76 588.19" class="st14"/>
		</g>
		<g id="group183-379" transform="translate(108.802,-340.157)" v:mID="183" v:groupContext="group">
			<title>Sheet.183</title>
			<g id="group184-380" v:mID="184" v:groupContext="group">
				<v:userDefs>
					<v:ud v:nameU="visVersion" v:prompt="" v:val="VT0(15):26"/>
				</v:userDefs>
				<title>Document.66</title>
				<g id="shape185-381" v:mID="185" v:groupContext="shape" transform="translate(3.54491,-5.98588)">
					<title>Sheet.185</title>
					<path d="M48.24 550.15 L35.92 538.07 L0 538.08 L0 595.28 L48.23 595.28 L48.23 551.93 L48.24 551.93 L48.24 550.15
								 Z" class="st6"/>
				</g>
				<g id="shape186-383" v:mID="186" v:groupContext="shape" transform="translate(3.59323,-5.96551)">
					<title>Sheet.186</title>
					<path d="M35.87 538.1 L0 538.1 L0 595.28 L48.13 595.28 L48.13 550.13 L35.87 538.1 Z" class="st7"/>
				</g>
				<g id="shape187-386" v:mID="187" v:groupContext="shape" transform="translate(38.6407,-50.7237)">
					<title>Sheet.187</title>
					<path d="M13.08 594.88 L0.82 582.86 L0 582.86 L0 595.28 L13.08 595.27 L13.08 594.88 Z" class="st8"/>
				</g>
				<g id="shape188-388" v:mID="188" v:groupContext="shape" transform="translate(39.3368,-51.4191)">
					<title>Sheet.188</title>
					<path d="M0 595.28 L11.66 595.27 L0 583.96 L0 595.28 Z" class="st6"/>
				</g>
				<g id="shape189-390" v:mID="189" v:groupContext="shape" transform="translate(3.54491,-5.98966)">
					<title>Sheet.189</title>
					<path d="M48.24 550.15 L35.92 538.07 L0 538.08 L0 595.28 L48.23 595.28 L48.23 551.93 L48.24 551.93 L48.24 550.15
								 Z" class="st9"/>
				</g>
				<g id="shape190-392" v:mID="190" v:groupContext="shape" transform="translate(8.37026,-49.2545)">
					<title>Sheet.190</title>
					<rect x="0" y="594.754" width="22.3385" height="0.521916" class="st10"/>
				</g>
				<g id="shape191-395" v:mID="191" v:groupContext="shape" transform="translate(8.37026,-43.1972)">
					<title>Sheet.191</title>
					<rect x="0" y="594.754" width="36.7259" height="0.521916" class="st10"/>
				</g>
				<g id="shape192-398" v:mID="192" v:groupContext="shape" transform="translate(8.37026,-37.5176)">
					<title>Sheet.192</title>
					<rect x="0" y="594.754" width="36.7259" height="0.521184" class="st10"/>
				</g>
				<g id="shape193-401" v:mID="193" v:groupContext="shape" transform="translate(8.37026,-31.8381)">
					<title>Sheet.193</title>
					<rect x="0" y="594.754" width="36.7259" height="0.521916" class="st10"/>
				</g>
				<g id="shape194-404" v:mID="194" v:groupContext="shape" transform="translate(8.37026,-26.1585)">
					<title>Sheet.194</title>
					<rect x="0" y="594.754" width="36.7259" height="0.521916" class="st10"/>
				</g>
				<g id="shape195-407" v:mID="195" v:groupContext="shape" transform="translate(8.37026,-20.4796)">
					<title>Sheet.195</title>
					<rect x="0" y="594.754" width="36.7259" height="0.521916" class="st10"/>
				</g>
				<g id="shape196-410" v:mID="196" v:groupContext="shape" transform="translate(8.37026,-14.8007)">
					<title>Sheet.196</title>
					<rect x="0" y="594.754" width="36.7259" height="0.521184" class="st10"/>
				</g>
			</g>
			<g id="shape197-413" v:mID="197" v:groupContext="shape" transform="translate(10.3181,-24.5827)">
				<title>Sheet.197</title>
				<desc>.i</desc>
				<v:textBlock v:margins="rect(4,4,4,4)" v:tabSpace="42.5197"/>
				<v:textRect cx="17.348" cy="585.276" width="34.7" height="20"/>
				<rect x="0" y="575.276" width="34.6961" height="20" class="st12"/>
				<text x="12.73" y="590.68" class="st13" v:langID="1033"><v:paragraph v:horizAlign="1"/><v:tabList/>.i</text>			</g>
		</g>
		<g id="shape200-416" v:mID="200" v:groupContext="shape" v:layerMember="1" transform="translate(160.573,-367.654)">
			<title>Dynamic connector.200</title>
			<path d="M0 588.19 L102.87 588.19" class="st14"/>
		</g>
		<g id="group203-421" transform="translate(99.2126,-332.787)" v:mID="203" v:groupContext="group">
			<title>Sheet.203</title>
			<g id="shape198-422" v:mID="198" v:groupContext="shape">
				<title>Left Parenthesis.198</title>
				<v:userDefs>
					<v:ud v:nameU="visVersion" v:prompt="" v:val="VT0(15):26"/>
				</v:userDefs>
				<path d="M10.67 595.28 A25.9765 24.144 0 0 1 -0 575.43 L0 535.75 A25.9765 24.144 0 0 1 10.67 515.91" class="st18"/>
			</g>
			<g id="shape199-425" v:mID="199" v:groupContext="shape" transform="translate(72.7043,0) scale(-1,1)">
				<title>Left Parenthesis.199</title>
				<v:userDefs>
					<v:ud v:nameU="visVersion" v:prompt="" v:val="VT0(15):26"/>
				</v:userDefs>
				<path d="M10.67 595.28 A25.9765 24.144 0 0 1 -0 575.43 L0 535.75 A25.9765 24.144 0 0 1 10.67 515.91" class="st18"/>
			</g>
		</g>
		<g id="group221-428" transform="translate(99.2126,-247.748)" v:mID="221" v:groupContext="group">
			<title>Sheet.221</title>
			<g id="shape222-429" v:mID="222" v:groupContext="shape">
				<title>Left Parenthesis.198</title>
				<v:userDefs>
					<v:ud v:nameU="visVersion" v:prompt="" v:val="VT0(15):26"/>
				</v:userDefs>
				<path d="M10.67 595.28 A25.9765 24.144 0 0 1 -0 575.43 L0 535.75 A25.9765 24.144 0 0 1 10.67 515.91" class="st18"/>
			</g>
			<g id="shape223-432" v:mID="223" v:groupContext="shape" transform="translate(72.7043,0) scale(-1,1)">
				<title>Left Parenthesis.199</title>
				<v:userDefs>
					<v:ud v:nameU="visVersion" v:prompt="" v:val="VT0(15):26"/>
				</v:userDefs>
				<path d="M10.67 595.28 A25.9765 24.144 0 0 1 -0 575.43 L0 535.75 A25.9765 24.144 0 0 1 10.67 515.91" class="st18"/>
			</g>
		</g>
		<g id="group224-435" transform="translate(99.2126,-162.709)" v:mID="224" v:groupContext="group">
			<title>Sheet.224</title>
			<g id="shape225-436" v:mID="225" v:groupContext="shape">
				<title>Left Parenthesis.198</title>
				<v:userDefs>
					<v:ud v:nameU="visVersion" v:prompt="" v:val="VT0(15):26"/>
				</v:userDefs>
				<path d="M10.67 595.28 A25.9765 24.144 0 0 1 -0 575.43 L0 535.75 A25.9765 24.144 0 0 1 10.67 515.91" class="st18"/>
			</g>
			<g id="shape226-439" v:mID="226" v:groupContext="shape" transform="translate(72.7043,0) scale(-1,1)">
				<title>Left Parenthesis.199</title>
				<v:userDefs>
					<v:ud v:nameU="visVersion" v:prompt="" v:val="VT0(15):26"/>
				</v:userDefs>
				<path d="M10.67 595.28 A25.9765 24.144 0 0 1 -0 575.43 L0 535.75 A25.9765 24.144 0 0 1 10.67 515.91" class="st18"/>
			</g>
		</g>
		<g id="shape227-442" v:mID="227" v:groupContext="shape" transform="translate(607.699,-380.819)">
			<title>Sheet.227</title>
			<desc>gcc -E foo.c &#62; foo.i</desc>
			<v:textBlock v:margins="rect(4,4,4,4)" v:tabSpace="42.5197"/>
			<v:textRect cx="56.6929" cy="585.276" width="113.39" height="20"/>
			<rect x="0" y="575.276" width="113.386" height="20" class="st12"/>
			<text x="4" y="588.88" class="st19" v:langID="1033"><v:paragraph/><v:tabList/>gcc -E foo.c &#62; foo.i</text>		</g>
		<g id="shape229-445" v:mID="229" v:groupContext="shape" transform="translate(607.699,-299.607)">
			<title>Sheet.229</title>
			<desc>gcc -s foo.c -ofoo.s</desc>
			<v:textBlock v:margins="rect(4,4,4,4)" v:tabSpace="42.5197"/>
			<v:textRect cx="56.6929" cy="585.276" width="113.39" height="20"/>
			<rect x="0" y="575.276" width="113.386" height="20" class="st12"/>
			<text x="4" y="588.88" class="st19" v:langID="1033"><v:paragraph/><v:tabList/>gcc -s foo.c -ofoo.s</text>		</g>
		<g id="shape230-448" v:mID="230" v:groupContext="shape" transform="translate(608.157,-214.738)">
			<title>Sheet.230</title>
			<desc>gcc -c foo.c -ofoo.o</desc>
			<v:textBlock v:margins="rect(4,4,4,4)" v:tabSpace="42.5197"/>
			<v:textRect cx="56.6929" cy="585.276" width="113.39" height="20"/>
			<rect x="0" y="575.276" width="113.386" height="20" class="st12"/>
			<text x="4" y="588.88" class="st19" v:langID="1033"><v:paragraph/><v:tabList/>gcc -c foo.c -ofoo.o</text>		</g>
		<g id="shape231-451" v:mID="231" v:groupContext="shape" transform="translate(609.449,-123.829)">
			<title>Sheet.231</title>
			<desc>gcc foo.o -oa.out</desc>
			<v:textBlock v:margins="rect(4,4,4,4)" v:tabSpace="42.5197"/>
			<v:textRect cx="56.6929" cy="585.276" width="113.39" height="20"/>
			<rect x="0" y="575.276" width="113.386" height="20" class="st12"/>
			<text x="4" y="588.88" class="st19" v:langID="1033"><v:paragraph/><v:tabList/>gcc foo.o -oa.out</text>		</g>
		<g id="shape232-454" v:mID="232" v:groupContext="shape" transform="translate(366.266,-133.024)">
			<title>Sheet.232</title>
			<path d="M0 595.28 L233.04 595.28" class="st16"/>
		</g>
	</g>
</svg>
