<?xml version="1.0" encoding="UTF-8" standalone="no"?>
<!DOCTYPE svg PUBLIC "-//W3C//DTD SVG 1.1//EN" "http://www.w3.org/Graphics/SVG/1.1/DTD/svg11.dtd">
<!-- Generated by Microsoft Visio, SVG Export heap.svg Page-1 -->
<svg xmlns="http://www.w3.org/2000/svg" xmlns:xlink="http://www.w3.org/1999/xlink" xmlns:ev="http://www.w3.org/2001/xml-events"
		xmlns:v="http://schemas.microsoft.com/visio/2003/SVGExtensions/" width="4.87065in" height="4.78145in"
		viewBox="0 0 350.687 344.265" xml:space="preserve" color-interpolation-filters="sRGB" class="st8">
	<v:documentProperties v:langID="1033" v:metric="true" v:viewMarkup="false">
		<v:userDefs>
			<v:ud v:nameU="msvSubprocessMaster" v:prompt="" v:val="VT4(Rectangle)"/>
			<v:ud v:nameU="msvNoAutoConnect" v:val="VT0(1):26"/>
		</v:userDefs>
	</v:documentProperties>

	<style type="text/css">
	<![CDATA[
		.st1 {fill:#ffffff;stroke:#000000;stroke-linecap:round;stroke-linejoin:round;stroke-width:0.75}
		.st2 {fill:#000000;font-family:Calibri;font-size:0.833336em}
		.st3 {marker-end:url(#mrkr4-27);stroke:#000000;stroke-linecap:round;stroke-linejoin:round;stroke-width:0.237638}
		.st4 {fill:#000000;fill-opacity:1;stroke:#000000;stroke-opacity:1;stroke-width:0.086174404659928}
		.st5 {marker-end:url(#mrkr4-81);stroke:#000000;stroke-linecap:round;stroke-linejoin:round;stroke-width:0.237638}
		.st6 {fill:none;stroke:none;stroke-linecap:round;stroke-linejoin:round;stroke-width:0.75}
		.st7 {fill:#000000;font-family:Calibri;font-size:1.00001em}
		.st8 {fill:none;fill-rule:evenodd;font-size:12px;overflow:visible;stroke-linecap:square;stroke-miterlimit:3}
	]]>
	</style>

	<defs id="Markers">
		<g id="lend4">
			<path d="M 2 1 L 0 0 L 2 -1 L 2 1 " style="stroke:none"/>
		</g>
		<marker id="mrkr4-27" class="st4" v:arrowType="4" v:arrowSize="2" v:setback="23.2087" refX="-23.208747514911" orient="auto"
				markerUnits="strokeWidth" overflow="visible">
			<use xlink:href="#lend4" transform="scale(-11.604373757455,-11.604373757455) "/>
		</marker>
		<marker id="mrkr4-81" class="st4" v:arrowType="4" v:arrowSize="2" v:setback="21.6938" refX="-21.693836978131" orient="auto"
				markerUnits="strokeWidth" overflow="visible">
			<use xlink:href="#lend4" transform="scale(-11.604373757455,-11.604373757455) "/>
		</marker>
	</defs>
	<g v:mID="0" v:index="1" v:groupContext="foregroundPage">
		<v:userDefs>
			<v:ud v:nameU="msvThemeOrder" v:val="VT0(0):26"/>
		</v:userDefs>
		<title>Page-1</title>
		<v:pageProperties v:drawingScale="0.0393701" v:pageScale="0.0393701" v:drawingUnits="24" v:shadowOffsetX="8.50394"
				v:shadowOffsetY="-8.50394"/>
		<v:layer v:name="Connector" v:index="0"/>
		<g id="shape1-1" v:mID="1" v:groupContext="shape" transform="translate(154.438,-262.031)">
			<title>Circle</title>
			<desc>16</desc>
			<v:userDefs>
				<v:ud v:nameU="visVersion" v:val="VT0(15):26"/>
			</v:userDefs>
			<v:textBlock v:margins="rect(4,4,4,4)" v:tabSpace="42.5197"/>
			<v:textRect cx="19.8425" cy="324.422" width="34.73" height="29.7638"/>
			<path d="M0 324.42 A19.8425 19.8425 0 0 1 39.69 324.42 A19.8425 19.8425 0 1 1 -0 324.42 Z" class="st1"/>
			<text x="14.77" y="327.42" class="st2" v:langID="1033"><v:paragraph v:horizAlign="1"/><v:tabList/>16</text>		</g>
		<g id="shape2-4" v:mID="2" v:groupContext="shape" transform="translate(63.7293,-194)">
			<title>Circle.2</title>
			<desc>14</desc>
			<v:userDefs>
				<v:ud v:nameU="visVersion" v:val="VT0(15):26"/>
			</v:userDefs>
			<v:textBlock v:margins="rect(4,4,4,4)" v:tabSpace="42.5197"/>
			<v:textRect cx="19.8425" cy="324.422" width="34.73" height="29.7638"/>
			<path d="M0 324.42 A19.8425 19.8425 0 0 1 39.69 324.42 A19.8425 19.8425 0 1 1 -0 324.42 Z" class="st1"/>
			<text x="14.77" y="327.42" class="st2" v:langID="1033"><v:paragraph v:horizAlign="1"/><v:tabList/>14</text>		</g>
		<g id="shape3-7" v:mID="3" v:groupContext="shape" transform="translate(245.147,-194)">
			<title>Circle.3</title>
			<desc>10</desc>
			<v:userDefs>
				<v:ud v:nameU="visVersion" v:val="VT0(15):26"/>
			</v:userDefs>
			<v:textBlock v:margins="rect(4,4,4,4)" v:tabSpace="42.5197"/>
			<v:textRect cx="19.8425" cy="324.422" width="34.73" height="29.7638"/>
			<path d="M0 324.42 A19.8425 19.8425 0 0 1 39.69 324.42 A19.8425 19.8425 0 1 1 -0 324.42 Z" class="st1"/>
			<text x="14.77" y="327.42" class="st2" v:langID="1033"><v:paragraph v:horizAlign="1"/><v:tabList/>10</text>		</g>
		<g id="shape4-10" v:mID="4" v:groupContext="shape" transform="translate(18.375,-120.299)">
			<title>Circle.4</title>
			<desc>8</desc>
			<v:userDefs>
				<v:ud v:nameU="visVersion" v:val="VT0(15):26"/>
			</v:userDefs>
			<v:textBlock v:margins="rect(4,4,4,4)" v:tabSpace="42.5197"/>
			<v:textRect cx="19.8425" cy="324.422" width="34.73" height="29.7638"/>
			<path d="M0 324.42 A19.8425 19.8425 0 0 1 39.69 324.42 A19.8425 19.8425 0 1 1 -0 324.42 Z" class="st1"/>
			<text x="17.31" y="327.42" class="st2" v:langID="1033"><v:paragraph v:horizAlign="1"/><v:tabList/>8</text>		</g>
		<g id="shape5-13" v:mID="5" v:groupContext="shape" transform="translate(109.792,-120.299)">
			<title>Circle.5</title>
			<desc>7</desc>
			<v:userDefs>
				<v:ud v:nameU="visVersion" v:val="VT0(15):26"/>
			</v:userDefs>
			<v:textBlock v:margins="rect(4,4,4,4)" v:tabSpace="42.5197"/>
			<v:textRect cx="19.8425" cy="324.422" width="34.73" height="29.7638"/>
			<path d="M0 324.42 A19.8425 19.8425 0 0 1 39.69 324.42 A19.8425 19.8425 0 1 1 -0 324.42 Z" class="st1"/>
			<text x="17.31" y="327.42" class="st2" v:langID="1033"><v:paragraph v:horizAlign="1"/><v:tabList/>7</text>		</g>
		<g id="shape6-16" v:mID="6" v:groupContext="shape" transform="translate(201.21,-120.299)">
			<title>Circle.6</title>
			<desc>9</desc>
			<v:userDefs>
				<v:ud v:nameU="visVersion" v:val="VT0(15):26"/>
			</v:userDefs>
			<v:textBlock v:margins="rect(4,4,4,4)" v:tabSpace="42.5197"/>
			<v:textRect cx="19.8425" cy="324.422" width="34.73" height="29.7638"/>
			<path d="M0 324.42 A19.8425 19.8425 0 0 1 39.69 324.42 A19.8425 19.8425 0 1 1 -0 324.42 Z" class="st1"/>
			<text x="17.31" y="327.42" class="st2" v:langID="1033"><v:paragraph v:horizAlign="1"/><v:tabList/>9</text>		</g>
		<g id="shape7-19" v:mID="7" v:groupContext="shape" transform="translate(292.627,-120.299)">
			<title>Circle.7</title>
			<desc>3</desc>
			<v:userDefs>
				<v:ud v:nameU="visVersion" v:val="VT0(15):26"/>
			</v:userDefs>
			<v:textBlock v:margins="rect(4,4,4,4)" v:tabSpace="42.5197"/>
			<v:textRect cx="19.8425" cy="324.422" width="34.73" height="29.7638"/>
			<path d="M0 324.42 A19.8425 19.8425 0 0 1 39.69 324.42 A19.8425 19.8425 0 1 1 -0 324.42 Z" class="st1"/>
			<text x="17.31" y="327.42" class="st2" v:langID="1033"><v:paragraph v:horizAlign="1"/><v:tabList/>3</text>		</g>
		<g id="shape8-22" v:mID="8" v:groupContext="shape" v:layerMember="0" transform="translate(158.407,-269.968)">
			<title>Dynamic connector</title>
			<path d="M0 344.26 L-54.55 385.18" class="st3"/>
		</g>
		<g id="shape9-28" v:mID="9" v:groupContext="shape" v:layerMember="0" transform="translate(190.155,-269.968)">
			<title>Dynamic connector.9</title>
			<path d="M0 344.26 L54.55 385.18" class="st3"/>
		</g>
		<g id="shape10-33" v:mID="10" v:groupContext="shape" v:layerMember="0" transform="translate(73.1724,-196.943)">
			<title>Dynamic connector.10</title>
			<path d="M0 344.26 L-21.66 379.47" class="st3"/>
		</g>
		<g id="shape11-38" v:mID="11" v:groupContext="shape" v:layerMember="0" transform="translate(94.0884,-197.016)">
			<title>Dynamic connector.11</title>
			<path d="M0 344.26 L22.11 379.64" class="st3"/>
		</g>
		<g id="shape12-43" v:mID="12" v:groupContext="shape" v:layerMember="0" transform="translate(254.829,-196.799)">
			<title>Dynamic connector.12</title>
			<path d="M0 344.26 L-20.79 379.14" class="st3"/>
		</g>
		<g id="shape13-48" v:mID="13" v:groupContext="shape" v:layerMember="0" transform="translate(275.735,-197.162)">
			<title>Dynamic connector.13</title>
			<path d="M0 344.26 L23 379.97" class="st3"/>
		</g>
		<g id="shape14-53" v:mID="14" v:groupContext="shape" transform="translate(52.3907,-50.8503)">
			<title>Rectangle</title>
			<desc>16</desc>
			<v:userDefs>
				<v:ud v:nameU="visVersion" v:val="VT0(15):26"/>
			</v:userDefs>
			<v:textBlock v:margins="rect(4,4,4,4)" v:tabSpace="42.5197"/>
			<v:textRect cx="15.5906" cy="329.383" width="31.19" height="29.7638"/>
			<rect x="0" y="314.501" width="31.1811" height="29.7638" class="st1"/>
			<text x="10.52" y="332.38" class="st2" v:langID="1033"><v:paragraph v:horizAlign="1"/><v:tabList/>16</text>		</g>
		<g id="shape15-56" v:mID="15" v:groupContext="shape" transform="translate(83.5718,-50.8503)">
			<title>Rectangle.15</title>
			<desc>14</desc>
			<v:userDefs>
				<v:ud v:nameU="visVersion" v:val="VT0(15):26"/>
			</v:userDefs>
			<v:textBlock v:margins="rect(4,4,4,4)" v:tabSpace="42.5197"/>
			<v:textRect cx="15.5906" cy="329.383" width="31.19" height="29.7638"/>
			<rect x="0" y="314.501" width="31.1811" height="29.7638" class="st1"/>
			<text x="10.52" y="332.38" class="st2" v:langID="1033"><v:paragraph v:horizAlign="1"/><v:tabList/>14</text>		</g>
		<g id="shape16-59" v:mID="16" v:groupContext="shape" transform="translate(114.753,-50.8503)">
			<title>Rectangle.16</title>
			<desc>10</desc>
			<v:userDefs>
				<v:ud v:nameU="visVersion" v:val="VT0(15):26"/>
			</v:userDefs>
			<v:textBlock v:margins="rect(4,4,4,4)" v:tabSpace="42.5197"/>
			<v:textRect cx="15.5906" cy="329.383" width="31.19" height="29.7638"/>
			<rect x="0" y="314.501" width="31.1811" height="29.7638" class="st1"/>
			<text x="10.52" y="332.38" class="st2" v:langID="1033"><v:paragraph v:horizAlign="1"/><v:tabList/>10</text>		</g>
		<g id="shape17-62" v:mID="17" v:groupContext="shape" transform="translate(145.934,-50.8503)">
			<title>Rectangle.17</title>
			<desc>8</desc>
			<v:userDefs>
				<v:ud v:nameU="visVersion" v:val="VT0(15):26"/>
			</v:userDefs>
			<v:textBlock v:margins="rect(4,4,4,4)" v:tabSpace="42.5197"/>
			<v:textRect cx="15.5906" cy="329.383" width="31.19" height="29.7638"/>
			<rect x="0" y="314.501" width="31.1811" height="29.7638" class="st1"/>
			<text x="13.06" y="332.38" class="st2" v:langID="1033"><v:paragraph v:horizAlign="1"/><v:tabList/>8</text>		</g>
		<g id="shape18-65" v:mID="18" v:groupContext="shape" transform="translate(177.115,-50.8503)">
			<title>Rectangle.18</title>
			<desc>7</desc>
			<v:userDefs>
				<v:ud v:nameU="visVersion" v:val="VT0(15):26"/>
			</v:userDefs>
			<v:textBlock v:margins="rect(4,4,4,4)" v:tabSpace="42.5197"/>
			<v:textRect cx="15.5906" cy="329.383" width="31.19" height="29.7638"/>
			<rect x="0" y="314.501" width="31.1811" height="29.7638" class="st1"/>
			<text x="13.06" y="332.38" class="st2" v:langID="1033"><v:paragraph v:horizAlign="1"/><v:tabList/>7</text>		</g>
		<g id="shape19-68" v:mID="19" v:groupContext="shape" transform="translate(208.296,-50.8503)">
			<title>Rectangle.19</title>
			<desc>9</desc>
			<v:userDefs>
				<v:ud v:nameU="visVersion" v:val="VT0(15):26"/>
			</v:userDefs>
			<v:textBlock v:margins="rect(4,4,4,4)" v:tabSpace="42.5197"/>
			<v:textRect cx="15.5906" cy="329.383" width="31.19" height="29.7638"/>
			<rect x="0" y="314.501" width="31.1811" height="29.7638" class="st1"/>
			<text x="13.06" y="332.38" class="st2" v:langID="1033"><v:paragraph v:horizAlign="1"/><v:tabList/>9</text>		</g>
		<g id="shape20-71" v:mID="20" v:groupContext="shape" transform="translate(239.477,-50.8503)">
			<title>Rectangle.20</title>
			<desc>3</desc>
			<v:userDefs>
				<v:ud v:nameU="visVersion" v:val="VT0(15):26"/>
			</v:userDefs>
			<v:textBlock v:margins="rect(4,4,4,4)" v:tabSpace="42.5197"/>
			<v:textRect cx="15.5906" cy="329.383" width="31.19" height="29.7638"/>
			<rect x="0" y="314.501" width="31.1811" height="29.7638" class="st1"/>
			<text x="13.06" y="332.38" class="st2" v:langID="1033"><v:paragraph v:horizAlign="1"/><v:tabList/>3</text>		</g>
		<g id="shape21-74" v:mID="21" v:groupContext="shape" transform="translate(270.658,-50.8503)">
			<title>Rectangle.21</title>
			<v:userDefs>
				<v:ud v:nameU="visVersion" v:val="VT0(15):26"/>
			</v:userDefs>
			<rect x="0" y="314.501" width="31.1811" height="29.7638" class="st1"/>
		</g>
		<g id="shape22-76" v:mID="22" v:groupContext="shape" v:layerMember="0" transform="translate(67.9813,-73.5274)">
			<title>Dynamic connector.22</title>
			<path d="M0 337.18 C-0 328.5 20.8 326.91 28.42 332.4 L28.6 332.71" class="st5"/>
		</g>
		<g id="shape23-82" v:mID="23" v:groupContext="shape" v:layerMember="0" transform="translate(67.9813,-73.5274)">
			<title>Dynamic connector.23</title>
			<path d="M0 337.18 C-0 326.55 17.01 317.34 32.6 317.34 C45.48 317.34 57.39 323.62 61.14 331.8 L61.22 332.15"
					class="st5"/>
		</g>
		<g id="shape24-87" v:mID="24" v:groupContext="shape" v:layerMember="0" transform="translate(99.1624,-43.7637)">
			<title>Dynamic connector.24</title>
			<path d="M0 337.18 C-0 347.81 17.01 352.77 32.6 352.77 C45.29 352.77 57.05 349.48 60.98 342.52 L61.07 342.17"
					class="st5"/>
		</g>
		<g id="shape25-92" v:mID="25" v:groupContext="shape" v:layerMember="0" transform="translate(130.344,-73.5274)">
			<title>Dynamic connector.25</title>
			<path d="M0 337.18 C-0 326.55 26.22 323 49.61 323 C68.7 323 85.91 325.37 91.58 332.02 L91.71 332.36" class="st5"/>
		</g>
		<g id="shape26-97" v:mID="26" v:groupContext="shape" v:layerMember="0" transform="translate(99.1624,-43.7637)">
			<title>Dynamic connector.26</title>
			<path d="M0 337.18 C-0 347.81 26.22 361.27 49.61 361.27 C69.22 361.27 86.84 351.8 92.01 342.48 L92.11 342.13"
					class="st5"/>
		</g>
		<g id="shape27-102" v:mID="27" v:groupContext="shape" v:layerMember="0" transform="translate(130.344,-73.5274)">
			<title>Dynamic connector.27</title>
			<path d="M0 337.18 C-0 326.55 32.6 317.34 63.78 317.34 C89.89 317.34 115.01 323.8 122.48 332.14 L122.63 332.47"
					class="st5"/>
		</g>
		<g id="shape28-107" v:mID="28" v:groupContext="shape" transform="translate(158.69,-305.89)">
			<title>Sheet.28</title>
			<desc>1</desc>
			<v:textBlock v:margins="rect(4,4,4,4)" v:tabSpace="42.5197"/>
			<v:textRect cx="15.5906" cy="334.265" width="31.19" height="20"/>
			<rect x="0" y="324.265" width="31.1811" height="20" class="st6"/>
			<text x="12.55" y="337.86" class="st7" v:langID="1033"><v:paragraph v:horizAlign="1"/><v:tabList/>1</text>		</g>
		<g id="shape29-110" v:mID="29" v:groupContext="shape" transform="translate(67.9813,-237.937)">
			<title>Sheet.29</title>
			<desc>2</desc>
			<v:textBlock v:margins="rect(4,4,4,4)" v:tabSpace="42.5197"/>
			<v:textRect cx="15.5906" cy="334.265" width="31.19" height="20"/>
			<rect x="0" y="324.265" width="31.1811" height="20" class="st6"/>
			<text x="12.55" y="337.86" class="st7" v:langID="1033"><v:paragraph v:horizAlign="1"/><v:tabList/>2</text>		</g>
		<g id="shape30-113" v:mID="30" v:groupContext="shape" transform="translate(249.399,-235.024)">
			<title>Sheet.30</title>
			<desc>3</desc>
			<v:textBlock v:margins="rect(4,4,4,4)" v:tabSpace="42.5197"/>
			<v:textRect cx="15.5906" cy="334.265" width="31.19" height="20"/>
			<rect x="0" y="324.265" width="31.1811" height="20" class="st6"/>
			<text x="12.55" y="337.86" class="st7" v:langID="1033"><v:paragraph v:horizAlign="1"/><v:tabList/>3</text>		</g>
		<g id="shape31-116" v:mID="31" v:groupContext="shape" transform="translate(22.627,-166.992)">
			<title>Sheet.31</title>
			<desc>4</desc>
			<v:textBlock v:margins="rect(4,4,4,4)" v:tabSpace="42.5197"/>
			<v:textRect cx="15.5906" cy="334.265" width="31.19" height="20"/>
			<rect x="0" y="324.265" width="31.1811" height="20" class="st6"/>
			<text x="12.55" y="337.86" class="st7" v:langID="1033"><v:paragraph v:horizAlign="1"/><v:tabList/>4</text>		</g>
		<g id="shape32-119" v:mID="32" v:groupContext="shape" transform="translate(114.044,-166.992)">
			<title>Sheet.32</title>
			<desc>5</desc>
			<v:textBlock v:margins="rect(4,4,4,4)" v:tabSpace="42.5197"/>
			<v:textRect cx="15.5906" cy="334.265" width="31.19" height="20"/>
			<rect x="0" y="324.265" width="31.1811" height="20" class="st6"/>
			<text x="12.55" y="337.86" class="st7" v:langID="1033"><v:paragraph v:horizAlign="1"/><v:tabList/>5</text>		</g>
		<g id="shape33-122" v:mID="33" v:groupContext="shape" transform="translate(205.462,-168.331)">
			<title>Sheet.33</title>
			<desc>6</desc>
			<v:textBlock v:margins="rect(4,4,4,4)" v:tabSpace="42.5197"/>
			<v:textRect cx="15.5906" cy="334.265" width="31.19" height="20"/>
			<rect x="0" y="324.265" width="31.1811" height="20" class="st6"/>
			<text x="12.55" y="337.86" class="st7" v:langID="1033"><v:paragraph v:horizAlign="1"/><v:tabList/>6</text>		</g>
		<g id="shape34-125" v:mID="34" v:groupContext="shape" transform="translate(296.879,-166.992)">
			<title>Sheet.34</title>
			<desc>7</desc>
			<v:textBlock v:margins="rect(4,4,4,4)" v:tabSpace="42.5197"/>
			<v:textRect cx="15.5906" cy="334.265" width="31.19" height="20"/>
			<rect x="0" y="324.265" width="31.1811" height="20" class="st6"/>
			<text x="12.55" y="337.86" class="st7" v:langID="1033"><v:paragraph v:horizAlign="1"/><v:tabList/>7</text>		</g>
	</g>
</svg>
