<?xml version="1.0" encoding="UTF-8" standalone="no"?>
<!DOCTYPE svg PUBLIC "-//W3C//DTD SVG 1.1//EN" "http://www.w3.org/Graphics/SVG/1.1/DTD/svg11.dtd">
<!-- Generated by Microsoft Visio, SVG Export hieroglyph.svg Asset 2 -->
<svg xmlns="http://www.w3.org/2000/svg" xmlns:xlink="http://www.w3.org/1999/xlink" xmlns:ev="http://www.w3.org/2001/xml-events"
		xmlns:v="http://schemas.microsoft.com/visio/2003/SVGExtensions/" width="9.28952in" height="6.79693in"
		viewBox="0 0 668.845 489.379" xml:space="preserve" color-interpolation-filters="sRGB" class="st2">
	<v:documentProperties v:langID="4108" v:viewMarkup="false"/>

	<style type="text/css">
	<![CDATA[
		.st1 {fill:#000000;stroke:none;stroke-linecap:butt;stroke-width:2.73202}
		.st2 {fill:none;fill-rule:evenodd;font-size:12px;overflow:visible;stroke-linecap:square;stroke-miterlimit:3}
	]]>
	</style>

	<g v:mID="0" v:index="1" v:groupContext="foregroundPage">
		<title>Asset 2</title>
		<v:pageProperties v:drawingScale="1" v:pageScale="1" v:drawingUnits="19" v:shadowOffsetX="9" v:shadowOffsetY="-9"/>
		<g id="shape2-1" v:mID="2" v:groupContext="shape" transform="translate(18,-25.7863)">
			<title>Sheet.2</title>
			<path d="M78 420.64 C82.86 362.7 79.01 303.16 79.15 244.92 C79.15 235.93 82.75 215.63 78.11 207.35 C73.79 199.65 62.1
						 199.16 54.64 195.06 A66.716 66.716 0 0 1 21.01 151.35 C12.65 115.2 37.24 76.87 73.98 70.37 C94.88 66.68
						 124.01 73.1 136.6 92.03 C145.04 104.71 138.35 108.21 126.63 115.91 A348.633 348.633 -180 0 0 97.04 136.7
						 C106.06 146.16 139.96 171.7 132.56 184.87 C127.56 193.61 110.37 197.16 101.77 200.63 C86.61 206.72 89.42
						 213.66 89.42 229.59 C89.42 259.68 89.42 289.73 89.42 319.75 C89.42 351.08 84.94 386.74 90.81 417.5 L94.36
						 419.82 C105.29 407.66 114.44 393.92 129.69 387.69 C125.4 403.05 114.14 410.2 102.51 420.78 C120.32 428.76
						 164.22 444.41 157.83 472.36 C153.95 489.38 77.07 479.6 60.05 479.46 C50.57 479.46 21.45 483.89 15.65 474.82
						 C9.48 465.28 26.34 445.42 32.59 440.2 C38.85 434.98 61.55 428.81 62.34 421.98 C62.75 418.46 52.81 410.83
						 51.42 409.47 C44.12 401.87 40 398.24 37.76 388.1 C54.29 393.16 65.13 409.36 78 420.64 ZM86.41 194.35 C96.88
						 191.34 122.97 189.73 118.65 174.95 C114.5 160.85 87.01 154.43 83.96 139.93 C78.82 115.78 164.17 104 105.57
						 82.55 C23.91 52.97 0 192.82 86.41 194.35 ZM24.26 467.55 C63.33 471.98 107.37 473.45 145.97 466.21 C131.14
						 444.36 115.76 432.39 87.75 432.09 C58.3 431.76 40.71 444.76 24.26 467.6 L24.26 467.55 Z" class="st1"/>
		</g>
		<g id="shape3-3" v:mID="3" v:groupContext="shape" transform="translate(191.784,-258.008)">
			<title>Sheet.3</title>
			<path d="M84.99 489.38 C78.41 471.98 78.55 453.86 69.69 436.81 C60.84 419.77 49.04 405.01 39.64 388.68 C22.1 358.43 0
						 314.72 41.77 292.1 C68.11 277.87 112.4 289.07 105.51 324.88 C99.28 356.79 55.02 367.64 49.72 330.95 L52.45
						 330.05 C63.19 339.04 74.99 350.76 87.51 337.72 C95.98 328.87 98.68 313.76 90.57 304.48 C74.78 286.53 43.69
						 298.77 34.15 316.63 C17.89 347.04 45.82 373.1 61.47 397.26 C79.01 424.27 93.05 455.34 89.56 488.18 L84.99
						 489.38 Z" class="st1"/>
		</g>
		<g id="shape4-5" v:mID="4" v:groupContext="shape" transform="translate(422.066,-258.035)">
			<title>Sheet.4</title>
			<path d="M70.62 489.38 C62.43 472.82 63.44 453.86 54.5 436.87 C44.42 417.75 30.68 400.45 20.19 381.44 C11.99 366.41 0
						 348.08 0.9 330.1 C1.75 313.71 18.91 293.57 33.55 287.43 C60.87 276.04 95.81 296.72 90.24 327.04 C87.67 341.06
						 79.31 351.25 64.91 353.65 C50.52 356.06 30.49 348.19 36.61 330.1 C45.98 336.77 54.42 348.9 67.24 341.88
						 C76.96 336.41 83.33 318.74 78.93 308.82 C72.4 294.18 50.43 296.28 37.95 300.19 C26.09 303.87 20.74 309.69
						 16.47 321.82 C6.56 349.83 29.81 373.57 44.61 395.18 C64.48 424.08 76.31 452.72 74.67 487.77 L70.62 489.38
						 Z" class="st1"/>
		</g>
		<g id="shape5-7" v:mID="5" v:groupContext="shape" transform="translate(354.995,-24.4476)">
			<title>Sheet.5</title>
			<path d="M50.98 330.05 C61.72 339.01 73.55 350.76 86.03 337.78 C94.23 329.2 97.21 314.5 89.66 305.21 C74.23 286.28 42.51
						 298.41 32.84 316.58 C16.58 347.01 44.37 372.99 60.16 397.2 C77.75 424.3 91.69 455.23 88.3 488.12 L84.56
						 489.38 C76.36 472.33 77.34 453.43 67.89 435.89 C58.44 418.35 45.71 401.84 35.52 384.33 C18.25 354.64 0 310.9
						 41.34 291.06 C65.92 279.23 112.37 289.67 105.48 325.05 C98.95 358.24 57.54 365.45 47.95 331.36 L50.98 330.05
						 Z" class="st1"/>
		</g>
		<g id="shape6-9" v:mID="6" v:groupContext="shape" transform="translate(302.759,-257.38)">
			<title>Sheet.6</title>
			<path d="M47.18 327.7 C55.9 335.16 66.72 348.08 79.17 341.08 C88.93 335.62 94.66 317.1 89.34 307.24 C77.45 285.38 43.19
						 296.94 32.84 313.11 C12.98 344.28 42.46 371.87 58.49 397.04 C75.7 424.08 89.53 455.75 85.48 488.4 L82.02
						 489.38 C74.39 472.28 74.97 453.53 66.2 436.3 C56.42 417.17 42.89 399.74 32.54 380.78 C16.39 351.08 0 309.34
						 40.98 289.64 C68.96 276.17 113.27 297.29 100.18 331.88 C89.23 360.78 47.18 360.84 47.18 327.7 Z"
					class="st1"/>
		</g>
		<g id="shape7-11" v:mID="7" v:groupContext="shape" transform="translate(245.386,-24.5569)">
			<title>Sheet.7</title>
			<path d="M52.24 330.1 C61.72 336.55 69.89 349.06 82.64 341.85 C92.29 336.39 98.43 317.94 93.87 308.19 C87.37 294.26 65.71
						 296.44 53.74 300.3 C41.77 304.15 36.91 310.08 32.84 322.15 C23.25 350.1 46.25 374.06 60.95 395.92 A224.572
						 224.572 0 0 1 81.55 436.57 C89.56 455.69 90.02 468.51 89.99 489.38 C75.87 487.49 79.69 460.53 76 450.01
						 C68.74 429.27 53.88 411.38 42.84 392.64 C25.35 362.53 0 313.85 43.71 292.07 C66.22 280.82 108.13 287.46
						 106.93 319.04 C106.36 334.34 98.49 349.55 82.89 353.16 C67.29 356.77 48.06 349.14 52.24 330.1 Z"
					class="st1"/>
		</g>
		<g id="shape8-13" v:mID="8" v:groupContext="shape" transform="translate(545.444,-254.456)">
			<title>Sheet.8</title>
			<path d="M24.81 385.94 C24.81 398.87 31.83 489.38 16.61 487.85 C0 486.16 8.85 400.42 8.85 385.94 C8.85 371.96 2.6 282.78
						 17.32 283.88 C31.66 284.94 24.81 373.57 24.81 385.94 Z" class="st1"/>
		</g>
		<g id="shape9-15" v:mID="9" v:groupContext="shape" transform="translate(616.64,-254.511)">
			<title>Sheet.9</title>
			<path d="M25.33 385.81 C25.33 398.59 32.21 489.38 17.35 487.9 C0 486.18 9.4 401.11 9.4 386.19 C9.4 371.27 1.5 284.67
						 16.91 283.74 C32.32 282.81 25.33 373.43 25.33 385.81 Z" class="st1"/>
		</g>
		<g id="shape10-17" v:mID="10" v:groupContext="shape" transform="translate(547.11,-21.1691)">
			<title>Sheet.10</title>
			<path d="M7.24 385.18 C7.24 372.31 0.22 282.76 15.44 284.31 C32.05 286.01 23.19 371.74 23.19 386.22 C23.19 400.21 29.45
						 489.38 14.73 488.29 C0 487.19 7.24 397.64 7.24 385.18 Z" class="st1"/>
		</g>
		<g id="shape11-19" v:mID="11" v:groupContext="shape" transform="translate(618.143,-18.1912)">
			<title>Sheet.11</title>
			<path d="M7.9 382.28 C7.9 370.29 1.75 279.7 16.09 281.34 C32.7 283.22 23.91 374.99 23.91 387.88 C23.91 409.27 23.91 430.66
						 23.91 452.06 C23.91 459.46 29.37 489.38 13.91 485.2 C0 481.35 7.9 395.81 7.9 382.28 Z" class="st1"/>
		</g>
		<g id="shape12-21" v:mID="12" v:groupContext="shape" transform="translate(582.955,-255.003)">
			<title>Sheet.12</title>
			<path d="M22.68 387.23 C22.68 400.12 29.94 489.38 14.97 488.75 C0 488.12 7.7 401.13 7.7 386.25 C7.7 371.96 0.74 283.82
						 15.44 284.2 C30.13 284.59 22.68 374.8 22.68 387.23 Z" class="st1"/>
		</g>
		<g id="shape13-23" v:mID="13" v:groupContext="shape" transform="translate(582.845,-18)">
			<title>Sheet.13</title>
			<path d="M22.79 382.99 C22.79 393.92 29.26 481.76 19.21 484.73 C3.44 489.38 7.84 461.68 7.84 454.25 C7.84 431.99 7.84
						 409.72 7.84 387.45 C7.84 373.98 0 284.94 13.3 281.2 C28.88 276.83 22.76 313.05 22.76 320.87 C22.79 341.63
						 22.84 362.34 22.79 382.99 Z" class="st1"/>
		</g>
	</g>
</svg>
