<?xml version="1.0" encoding="UTF-8" standalone="no"?>
<!DOCTYPE svg PUBLIC "-//W3C//DTD SVG 1.1//EN" "http://www.w3.org/Graphics/SVG/1.1/DTD/svg11.dtd">
<!-- Generated by Microsoft Visio, SVG Export identifier.svg Page-1 -->
<svg xmlns="http://www.w3.org/2000/svg" xmlns:xlink="http://www.w3.org/1999/xlink" xmlns:ev="http://www.w3.org/2001/xml-events"
		xmlns:v="http://schemas.microsoft.com/visio/2003/SVGExtensions/" width="6.16987in" height="4.00248in"
		viewBox="0 0 444.23 288.178" xml:space="preserve" color-interpolation-filters="sRGB" class="st7">
	<v:documentProperties v:langID="1036" v:metric="true" v:viewMarkup="false">
		<v:userDefs>
			<v:ud v:nameU="msvSubprocessMaster" v:prompt="" v:val="VT4(Rectangle)"/>
			<v:ud v:nameU="msvNoAutoConnect" v:val="VT0(1):26"/>
		</v:userDefs>
	</v:documentProperties>

	<style type="text/css">
	<![CDATA[
		.st1 {fill:#ffffff;stroke:#000000;stroke-linecap:round;stroke-linejoin:round;stroke-width:0.75}
		.st2 {marker-end:url(#mrkr4-8);stroke:#000000;stroke-linecap:round;stroke-linejoin:round;stroke-width:0.237638}
		.st3 {fill:#000000;fill-opacity:1;stroke:#000000;stroke-opacity:1;stroke-width:0.086174404659928}
		.st4 {fill:#000000;stroke:#000000;stroke-linecap:round;stroke-linejoin:round;stroke-width:0.75}
		.st5 {fill:#d8d8d8;stroke:none;stroke-linecap:round;stroke-linejoin:round;stroke-width:0.75}
		.st6 {fill:#000000;font-family:Calibri;font-size:0.833336em}
		.st7 {fill:none;fill-rule:evenodd;font-size:12px;overflow:visible;stroke-linecap:square;stroke-miterlimit:3}
	]]>
	</style>

	<defs id="Markers">
		<g id="lend4">
			<path d="M 2 1 L 0 0 L 2 -1 L 2 1 " style="stroke:none"/>
		</g>
		<marker id="mrkr4-8" class="st3" v:arrowType="4" v:arrowSize="2" v:setback="23.2087" refX="-23.208747514911" orient="auto"
				markerUnits="strokeWidth" overflow="visible">
			<use xlink:href="#lend4" transform="scale(-11.604373757455,-11.604373757455) "/>
		</marker>
	</defs>
	<g v:mID="0" v:index="1" v:groupContext="foregroundPage">
		<v:userDefs>
			<v:ud v:nameU="msvThemeOrder" v:val="VT0(0):26"/>
		</v:userDefs>
		<title>Page 1</title>
		<v:pageProperties v:drawingScale="0.0393701" v:pageScale="0.0393701" v:drawingUnits="24" v:shadowOffsetX="8.50394"
				v:shadowOffsetY="-8.50394"/>
		<v:layer v:name="Lien" v:index="0"/>
		<g id="shape10-1" v:mID="10" v:groupContext="shape" transform="translate(18.375,-160.65)">
			<title>Cercle</title>
			<v:userDefs>
				<v:ud v:nameU="visVersion" v:val="VT0(15):26"/>
			</v:userDefs>
			<path d="M0 281.98 A6.20079 6.20079 0 0 1 12.4 281.98 A6.20079 6.20079 0 1 1 0 281.98 Z" class="st1"/>
		</g>
		<g id="shape11-3" v:mID="11" v:groupContext="shape" v:layerMember="0" transform="translate(30.7766,-159.764)">
			<title>Lien dynamique</title>
			<path d="M0 281.09 L35.23 281.09" class="st2"/>
		</g>
		<g id="shape26-9" v:mID="26" v:groupContext="shape" transform="translate(413.454,-160.65)">
			<title>Cercle.31</title>
			<v:userDefs>
				<v:ud v:nameU="visVersion" v:val="VT0(15):26"/>
			</v:userDefs>
			<path d="M0 281.98 A6.20079 6.20079 0 0 1 12.4 281.98 A6.20079 6.20079 0 1 1 0 281.98 Z" class="st4"/>
		</g>
		<g id="shape28-11" v:mID="28" v:groupContext="shape" transform="translate(188.454,-116.359)">
			<title>Rectangle.28</title>
			<desc>[a-z]</desc>
			<v:userDefs>
				<v:ud v:nameU="visVersion" v:val="VT0(15):26"/>
			</v:userDefs>
			<v:textBlock v:margins="rect(4,4,4,4)" v:tabSpace="42.5197"/>
			<v:textRect cx="17.7165" cy="274.891" width="35.44" height="26.5748"/>
			<rect x="0" y="261.604" width="35.4331" height="26.5748" rx="8.50394" ry="8.50394" class="st5"/>
			<text x="8.75" y="277.89" class="st6" v:langID="1033"><v:paragraph v:horizAlign="1"/><v:tabList/>[a-z]</text>		</g>
		<g id="shape29-14" v:mID="29" v:groupContext="shape" transform="translate(188.454,-83.6976)">
			<title>Rectangle.29</title>
			<desc>[A-Z]</desc>
			<v:userDefs>
				<v:ud v:nameU="visVersion" v:val="VT0(15):26"/>
			</v:userDefs>
			<v:textBlock v:margins="rect(4,4,4,4)" v:tabSpace="42.5197"/>
			<v:textRect cx="17.7165" cy="274.891" width="35.44" height="26.5748"/>
			<rect x="0" y="261.604" width="35.4331" height="26.5748" rx="8.50394" ry="8.50394" class="st5"/>
			<text x="7.89" y="277.89" class="st6" v:langID="1033"><v:paragraph v:horizAlign="1"/><v:tabList/>[A-Z]</text>		</g>
		<g id="shape30-17" v:mID="30" v:groupContext="shape" transform="translate(188.454,-51.0363)">
			<title>Rectangle.30</title>
			<desc>[0-9]</desc>
			<v:userDefs>
				<v:ud v:nameU="visVersion" v:val="VT0(15):26"/>
			</v:userDefs>
			<v:textBlock v:margins="rect(4,4,4,4)" v:tabSpace="42.5197"/>
			<v:textRect cx="17.7165" cy="274.891" width="35.44" height="26.5748"/>
			<rect x="0" y="261.604" width="35.4331" height="26.5748" rx="8.50394" ry="8.50394" class="st5"/>
			<text x="8.05" y="277.89" class="st6" v:langID="1033"><v:paragraph v:horizAlign="1"/><v:tabList/>[0-9]</text>		</g>
		<g id="shape31-20" v:mID="31" v:groupContext="shape" transform="translate(188.454,-18.375)">
			<title>Rectangle.31</title>
			<desc>_</desc>
			<v:userDefs>
				<v:ud v:nameU="visVersion" v:val="VT0(15):26"/>
			</v:userDefs>
			<v:textBlock v:margins="rect(4,4,4,4)" v:tabSpace="42.5197"/>
			<v:textRect cx="17.7165" cy="274.891" width="35.44" height="26.5748"/>
			<rect x="0" y="261.604" width="35.4331" height="26.5748" rx="8.50394" ry="8.50394" class="st5"/>
			<text x="15.23" y="277.89" class="st6" v:langID="1033"><v:paragraph v:horizAlign="1"/><v:tabList/>_</text>		</g>
		<g id="shape32-23" v:mID="32" v:groupContext="shape" transform="translate(71.5246,-153.564)">
			<title>Rectangle.32</title>
			<desc>[a-z]</desc>
			<v:userDefs>
				<v:ud v:nameU="visVersion" v:val="VT0(15):26"/>
			</v:userDefs>
			<v:textBlock v:margins="rect(4,4,4,4)" v:tabSpace="42.5197"/>
			<v:textRect cx="17.7165" cy="274.891" width="35.44" height="26.5748"/>
			<rect x="0" y="261.604" width="35.4331" height="26.5748" rx="8.50394" ry="8.50394" class="st5"/>
			<text x="8.75" y="277.89" class="st6" v:langID="1033"><v:paragraph v:horizAlign="1"/><v:tabList/>[a-z]</text>		</g>
		<g id="shape33-26" v:mID="33" v:groupContext="shape" transform="translate(71.5246,-115.473)">
			<title>Rectangle.33</title>
			<desc>[A-Z]</desc>
			<v:userDefs>
				<v:ud v:nameU="visVersion" v:val="VT0(15):26"/>
			</v:userDefs>
			<v:textBlock v:margins="rect(4,4,4,4)" v:tabSpace="42.5197"/>
			<v:textRect cx="17.7165" cy="274.891" width="35.44" height="26.5748"/>
			<rect x="0" y="261.604" width="35.4331" height="26.5748" rx="8.50394" ry="8.50394" class="st5"/>
			<text x="7.89" y="277.89" class="st6" v:langID="1033"><v:paragraph v:horizAlign="1"/><v:tabList/>[A-Z]</text>		</g>
		<g id="shape35-29" v:mID="35" v:groupContext="shape" v:layerMember="0" transform="translate(30.7766,-166.851)">
			<title>Lien dynamique.35</title>
			<path d="M0 288.18 L5.31 288.18 A5.31496 5.31496 0 0 1 10.63 293.49 L10.63 314.93 A11.3386 11.3386 -180 0 0 21.97 326.27
						 L35.23 326.27" class="st2"/>
		</g>
		<g id="shape36-34" v:mID="36" v:groupContext="shape" v:layerMember="0" transform="translate(106.958,-128.76)">
			<title>Lien dynamique.36</title>
			<path d="M0 288.18 L10.34 288.18 A10.3442 10.3442 -180 0 0 20.69 277.83 L20.69 261.43 A11.3386 11.3386 0 0 1 32.03 250.09
						 L300.98 250.09" class="st2"/>
		</g>
		<g id="shape37-39" v:mID="37" v:groupContext="shape" v:layerMember="0" transform="translate(106.958,-166.851)">
			<title>Lien dynamique.37</title>
			<path d="M0 288.18 L41.81 288.18 A11.3386 11.3386 0 0 1 53.15 299.52 L53.15 314.04 A11.3386 11.3386 -180 0 0 64.49 325.38
						 L75.98 325.38" class="st2"/>
		</g>
		<g id="shape38-44" v:mID="38" v:groupContext="shape" v:layerMember="0" transform="translate(106.958,-166.851)">
			<title>Lien dynamique.38</title>
			<path d="M0 288.18 L41.81 288.18 A11.3386 11.3386 0 0 1 53.15 299.52 L53.15 346.71 A11.3386 11.3386 -180 0 0 64.49 358.04
						 L75.98 358.04" class="st2"/>
		</g>
		<g id="shape39-49" v:mID="39" v:groupContext="shape" v:layerMember="0" transform="translate(106.958,-166.851)">
			<title>Lien dynamique.39</title>
			<path d="M0 288.18 L41.81 288.18 A11.3386 11.3386 0 0 1 53.15 299.52 L53.15 379.37 A11.3386 11.3386 -180 0 0 64.49 390.71
						 L75.98 390.71" class="st2"/>
		</g>
		<g id="shape40-54" v:mID="40" v:groupContext="shape" v:layerMember="0" transform="translate(106.958,-166.851)">
			<title>Lien dynamique.40</title>
			<path d="M0 288.18 L41.81 288.18 A11.3386 11.3386 0 0 1 53.15 299.52 L53.15 412.03 A11.3386 11.3386 -180 0 0 64.49 423.37
						 L75.98 423.37" class="st2"/>
		</g>
		<g id="shape41-59" v:mID="41" v:groupContext="shape" transform="translate(71.5246,-83.6976)">
			<title>Rectangle.41</title>
			<desc>_</desc>
			<v:userDefs>
				<v:ud v:nameU="visVersion" v:val="VT0(15):26"/>
			</v:userDefs>
			<v:textBlock v:margins="rect(4,4,4,4)" v:tabSpace="42.5197"/>
			<v:textRect cx="17.7165" cy="274.891" width="35.44" height="26.5748"/>
			<rect x="0" y="261.604" width="35.4331" height="26.5748" rx="8.50394" ry="8.50394" class="st5"/>
			<text x="15.23" y="277.89" class="st6" v:langID="1033"><v:paragraph v:horizAlign="1"/><v:tabList/>_</text>		</g>
		<g id="shape42-62" v:mID="42" v:groupContext="shape" v:layerMember="0" transform="translate(30.7766,-166.851)">
			<title>Lien dynamique.42</title>
			<path d="M0 288.18 L5.31 288.18 A5.31496 5.31496 0 0 1 10.63 293.49 L10.63 346.71 A11.3386 11.3386 -180 0 0 21.97 358.04
						 L35.23 358.04" class="st2"/>
		</g>
		<g id="shape43-67" v:mID="43" v:groupContext="shape" v:layerMember="0" transform="translate(106.958,-96.985)">
			<title>Lien dynamique.43</title>
			<path d="M0 288.18 L10.34 288.18 A10.3442 10.3442 -180 0 0 20.69 277.83 L20.69 229.65 A11.3386 11.3386 0 0 1 32.03 218.31
						 L300.98 218.31" class="st2"/>
		</g>
		<g id="shape44-72" v:mID="44" v:groupContext="shape" v:layerMember="0" transform="translate(223.887,-129.646)">
			<title>Lien dynamique.44</title>
			<path d="M0 288.18 L14.04 288.18 A11.3386 11.3386 -180 0 0 25.37 276.84 L25.37 262.31 A11.3386 11.3386 0 0 1 36.71 250.97
						 L184.05 250.97" class="st2"/>
		</g>
		<g id="shape45-77" v:mID="45" v:groupContext="shape" v:layerMember="0" transform="translate(223.887,-96.985)">
			<title>Lien dynamique.45</title>
			<path d="M0 288.18 L14.04 288.18 A11.3386 11.3386 -180 0 0 25.37 276.84 L25.37 229.65 A11.3386 11.3386 0 0 1 36.71 218.31
						 L184.05 218.31" class="st2"/>
		</g>
		<g id="shape46-82" v:mID="46" v:groupContext="shape" v:layerMember="0" transform="translate(223.887,-64.3237)">
			<title>Lien dynamique.46</title>
			<path d="M0 288.18 L14.04 288.18 A11.3386 11.3386 -180 0 0 25.37 276.84 L25.37 196.99 A11.3386 11.3386 0 0 1 36.71 185.65
						 L184.05 185.65" class="st2"/>
		</g>
		<g id="shape47-87" v:mID="47" v:groupContext="shape" v:layerMember="0" transform="translate(223.887,-31.6624)">
			<title>Lien dynamique.47</title>
			<path d="M0 288.18 L14.04 288.18 A11.3386 11.3386 -180 0 0 25.37 276.84 L25.37 164.33 A11.3386 11.3386 0 0 1 36.71 152.99
						 L184.05 152.99" class="st2"/>
		</g>
		<g id="shape49-92" v:mID="49" v:groupContext="shape" v:layerMember="0" transform="translate(223.887,-122.56)">
			<title>Lien dynamique.49</title>
			<path d="M0 281.09 L14.04 281.09 A11.3386 11.3386 -180 0 0 25.37 269.75 L25.37 255.23 A11.3386 11.3386 0 0 1 36.71 243.89
						 L43.49 243.89 A11.3386 11.3386 -180 0 0 54.83 232.55 L54.83 211.26 A11.3386 11.3386 -180 0 0 43.49 199.92
						 L-84.9 199.92 A11.3386 11.3386 -180 0 0 -96.24 211.26 L-96.24 232.55 A11.3386 11.3386 -180 0 0 -84.9 243.89
						 L-75.12 243.89 A11.3386 11.3386 0 0 1 -63.78 255.23 L-63.78 269.75 A11.3386 11.3386 -180 0 0 -52.44 281.09
						 L-40.95 281.09" class="st2"/>
		</g>
	</g>
</svg>
