<?xml version="1.0" encoding="UTF-8" standalone="no"?>
<!DOCTYPE svg PUBLIC "-//W3C//DTD SVG 1.1//EN" "http://www.w3.org/Graphics/SVG/1.1/DTD/svg11.dtd">
<!-- Generated by Microsoft Visio, SVG Export list.svg Page-1 -->
<svg xmlns="http://www.w3.org/2000/svg" xmlns:xlink="http://www.w3.org/1999/xlink" xmlns:ev="http://www.w3.org/2001/xml-events"
		xmlns:v="http://schemas.microsoft.com/visio/2003/SVGExtensions/" width="8.4238in" height="2.84172in"
		viewBox="0 0 606.514 204.604" xml:space="preserve" color-interpolation-filters="sRGB" class="st8">
	<v:documentProperties v:langID="1036" v:metric="true" v:viewMarkup="false">
		<v:userDefs>
			<v:ud v:nameU="msvSubprocessMaster" v:prompt="" v:val="VT4(Rectangle)"/>
			<v:ud v:nameU="msvNoAutoConnect" v:val="VT0(1):26"/>
		</v:userDefs>
	</v:documentProperties>

	<style type="text/css">
	<![CDATA[
		.st1 {fill:#d8d8d8;stroke:#ffffff;stroke-linecap:round;stroke-linejoin:round;stroke-width:0.75}
		.st2 {fill:#000000;font-family:Calibri;font-size:0.833336em}
		.st3 {fill:#f2f2f2;stroke:none;stroke-linecap:round;stroke-linejoin:round;stroke-width:0.75}
		.st4 {fill:#bfbfbf;stroke:none;stroke-linecap:round;stroke-linejoin:round;stroke-width:0.75}
		.st5 {marker-end:url(#mrkr4-43);stroke:#000000;stroke-linecap:round;stroke-linejoin:round;stroke-width:0.237638}
		.st6 {fill:#000000;fill-opacity:1;stroke:#000000;stroke-opacity:1;stroke-width:0.086174404659928}
		.st7 {fill:#000000;font-family:Calibri;font-size:0.833336em;font-weight:bold}
		.st8 {fill:none;fill-rule:evenodd;font-size:12px;overflow:visible;stroke-linecap:square;stroke-miterlimit:3}
	]]>
	</style>

	<defs id="Markers">
		<g id="lend4">
			<path d="M 2 1 L 0 0 L 2 -1 L 2 1 " style="stroke:none"/>
		</g>
		<marker id="mrkr4-43" class="st6" v:arrowType="4" v:arrowSize="2" v:setback="23.2087" refX="-23.208747514911" orient="auto"
				markerUnits="strokeWidth" overflow="visible">
			<use xlink:href="#lend4" transform="scale(-11.604373757455,-11.604373757455) "/>
		</marker>
	</defs>
	<g v:mID="0" v:index="1" v:groupContext="foregroundPage">
		<v:userDefs>
			<v:ud v:nameU="msvThemeOrder" v:val="VT0(0):26"/>
		</v:userDefs>
		<title>Page 1</title>
		<v:pageProperties v:drawingScale="0.0393701" v:pageScale="0.0393701" v:drawingUnits="24" v:shadowOffsetX="8.50394"
				v:shadowOffsetY="-8.50394"/>
		<v:layer v:name="Lien" v:index="0"/>
		<g id="group21-1" transform="translate(148.769,-52.3118)" v:mID="21" v:groupContext="group">
			<title>Sheet.21</title>
			<g id="shape18-2" v:mID="18" v:groupContext="shape">
				<title>Rectangle</title>
				<desc>Element</desc>
				<v:userDefs>
					<v:ud v:nameU="visVersion" v:val="VT0(15):26"/>
				</v:userDefs>
				<v:textBlock v:margins="rect(4,4,4,4)" v:tabSpace="42.5197" v:verticalAlign="0"/>
				<v:textRect cx="45.3543" cy="148.62" width="90.71" height="111.969"/>
				<rect x="0" y="92.6355" width="90.7087" height="111.969" class="st1"/>
				<text x="28.49" y="105.64" class="st2" v:langID="1033"><v:paragraph v:horizAlign="1"/><v:tabList/>Element</text>			</g>
			<g id="shape19-5" v:mID="19" v:groupContext="shape" transform="translate(5.66929,-41.1024)">
				<title>Rectangle.19</title>
				<desc>payload</desc>
				<v:userDefs>
					<v:ud v:nameU="visVersion" v:val="VT0(15):26"/>
				</v:userDefs>
				<v:textBlock v:margins="rect(4,4,4,4)" v:tabSpace="42.5197"/>
				<v:textRect cx="39.685" cy="179.722" width="79.38" height="49.7638"/>
				<rect x="0" y="154.84" width="79.3701" height="49.7638" class="st3"/>
				<text x="23.59" y="182.72" class="st2" v:langID="1033"><v:paragraph v:horizAlign="1"/><v:tabList/>payload</text>			</g>
			<g id="shape20-8" v:mID="20" v:groupContext="shape" transform="translate(5.66929,-5.66929)">
				<title>Rectangle.20</title>
				<desc>next</desc>
				<v:userDefs>
					<v:ud v:nameU="visVersion" v:val="VT0(15):26"/>
				</v:userDefs>
				<v:textBlock v:margins="rect(4,4,4,4)" v:tabSpace="42.5197"/>
				<v:textRect cx="39.685" cy="190.275" width="79.38" height="28.6579"/>
				<rect x="0" y="175.946" width="79.3701" height="28.6579" class="st4"/>
				<text x="30.73" y="193.28" class="st2" v:langID="1033"><v:paragraph v:horizAlign="1"/><v:tabList/>next</text>			</g>
		</g>
		<g id="group22-11" transform="translate(264.989,-52.3118)" v:mID="22" v:groupContext="group">
			<title>Sheet.22</title>
			<g id="shape23-12" v:mID="23" v:groupContext="shape">
				<title>Rectangle</title>
				<desc>Element</desc>
				<v:userDefs>
					<v:ud v:nameU="visVersion" v:val="VT0(15):26"/>
				</v:userDefs>
				<v:textBlock v:margins="rect(4,4,4,4)" v:tabSpace="42.5197" v:verticalAlign="0"/>
				<v:textRect cx="45.3543" cy="148.62" width="90.71" height="111.969"/>
				<rect x="0" y="92.6355" width="90.7087" height="111.969" class="st1"/>
				<text x="28.49" y="105.64" class="st2" v:langID="1033"><v:paragraph v:horizAlign="1"/><v:tabList/>Element</text>			</g>
			<g id="shape24-15" v:mID="24" v:groupContext="shape" transform="translate(5.66929,-41.1024)">
				<title>Rectangle.19</title>
				<desc>payload</desc>
				<v:userDefs>
					<v:ud v:nameU="visVersion" v:val="VT0(15):26"/>
				</v:userDefs>
				<v:textBlock v:margins="rect(4,4,4,4)" v:tabSpace="42.5197"/>
				<v:textRect cx="39.685" cy="179.722" width="79.38" height="49.7638"/>
				<rect x="0" y="154.84" width="79.3701" height="49.7638" class="st3"/>
				<text x="23.59" y="182.72" class="st2" v:langID="1033"><v:paragraph v:horizAlign="1"/><v:tabList/>payload</text>			</g>
			<g id="shape25-18" v:mID="25" v:groupContext="shape" transform="translate(5.66929,-5.66929)">
				<title>Rectangle.20</title>
				<desc>next</desc>
				<v:userDefs>
					<v:ud v:nameU="visVersion" v:val="VT0(15):26"/>
				</v:userDefs>
				<v:textBlock v:margins="rect(4,4,4,4)" v:tabSpace="42.5197"/>
				<v:textRect cx="39.685" cy="190.275" width="79.38" height="28.6579"/>
				<rect x="0" y="175.946" width="79.3701" height="28.6579" class="st4"/>
				<text x="30.73" y="193.28" class="st2" v:langID="1033"><v:paragraph v:horizAlign="1"/><v:tabList/>next</text>			</g>
		</g>
		<g id="group26-21" transform="translate(381.21,-51.6031)" v:mID="26" v:groupContext="group">
			<title>Sheet.26</title>
			<g id="shape27-22" v:mID="27" v:groupContext="shape">
				<title>Rectangle</title>
				<desc>Element</desc>
				<v:userDefs>
					<v:ud v:nameU="visVersion" v:val="VT0(15):26"/>
				</v:userDefs>
				<v:textBlock v:margins="rect(4,4,4,4)" v:tabSpace="42.5197" v:verticalAlign="0"/>
				<v:textRect cx="45.3543" cy="148.62" width="90.71" height="111.969"/>
				<rect x="0" y="92.6355" width="90.7087" height="111.969" class="st1"/>
				<text x="28.49" y="105.64" class="st2" v:langID="1033"><v:paragraph v:horizAlign="1"/><v:tabList/>Element</text>			</g>
			<g id="shape28-25" v:mID="28" v:groupContext="shape" transform="translate(5.66929,-41.1024)">
				<title>Rectangle.19</title>
				<desc>payload</desc>
				<v:userDefs>
					<v:ud v:nameU="visVersion" v:val="VT0(15):26"/>
				</v:userDefs>
				<v:textBlock v:margins="rect(4,4,4,4)" v:tabSpace="42.5197"/>
				<v:textRect cx="39.685" cy="179.722" width="79.38" height="49.7638"/>
				<rect x="0" y="154.84" width="79.3701" height="49.7638" class="st3"/>
				<text x="23.59" y="182.72" class="st2" v:langID="1033"><v:paragraph v:horizAlign="1"/><v:tabList/>payload</text>			</g>
			<g id="shape29-28" v:mID="29" v:groupContext="shape" transform="translate(5.66929,-5.66929)">
				<title>Rectangle.20</title>
				<desc>next</desc>
				<v:userDefs>
					<v:ud v:nameU="visVersion" v:val="VT0(15):26"/>
				</v:userDefs>
				<v:textBlock v:margins="rect(4,4,4,4)" v:tabSpace="42.5197"/>
				<v:textRect cx="39.685" cy="190.275" width="79.38" height="28.6579"/>
				<rect x="0" y="175.946" width="79.3701" height="28.6579" class="st4"/>
				<text x="30.73" y="193.28" class="st2" v:langID="1033"><v:paragraph v:horizAlign="1"/><v:tabList/>next</text>			</g>
		</g>
		<g id="group30-31" transform="translate(497.43,-51.6031)" v:mID="30" v:groupContext="group">
			<title>Sheet.30</title>
			<g id="shape31-32" v:mID="31" v:groupContext="shape">
				<title>Rectangle</title>
				<desc>Element</desc>
				<v:userDefs>
					<v:ud v:nameU="visVersion" v:val="VT0(15):26"/>
				</v:userDefs>
				<v:textBlock v:margins="rect(4,4,4,4)" v:tabSpace="42.5197" v:verticalAlign="0"/>
				<v:textRect cx="45.3543" cy="148.62" width="90.71" height="111.969"/>
				<rect x="0" y="92.6355" width="90.7087" height="111.969" class="st1"/>
				<text x="28.49" y="105.64" class="st2" v:langID="1033"><v:paragraph v:horizAlign="1"/><v:tabList/>Element</text>			</g>
			<g id="shape32-35" v:mID="32" v:groupContext="shape" transform="translate(5.66929,-41.1024)">
				<title>Rectangle.19</title>
				<desc>payload</desc>
				<v:userDefs>
					<v:ud v:nameU="visVersion" v:val="VT0(15):26"/>
				</v:userDefs>
				<v:textBlock v:margins="rect(4,4,4,4)" v:tabSpace="42.5197"/>
				<v:textRect cx="39.685" cy="179.722" width="79.38" height="49.7638"/>
				<rect x="0" y="154.84" width="79.3701" height="49.7638" class="st3"/>
				<text x="23.59" y="182.72" class="st2" v:langID="1033"><v:paragraph v:horizAlign="1"/><v:tabList/>payload</text>			</g>
		</g>
		<g id="shape34-38" v:mID="34" v:groupContext="shape" v:layerMember="0" transform="translate(233.808,-72.3101)">
			<title>Lien dynamique.34</title>
			<path d="M0 204.6 L8.5 204.6 A8.50394 8.50394 -180 0 0 17.01 196.1 L17.01 107.81 A11.3386 11.3386 0 0 1 28.35 96.48 L68.46
						 96.48 A8.07874 8.07874 0 0 1 76.54 104.55 L76.54 107.12" class="st5"/>
		</g>
		<g id="shape35-44" v:mID="35" v:groupContext="shape" v:layerMember="0" transform="translate(350.029,-72.3101)">
			<title>Lien dynamique.35</title>
			<path d="M0 204.6 L7.09 204.6 A7.08661 7.08661 -180 0 0 14.17 197.52 L14.17 107.81 A11.3386 11.3386 0 0 1 25.51 96.48
						 L68.1 96.48 A8.43307 8.43307 0 0 1 76.54 104.91 L76.54 107.83" class="st5"/>
		</g>
		<g id="shape36-49" v:mID="36" v:groupContext="shape" v:layerMember="0" transform="translate(466.249,-71.6014)">
			<title>Lien dynamique.36</title>
			<path d="M0 204.6 L8.5 204.6 A8.50394 8.50394 -180 0 0 17.01 196.1 L17.01 107.11 A11.3386 11.3386 0 0 1 28.35 95.77 L68.1
						 95.77 A8.43307 8.43307 0 0 1 76.54 104.2 L76.54 107.12" class="st5"/>
		</g>
		<g id="group37-54" transform="translate(503.099,-57.2724)" v:mID="37" v:groupContext="group">
			<title>Sheet.37</title>
			<g id="shape33-55" v:mID="33" v:groupContext="shape">
				<title>Rectangle.20</title>
				<desc>NULL</desc>
				<v:userDefs>
					<v:ud v:nameU="visVersion" v:val="VT0(15):26"/>
				</v:userDefs>
				<v:textBlock v:margins="rect(4,4,4,4)" v:tabSpace="42.5197"/>
				<v:textRect cx="39.685" cy="190.275" width="79.38" height="28.6579"/>
				<rect x="0" y="175.946" width="79.3701" height="28.6579" class="st4"/>
				<text x="28.9" y="193.28" class="st7" v:langID="1033"><v:paragraph v:horizAlign="1"/><v:tabList/>NULL</text>			</g>
		</g>
		<g id="shape39-58" v:mID="39" v:groupContext="shape" transform="translate(18.375,-52.3118)">
			<title>Rectangle</title>
			<desc>Linked-List</desc>
			<v:userDefs>
				<v:ud v:nameU="visVersion" v:val="VT0(15):26"/>
			</v:userDefs>
			<v:textBlock v:margins="rect(4,4,4,4)" v:tabSpace="42.5197" v:verticalAlign="0"/>
			<v:textRect cx="45.3543" cy="148.62" width="90.71" height="111.969"/>
			<rect x="0" y="92.6355" width="90.7087" height="111.969" class="st1"/>
			<text x="23.68" y="105.64" class="st2" v:langID="1033"><v:paragraph v:horizAlign="1"/><v:tabList/>Linked-List</text>		</g>
		<g id="shape41-61" v:mID="41" v:groupContext="shape" transform="translate(24.0443,-57.9811)">
			<title>Rectangle.20</title>
			<desc>tail</desc>
			<v:userDefs>
				<v:ud v:nameU="visVersion" v:val="VT0(15):26"/>
			</v:userDefs>
			<v:textBlock v:margins="rect(4,4,4,4)" v:tabSpace="42.5197"/>
			<v:textRect cx="39.685" cy="190.275" width="79.38" height="28.6579"/>
			<rect x="0" y="175.946" width="79.3701" height="28.6579" class="st4"/>
			<text x="33.32" y="193.28" class="st2" v:langID="1033"><v:paragraph v:horizAlign="1"/><v:tabList/>tail</text>		</g>
		<g id="shape42-64" v:mID="42" v:groupContext="shape" transform="translate(24.0443,-93.9671)">
			<title>Rectangle.42</title>
			<desc>head</desc>
			<v:userDefs>
				<v:ud v:nameU="visVersion" v:val="VT0(15):26"/>
			</v:userDefs>
			<v:textBlock v:margins="rect(4,4,4,4)" v:tabSpace="42.5197"/>
			<v:textRect cx="39.685" cy="190.275" width="79.38" height="28.6579"/>
			<rect x="0" y="175.946" width="79.3701" height="28.6579" class="st4"/>
			<text x="29.55" y="193.28" class="st2" v:langID="1033"><v:paragraph v:horizAlign="1"/><v:tabList/>head</text>		</g>
		<g id="shape43-67" v:mID="43" v:groupContext="shape" v:layerMember="0" transform="translate(103.414,-108.296)">
			<title>Lien dynamique.43</title>
			<path d="M0 204.6 L19.84 204.6 A11.3386 11.3386 -180 0 0 31.18 193.27 L31.18 143.8 A11.3386 11.3386 0 0 1 42.52 132.46
						 L82.63 132.46 A8.07874 8.07874 0 0 1 90.71 140.54 L90.71 143.1" class="st5"/>
		</g>
		<g id="shape44-72" v:mID="44" v:groupContext="shape" v:layerMember="0" transform="translate(103.414,-72.3101)">
			<title>Lien dynamique.44</title>
			<path d="M0 204.6 L19.84 204.6 A11.3386 11.3386 0 0 1 31.18 215.94 L31.18 238.78 A11.3386 11.3386 -180 0 0 42.52 250.11
						 L368.5 250.11 A11.3386 11.3386 -180 0 0 379.84 238.78 L379.84 107.81 A11.3386 11.3386 0 0 1 391.18 96.48
						 L430.94 96.48 A8.43307 8.43307 0 0 1 439.37 104.91 L439.37 107.83" class="st5"/>
		</g>
	</g>
</svg>
