<?xml version="1.0" encoding="UTF-8" standalone="no"?>
<!DOCTYPE svg PUBLIC "-//W3C//DTD SVG 1.1//EN" "http://www.w3.org/Graphics/SVG/1.1/DTD/svg11.dtd">
<!-- Generated by Microsoft Visio, SVG Export loop.svg Page-1 -->
<svg xmlns="http://www.w3.org/2000/svg" xmlns:xlink="http://www.w3.org/1999/xlink" xmlns:ev="http://www.w3.org/2001/xml-events"
		xmlns:v="http://schemas.microsoft.com/visio/2003/SVGExtensions/" width="7.64509in" height="4.37367in"
		viewBox="0 0 550.446 314.904" xml:space="preserve" color-interpolation-filters="sRGB" class="st7">
	<v:documentProperties v:langID="1036" v:metric="true" v:viewMarkup="false">
		<v:userDefs>
			<v:ud v:nameU="msvSubprocessMaster" v:prompt="" v:val="VT4(Rectangle)"/>
			<v:ud v:nameU="msvNoAutoConnect" v:val="VT0(1):26"/>
		</v:userDefs>
	</v:documentProperties>

	<style type="text/css">
	<![CDATA[
		.st1 {fill:#ffffff;stroke:#000000;stroke-linecap:round;stroke-linejoin:round;stroke-width:0.75}
		.st2 {fill:#000000;font-family:Calibri;font-size:0.833336em}
		.st3 {fill:#000000;stroke:#000000;stroke-linecap:round;stroke-linejoin:round;stroke-width:0.75}
		.st4 {marker-end:url(#mrkr4-41);stroke:#000000;stroke-linecap:round;stroke-linejoin:round;stroke-width:0.237638}
		.st5 {fill:#000000;fill-opacity:1;stroke:#000000;stroke-opacity:1;stroke-width:0.086174404659928}
		.st6 {marker-end:url(#mrkr4-133);stroke:#000000;stroke-linecap:round;stroke-linejoin:round;stroke-width:0.237638}
		.st7 {fill:none;fill-rule:evenodd;font-size:12px;overflow:visible;stroke-linecap:square;stroke-miterlimit:3}
	]]>
	</style>

	<defs id="Markers">
		<g id="lend4">
			<path d="M 2 1 L 0 0 L 2 -1 L 2 1 " style="stroke:none"/>
		</g>
		<marker id="mrkr4-41" class="st5" v:arrowType="4" v:arrowSize="2" v:setback="23.2087" refX="-23.208747514911" orient="auto"
				markerUnits="strokeWidth" overflow="visible">
			<use xlink:href="#lend4" transform="scale(-11.604373757455,-11.604373757455) "/>
		</marker>
		<marker id="mrkr4-133" class="st5" v:arrowType="4" v:arrowSize="2" v:setback="0" refX="-0" orient="auto"
				markerUnits="strokeWidth" overflow="visible">
			<use xlink:href="#lend4" transform="scale(-11.604373757455,-11.604373757455) "/>
		</marker>
	</defs>
	<g v:mID="0" v:index="1" v:groupContext="foregroundPage">
		<v:userDefs>
			<v:ud v:nameU="msvThemeOrder" v:val="VT0(0):26"/>
		</v:userDefs>
		<title>Page 1</title>
		<v:pageProperties v:drawingScale="0.0393701" v:pageScale="0.0393701" v:drawingUnits="24" v:shadowOffsetX="8.50394"
				v:shadowOffsetY="-8.50394"/>
		<v:layer v:name="Diagramme de flux" v:index="0"/>
		<v:layer v:name="Lien" v:index="1"/>
		<g id="shape66-1" v:mID="66" v:groupContext="shape" transform="translate(18.375,-268.028)">
			<title>Carré</title>
			<desc>1</desc>
			<v:userDefs>
				<v:ud v:nameU="visVersion" v:val="VT0(15):26"/>
			</v:userDefs>
			<v:textBlock v:margins="rect(4,4,4,4)" v:tabSpace="42.5197"/>
			<v:textRect cx="14.1732" cy="300.731" width="28.35" height="28.3465"/>
			<rect x="0" y="286.558" width="28.3465" height="28.3465" class="st1"/>
			<text x="11.64" y="303.73" class="st2" v:langID="1033"><v:paragraph v:horizAlign="1"/><v:tabList/>1</text>		</g>
		<g id="shape67-4" v:mID="67" v:groupContext="shape" transform="translate(46.7215,-268.028)">
			<title>Carré.67</title>
			<v:userDefs>
				<v:ud v:nameU="visVersion" v:val="VT0(15):26"/>
			</v:userDefs>
			<rect x="0" y="286.558" width="28.3465" height="28.3465" class="st1"/>
		</g>
		<g id="shape72-6" v:mID="72" v:groupContext="shape" transform="translate(106.886,-268.183)">
			<title>Carré.72</title>
			<desc>2</desc>
			<v:userDefs>
				<v:ud v:nameU="visVersion" v:val="VT0(15):26"/>
			</v:userDefs>
			<v:textBlock v:margins="rect(4,4,4,4)" v:tabSpace="42.5197"/>
			<v:textRect cx="14.1732" cy="300.731" width="28.35" height="28.3465"/>
			<rect x="0" y="286.558" width="28.3465" height="28.3465" class="st1"/>
			<text x="11.64" y="303.73" class="st2" v:langID="1033"><v:paragraph v:horizAlign="1"/><v:tabList/>2</text>		</g>
		<g id="shape73-9" v:mID="73" v:groupContext="shape" transform="translate(135.232,-268.183)">
			<title>Carré.73</title>
			<v:userDefs>
				<v:ud v:nameU="visVersion" v:val="VT0(15):26"/>
			</v:userDefs>
			<rect x="0" y="286.558" width="28.3465" height="28.3465" class="st1"/>
		</g>
		<g id="shape74-11" v:mID="74" v:groupContext="shape" transform="translate(191.925,-267.991)">
			<title>Carré.74</title>
			<desc>3</desc>
			<v:userDefs>
				<v:ud v:nameU="visVersion" v:val="VT0(15):26"/>
			</v:userDefs>
			<v:textBlock v:margins="rect(4,4,4,4)" v:tabSpace="42.5197"/>
			<v:textRect cx="14.1732" cy="300.731" width="28.35" height="28.3465"/>
			<rect x="0" y="286.558" width="28.3465" height="28.3465" class="st1"/>
			<text x="11.64" y="303.73" class="st2" v:langID="1033"><v:paragraph v:horizAlign="1"/><v:tabList/>3</text>		</g>
		<g id="shape75-14" v:mID="75" v:groupContext="shape" transform="translate(220.272,-267.991)">
			<title>Carré.75</title>
			<v:userDefs>
				<v:ud v:nameU="visVersion" v:val="VT0(15):26"/>
			</v:userDefs>
			<rect x="0" y="286.558" width="28.3465" height="28.3465" class="st1"/>
		</g>
		<g id="shape76-16" v:mID="76" v:groupContext="shape" transform="translate(271.295,-267.991)">
			<title>Carré.76</title>
			<desc>4</desc>
			<v:userDefs>
				<v:ud v:nameU="visVersion" v:val="VT0(15):26"/>
			</v:userDefs>
			<v:textBlock v:margins="rect(4,4,4,4)" v:tabSpace="42.5197"/>
			<v:textRect cx="14.1732" cy="300.731" width="28.35" height="28.3465"/>
			<rect x="0" y="286.558" width="28.3465" height="28.3465" class="st1"/>
			<text x="11.64" y="303.73" class="st2" v:langID="1033"><v:paragraph v:horizAlign="1"/><v:tabList/>4</text>		</g>
		<g id="shape77-19" v:mID="77" v:groupContext="shape" transform="translate(299.642,-267.991)">
			<title>Carré.77</title>
			<v:userDefs>
				<v:ud v:nameU="visVersion" v:val="VT0(15):26"/>
			</v:userDefs>
			<rect x="0" y="286.558" width="28.3465" height="28.3465" class="st1"/>
		</g>
		<g id="shape80-21" v:mID="80" v:groupContext="shape" transform="translate(358.907,-267.991)">
			<title>Carré.80</title>
			<desc>5</desc>
			<v:userDefs>
				<v:ud v:nameU="visVersion" v:val="VT0(15):26"/>
			</v:userDefs>
			<v:textBlock v:margins="rect(4,4,4,4)" v:tabSpace="42.5197"/>
			<v:textRect cx="14.1732" cy="300.731" width="28.35" height="28.3465"/>
			<rect x="0" y="286.558" width="28.3465" height="28.3465" class="st1"/>
			<text x="11.64" y="303.73" class="st2" v:langID="1033"><v:paragraph v:horizAlign="1"/><v:tabList/>5</text>		</g>
		<g id="shape81-24" v:mID="81" v:groupContext="shape" transform="translate(387.254,-267.991)">
			<title>Carré.81</title>
			<v:userDefs>
				<v:ud v:nameU="visVersion" v:val="VT0(15):26"/>
			</v:userDefs>
			<rect x="0" y="286.558" width="28.3465" height="28.3465" class="st1"/>
		</g>
		<g id="shape83-26" v:mID="83" v:groupContext="shape" transform="translate(57.3514,-278.658)">
			<title>Cercle</title>
			<v:userDefs>
				<v:ud v:nameU="visVersion" v:val="VT0(15):26"/>
			</v:userDefs>
			<path d="M0 311.36 A3.54331 3.54331 0 0 1 7.09 311.36 A3.54331 3.54331 0 1 1 0 311.36 Z" class="st3"/>
		</g>
		<g id="shape86-28" v:mID="86" v:groupContext="shape" transform="translate(145.862,-278.813)">
			<title>Cercle.86</title>
			<v:userDefs>
				<v:ud v:nameU="visVersion" v:val="VT0(15):26"/>
			</v:userDefs>
			<path d="M0 311.36 A3.54331 3.54331 0 0 1 7.09 311.36 A3.54331 3.54331 0 1 1 0 311.36 Z" class="st3"/>
		</g>
		<g id="shape92-30" v:mID="92" v:groupContext="shape" transform="translate(230.902,-278.621)">
			<title>Cercle.92</title>
			<v:userDefs>
				<v:ud v:nameU="visVersion" v:val="VT0(15):26"/>
			</v:userDefs>
			<path d="M0 311.36 A3.54331 3.54331 0 0 1 7.09 311.36 A3.54331 3.54331 0 1 1 0 311.36 Z" class="st3"/>
		</g>
		<g id="shape94-32" v:mID="94" v:groupContext="shape" transform="translate(397.884,-278.621)">
			<title>Cercle.94</title>
			<v:userDefs>
				<v:ud v:nameU="visVersion" v:val="VT0(15):26"/>
			</v:userDefs>
			<path d="M0 311.36 A3.54331 3.54331 0 0 1 7.09 311.36 A3.54331 3.54331 0 1 1 0 311.36 Z" class="st3"/>
		</g>
		<g id="shape95-34" v:mID="95" v:groupContext="shape" transform="translate(310.272,-278.621)">
			<title>Cercle.95</title>
			<v:userDefs>
				<v:ud v:nameU="visVersion" v:val="VT0(15):26"/>
			</v:userDefs>
			<path d="M0 311.36 A3.54331 3.54331 0 0 1 7.09 311.36 A3.54331 3.54331 0 1 1 0 311.36 Z" class="st3"/>
		</g>
		<g id="shape98-36" v:mID="98" v:groupContext="shape" v:layerMember="1" transform="translate(64.438,-275.192)">
			<title>Lien dynamique</title>
			<path d="M0 307.89 L10.55 307.89 a0.0771654 0.0771654 -180 0 0 0.0771654 -0.0771654 L10.63 307.82 a0.0771654 0.0771654
						 0 0 1 0.0771654 -0.0771654 L36.93 307.74" class="st4"/>
		</g>
		<g id="shape99-42" v:mID="99" v:groupContext="shape" v:layerMember="1" transform="translate(152.949,-289.347)">
			<title>Lien dynamique.99</title>
			<path d="M0 321.89 L10.53 321.89 a0.0959649 0.0959649 0 0 1 0.0959649 0.0959649 L10.63 321.99 a0.0959649 0.0959649 -180
						 0 0 0.0959649 0.0959649 L33.46 322.09" class="st4"/>
		</g>
		<g id="shape100-47" v:mID="100" v:groupContext="shape" v:layerMember="1" transform="translate(237.988,-275.077)">
			<title>Lien dynamique.100</title>
			<path d="M0 307.82 L27.79 307.82" class="st4"/>
		</g>
		<g id="shape101-52" v:mID="101" v:groupContext="shape" v:layerMember="1" transform="translate(313.815,-275.077)">
			<title>Lien dynamique.101</title>
			<path d="M0 307.82 L39.58 307.82" class="st4"/>
		</g>
		<g id="group134-57" transform="translate(449.878,-211.052)" v:mID="134" v:groupContext="group">
			<title>Sheet.134</title>
			<g id="shape135-58" v:mID="135" v:groupContext="shape">
				<title>Carré.70</title>
				<desc>6</desc>
				<v:userDefs>
					<v:ud v:nameU="visVersion" v:val="VT0(15):26"/>
				</v:userDefs>
				<v:textBlock v:margins="rect(4,4,4,4)" v:tabSpace="42.5197"/>
				<v:textRect cx="14.1732" cy="300.731" width="28.35" height="28.3465"/>
				<rect x="0" y="286.558" width="28.3465" height="28.3465" class="st1"/>
				<text x="11.64" y="303.73" class="st2" v:langID="1033"><v:paragraph v:horizAlign="1"/><v:tabList/>6</text>			</g>
			<g id="shape136-61" v:mID="136" v:groupContext="shape" transform="translate(28.3465,-5.68434E-14)">
				<title>Carré.71</title>
				<v:userDefs>
					<v:ud v:nameU="visVersion" v:val="VT0(15):26"/>
				</v:userDefs>
				<rect x="0" y="286.558" width="28.3465" height="28.3465" class="st1"/>
			</g>
			<g id="shape137-63" v:mID="137" v:groupContext="shape" transform="translate(38.9764,-10.6299)">
				<title>Cercle.87</title>
				<v:userDefs>
					<v:ud v:nameU="visVersion" v:val="VT0(15):26"/>
				</v:userDefs>
				<path d="M0 311.36 A3.54331 3.54331 0 0 1 7.09 311.36 A3.54331 3.54331 0 1 1 0 311.36 Z" class="st3"/>
			</g>
		</g>
		<g id="group138-65" transform="translate(475.378,-151.524)" v:mID="138" v:groupContext="group">
			<title>Sheet.138</title>
			<g id="shape139-66" v:mID="139" v:groupContext="shape">
				<title>Carré.70</title>
				<desc>7</desc>
				<v:userDefs>
					<v:ud v:nameU="visVersion" v:val="VT0(15):26"/>
				</v:userDefs>
				<v:textBlock v:margins="rect(4,4,4,4)" v:tabSpace="42.5197"/>
				<v:textRect cx="14.1732" cy="300.731" width="28.35" height="28.3465"/>
				<rect x="0" y="286.558" width="28.3465" height="28.3465" class="st1"/>
				<text x="11.64" y="303.73" class="st2" v:langID="1033"><v:paragraph v:horizAlign="1"/><v:tabList/>7</text>			</g>
			<g id="shape140-69" v:mID="140" v:groupContext="shape" transform="translate(28.3465,-5.68434E-14)">
				<title>Carré.71</title>
				<v:userDefs>
					<v:ud v:nameU="visVersion" v:val="VT0(15):26"/>
				</v:userDefs>
				<rect x="0" y="286.558" width="28.3465" height="28.3465" class="st1"/>
			</g>
			<g id="shape141-71" v:mID="141" v:groupContext="shape" transform="translate(38.9764,-10.6299)">
				<title>Cercle.87</title>
				<v:userDefs>
					<v:ud v:nameU="visVersion" v:val="VT0(15):26"/>
				</v:userDefs>
				<path d="M0 311.36 A3.54331 3.54331 0 0 1 7.09 311.36 A3.54331 3.54331 0 1 1 0 311.36 Z" class="st3"/>
			</g>
		</g>
		<g id="group142-73" transform="translate(441.374,-89.1918)" v:mID="142" v:groupContext="group">
			<title>Sheet.142</title>
			<g id="shape143-74" v:mID="143" v:groupContext="shape">
				<title>Carré.70</title>
				<desc>8</desc>
				<v:userDefs>
					<v:ud v:nameU="visVersion" v:val="VT0(15):26"/>
				</v:userDefs>
				<v:textBlock v:margins="rect(4,4,4,4)" v:tabSpace="42.5197"/>
				<v:textRect cx="14.1732" cy="300.731" width="28.35" height="28.3465"/>
				<rect x="0" y="286.558" width="28.3465" height="28.3465" class="st1"/>
				<text x="11.64" y="303.73" class="st2" v:langID="1033"><v:paragraph v:horizAlign="1"/><v:tabList/>8</text>			</g>
			<g id="shape144-77" v:mID="144" v:groupContext="shape" transform="translate(28.3465,-5.68434E-14)">
				<title>Carré.71</title>
				<v:userDefs>
					<v:ud v:nameU="visVersion" v:val="VT0(15):26"/>
				</v:userDefs>
				<rect x="0" y="286.558" width="28.3465" height="28.3465" class="st1"/>
			</g>
			<g id="shape145-79" v:mID="145" v:groupContext="shape" transform="translate(38.9764,-10.6299)">
				<title>Cercle.87</title>
				<v:userDefs>
					<v:ud v:nameU="visVersion" v:val="VT0(15):26"/>
				</v:userDefs>
				<path d="M0 311.36 A3.54331 3.54331 0 0 1 7.09 311.36 A3.54331 3.54331 0 1 1 0 311.36 Z" class="st3"/>
			</g>
		</g>
		<g id="group146-81" transform="translate(358.907,-39.685)" v:mID="146" v:groupContext="group">
			<title>Sheet.146</title>
			<g id="shape147-82" v:mID="147" v:groupContext="shape">
				<title>Carré.70</title>
				<desc>9</desc>
				<v:userDefs>
					<v:ud v:nameU="visVersion" v:val="VT0(15):26"/>
				</v:userDefs>
				<v:textBlock v:margins="rect(4,4,4,4)" v:tabSpace="42.5197"/>
				<v:textRect cx="14.1732" cy="300.731" width="28.35" height="28.3465"/>
				<rect x="0" y="286.558" width="28.3465" height="28.3465" class="st1"/>
				<text x="11.64" y="303.73" class="st2" v:langID="1033"><v:paragraph v:horizAlign="1"/><v:tabList/>9</text>			</g>
			<g id="shape148-85" v:mID="148" v:groupContext="shape" transform="translate(28.3465,-5.68434E-14)">
				<title>Carré.71</title>
				<v:userDefs>
					<v:ud v:nameU="visVersion" v:val="VT0(15):26"/>
				</v:userDefs>
				<rect x="0" y="286.558" width="28.3465" height="28.3465" class="st1"/>
			</g>
			<g id="shape149-87" v:mID="149" v:groupContext="shape" transform="translate(38.9764,-10.6299)">
				<title>Cercle.87</title>
				<v:userDefs>
					<v:ud v:nameU="visVersion" v:val="VT0(15):26"/>
				</v:userDefs>
				<path d="M0 311.36 A3.54331 3.54331 0 0 1 7.09 311.36 A3.54331 3.54331 0 1 1 0 311.36 Z" class="st3"/>
			</g>
		</g>
		<g id="group150-89" transform="translate(276.441,-89.1918)" v:mID="150" v:groupContext="group">
			<title>Sheet.150</title>
			<g id="shape151-90" v:mID="151" v:groupContext="shape">
				<title>Carré.70</title>
				<desc>10</desc>
				<v:userDefs>
					<v:ud v:nameU="visVersion" v:val="VT0(15):26"/>
				</v:userDefs>
				<v:textBlock v:margins="rect(4,4,4,4)" v:tabSpace="42.5197"/>
				<v:textRect cx="14.1732" cy="300.731" width="28.35" height="28.3465"/>
				<rect x="0" y="286.558" width="28.3465" height="28.3465" class="st1"/>
				<text x="9.1" y="303.73" class="st2" v:langID="1033"><v:paragraph v:horizAlign="1"/><v:tabList/>10</text>			</g>
			<g id="shape152-93" v:mID="152" v:groupContext="shape" transform="translate(28.3465,-5.68434E-14)">
				<title>Carré.71</title>
				<v:userDefs>
					<v:ud v:nameU="visVersion" v:val="VT0(15):26"/>
				</v:userDefs>
				<rect x="0" y="286.558" width="28.3465" height="28.3465" class="st1"/>
			</g>
			<g id="shape153-95" v:mID="153" v:groupContext="shape" transform="translate(38.9764,-10.6299)">
				<title>Cercle.87</title>
				<v:userDefs>
					<v:ud v:nameU="visVersion" v:val="VT0(15):26"/>
				</v:userDefs>
				<path d="M0 311.36 A3.54331 3.54331 0 0 1 7.09 311.36 A3.54331 3.54331 0 1 1 0 311.36 Z" class="st3"/>
			</g>
		</g>
		<g id="group154-97" transform="translate(242.996,-151.524)" v:mID="154" v:groupContext="group">
			<title>Sheet.154</title>
			<g id="shape155-98" v:mID="155" v:groupContext="shape">
				<title>Carré.70</title>
				<desc>11</desc>
				<v:userDefs>
					<v:ud v:nameU="visVersion" v:val="VT0(15):26"/>
				</v:userDefs>
				<v:textBlock v:margins="rect(4,4,4,4)" v:tabSpace="42.5197"/>
				<v:textRect cx="14.1732" cy="300.731" width="28.35" height="28.3465"/>
				<rect x="0" y="286.558" width="28.3465" height="28.3465" class="st1"/>
				<text x="9.1" y="303.73" class="st2" v:langID="1033"><v:paragraph v:horizAlign="1"/><v:tabList/>11</text>			</g>
			<g id="shape156-101" v:mID="156" v:groupContext="shape" transform="translate(28.3465,-5.68434E-14)">
				<title>Carré.71</title>
				<v:userDefs>
					<v:ud v:nameU="visVersion" v:val="VT0(15):26"/>
				</v:userDefs>
				<rect x="0" y="286.558" width="28.3465" height="28.3465" class="st1"/>
			</g>
			<g id="shape157-103" v:mID="157" v:groupContext="shape" transform="translate(38.9764,-10.6299)">
				<title>Cercle.87</title>
				<v:userDefs>
					<v:ud v:nameU="visVersion" v:val="VT0(15):26"/>
				</v:userDefs>
				<path d="M0 311.36 A3.54331 3.54331 0 0 1 7.09 311.36 A3.54331 3.54331 0 1 1 0 311.36 Z" class="st3"/>
			</g>
		</g>
		<g id="group158-105" transform="translate(271.295,-211.052)" v:mID="158" v:groupContext="group">
			<title>Sheet.158</title>
			<g id="shape159-106" v:mID="159" v:groupContext="shape">
				<title>Carré.70</title>
				<desc>12</desc>
				<v:userDefs>
					<v:ud v:nameU="visVersion" v:val="VT0(15):26"/>
				</v:userDefs>
				<v:textBlock v:margins="rect(4,4,4,4)" v:tabSpace="42.5197"/>
				<v:textRect cx="14.1732" cy="300.731" width="28.35" height="28.3465"/>
				<rect x="0" y="286.558" width="28.3465" height="28.3465" class="st1"/>
				<text x="9.1" y="303.73" class="st2" v:langID="1033"><v:paragraph v:horizAlign="1"/><v:tabList/>12</text>			</g>
			<g id="shape160-109" v:mID="160" v:groupContext="shape" transform="translate(28.3465,-5.68434E-14)">
				<title>Carré.71</title>
				<v:userDefs>
					<v:ud v:nameU="visVersion" v:val="VT0(15):26"/>
				</v:userDefs>
				<rect x="0" y="286.558" width="28.3465" height="28.3465" class="st1"/>
			</g>
			<g id="shape161-111" v:mID="161" v:groupContext="shape" transform="translate(38.9764,-10.6299)">
				<title>Cercle.87</title>
				<v:userDefs>
					<v:ud v:nameU="visVersion" v:val="VT0(15):26"/>
				</v:userDefs>
				<path d="M0 311.36 A3.54331 3.54331 0 0 1 7.09 311.36 A3.54331 3.54331 0 1 1 0 311.36 Z" class="st3"/>
			</g>
		</g>
		<g id="shape162-113" v:mID="162" v:groupContext="shape" v:layerMember="1" transform="translate(401.689,-278.621)">
			<title>Lien dynamique.162</title>
			<path d="M0 314.9 L0 356.96 A11.3386 11.3386 -180 0 0 11.34 368.3 L42.67 368.3" class="st4"/>
		</g>
		<g id="shape163-118" v:mID="163" v:groupContext="shape" v:layerMember="1" transform="translate(492.398,-221.682)">
			<title>Lien dynamique.163</title>
			<path d="M0 314.9 L0 328.94 A11.3386 11.3386 0 0 1 -11.34 340.27 L-28.35 340.27 A11.3386 11.3386 -180 0 0 -39.69 351.61
						 L-39.69 359.56 A11.3328 11.3328 -180 0 0 -28.35 370.89 L-22.53 370.89" class="st4"/>
		</g>
		<g id="shape164-123" v:mID="164" v:groupContext="shape" v:layerMember="1" transform="translate(517.898,-162.154)">
			<title>Lien dynamique.164</title>
			<path d="M0 314.9 L0 330.64 A11.3386 11.3386 0 0 1 -11.34 341.97 L-88.43 341.97 A11.3386 11.3386 -180 0 0 -99.77 353.31
						 L-99.77 362.35 A11.3386 11.3386 -180 0 0 -88.43 373.69 L-82.04 373.69" class="st4"/>
		</g>
		<g id="shape165-128" v:mID="165" v:groupContext="shape" v:layerMember="1" transform="translate(483.894,-99.8218)">
			<title>Lien dynamique.165</title>
			<path d="M0 314.9 L0 325.7 A10.7928 10.7928 0 0 1 -10.79 336.49 L-124.28 336.49 A11.3386 11.3386 -180 0 0 -135.62 347.83
						 L-135.62 355.55 A5.31496 5.31496 -180 0 0 -130.3 360.87 L-124.99 360.87" class="st6"/>
		</g>
		<g id="shape166-134" v:mID="166" v:groupContext="shape" v:layerMember="1" transform="translate(401.427,-50.315)">
			<title>Lien dynamique.166</title>
			<path d="M0 314.9 L0 327.08 A11.3386 11.3386 0 0 1 -11.34 338.42 L-134.67 338.42 A11.3386 11.3386 0 0 1 -146.01 327.08
						 L-146.01 272.36 A10.5097 10.5097 0 0 1 -135.5 261.85 L-130.5 261.85" class="st4"/>
		</g>
		<g id="shape167-139" v:mID="167" v:groupContext="shape" v:layerMember="1" transform="translate(318.96,-106.908)">
			<title>Lien dynamique.167</title>
			<path d="M0 314.9 L0 299.77 A11.3386 11.3386 -180 0 0 -11.34 288.43 L-83.38 288.43 A11.3386 11.3386 0 0 1 -94.72 277.09
						 L-94.72 265.49 A9.37794 9.37794 0 0 1 -85.34 256.11 L-81.48 256.11" class="st4"/>
		</g>
		<g id="shape168-144" v:mID="168" v:groupContext="shape" v:layerMember="1" transform="translate(285.516,-169.241)">
			<title>Lien dynamique.168</title>
			<path d="M0 314.9 L0 301.44 A11.3386 11.3386 -180 0 0 -11.34 290.1 L-49.94 290.1 A11.3386 11.3386 0 0 1 -61.28 278.76
						 L-61.28 270.26 A11.3386 11.3386 0 0 1 -49.94 258.92 L-19.74 258.92" class="st4"/>
		</g>
		<g id="shape169-149" v:mID="169" v:groupContext="shape" v:layerMember="1" transform="translate(313.815,-225.225)">
			<title>Lien dynamique.169</title>
			<path d="M0 314.9 L15.31 314.9 A11.3386 11.3386 -180 0 0 26.65 303.57 L26.65 267.19 A9.22335 9.22335 0 0 1 35.87 257.97
						 L39.58 257.97" class="st4"/>
		</g>
	</g>
</svg>
