<?xml version="1.0" encoding="UTF-8" standalone="no"?>
<!DOCTYPE svg PUBLIC "-//W3C//DTD SVG 1.1//EN" "http://www.w3.org/Graphics/SVG/1.1/DTD/svg11.dtd">
<!-- Generated by Microsoft Visio, SVG Export mmu.svg Page-1 -->
<svg xmlns="http://www.w3.org/2000/svg" xmlns:xlink="http://www.w3.org/1999/xlink" xmlns:ev="http://www.w3.org/2001/xml-events"
		xmlns:v="http://schemas.microsoft.com/visio/2003/SVGExtensions/" width="11.6466in" height="4.32624in"
		viewBox="0 0 838.555 311.489" xml:space="preserve" color-interpolation-filters="sRGB" class="st9">
	<v:documentProperties v:langID="1033" v:metric="true" v:viewMarkup="false">
		<v:userDefs>
			<v:ud v:nameU="msvSubprocessMaster" v:prompt="" v:val="VT4(Rectangle)"/>
			<v:ud v:nameU="msvNoAutoConnect" v:val="VT0(1):26"/>
		</v:userDefs>
	</v:documentProperties>

	<style type="text/css">
	<![CDATA[
		.st1 {fill:#ffffff;stroke:#000000;stroke-dasharray:5.25,3.75;stroke-linecap:round;stroke-linejoin:round;stroke-width:0.75}
		.st2 {fill:#ffffff;stroke:#000000;stroke-linecap:round;stroke-linejoin:round;stroke-width:0.75}
		.st3 {fill:#000000;font-family:Calibri;font-size:0.833336em}
		.st4 {fill:none;stroke:none;stroke-linecap:round;stroke-linejoin:round;stroke-width:0.75}
		.st5 {fill:#000000;font-family:Calibri;font-size:1.00001em}
		.st6 {fill:#000000;font-family:Calibri;font-size:1.00001em;font-weight:bold}
		.st7 {marker-end:url(#mrkr4-173);stroke:#000000;stroke-linecap:round;stroke-linejoin:round;stroke-width:0.237638}
		.st8 {fill:#000000;fill-opacity:1;stroke:#000000;stroke-opacity:1;stroke-width:0.086174404659928}
		.st9 {fill:none;fill-rule:evenodd;font-size:12px;overflow:visible;stroke-linecap:square;stroke-miterlimit:3}
	]]>
	</style>

	<defs id="Markers">
		<g id="lend4">
			<path d="M 2 1 L 0 0 L 2 -1 L 2 1 " style="stroke:none"/>
		</g>
		<marker id="mrkr4-173" class="st8" v:arrowType="4" v:arrowSize="2" v:setback="23.2087" refX="-23.208747514911"
				orient="auto" markerUnits="strokeWidth" overflow="visible">
			<use xlink:href="#lend4" transform="scale(-11.604373757455,-11.604373757455) "/>
		</marker>
	</defs>
	<g v:mID="0" v:index="1" v:groupContext="foregroundPage">
		<v:userDefs>
			<v:ud v:nameU="msvThemeOrder" v:val="VT0(0):26"/>
		</v:userDefs>
		<title>Page-1</title>
		<v:pageProperties v:drawingScale="0.0393701" v:pageScale="0.0393701" v:drawingUnits="24" v:shadowOffsetX="8.50394"
				v:shadowOffsetY="-8.50394"/>
		<v:layer v:name="Connector" v:index="0"/>
		<g id="shape101-1" v:mID="101" v:groupContext="shape" transform="translate(18.375,-18.375)">
			<title>Rectangle.101</title>
			<v:userDefs>
				<v:ud v:nameU="visVersion" v:val="VT0(15):26"/>
			</v:userDefs>
			<path d="M0 311.49 L544.68 311.49 L544.68 190.69 L0 190.69 L0 311.49 Z" class="st1"/>
		</g>
		<g id="shape100-3" v:mID="100" v:groupContext="shape" transform="translate(18.375,-172.317)">
			<title>Rectangle.100</title>
			<v:userDefs>
				<v:ud v:nameU="visVersion" v:val="VT0(15):26"/>
			</v:userDefs>
			<path d="M0 311.49 L543.26 311.49 L543.26 190.69 L0 190.69 L0 311.49 Z" class="st1"/>
		</g>
		<g id="shape1-5" v:mID="1" v:groupContext="shape" transform="translate(687.487,-26.2825)">
			<title>Rectangle</title>
			<desc>PP 11</desc>
			<v:userDefs>
				<v:ud v:nameU="visVersion" v:val="VT0(15):26"/>
			</v:userDefs>
			<v:textBlock v:margins="rect(4,4,4,4)" v:tabSpace="42.5197"/>
			<v:textRect cx="56.6929" cy="301.568" width="113.39" height="19.8425"/>
			<rect x="0" y="291.647" width="113.386" height="19.8425" class="st2"/>
			<text x="45.33" y="304.57" class="st3" v:langID="1033"><v:paragraph v:horizAlign="1"/><v:tabList/>PP 11</text>		</g>
		<g id="shape2-8" v:mID="2" v:groupContext="shape" transform="translate(687.487,-46.125)">
			<title>Rectangle.2</title>
			<v:userDefs>
				<v:ud v:nameU="visVersion" v:val="VT0(15):26"/>
			</v:userDefs>
			<rect x="0" y="291.647" width="113.386" height="19.8425" class="st2"/>
		</g>
		<g id="shape3-10" v:mID="3" v:groupContext="shape" transform="translate(687.487,-65.9675)">
			<title>Rectangle.3</title>
			<desc>PP 9</desc>
			<v:userDefs>
				<v:ud v:nameU="visVersion" v:val="VT0(15):26"/>
			</v:userDefs>
			<v:textBlock v:margins="rect(4,4,4,4)" v:tabSpace="42.5197"/>
			<v:textRect cx="56.6929" cy="301.568" width="113.39" height="19.8425"/>
			<rect x="0" y="291.647" width="113.386" height="19.8425" class="st2"/>
			<text x="47.86" y="304.57" class="st3" v:langID="1033"><v:paragraph v:horizAlign="1"/><v:tabList/>PP 9</text>		</g>
		<g id="shape6-13" v:mID="6" v:groupContext="shape" transform="translate(687.487,-85.81)">
			<title>Rectangle.6</title>
			<desc>PP 8</desc>
			<v:userDefs>
				<v:ud v:nameU="visVersion" v:val="VT0(15):26"/>
			</v:userDefs>
			<v:textBlock v:margins="rect(4,4,4,4)" v:tabSpace="42.5197"/>
			<v:textRect cx="56.6929" cy="301.568" width="113.39" height="19.8425"/>
			<rect x="0" y="291.647" width="113.386" height="19.8425" class="st2"/>
			<text x="47.86" y="304.57" class="st3" v:langID="1033"><v:paragraph v:horizAlign="1"/><v:tabList/>PP 8</text>		</g>
		<g id="shape7-16" v:mID="7" v:groupContext="shape" transform="translate(687.487,-105.653)">
			<title>Rectangle.7</title>
			<v:userDefs>
				<v:ud v:nameU="visVersion" v:val="VT0(15):26"/>
			</v:userDefs>
			<rect x="0" y="291.647" width="113.386" height="19.8425" class="st2"/>
		</g>
		<g id="shape8-18" v:mID="8" v:groupContext="shape" transform="translate(687.487,-125.495)">
			<title>Rectangle.8</title>
			<desc>PP 6</desc>
			<v:userDefs>
				<v:ud v:nameU="visVersion" v:val="VT0(15):26"/>
			</v:userDefs>
			<v:textBlock v:margins="rect(4,4,4,4)" v:tabSpace="42.5197"/>
			<v:textRect cx="56.6929" cy="301.568" width="113.39" height="19.8425"/>
			<rect x="0" y="291.647" width="113.386" height="19.8425" class="st2"/>
			<text x="47.86" y="304.57" class="st3" v:langID="1033"><v:paragraph v:horizAlign="1"/><v:tabList/>PP 6</text>		</g>
		<g id="shape10-21" v:mID="10" v:groupContext="shape" transform="translate(687.487,-145.338)">
			<title>Rectangle.10</title>
			<v:userDefs>
				<v:ud v:nameU="visVersion" v:val="VT0(15):26"/>
			</v:userDefs>
			<rect x="0" y="291.647" width="113.386" height="19.8425" class="st2"/>
		</g>
		<g id="shape11-23" v:mID="11" v:groupContext="shape" transform="translate(687.487,-165.18)">
			<title>Rectangle.11</title>
			<desc>PP 4</desc>
			<v:userDefs>
				<v:ud v:nameU="visVersion" v:val="VT0(15):26"/>
			</v:userDefs>
			<v:textBlock v:margins="rect(4,4,4,4)" v:tabSpace="42.5197"/>
			<v:textRect cx="56.6929" cy="301.568" width="113.39" height="19.8425"/>
			<rect x="0" y="291.647" width="113.386" height="19.8425" class="st2"/>
			<text x="47.86" y="304.57" class="st3" v:langID="1033"><v:paragraph v:horizAlign="1"/><v:tabList/>PP 4</text>		</g>
		<g id="shape12-26" v:mID="12" v:groupContext="shape" transform="translate(687.487,-185.023)">
			<title>Rectangle.12</title>
			<v:userDefs>
				<v:ud v:nameU="visVersion" v:val="VT0(15):26"/>
			</v:userDefs>
			<rect x="0" y="291.647" width="113.386" height="19.8425" class="st2"/>
		</g>
		<g id="shape14-28" v:mID="14" v:groupContext="shape" transform="translate(687.487,-204.865)">
			<title>Rectangle.14</title>
			<desc>PP 2</desc>
			<v:userDefs>
				<v:ud v:nameU="visVersion" v:val="VT0(15):26"/>
			</v:userDefs>
			<v:textBlock v:margins="rect(4,4,4,4)" v:tabSpace="42.5197"/>
			<v:textRect cx="56.6929" cy="301.568" width="113.39" height="19.8425"/>
			<rect x="0" y="291.647" width="113.386" height="19.8425" class="st2"/>
			<text x="47.86" y="304.57" class="st3" v:langID="1033"><v:paragraph v:horizAlign="1"/><v:tabList/>PP 2</text>		</g>
		<g id="shape15-31" v:mID="15" v:groupContext="shape" transform="translate(687.487,-224.708)">
			<title>Rectangle.15</title>
			<v:userDefs>
				<v:ud v:nameU="visVersion" v:val="VT0(15):26"/>
			</v:userDefs>
			<rect x="0" y="291.647" width="113.386" height="19.8425" class="st2"/>
		</g>
		<g id="shape16-33" v:mID="16" v:groupContext="shape" transform="translate(687.487,-244.55)">
			<title>Rectangle.16</title>
			<v:userDefs>
				<v:ud v:nameU="visVersion" v:val="VT0(15):26"/>
			</v:userDefs>
			<rect x="0" y="291.647" width="113.386" height="19.8425" class="st2"/>
		</g>
		<g id="shape17-35" v:mID="17" v:groupContext="shape" transform="translate(668.18,-265.731)">
			<title>Sheet.17</title>
			<desc>Adresses physiques</desc>
			<v:textBlock v:margins="rect(4,4,4,4)" v:tabSpace="42.5197"/>
			<v:textRect cx="76" cy="301.489" width="152" height="20"/>
			<rect x="0" y="291.489" width="152" height="20" class="st4"/>
			<text x="28.54" y="305.09" class="st5" v:langID="1033"><v:paragraph v:horizAlign="1"/><v:tabList/>Adresses physiques</text>		</g>
		<g id="shape19-38" v:mID="19" v:groupContext="shape" transform="translate(270.794,-233.212)">
			<title>Rectangle.19</title>
			<desc>oui</desc>
			<v:userDefs>
				<v:ud v:nameU="visVersion" v:val="VT0(15):26"/>
			</v:userDefs>
			<v:textBlock v:margins="rect(4,4,4,4)" v:tabSpace="42.5197"/>
			<v:textRect cx="21.2598" cy="298.733" width="42.52" height="25.5118"/>
			<rect x="0" y="285.977" width="42.5197" height="25.5118" class="st2"/>
			<text x="14.85" y="301.73" class="st3" v:langID="1033"><v:paragraph v:horizAlign="1"/><v:tabList/>oui</text>		</g>
		<g id="shape20-41" v:mID="20" v:groupContext="shape" transform="translate(313.314,-233.212)">
			<title>Rectangle.20</title>
			<desc>oui</desc>
			<v:userDefs>
				<v:ud v:nameU="visVersion" v:val="VT0(15):26"/>
			</v:userDefs>
			<v:textBlock v:margins="rect(4,4,4,4)" v:tabSpace="42.5197"/>
			<v:textRect cx="21.2598" cy="298.733" width="42.52" height="25.5118"/>
			<rect x="0" y="285.977" width="42.5197" height="25.5118" class="st2"/>
			<text x="14.85" y="301.73" class="st3" v:langID="1033"><v:paragraph v:horizAlign="1"/><v:tabList/>oui</text>		</g>
		<g id="shape21-44" v:mID="21" v:groupContext="shape" transform="translate(355.834,-233.212)">
			<title>Rectangle.21</title>
			<desc>non</desc>
			<v:userDefs>
				<v:ud v:nameU="visVersion" v:val="VT0(15):26"/>
			</v:userDefs>
			<v:textBlock v:margins="rect(4,4,4,4)" v:tabSpace="42.5197"/>
			<v:textRect cx="21.2598" cy="298.733" width="42.52" height="25.5118"/>
			<rect x="0" y="285.977" width="42.5197" height="25.5118" class="st2"/>
			<text x="13.37" y="301.73" class="st3" v:langID="1033"><v:paragraph v:horizAlign="1"/><v:tabList/>non</text>		</g>
		<g id="shape22-47" v:mID="22" v:groupContext="shape" transform="translate(398.353,-233.212)">
			<title>Rectangle.22</title>
			<desc>non</desc>
			<v:userDefs>
				<v:ud v:nameU="visVersion" v:val="VT0(15):26"/>
			</v:userDefs>
			<v:textBlock v:margins="rect(4,4,4,4)" v:tabSpace="42.5197"/>
			<v:textRect cx="21.2598" cy="298.733" width="42.52" height="25.5118"/>
			<rect x="0" y="285.977" width="42.5197" height="25.5118" class="st2"/>
			<text x="13.37" y="301.73" class="st3" v:langID="1033"><v:paragraph v:horizAlign="1"/><v:tabList/>non</text>		</g>
		<g id="shape23-50" v:mID="23" v:groupContext="shape" transform="translate(440.873,-233.212)">
			<title>Rectangle.23</title>
			<desc>PP 6</desc>
			<v:userDefs>
				<v:ud v:nameU="visVersion" v:val="VT0(15):26"/>
			</v:userDefs>
			<v:textBlock v:margins="rect(4,4,4,4)" v:tabSpace="42.5197"/>
			<v:textRect cx="51.4488" cy="298.733" width="102.9" height="25.5118"/>
			<rect x="0" y="285.977" width="102.898" height="25.5118" class="st2"/>
			<text x="42.62" y="301.73" class="st3" v:langID="1033"><v:paragraph v:horizAlign="1"/><v:tabList/>PP 6</text>		</g>
		<g id="group34-53" transform="translate(270.794,-182.188)" v:mID="34" v:groupContext="group">
			<title>Sheet.34</title>
			<g id="shape29-54" v:mID="29" v:groupContext="shape">
				<title>Rectangle.29</title>
				<desc>oui</desc>
				<v:userDefs>
					<v:ud v:nameU="visVersion" v:val="VT0(15):26"/>
				</v:userDefs>
				<v:textBlock v:margins="rect(4,4,4,4)" v:tabSpace="42.5197"/>
				<v:textRect cx="21.2598" cy="298.733" width="42.52" height="25.5118"/>
				<rect x="0" y="285.977" width="42.5197" height="25.5118" class="st2"/>
				<text x="14.85" y="301.73" class="st3" v:langID="1033"><v:paragraph v:horizAlign="1"/><v:tabList/>oui</text>			</g>
			<g id="shape30-57" v:mID="30" v:groupContext="shape" transform="translate(42.5197,0)">
				<title>Rectangle.30</title>
				<desc>oui</desc>
				<v:userDefs>
					<v:ud v:nameU="visVersion" v:val="VT0(15):26"/>
				</v:userDefs>
				<v:textBlock v:margins="rect(4,4,4,4)" v:tabSpace="42.5197"/>
				<v:textRect cx="21.2598" cy="298.733" width="42.52" height="25.5118"/>
				<rect x="0" y="285.977" width="42.5197" height="25.5118" class="st2"/>
				<text x="14.85" y="301.73" class="st3" v:langID="1033"><v:paragraph v:horizAlign="1"/><v:tabList/>oui</text>			</g>
			<g id="shape31-60" v:mID="31" v:groupContext="shape" transform="translate(85.0394,0)">
				<title>Rectangle.31</title>
				<desc>oui</desc>
				<v:userDefs>
					<v:ud v:nameU="visVersion" v:val="VT0(15):26"/>
				</v:userDefs>
				<v:textBlock v:margins="rect(4,4,4,4)" v:tabSpace="42.5197"/>
				<v:textRect cx="21.2598" cy="298.733" width="42.52" height="25.5118"/>
				<rect x="0" y="285.977" width="42.5197" height="25.5118" class="st2"/>
				<text x="14.85" y="301.73" class="st3" v:langID="1033"><v:paragraph v:horizAlign="1"/><v:tabList/>oui</text>			</g>
			<g id="shape32-63" v:mID="32" v:groupContext="shape" transform="translate(127.559,0)">
				<title>Rectangle.32</title>
				<desc>non</desc>
				<v:userDefs>
					<v:ud v:nameU="visVersion" v:val="VT0(15):26"/>
				</v:userDefs>
				<v:textBlock v:margins="rect(4,4,4,4)" v:tabSpace="42.5197"/>
				<v:textRect cx="21.2598" cy="298.733" width="42.52" height="25.5118"/>
				<rect x="0" y="285.977" width="42.5197" height="25.5118" class="st2"/>
				<text x="13.37" y="301.73" class="st3" v:langID="1033"><v:paragraph v:horizAlign="1"/><v:tabList/>non</text>			</g>
			<g id="shape33-66" v:mID="33" v:groupContext="shape" transform="translate(170.079,0)">
				<title>Rectangle.33</title>
				<desc>PP 2</desc>
				<v:userDefs>
					<v:ud v:nameU="visVersion" v:val="VT0(15):26"/>
				</v:userDefs>
				<v:textBlock v:margins="rect(4,4,4,4)" v:tabSpace="42.5197"/>
				<v:textRect cx="51.4488" cy="298.733" width="102.9" height="25.5118"/>
				<rect x="0" y="285.977" width="102.898" height="25.5118" class="st2"/>
				<text x="42.62" y="301.73" class="st3" v:langID="1033"><v:paragraph v:horizAlign="1"/><v:tabList/>PP 2</text>			</g>
		</g>
		<g id="group35-69" transform="translate(270.794,-207.7)" v:mID="35" v:groupContext="group">
			<title>Sheet.35</title>
			<g id="shape24-70" v:mID="24" v:groupContext="shape">
				<title>Rectangle.24</title>
				<desc>oui</desc>
				<v:userDefs>
					<v:ud v:nameU="visVersion" v:val="VT0(15):26"/>
				</v:userDefs>
				<v:textBlock v:margins="rect(4,4,4,4)" v:tabSpace="42.5197"/>
				<v:textRect cx="21.2598" cy="298.733" width="42.52" height="25.5118"/>
				<rect x="0" y="285.977" width="42.5197" height="25.5118" class="st2"/>
				<text x="14.85" y="301.73" class="st3" v:langID="1033"><v:paragraph v:horizAlign="1"/><v:tabList/>oui</text>			</g>
			<g id="shape25-73" v:mID="25" v:groupContext="shape" transform="translate(42.5197,0)">
				<title>Rectangle.25</title>
				<desc>non</desc>
				<v:userDefs>
					<v:ud v:nameU="visVersion" v:val="VT0(15):26"/>
				</v:userDefs>
				<v:textBlock v:margins="rect(4,4,4,4)" v:tabSpace="42.5197"/>
				<v:textRect cx="21.2598" cy="298.733" width="42.52" height="25.5118"/>
				<rect x="0" y="285.977" width="42.5197" height="25.5118" class="st2"/>
				<text x="13.37" y="301.73" class="st3" v:langID="1033"><v:paragraph v:horizAlign="1"/><v:tabList/>non</text>			</g>
			<g id="shape26-76" v:mID="26" v:groupContext="shape" transform="translate(85.0394,0)">
				<title>Rectangle.26</title>
				<desc>non</desc>
				<v:userDefs>
					<v:ud v:nameU="visVersion" v:val="VT0(15):26"/>
				</v:userDefs>
				<v:textBlock v:margins="rect(4,4,4,4)" v:tabSpace="42.5197"/>
				<v:textRect cx="21.2598" cy="298.733" width="42.52" height="25.5118"/>
				<rect x="0" y="285.977" width="42.5197" height="25.5118" class="st2"/>
				<text x="13.37" y="301.73" class="st3" v:langID="1033"><v:paragraph v:horizAlign="1"/><v:tabList/>non</text>			</g>
			<g id="shape27-79" v:mID="27" v:groupContext="shape" transform="translate(127.559,0)">
				<title>Rectangle.27</title>
				<desc>yes</desc>
				<v:userDefs>
					<v:ud v:nameU="visVersion" v:val="VT0(15):26"/>
				</v:userDefs>
				<v:textBlock v:margins="rect(4,4,4,4)" v:tabSpace="42.5197"/>
				<v:textRect cx="21.2598" cy="298.733" width="42.52" height="25.5118"/>
				<rect x="0" y="285.977" width="42.5197" height="25.5118" class="st2"/>
				<text x="14.55" y="301.73" class="st3" v:langID="1033"><v:paragraph v:horizAlign="1"/><v:tabList/>yes</text>			</g>
			<g id="shape28-82" v:mID="28" v:groupContext="shape" transform="translate(170.079,0)">
				<title>Rectangle.28</title>
				<desc>PP 4</desc>
				<v:userDefs>
					<v:ud v:nameU="visVersion" v:val="VT0(15):26"/>
				</v:userDefs>
				<v:textBlock v:margins="rect(4,4,4,4)" v:tabSpace="42.5197"/>
				<v:textRect cx="51.4488" cy="298.733" width="102.9" height="25.5118"/>
				<rect x="0" y="285.977" width="102.898" height="25.5118" class="st2"/>
				<text x="42.62" y="301.73" class="st3" v:langID="1033"><v:paragraph v:horizAlign="1"/><v:tabList/>PP 4</text>			</g>
		</g>
		<g id="shape36-85" v:mID="36" v:groupContext="shape" transform="translate(18.375,-273.114)">
			<title>Sheet.36</title>
			<desc>Processus i</desc>
			<v:textBlock v:margins="rect(4,4,4,4)" v:tabSpace="42.5197"/>
			<v:textRect cx="76" cy="301.489" width="152" height="20"/>
			<rect x="0" y="291.489" width="152" height="20" class="st4"/>
			<text x="4" y="305.09" class="st6" v:langID="1033"><v:paragraph/><v:tabList/>Processus i</text>		</g>
		<g id="shape37-88" v:mID="37" v:groupContext="shape" transform="translate(270.794,-255.731)">
			<title>Sheet.37</title>
			<desc>valid</desc>
			<v:textBlock v:margins="rect(4,4,4,4)" v:tabSpace="42.5197"/>
			<v:textRect cx="21.2598" cy="301.489" width="42.52" height="20"/>
			<rect x="0" y="291.489" width="42.5197" height="20" class="st4"/>
			<text x="9.77" y="305.09" class="st5" v:langID="1033"><v:paragraph v:horizAlign="1"/><v:tabList/>valid</text>		</g>
		<g id="shape38-91" v:mID="38" v:groupContext="shape" transform="translate(313.314,-254.393)">
			<title>Sheet.38</title>
			<desc>sup</desc>
			<v:textBlock v:margins="rect(4,4,4,4)" v:tabSpace="42.5197"/>
			<v:textRect cx="21.2598" cy="301.489" width="42.52" height="20"/>
			<rect x="0" y="291.489" width="42.5197" height="20" class="st4"/>
			<text x="12.61" y="305.09" class="st5" v:langID="1033"><v:paragraph v:horizAlign="1"/><v:tabList/>sup</text>		</g>
		<g id="shape39-94" v:mID="39" v:groupContext="shape" transform="translate(350.59,-254.393)">
			<title>Sheet.39</title>
			<desc>write</desc>
			<v:textBlock v:margins="rect(4,4,4,4)" v:tabSpace="42.5197"/>
			<v:textRect cx="26.5039" cy="301.489" width="53.01" height="20"/>
			<rect x="0" y="291.489" width="53.0079" height="20" class="st4"/>
			<text x="13.75" y="305.09" class="st5" v:langID="1033"><v:paragraph v:horizAlign="1"/><v:tabList/>write</text>		</g>
		<g id="shape40-97" v:mID="40" v:groupContext="shape" transform="translate(389.991,-255.731)">
			<title>Sheet.40</title>
			<desc>exec</desc>
			<v:textBlock v:margins="rect(4,4,4,4)" v:tabSpace="42.5197"/>
			<v:textRect cx="31.0394" cy="301.489" width="62.08" height="20"/>
			<rect x="0" y="291.489" width="62.0787" height="20" class="st4"/>
			<text x="19.93" y="305.09" class="st5" v:langID="1033"><v:paragraph v:horizAlign="1"/><v:tabList/>exec</text>		</g>
		<g id="shape41-100" v:mID="41" v:groupContext="shape" transform="translate(465.818,-255.889)">
			<title>Sheet.41</title>
			<desc>address</desc>
			<v:textBlock v:margins="rect(4,4,4,4)" v:tabSpace="42.5197"/>
			<v:textRect cx="26.5039" cy="301.489" width="53.01" height="20"/>
			<rect x="0" y="291.489" width="53.0079" height="20" class="st4"/>
			<text x="7.55" y="305.09" class="st5" v:langID="1033"><v:paragraph v:horizAlign="1"/><v:tabList/>address</text>		</g>
		<g id="shape45-103" v:mID="45" v:groupContext="shape" transform="translate(273.094,-80.1407)">
			<title>Rectangle.45</title>
			<desc>oui</desc>
			<v:userDefs>
				<v:ud v:nameU="visVersion" v:val="VT0(15):26"/>
			</v:userDefs>
			<v:textBlock v:margins="rect(4,4,4,4)" v:tabSpace="42.5197"/>
			<v:textRect cx="21.2598" cy="298.733" width="42.52" height="25.5118"/>
			<rect x="0" y="285.977" width="42.5197" height="25.5118" class="st2"/>
			<text x="14.85" y="301.73" class="st3" v:langID="1033"><v:paragraph v:horizAlign="1"/><v:tabList/>oui</text>		</g>
		<g id="shape46-106" v:mID="46" v:groupContext="shape" transform="translate(315.613,-80.1407)">
			<title>Rectangle.46</title>
			<desc>non</desc>
			<v:userDefs>
				<v:ud v:nameU="visVersion" v:val="VT0(15):26"/>
			</v:userDefs>
			<v:textBlock v:margins="rect(4,4,4,4)" v:tabSpace="42.5197"/>
			<v:textRect cx="21.2598" cy="298.733" width="42.52" height="25.5118"/>
			<rect x="0" y="285.977" width="42.5197" height="25.5118" class="st2"/>
			<text x="13.37" y="301.73" class="st3" v:langID="1033"><v:paragraph v:horizAlign="1"/><v:tabList/>non</text>		</g>
		<g id="shape47-109" v:mID="47" v:groupContext="shape" transform="translate(358.133,-80.1407)">
			<title>Rectangle.47</title>
			<desc>oui</desc>
			<v:userDefs>
				<v:ud v:nameU="visVersion" v:val="VT0(15):26"/>
			</v:userDefs>
			<v:textBlock v:margins="rect(4,4,4,4)" v:tabSpace="42.5197"/>
			<v:textRect cx="21.2598" cy="298.733" width="42.52" height="25.5118"/>
			<rect x="0" y="285.977" width="42.5197" height="25.5118" class="st2"/>
			<text x="14.85" y="301.73" class="st3" v:langID="1033"><v:paragraph v:horizAlign="1"/><v:tabList/>oui</text>		</g>
		<g id="shape48-112" v:mID="48" v:groupContext="shape" transform="translate(400.653,-80.1407)">
			<title>Rectangle.48</title>
			<desc>non</desc>
			<v:userDefs>
				<v:ud v:nameU="visVersion" v:val="VT0(15):26"/>
			</v:userDefs>
			<v:textBlock v:margins="rect(4,4,4,4)" v:tabSpace="42.5197"/>
			<v:textRect cx="21.2598" cy="298.733" width="42.52" height="25.5118"/>
			<rect x="0" y="285.977" width="42.5197" height="25.5118" class="st2"/>
			<text x="13.37" y="301.73" class="st3" v:langID="1033"><v:paragraph v:horizAlign="1"/><v:tabList/>non</text>		</g>
		<g id="shape49-115" v:mID="49" v:groupContext="shape" transform="translate(443.172,-80.1407)">
			<title>Rectangle.49</title>
			<desc>PP 9</desc>
			<v:userDefs>
				<v:ud v:nameU="visVersion" v:val="VT0(15):26"/>
			</v:userDefs>
			<v:textBlock v:margins="rect(4,4,4,4)" v:tabSpace="42.5197"/>
			<v:textRect cx="51.4488" cy="298.733" width="102.9" height="25.5118"/>
			<rect x="0" y="285.977" width="102.898" height="25.5118" class="st2"/>
			<text x="42.62" y="301.73" class="st3" v:langID="1033"><v:paragraph v:horizAlign="1"/><v:tabList/>PP 9</text>		</g>
		<g id="group50-118" transform="translate(273.094,-29.1171)" v:mID="50" v:groupContext="group">
			<title>Sheet.50</title>
			<g id="shape51-119" v:mID="51" v:groupContext="shape">
				<title>Rectangle.29</title>
				<desc>oui</desc>
				<v:userDefs>
					<v:ud v:nameU="visVersion" v:val="VT0(15):26"/>
				</v:userDefs>
				<v:textBlock v:margins="rect(4,4,4,4)" v:tabSpace="42.5197"/>
				<v:textRect cx="21.2598" cy="298.733" width="42.52" height="25.5118"/>
				<rect x="0" y="285.977" width="42.5197" height="25.5118" class="st2"/>
				<text x="14.85" y="301.73" class="st3" v:langID="1033"><v:paragraph v:horizAlign="1"/><v:tabList/>oui</text>			</g>
			<g id="shape52-122" v:mID="52" v:groupContext="shape" transform="translate(42.5197,0)">
				<title>Rectangle.30</title>
				<desc>non</desc>
				<v:userDefs>
					<v:ud v:nameU="visVersion" v:val="VT0(15):26"/>
				</v:userDefs>
				<v:textBlock v:margins="rect(4,4,4,4)" v:tabSpace="42.5197"/>
				<v:textRect cx="21.2598" cy="298.733" width="42.52" height="25.5118"/>
				<rect x="0" y="285.977" width="42.5197" height="25.5118" class="st2"/>
				<text x="13.37" y="301.73" class="st3" v:langID="1033"><v:paragraph v:horizAlign="1"/><v:tabList/>non</text>			</g>
			<g id="shape53-125" v:mID="53" v:groupContext="shape" transform="translate(85.0394,0)">
				<title>Rectangle.31</title>
				<desc>oui</desc>
				<v:userDefs>
					<v:ud v:nameU="visVersion" v:val="VT0(15):26"/>
				</v:userDefs>
				<v:textBlock v:margins="rect(4,4,4,4)" v:tabSpace="42.5197"/>
				<v:textRect cx="21.2598" cy="298.733" width="42.52" height="25.5118"/>
				<rect x="0" y="285.977" width="42.5197" height="25.5118" class="st2"/>
				<text x="14.85" y="301.73" class="st3" v:langID="1033"><v:paragraph v:horizAlign="1"/><v:tabList/>oui</text>			</g>
			<g id="shape54-128" v:mID="54" v:groupContext="shape" transform="translate(127.559,0)">
				<title>Rectangle.32</title>
				<desc>non</desc>
				<v:userDefs>
					<v:ud v:nameU="visVersion" v:val="VT0(15):26"/>
				</v:userDefs>
				<v:textBlock v:margins="rect(4,4,4,4)" v:tabSpace="42.5197"/>
				<v:textRect cx="21.2598" cy="298.733" width="42.52" height="25.5118"/>
				<rect x="0" y="285.977" width="42.5197" height="25.5118" class="st2"/>
				<text x="13.37" y="301.73" class="st3" v:langID="1033"><v:paragraph v:horizAlign="1"/><v:tabList/>non</text>			</g>
			<g id="shape55-131" v:mID="55" v:groupContext="shape" transform="translate(170.079,0)">
				<title>Rectangle.33</title>
				<desc>PP 11</desc>
				<v:userDefs>
					<v:ud v:nameU="visVersion" v:val="VT0(15):26"/>
				</v:userDefs>
				<v:textBlock v:margins="rect(4,4,4,4)" v:tabSpace="42.5197"/>
				<v:textRect cx="51.4488" cy="298.733" width="102.9" height="25.5118"/>
				<rect x="0" y="285.977" width="102.898" height="25.5118" class="st2"/>
				<text x="40.08" y="301.73" class="st3" v:langID="1033"><v:paragraph v:horizAlign="1"/><v:tabList/>PP 11</text>			</g>
		</g>
		<g id="group56-134" transform="translate(273.094,-54.6289)" v:mID="56" v:groupContext="group">
			<title>Sheet.56</title>
			<g id="shape57-135" v:mID="57" v:groupContext="shape">
				<title>Rectangle.24</title>
				<desc>oui</desc>
				<v:userDefs>
					<v:ud v:nameU="visVersion" v:val="VT0(15):26"/>
				</v:userDefs>
				<v:textBlock v:margins="rect(4,4,4,4)" v:tabSpace="42.5197"/>
				<v:textRect cx="21.2598" cy="298.733" width="42.52" height="25.5118"/>
				<rect x="0" y="285.977" width="42.5197" height="25.5118" class="st2"/>
				<text x="14.85" y="301.73" class="st3" v:langID="1033"><v:paragraph v:horizAlign="1"/><v:tabList/>oui</text>			</g>
			<g id="shape58-138" v:mID="58" v:groupContext="shape" transform="translate(42.5197,0)">
				<title>Rectangle.25</title>
				<desc>oui</desc>
				<v:userDefs>
					<v:ud v:nameU="visVersion" v:val="VT0(15):26"/>
				</v:userDefs>
				<v:textBlock v:margins="rect(4,4,4,4)" v:tabSpace="42.5197"/>
				<v:textRect cx="21.2598" cy="298.733" width="42.52" height="25.5118"/>
				<rect x="0" y="285.977" width="42.5197" height="25.5118" class="st2"/>
				<text x="14.85" y="301.73" class="st3" v:langID="1033"><v:paragraph v:horizAlign="1"/><v:tabList/>oui</text>			</g>
			<g id="shape59-141" v:mID="59" v:groupContext="shape" transform="translate(85.0394,0)">
				<title>Rectangle.26</title>
				<desc>non</desc>
				<v:userDefs>
					<v:ud v:nameU="visVersion" v:val="VT0(15):26"/>
				</v:userDefs>
				<v:textBlock v:margins="rect(4,4,4,4)" v:tabSpace="42.5197"/>
				<v:textRect cx="21.2598" cy="298.733" width="42.52" height="25.5118"/>
				<rect x="0" y="285.977" width="42.5197" height="25.5118" class="st2"/>
				<text x="13.37" y="301.73" class="st3" v:langID="1033"><v:paragraph v:horizAlign="1"/><v:tabList/>non</text>			</g>
			<g id="shape60-144" v:mID="60" v:groupContext="shape" transform="translate(127.559,0)">
				<title>Rectangle.27</title>
				<desc>non</desc>
				<v:userDefs>
					<v:ud v:nameU="visVersion" v:val="VT0(15):26"/>
				</v:userDefs>
				<v:textBlock v:margins="rect(4,4,4,4)" v:tabSpace="42.5197"/>
				<v:textRect cx="21.2598" cy="298.733" width="42.52" height="25.5118"/>
				<rect x="0" y="285.977" width="42.5197" height="25.5118" class="st2"/>
				<text x="13.37" y="301.73" class="st3" v:langID="1033"><v:paragraph v:horizAlign="1"/><v:tabList/>non</text>			</g>
			<g id="shape61-147" v:mID="61" v:groupContext="shape" transform="translate(170.079,0)">
				<title>Rectangle.28</title>
				<desc>PP 6</desc>
				<v:userDefs>
					<v:ud v:nameU="visVersion" v:val="VT0(15):26"/>
				</v:userDefs>
				<v:textBlock v:margins="rect(4,4,4,4)" v:tabSpace="42.5197"/>
				<v:textRect cx="51.4488" cy="298.733" width="102.9" height="25.5118"/>
				<rect x="0" y="285.977" width="102.898" height="25.5118" class="st2"/>
				<text x="42.62" y="301.73" class="st3" v:langID="1033"><v:paragraph v:horizAlign="1"/><v:tabList/>PP 6</text>			</g>
		</g>
		<g id="shape62-150" v:mID="62" v:groupContext="shape" transform="translate(18.75,-120.394)">
			<title>Sheet.62</title>
			<desc>Processus j</desc>
			<v:textBlock v:margins="rect(4,4,4,4)" v:tabSpace="42.5197"/>
			<v:textRect cx="76" cy="301.489" width="152" height="20"/>
			<rect x="0" y="291.489" width="152" height="20" class="st4"/>
			<text x="4" y="305.09" class="st6" v:langID="1033"><v:paragraph/><v:tabList/>Processus j</text>		</g>
		<g id="shape63-153" v:mID="63" v:groupContext="shape" transform="translate(273.094,-102.66)">
			<title>Sheet.63</title>
			<desc>valid</desc>
			<v:textBlock v:margins="rect(4,4,4,4)" v:tabSpace="42.5197"/>
			<v:textRect cx="21.2598" cy="301.489" width="42.52" height="20"/>
			<rect x="0" y="291.489" width="42.5197" height="20" class="st4"/>
			<text x="9.77" y="305.09" class="st5" v:langID="1033"><v:paragraph v:horizAlign="1"/><v:tabList/>valid</text>		</g>
		<g id="shape64-156" v:mID="64" v:groupContext="shape" transform="translate(315.613,-101.322)">
			<title>Sheet.64</title>
			<desc>sup</desc>
			<v:textBlock v:margins="rect(4,4,4,4)" v:tabSpace="42.5197"/>
			<v:textRect cx="21.2598" cy="301.489" width="42.52" height="20"/>
			<rect x="0" y="291.489" width="42.5197" height="20" class="st4"/>
			<text x="12.61" y="305.09" class="st5" v:langID="1033"><v:paragraph v:horizAlign="1"/><v:tabList/>sup</text>		</g>
		<g id="shape65-159" v:mID="65" v:groupContext="shape" transform="translate(352.889,-101.322)">
			<title>Sheet.65</title>
			<desc>write</desc>
			<v:textBlock v:margins="rect(4,4,4,4)" v:tabSpace="42.5197"/>
			<v:textRect cx="26.5039" cy="301.489" width="53.01" height="20"/>
			<rect x="0" y="291.489" width="53.0079" height="20" class="st4"/>
			<text x="13.75" y="305.09" class="st5" v:langID="1033"><v:paragraph v:horizAlign="1"/><v:tabList/>write</text>		</g>
		<g id="shape66-162" v:mID="66" v:groupContext="shape" transform="translate(392.29,-102.66)">
			<title>Sheet.66</title>
			<desc>exec</desc>
			<v:textBlock v:margins="rect(4,4,4,4)" v:tabSpace="42.5197"/>
			<v:textRect cx="31.0394" cy="301.489" width="62.08" height="20"/>
			<rect x="0" y="291.489" width="62.0787" height="20" class="st4"/>
			<text x="19.93" y="305.09" class="st5" v:langID="1033"><v:paragraph v:horizAlign="1"/><v:tabList/>exec</text>		</g>
		<g id="shape67-165" v:mID="67" v:groupContext="shape" transform="translate(468.117,-102.818)">
			<title>Sheet.67</title>
			<desc>address</desc>
			<v:textBlock v:margins="rect(4,4,4,4)" v:tabSpace="42.5197"/>
			<v:textRect cx="26.5039" cy="301.489" width="53.01" height="20"/>
			<rect x="0" y="291.489" width="53.0079" height="20" class="st4"/>
			<text x="7.55" y="305.09" class="st5" v:langID="1033"><v:paragraph v:horizAlign="1"/><v:tabList/>address</text>		</g>
		<g id="shape71-168" v:mID="71" v:groupContext="shape" v:layerMember="0" transform="translate(543.771,-245.968)">
			<title>Dynamic connector</title>
			<path d="M0 311.49 L21.83 311.49 A14.1732 14.1732 0 0 1 36 325.66 L36 407.87 A14.1732 14.1732 -180 0 0 50.17 422.04 L138.2
						 422.04" class="st7"/>
		</g>
		<g id="shape72-174" v:mID="72" v:groupContext="shape" v:layerMember="0" transform="translate(543.771,-220.456)">
			<title>Dynamic connector.72</title>
			<path d="M0 311.49 L27.48 311.49 A14.1732 14.1732 -180 0 0 34.78 309.46 A2.3622 2.3622 0 0 1 37.22 309.46 A14.1732 14.1732
						 -180 0 0 44.52 311.49 L50.17 311.49 A14.1732 14.1732 0 0 1 64.35 325.66 L64.35 342.67 A14.1732 14.1732 -180
						 0 0 78.52 356.84 L138.2 356.84" class="st7"/>
		</g>
		<g id="shape73-179" v:mID="73" v:groupContext="shape" v:layerMember="0" transform="translate(543.771,-194.944)">
			<title>Dynamic connector.73</title>
			<path d="M0 311.49 L27.48 311.49 A14.1732 14.1732 -180 0 0 34.78 309.46 A2.3622 2.3622 0 0 1 37.22 309.46 A14.1732 14.1732
						 -180 0 0 44.52 311.49 L55.83 311.49 A14.1732 14.1732 -180 0 0 63.13 309.46 A2.3622 2.3622 0 0 1 65.56 309.46
						 A14.1732 14.1732 -180 0 0 72.86 311.49 L88.44 311.49 A9.92128 9.92128 -180 0 0 98.36 301.57 L98.36 301.57
						 A9.92128 9.92128 0 0 1 108.28 291.65 L138.2 291.65" class="st7"/>
		</g>
		<g id="shape74-184" v:mID="74" v:groupContext="shape" v:layerMember="0" transform="translate(546.07,-92.8967)">
			<title>Dynamic connector.74</title>
			<path d="M0 311.49 L25.18 311.49 A14.1732 14.1732 -180 0 0 32.48 309.46 A2.3622 2.3622 0 0 1 34.92 309.46 A14.1732 14.1732
						 -180 0 0 42.22 311.49 L53.54 311.49 A8.50394 8.50394 0 0 1 62.05 319.99 L62.05 319.99 A8.50394 8.50394 -180
						 0 0 70.55 328.5 L135.9 328.5" class="st7"/>
		</g>
		<g id="shape75-189" v:mID="75" v:groupContext="shape" v:layerMember="0" transform="translate(546.07,-67.3848)">
			<title>Dynamic connector.75</title>
			<path d="M0 311.49 L19.53 311.49 A14.1732 14.1732 -180 0 0 33.7 297.32 L33.7 257.63 A14.1732 14.1732 0 0 1 47.87 243.46
						 L135.9 243.46" class="st7"/>
		</g>
		<g id="shape76-194" v:mID="76" v:groupContext="shape" v:layerMember="0" transform="translate(546.07,-46.125)">
			<title>Dynamic connector.76</title>
			<path d="M0 315.74 L7.8 315.74 A2.83463 2.83463 0 0 1 10.63 318.58 L10.63 318.58 A2.83463 2.83463 -180 0 0 13.46 321.41
						 L135.9 321.41" class="st7"/>
		</g>
		<g id="shape86-199" v:mID="86" v:groupContext="shape" transform="translate(38.0571,-190.668)">
			<title>Rectangle.86</title>
			<desc>VP2</desc>
			<v:userDefs>
				<v:ud v:nameU="visVersion" v:val="VT0(15):26"/>
			</v:userDefs>
			<v:textBlock v:margins="rect(4,4,4,4)" v:tabSpace="42.5197"/>
			<v:textRect cx="56.6929" cy="301.568" width="113.39" height="19.8425"/>
			<rect x="0" y="291.647" width="113.386" height="19.8425" class="st2"/>
			<text x="48.74" y="304.57" class="st3" v:langID="1033"><v:paragraph v:horizAlign="1"/><v:tabList/>VP2</text>		</g>
		<g id="shape87-202" v:mID="87" v:groupContext="shape" transform="translate(38.0571,-210.51)">
			<title>Rectangle.87</title>
			<desc>VP1</desc>
			<v:userDefs>
				<v:ud v:nameU="visVersion" v:val="VT0(15):26"/>
			</v:userDefs>
			<v:textBlock v:margins="rect(4,4,4,4)" v:tabSpace="42.5197"/>
			<v:textRect cx="56.6929" cy="301.568" width="113.39" height="19.8425"/>
			<rect x="0" y="291.647" width="113.386" height="19.8425" class="st2"/>
			<text x="48.74" y="304.57" class="st3" v:langID="1033"><v:paragraph v:horizAlign="1"/><v:tabList/>VP1</text>		</g>
		<g id="shape88-205" v:mID="88" v:groupContext="shape" transform="translate(38.0571,-230.353)">
			<title>Rectangle.88</title>
			<desc>VP0</desc>
			<v:userDefs>
				<v:ud v:nameU="visVersion" v:val="VT0(15):26"/>
			</v:userDefs>
			<v:textBlock v:margins="rect(4,4,4,4)" v:tabSpace="42.5197"/>
			<v:textRect cx="56.6929" cy="301.568" width="113.39" height="19.8425"/>
			<rect x="0" y="291.647" width="113.386" height="19.8425" class="st2"/>
			<text x="48.74" y="304.57" class="st3" v:langID="1033"><v:paragraph v:horizAlign="1"/><v:tabList/>VP0</text>		</g>
		<g id="shape89-208" v:mID="89" v:groupContext="shape" transform="translate(18.75,-251.534)">
			<title>Sheet.89</title>
			<desc>Adresses virtuelles</desc>
			<v:textBlock v:margins="rect(4,4,4,4)" v:tabSpace="42.5197"/>
			<v:textRect cx="76" cy="301.489" width="152" height="20"/>
			<rect x="0" y="291.489" width="152" height="20" class="st4"/>
			<text x="30.5" y="305.09" class="st5" v:langID="1033"><v:paragraph v:horizAlign="1"/><v:tabList/>Adresses virtuelles</text>		</g>
		<g id="shape90-211" v:mID="90" v:groupContext="shape" transform="translate(38.0571,-38.1893)">
			<title>Rectangle.90</title>
			<desc>VP2</desc>
			<v:userDefs>
				<v:ud v:nameU="visVersion" v:val="VT0(15):26"/>
			</v:userDefs>
			<v:textBlock v:margins="rect(4,4,4,4)" v:tabSpace="42.5197"/>
			<v:textRect cx="56.6929" cy="301.568" width="113.39" height="19.8425"/>
			<rect x="0" y="291.647" width="113.386" height="19.8425" class="st2"/>
			<text x="48.74" y="304.57" class="st3" v:langID="1033"><v:paragraph v:horizAlign="1"/><v:tabList/>VP2</text>		</g>
		<g id="shape91-214" v:mID="91" v:groupContext="shape" transform="translate(38.0571,-58.0318)">
			<title>Rectangle.91</title>
			<desc>VP1</desc>
			<v:userDefs>
				<v:ud v:nameU="visVersion" v:val="VT0(15):26"/>
			</v:userDefs>
			<v:textBlock v:margins="rect(4,4,4,4)" v:tabSpace="42.5197"/>
			<v:textRect cx="56.6929" cy="301.568" width="113.39" height="19.8425"/>
			<rect x="0" y="291.647" width="113.386" height="19.8425" class="st2"/>
			<text x="48.74" y="304.57" class="st3" v:langID="1033"><v:paragraph v:horizAlign="1"/><v:tabList/>VP1</text>		</g>
		<g id="shape92-217" v:mID="92" v:groupContext="shape" transform="translate(38.0571,-77.8743)">
			<title>Rectangle.92</title>
			<desc>VP0</desc>
			<v:userDefs>
				<v:ud v:nameU="visVersion" v:val="VT0(15):26"/>
			</v:userDefs>
			<v:textBlock v:margins="rect(4,4,4,4)" v:tabSpace="42.5197"/>
			<v:textRect cx="56.6929" cy="301.568" width="113.39" height="19.8425"/>
			<rect x="0" y="291.647" width="113.386" height="19.8425" class="st2"/>
			<text x="48.74" y="304.57" class="st3" v:langID="1033"><v:paragraph v:horizAlign="1"/><v:tabList/>VP0</text>		</g>
		<g id="shape93-220" v:mID="93" v:groupContext="shape" transform="translate(18.75,-99.0554)">
			<title>Sheet.93</title>
			<desc>Adresses virtuelles</desc>
			<v:textBlock v:margins="rect(4,4,4,4)" v:tabSpace="42.5197"/>
			<v:textRect cx="76" cy="301.489" width="152" height="20"/>
			<rect x="0" y="291.489" width="152" height="20" class="st4"/>
			<text x="30.5" y="305.09" class="st5" v:langID="1033"><v:paragraph v:horizAlign="1"/><v:tabList/>Adresses virtuelles</text>		</g>
		<g id="shape94-223" v:mID="94" v:groupContext="shape" v:layerMember="0" transform="translate(151.443,-236.034)">
			<title>Dynamic connector.94</title>
			<path d="M0 307.25 L113.84 301.82" class="st7"/>
		</g>
		<g id="shape95-228" v:mID="95" v:groupContext="shape" v:layerMember="0" transform="translate(151.443,-213.357)">
			<title>Dynamic connector.95</title>
			<path d="M0 304.41 L113.84 304.39" class="st7"/>
		</g>
		<g id="shape96-233" v:mID="96" v:groupContext="shape" v:layerMember="0" transform="translate(151.443,-204.853)">
			<title>Dynamic connector.96</title>
			<path d="M0 315.75 L113.84 321.14" class="st7"/>
		</g>
		<g id="shape97-238" v:mID="97" v:groupContext="shape" v:layerMember="0" transform="translate(151.443,-52.0784)">
			<title>Dynamic connector.97</title>
			<path d="M0 315.46 L116.14 321.41" class="st7"/>
		</g>
		<g id="shape98-243" v:mID="98" v:groupContext="shape" v:layerMember="0" transform="translate(151.443,-74.7556)">
			<title>Dynamic connector.98</title>
			<path d="M0 318.29 L116.14 318.83" class="st7"/>
		</g>
		<g id="shape99-248" v:mID="99" v:groupContext="shape" v:layerMember="0" transform="translate(151.443,-83.2595)">
			<title>Dynamic connector.99</title>
			<path d="M0 306.95 L116.14 302.08" class="st7"/>
		</g>
	</g>
</svg>
