<?xml version="1.0" encoding="UTF-8" standalone="no"?>
<!DOCTYPE svg PUBLIC "-//W3C//DTD SVG 1.1//EN" "http://www.w3.org/Graphics/SVG/1.1/DTD/svg11.dtd">
<!-- Generated by Microsoft Visio, SVG Export preprocessing.svg Page-1 -->
<svg xmlns="http://www.w3.org/2000/svg" xmlns:xlink="http://www.w3.org/1999/xlink" xmlns:ev="http://www.w3.org/2001/xml-events"
		xmlns:v="http://schemas.microsoft.com/visio/2003/SVGExtensions/" width="8.62065in" height="2.5242in"
		viewBox="0 0 620.687 181.742" xml:space="preserve" color-interpolation-filters="sRGB" class="st12">
	<v:documentProperties v:langID="1036" v:metric="true" v:viewMarkup="false">
		<v:userDefs>
			<v:ud v:nameU="msvSubprocessMaster" v:prompt="" v:val="VT4(Rectangle)"/>
			<v:ud v:nameU="msvNoAutoConnect" v:val="VT0(1):26"/>
		</v:userDefs>
	</v:documentProperties>

	<style type="text/css">
	<![CDATA[
		.st1 {fill:#ffffff;stroke:none;stroke-linecap:butt;stroke-width:0.75}
		.st2 {fill:url(#grad10-7);stroke:none;stroke-linecap:butt;stroke-width:0.75}
		.st3 {fill:#a6a6a6;stroke:none;stroke-linecap:butt;stroke-width:0.75}
		.st4 {fill:none;stroke:#000000;stroke-linecap:round;stroke-linejoin:round;stroke-width:0.75}
		.st5 {fill:url(#grad0-21);stroke:none;stroke-linecap:butt;stroke-width:0.75}
		.st6 {fill:#000000;font-family:Calibri;font-size:1.00001em}
		.st7 {fill:#ffffff;stroke:#000000;stroke-linecap:round;stroke-linejoin:round;stroke-width:0.75}
		.st8 {fill:#000000;font-family:Calibri;font-size:0.833336em}
		.st9 {font-size:1em;font-weight:bold}
		.st10 {marker-end:url(#mrkr4-124);stroke:#000000;stroke-linecap:round;stroke-linejoin:round;stroke-width:0.237638}
		.st11 {fill:#000000;fill-opacity:1;stroke:#000000;stroke-opacity:1;stroke-width:0.086174404659928}
		.st12 {fill:none;fill-rule:evenodd;font-size:12px;overflow:visible;stroke-linecap:square;stroke-miterlimit:3}
	]]>
	</style>

	<defs id="Patterns_And_Gradients">
		<pattern id="grad10-7" x="0" y="0" width="1" height="1" patternContentUnits="objectBoundingBox">
			<path d="M 0.5 0.5 L 0 0 L 0 1 z" style="fill:url(#grad0-8)"/>
			<path d="M 0.5 0.5 L 1 0 L 1 1 z" style="fill:url(#grad0-9)"/>
			<path d="M 0.5 0.5 L 0 0 L 1 0 z" style="fill:url(#grad0-10)"/>
			<path d="M 0.5 0.5 L 0 1 L 1 1 z" style="fill:url(#grad0-11)"/>
		</pattern>
		<linearGradient id="grad0-8" x1="0" y1="0" x2="1" y2="0" gradientTransform="rotate(180 0.5 0.5)">
			<stop offset="0" stop-color="#ffffff" stop-opacity="1"/>
			<stop offset="1" stop-color="#ffffff" stop-opacity="1"/>
		</linearGradient>
		<linearGradient id="grad0-9" x1="0" y1="0" x2="1" y2="0" gradientTransform="rotate(360 0.5 0.5)">
			<stop offset="0" stop-color="#ffffff" stop-opacity="1"/>
			<stop offset="1" stop-color="#ffffff" stop-opacity="1"/>
		</linearGradient>
		<linearGradient id="grad0-10" x1="0" y1="0" x2="1" y2="0" gradientTransform="rotate(270 0.5 0.5)">
			<stop offset="0" stop-color="#ffffff" stop-opacity="1"/>
			<stop offset="1" stop-color="#ffffff" stop-opacity="1"/>
		</linearGradient>
		<linearGradient id="grad0-11" x1="0" y1="0" x2="1" y2="0" gradientTransform="rotate(90 0.5 0.5)">
			<stop offset="0" stop-color="#ffffff" stop-opacity="1"/>
			<stop offset="1" stop-color="#ffffff" stop-opacity="1"/>
		</linearGradient>
		<linearGradient id="grad0-21" x1="0" y1="0" x2="1" y2="0" gradientTransform="rotate(90 0.5 0.5)">
			<stop offset="0" stop-color="#ffffff" stop-opacity="1"/>
			<stop offset="1" stop-color="#a4a4a4" stop-opacity="1"/>
		</linearGradient>
	</defs>
	<defs id="Markers">
		<g id="lend4">
			<path d="M 2 1 L 0 0 L 2 -1 L 2 1 " style="stroke:none"/>
		</g>
		<marker id="mrkr4-124" class="st11" v:arrowType="4" v:arrowSize="2" v:setback="23.2087" refX="-23.208747514911"
				orient="auto" markerUnits="strokeWidth" overflow="visible">
			<use xlink:href="#lend4" transform="scale(-11.604373757455,-11.604373757455) "/>
		</marker>
	</defs>
	<g v:mID="0" v:index="1" v:groupContext="foregroundPage">
		<v:userDefs>
			<v:ud v:nameU="msvThemeOrder" v:val="VT0(0):26"/>
		</v:userDefs>
		<title>Page 1</title>
		<v:pageProperties v:drawingScale="0.0393701" v:pageScale="0.0393701" v:drawingUnits="24" v:shadowOffsetX="8.50394"
				v:shadowOffsetY="-8.50394"/>
		<v:layer v:name="Diagramme de flux" v:index="0"/>
		<v:layer v:name="Lien" v:index="1"/>
		<g id="group14-1" transform="translate(149.761,-91.1993)" v:mID="14" v:groupContext="group">
			<v:userDefs>
				<v:ud v:nameU="visVersion" v:prompt="" v:val="VT0(15):26"/>
			</v:userDefs>
			<title>Document.14</title>
			<desc>.h</desc>
			<g id="shape15-2" v:mID="15" v:groupContext="shape" transform="translate(3.56517,-6.0201)">
				<title>Sheet.15</title>
				<path d="M48.52 136.36 L36.12 124.2 L0 124.22 L0 181.74 L48.5 181.74 L48.5 138.15 L48.52 138.15 L48.52 136.36 Z"
						class="st1"/>
			</g>
			<g id="shape16-4" v:mID="16" v:groupContext="shape" transform="translate(3.61376,-5.9996)">
				<title>Sheet.16</title>
				<path d="M36.07 124.24 L0 124.24 L0 181.74 L48.41 181.74 L48.41 136.34 L36.07 124.24 Z" class="st2"/>
			</g>
			<g id="shape17-12" v:mID="17" v:groupContext="shape" transform="translate(38.8615,-51.0136)">
				<title>Sheet.17</title>
				<path d="M13.16 181.35 L0.82 169.26 L0 169.26 L0 181.74 L13.16 181.74 L13.16 181.35 Z" class="st3"/>
			</g>
			<g id="shape18-14" v:mID="18" v:groupContext="shape" transform="translate(39.5616,-51.713)">
				<title>Sheet.18</title>
				<path d="M0 181.74 L11.73 181.74 L0 170.36 L0 181.74 Z" class="st1"/>
			</g>
			<g id="shape19-16" v:mID="19" v:groupContext="shape" transform="translate(3.56517,-6.0239)">
				<title>Sheet.19</title>
				<path d="M48.52 136.36 L36.12 124.2 L0 124.22 L0 181.74 L48.5 181.74 L48.5 138.15 L48.52 138.15 L48.52 136.36 Z"
						class="st4"/>
			</g>
			<g id="shape20-18" v:mID="20" v:groupContext="shape" transform="translate(8.4181,-49.5361)">
				<title>Sheet.20</title>
				<rect x="0" y="181.217" width="22.4661" height="0.524899" class="st5"/>
			</g>
			<g id="shape21-22" v:mID="21" v:groupContext="shape" transform="translate(8.4181,-43.4441)">
				<title>Sheet.21</title>
				<rect x="0" y="181.217" width="36.9358" height="0.524899" class="st5"/>
			</g>
			<g id="shape22-25" v:mID="22" v:groupContext="shape" transform="translate(8.4181,-37.7321)">
				<title>Sheet.22</title>
				<rect x="0" y="181.218" width="36.9358" height="0.524163" class="st5"/>
			</g>
			<g id="shape23-28" v:mID="23" v:groupContext="shape" transform="translate(8.4181,-32.02)">
				<title>Sheet.23</title>
				<rect x="0" y="181.217" width="36.9358" height="0.524899" class="st5"/>
			</g>
			<g id="shape24-31" v:mID="24" v:groupContext="shape" transform="translate(8.4181,-26.308)">
				<title>Sheet.24</title>
				<rect x="0" y="181.217" width="36.9358" height="0.524899" class="st5"/>
			</g>
			<g id="shape25-34" v:mID="25" v:groupContext="shape" transform="translate(8.4181,-20.5967)">
				<title>Sheet.25</title>
				<rect x="0" y="181.217" width="36.9358" height="0.524899" class="st5"/>
			</g>
			<g id="shape26-37" v:mID="26" v:groupContext="shape" transform="translate(8.4181,-14.8853)">
				<title>Sheet.26</title>
				<rect x="0" y="181.218" width="36.9358" height="0.524163" class="st5"/>
			</g>
			<g id="shape14-40" v:mID="14" v:groupContext="groupContent">
				<v:textBlock v:margins="rect(4,4,4,4)" v:tabSpace="42.5197"/>
				<v:textRect cx="28.3465" cy="148.92" width="20.06" height="22.4037"/>
				<text x="23.68" y="152.52" class="st6" v:langID="1033"><v:paragraph v:horizAlign="1"/><v:tabList/>.h</text>			</g>
		</g>
		<g id="group27-42" transform="translate(149.761,-18.375)" v:mID="27" v:groupContext="group">
			<v:userDefs>
				<v:ud v:nameU="visVersion" v:prompt="" v:val="VT0(15):26"/>
			</v:userDefs>
			<title>Document.27</title>
			<desc>.c</desc>
			<g id="shape28-43" v:mID="28" v:groupContext="shape" transform="translate(3.56517,-6.0201)">
				<title>Sheet.28</title>
				<path d="M48.52 136.36 L36.12 124.2 L0 124.22 L0 181.74 L48.5 181.74 L48.5 138.15 L48.52 138.15 L48.52 136.36 Z"
						class="st1"/>
			</g>
			<g id="shape29-45" v:mID="29" v:groupContext="shape" transform="translate(3.61376,-5.9996)">
				<title>Sheet.29</title>
				<path d="M36.07 124.24 L0 124.24 L0 181.74 L48.41 181.74 L48.41 136.34 L36.07 124.24 Z" class="st2"/>
			</g>
			<g id="shape30-48" v:mID="30" v:groupContext="shape" transform="translate(38.8615,-51.0136)">
				<title>Sheet.30</title>
				<path d="M13.16 181.35 L0.82 169.26 L0 169.26 L0 181.74 L13.16 181.74 L13.16 181.35 Z" class="st3"/>
			</g>
			<g id="shape31-50" v:mID="31" v:groupContext="shape" transform="translate(39.5616,-51.713)">
				<title>Sheet.31</title>
				<path d="M0 181.74 L11.73 181.74 L0 170.36 L0 181.74 Z" class="st1"/>
			</g>
			<g id="shape32-52" v:mID="32" v:groupContext="shape" transform="translate(3.56517,-6.0239)">
				<title>Sheet.32</title>
				<path d="M48.52 136.36 L36.12 124.2 L0 124.22 L0 181.74 L48.5 181.74 L48.5 138.15 L48.52 138.15 L48.52 136.36 Z"
						class="st4"/>
			</g>
			<g id="shape33-54" v:mID="33" v:groupContext="shape" transform="translate(8.4181,-49.5361)">
				<title>Sheet.33</title>
				<rect x="0" y="181.217" width="22.4661" height="0.524899" class="st5"/>
			</g>
			<g id="shape34-57" v:mID="34" v:groupContext="shape" transform="translate(8.4181,-43.4441)">
				<title>Sheet.34</title>
				<rect x="0" y="181.217" width="36.9358" height="0.524899" class="st5"/>
			</g>
			<g id="shape35-60" v:mID="35" v:groupContext="shape" transform="translate(8.4181,-37.7321)">
				<title>Sheet.35</title>
				<rect x="0" y="181.218" width="36.9358" height="0.524163" class="st5"/>
			</g>
			<g id="shape36-63" v:mID="36" v:groupContext="shape" transform="translate(8.4181,-32.02)">
				<title>Sheet.36</title>
				<rect x="0" y="181.217" width="36.9358" height="0.524899" class="st5"/>
			</g>
			<g id="shape37-66" v:mID="37" v:groupContext="shape" transform="translate(8.4181,-26.308)">
				<title>Sheet.37</title>
				<rect x="0" y="181.217" width="36.9358" height="0.524899" class="st5"/>
			</g>
			<g id="shape38-69" v:mID="38" v:groupContext="shape" transform="translate(8.4181,-20.5967)">
				<title>Sheet.38</title>
				<rect x="0" y="181.217" width="36.9358" height="0.524899" class="st5"/>
			</g>
			<g id="shape39-72" v:mID="39" v:groupContext="shape" transform="translate(8.4181,-14.8853)">
				<title>Sheet.39</title>
				<rect x="0" y="181.218" width="36.9358" height="0.524163" class="st5"/>
			</g>
			<g id="shape27-75" v:mID="27" v:groupContext="groupContent">
				<v:textBlock v:margins="rect(4,4,4,4)" v:tabSpace="42.5197"/>
				<v:textRect cx="28.3465" cy="148.92" width="18.82" height="22.4037"/>
				<text x="24.29" y="152.52" class="st6" v:langID="1033"><v:paragraph v:horizAlign="1"/><v:tabList/>.c</text>			</g>
		</g>
		<g id="group44-77" transform="translate(261.058,-60.615)" v:mID="44" v:groupContext="group">
			<title>Sheet.44</title>
			<g id="shape43-78" v:mID="43" v:groupContext="shape">
				<title>Rectangle</title>
				<desc>Pré-processeur gcc -E</desc>
				<v:userDefs>
					<v:ud v:nameU="visVersion" v:val="VT0(15):26"/>
				</v:userDefs>
				<v:textBlock v:margins="rect(4,4,4,4)" v:tabSpace="42.5197"/>
				<v:textRect cx="46.3987" cy="157.125" width="92.8" height="49.2333"/>
				<rect x="0" y="132.509" width="92.7973" height="49.2333" class="st7"/>
				<text x="15.68" y="154.13" class="st8" v:langID="1033"><v:paragraph v:horizAlign="1"/><v:tabList/>Pré-processeur<v:newlineChar/><tspan
							x="34.74" dy="1.2em" class="st9">gcc </tspan><tspan class="st9">-</tspan><tspan class="st9">E</tspan></text>			</g>
		</g>
		<g id="group45-84" transform="translate(409.504,-50.4513)" v:mID="45" v:groupContext="group">
			<v:userDefs>
				<v:ud v:nameU="visVersion" v:prompt="" v:val="VT0(15):26"/>
			</v:userDefs>
			<title>Document.45</title>
			<desc>.i</desc>
			<g id="shape46-85" v:mID="46" v:groupContext="shape" transform="translate(3.56517,-6.0201)">
				<title>Sheet.46</title>
				<path d="M48.52 136.36 L36.12 124.2 L0 124.22 L0 181.74 L48.5 181.74 L48.5 138.15 L48.52 138.15 L48.52 136.36 Z"
						class="st1"/>
			</g>
			<g id="shape47-87" v:mID="47" v:groupContext="shape" transform="translate(3.61376,-5.9996)">
				<title>Sheet.47</title>
				<path d="M36.07 124.24 L0 124.24 L0 181.74 L48.41 181.74 L48.41 136.34 L36.07 124.24 Z" class="st2"/>
			</g>
			<g id="shape48-90" v:mID="48" v:groupContext="shape" transform="translate(38.8615,-51.0136)">
				<title>Sheet.48</title>
				<path d="M13.16 181.35 L0.82 169.26 L0 169.26 L0 181.74 L13.16 181.74 L13.16 181.35 Z" class="st3"/>
			</g>
			<g id="shape49-92" v:mID="49" v:groupContext="shape" transform="translate(39.5616,-51.713)">
				<title>Sheet.49</title>
				<path d="M0 181.74 L11.73 181.74 L0 170.36 L0 181.74 Z" class="st1"/>
			</g>
			<g id="shape50-94" v:mID="50" v:groupContext="shape" transform="translate(3.56517,-6.0239)">
				<title>Sheet.50</title>
				<path d="M48.52 136.36 L36.12 124.2 L0 124.22 L0 181.74 L48.5 181.74 L48.5 138.15 L48.52 138.15 L48.52 136.36 Z"
						class="st4"/>
			</g>
			<g id="shape51-96" v:mID="51" v:groupContext="shape" transform="translate(8.4181,-49.5361)">
				<title>Sheet.51</title>
				<rect x="0" y="181.217" width="22.4661" height="0.524899" class="st5"/>
			</g>
			<g id="shape52-99" v:mID="52" v:groupContext="shape" transform="translate(8.4181,-43.4441)">
				<title>Sheet.52</title>
				<rect x="0" y="181.217" width="36.9358" height="0.524899" class="st5"/>
			</g>
			<g id="shape53-102" v:mID="53" v:groupContext="shape" transform="translate(8.4181,-37.7321)">
				<title>Sheet.53</title>
				<rect x="0" y="181.218" width="36.9358" height="0.524163" class="st5"/>
			</g>
			<g id="shape54-105" v:mID="54" v:groupContext="shape" transform="translate(8.4181,-32.02)">
				<title>Sheet.54</title>
				<rect x="0" y="181.217" width="36.9358" height="0.524899" class="st5"/>
			</g>
			<g id="shape55-108" v:mID="55" v:groupContext="shape" transform="translate(8.4181,-26.308)">
				<title>Sheet.55</title>
				<rect x="0" y="181.217" width="36.9358" height="0.524899" class="st5"/>
			</g>
			<g id="shape56-111" v:mID="56" v:groupContext="shape" transform="translate(8.4181,-20.5967)">
				<title>Sheet.56</title>
				<rect x="0" y="181.217" width="36.9358" height="0.524899" class="st5"/>
			</g>
			<g id="shape57-114" v:mID="57" v:groupContext="shape" transform="translate(8.4181,-14.8853)">
				<title>Sheet.57</title>
				<rect x="0" y="181.218" width="36.9358" height="0.524163" class="st5"/>
			</g>
			<g id="shape45-117" v:mID="45" v:groupContext="groupContent">
				<v:textBlock v:margins="rect(4,4,4,4)" v:tabSpace="42.5197"/>
				<v:textRect cx="28.3465" cy="148.92" width="16.5" height="22.4037"/>
				<text x="25.45" y="152.52" class="st6" v:langID="1033"><v:paragraph v:horizAlign="1"/><v:tabList/>.i</text>			</g>
		</g>
		<g id="shape58-119" v:mID="58" v:groupContext="shape" v:layerMember="1" transform="translate(201.828,-125.98)">
			<title>Lien dynamique</title>
			<path d="M0 181.74 L14.21 181.74 L14.21 222.49 L53.71 222.49" class="st10"/>
		</g>
		<g id="shape59-125" v:mID="59" v:groupContext="shape" v:layerMember="1" transform="translate(201.828,-51.8033)">
			<title>Lien dynamique.59</title>
			<path d="M0 181.74 L14.21 181.74 L14.21 148.31 L53.71 148.31" class="st10"/>
		</g>
		<g id="shape60-130" v:mID="60" v:groupContext="shape" v:layerMember="1" transform="translate(353.855,-78.145)">
			<title>Lien dynamique.60</title>
			<path d="M0 174.66 L53.7 174.66" class="st10"/>
		</g>
	</g>
</svg>
