<?xml version="1.0" encoding="UTF-8" standalone="no"?>
<!DOCTYPE svg PUBLIC "-//W3C//DTD SVG 1.1//EN" "http://www.w3.org/Graphics/SVG/1.1/DTD/svg11.dtd">
<!-- Generated by Microsoft Visio, SVG Export program.svg Page-1 -->
<svg xmlns="http://www.w3.org/2000/svg" xmlns:xlink="http://www.w3.org/1999/xlink" xmlns:ev="http://www.w3.org/2001/xml-events"
		xmlns:v="http://schemas.microsoft.com/visio/2003/SVGExtensions/" width="8.83649in" height="4.3619in"
		viewBox="0 0 636.227 314.057" xml:space="preserve" color-interpolation-filters="sRGB" class="st9">
	<v:documentProperties v:langID="1036" v:metric="true" v:viewMarkup="false">
		<v:userDefs>
			<v:ud v:nameU="msvSubprocessMaster" v:prompt="" v:val="VT4(Rectangle)"/>
			<v:ud v:nameU="msvNoAutoConnect" v:val="VT0(1):26"/>
		</v:userDefs>
	</v:documentProperties>

	<style type="text/css">
	<![CDATA[
		.st1 {fill:#ffffff;stroke:#000000;stroke-linecap:round;stroke-linejoin:round;stroke-width:0.75}
		.st2 {fill:#000000;font-family:Calibri;font-size:0.833336em}
		.st3 {marker-end:url(#mrkr4-11);stroke:#000000;stroke-linecap:round;stroke-linejoin:round;stroke-width:0.237638}
		.st4 {fill:#000000;fill-opacity:1;stroke:#000000;stroke-opacity:1;stroke-width:0.086174404659928}
		.st5 {fill:none;stroke:none;stroke-linecap:round;stroke-linejoin:round;stroke-width:0.75}
		.st6 {fill:#000000;font-family:Calibri;font-size:1.00001em}
		.st7 {font-size:1em}
		.st8 {marker-end:url(#mrkr13-61);stroke:#000000;stroke-linecap:round;stroke-linejoin:round;stroke-width:0.237638}
		.st9 {fill:none;fill-rule:evenodd;font-size:12px;overflow:visible;stroke-linecap:square;stroke-miterlimit:3}
	]]>
	</style>

	<defs id="Markers">
		<g id="lend4">
			<path d="M 2 1 L 0 0 L 2 -1 L 2 1 " style="stroke:none"/>
		</g>
		<marker id="mrkr4-11" class="st4" v:arrowType="4" v:arrowSize="2" v:setback="23.2087" refX="-23.208747514911" orient="auto"
				markerUnits="strokeWidth" overflow="visible">
			<use xlink:href="#lend4" transform="scale(-11.604373757455,-11.604373757455) "/>
		</marker>
		<g id="lend13">
			<path d="M 3 1 L 0 0 L 3 -1 L 3 1 " style="stroke:none"/>
		</g>
		<marker id="mrkr13-61" class="st4" v:arrowType="13" v:arrowSize="2" v:setback="33.2982" refX="-33.298210735586"
				orient="auto" markerUnits="strokeWidth" overflow="visible">
			<use xlink:href="#lend13" transform="scale(-11.604373757455,-11.604373757455) "/>
		</marker>
	</defs>
	<g v:mID="0" v:index="1" v:groupContext="foregroundPage">
		<v:userDefs>
			<v:ud v:nameU="msvThemeOrder" v:val="VT0(0):26"/>
		</v:userDefs>
		<title>Page 1</title>
		<v:pageProperties v:drawingScale="0.0393701" v:pageScale="0.0393701" v:drawingUnits="24" v:shadowOffsetX="8.50394"
				v:shadowOffsetY="-8.50394"/>
		<v:layer v:name="Lien" v:index="0"/>
		<g id="shape1-1" v:mID="1" v:groupContext="shape" transform="translate(206.828,-129.776)">
			<title>Rectangle</title>
			<desc>Programme</desc>
			<v:userDefs>
				<v:ud v:nameU="visVersion" v:val="VT0(15):26"/>
			</v:userDefs>
			<v:textBlock v:margins="rect(4,4,4,4)" v:tabSpace="42.5197"/>
			<v:textRect cx="63.7795" cy="278.624" width="127.56" height="70.8661"/>
			<rect x="0" y="243.191" width="127.559" height="70.8661" class="st1"/>
			<text x="39.85" y="281.62" class="st2" v:langID="1033"><v:paragraph v:horizAlign="1"/><v:tabList/>Programme</text>		</g>
		<g id="shape2-4" v:mID="2" v:groupContext="shape" transform="translate(81.1342,-151.969)">
			<title>Cercle</title>
			<v:userDefs>
				<v:ud v:nameU="visVersion" v:val="VT0(15):26"/>
			</v:userDefs>
			<path d="M0 300.82 A13.2408 13.2408 0 1 1 26.48 300.82 A13.2408 13.2408 0 0 1 0 300.82 Z" class="st1"/>
		</g>
		<g id="shape3-6" v:mID="3" v:groupContext="shape" v:layerMember="0" transform="translate(107.616,-158.123)">
			<title>Lien dynamique</title>
			<path d="M0 306.97 L93.7 306.97" class="st3"/>
		</g>
		<g id="shape4-12" v:mID="4" v:groupContext="shape" transform="translate(433.6,-170.924)">
			<title>Cercle.4</title>
			<v:userDefs>
				<v:ud v:nameU="visVersion" v:val="VT0(15):26"/>
			</v:userDefs>
			<path d="M0 300.82 A13.2408 13.2408 0 1 1 26.48 300.82 A13.2408 13.2408 0 0 1 0 300.82 Z" class="st1"/>
		</g>
		<g id="shape5-14" v:mID="5" v:groupContext="shape" v:layerMember="0" transform="translate(334.387,-191.27)">
			<title>Lien dynamique.5</title>
			<path d="M0 321.13 L10.63 321.13 L10.63 321.16 L93.7 321.16" class="st3"/>
		</g>
		<g id="shape6-19" v:mID="6" v:groupContext="shape" transform="translate(227.462,-243.162)">
			<title>Cercle.6</title>
			<v:userDefs>
				<v:ud v:nameU="visVersion" v:val="VT0(15):26"/>
			</v:userDefs>
			<path d="M0 300.82 A13.2408 13.2408 0 1 1 26.48 300.82 A13.2408 13.2408 0 0 1 0 300.82 Z" class="st1"/>
		</g>
		<g id="shape7-21" v:mID="7" v:groupContext="shape" transform="translate(292.614,-243.162)">
			<title>Cercle.7</title>
			<v:userDefs>
				<v:ud v:nameU="visVersion" v:val="VT0(15):26"/>
			</v:userDefs>
			<path d="M0 300.82 A13.2408 13.2408 0 1 1 26.48 300.82 A13.2408 13.2408 0 0 1 0 300.82 Z" class="st1"/>
		</g>
		<g id="shape8-23" v:mID="8" v:groupContext="shape" v:layerMember="0" transform="translate(233.687,-243.162)">
			<title>Lien dynamique.8</title>
			<path d="M7.02 314.06 L7.02 324.69 L7.16 324.69 L7.16 351.06" class="st3"/>
		</g>
		<g id="shape9-28" v:mID="9" v:groupContext="shape" v:layerMember="0" transform="translate(298.861,-243.162)">
			<title>Lien dynamique.9</title>
			<path d="M6.99 314.06 L6.99 324.69 L7.18 324.69 L7.18 351.06" class="st3"/>
		</g>
		<g id="shape10-33" v:mID="10" v:groupContext="shape" transform="translate(18.375,-117.468)">
			<title>Sheet.10</title>
			<desc>Entrée standard (STDIN)</desc>
			<v:textBlock v:margins="rect(4,4,4,4)" v:tabSpace="42.5197"/>
			<v:textRect cx="76" cy="300.816" width="152" height="26.4816"/>
			<rect x="0" y="287.575" width="152" height="26.4816" class="st5"/>
			<text x="36.84" y="297.22" class="st6" v:langID="1033"><v:paragraph v:horizAlign="1"/><v:tabList/>Entrée standard<v:lf/><tspan
						x="57.6" dy="1.2em" class="st7">(STDIN)</tspan></text>		</g>
		<g id="shape12-37" v:mID="12" v:groupContext="shape" transform="translate(465.852,-174.418)">
			<title>Sheet.12</title>
			<desc>Sortie standard (STDOUT)</desc>
			<v:textBlock v:margins="rect(4,4,4,4)" v:tabSpace="42.5197"/>
			<v:textRect cx="76" cy="304.057" width="152" height="20"/>
			<rect x="0" y="294.057" width="152" height="20" class="st5"/>
			<text x="4" y="307.66" class="st6" v:langID="1033"><v:paragraph/><v:tabList/>Sortie standard (STDOUT)</text>		</g>
		<g id="shape13-40" v:mID="13" v:groupContext="shape" transform="translate(433.6,-133.516)">
			<title>Cercle.13</title>
			<v:userDefs>
				<v:ud v:nameU="visVersion" v:val="VT0(15):26"/>
			</v:userDefs>
			<path d="M0 300.82 A13.2408 13.2408 0 1 1 26.48 300.82 A13.2408 13.2408 0 0 1 0 300.82 Z" class="st1"/>
		</g>
		<g id="shape14-42" v:mID="14" v:groupContext="shape" v:layerMember="0" transform="translate(334.387,-153.857)">
			<title>Lien dynamique.14</title>
			<path d="M0 321.13 L10.63 321.13 L10.63 321.16 L93.7 321.16" class="st3"/>
		</g>
		<g id="shape15-47" v:mID="15" v:groupContext="shape" transform="translate(465.852,-136.757)">
			<title>Sheet.15</title>
			<desc>Erreur standard (STDERR)</desc>
			<v:textBlock v:margins="rect(4,4,4,4)" v:tabSpace="42.5197"/>
			<v:textRect cx="76" cy="304.057" width="152" height="20"/>
			<rect x="0" y="294.057" width="152" height="20" class="st5"/>
			<text x="4" y="307.66" class="st6" v:langID="1033"><v:paragraph/><v:tabList/>Erreur standard (STDERR)</text>		</g>
		<g id="shape16-50" v:mID="16" v:groupContext="shape" transform="translate(204.119,-275.682)">
			<title>Sheet.16</title>
			<desc>Arguments</desc>
			<v:textBlock v:margins="rect(4,4,4,4)" v:tabSpace="42.5197"/>
			<v:textRect cx="38.1426" cy="304.057" width="76.29" height="20"/>
			<rect x="0" y="294.057" width="76.2851" height="20" class="st5"/>
			<text x="4" y="307.66" class="st6" v:langID="1033"><v:paragraph/><v:tabList/>Arguments</text>		</g>
		<g id="shape17-53" v:mID="17" v:groupContext="shape" transform="translate(267.898,-275.682)">
			<title>Sheet.17</title>
			<desc>Environment</desc>
			<v:textBlock v:margins="rect(4,4,4,4)" v:tabSpace="42.5197"/>
			<v:textRect cx="38.1426" cy="304.057" width="76.29" height="20"/>
			<rect x="0" y="294.057" width="76.2851" height="20" class="st5"/>
			<text x="4" y="307.66" class="st6" v:langID="1033"><v:paragraph/><v:tabList/>Environment</text>		</g>
		<g id="shape18-56" v:mID="18" v:groupContext="shape" transform="translate(536.064,197.63) rotate(90.5729)">
			<title>Sheet.18</title>
			<path d="M0 303.54 A43.455 43.455 -180 0 0 49.94 308.31 L50.23 308.1" class="st8"/>
		</g>
		<g id="shape19-62" v:mID="19" v:groupContext="shape" transform="translate(-67.3227,256.024) rotate(-89.4271)">
			<title>Sheet.19</title>
			<path d="M-0 303.54 A43.455 43.455 -180 0 0 49.94 308.31 L50.23 308.1" class="st8"/>
		</g>
		<g id="shape20-67" v:mID="20" v:groupContext="shape" transform="translate(170.079,-18)">
			<title>Rectangle.20</title>
			<desc>Système d’exploitation</desc>
			<v:userDefs>
				<v:ud v:nameU="visVersion" v:val="VT0(15):26"/>
			</v:userDefs>
			<v:textBlock v:margins="rect(4,4,4,4)" v:tabSpace="42.5197"/>
			<v:textRect cx="63.7795" cy="300.816" width="127.56" height="26.4816"/>
			<rect x="0" y="287.575" width="127.559" height="26.4816" class="st1"/>
			<text x="17.25" y="303.82" class="st2" v:langID="1033"><v:paragraph v:horizAlign="1"/><v:tabList/>Système d’exploitation</text>		</g>
		<g id="shape21-70" v:mID="21" v:groupContext="shape" transform="translate(246.715,-74.0879)">
			<title>Sheet.21</title>
			<desc>Appel système</desc>
			<v:textBlock v:margins="rect(4,4,4,4)" v:tabSpace="42.5197"/>
			<v:textRect cx="45.0866" cy="304.057" width="90.18" height="20"/>
			<rect x="0" y="294.057" width="90.1732" height="20" class="st5"/>
			<text x="9.41" y="307.66" class="st6" v:langID="1033"><v:paragraph v:horizAlign="1"/><v:tabList/>Appel système</text>		</g>
		<g id="shape1000-73" v:mID="1000" v:groupContext="shape" transform="translate(433.6,-83.7937)">
			<title>Cercle.1000</title>
			<v:userDefs>
				<v:ud v:nameU="visVersion" v:val="VT0(15):26"/>
			</v:userDefs>
			<path d="M0 300.82 A13.2408 13.2408 0 1 1 26.48 300.82 A13.2408 13.2408 0 0 1 0 300.82 Z" class="st1"/>
		</g>
		<g id="shape1001-75" v:mID="1001" v:groupContext="shape" transform="translate(466.227,-87.0345)">
			<title>Sheet.1001</title>
			<desc>Status de sortie</desc>
			<v:textBlock v:margins="rect(4,4,4,4)" v:tabSpace="42.5197"/>
			<v:textRect cx="76" cy="304.057" width="152" height="20"/>
			<rect x="0" y="294.057" width="152" height="20" class="st5"/>
			<text x="4" y="307.66" class="st6" v:langID="1033"><v:paragraph/><v:tabList/>Status de sortie</text>		</g>
		<g id="shape1002-78" v:mID="1002" v:groupContext="shape" v:layerMember="0" transform="translate(270.608,-129.776)">
			<title>Lien dynamique.1002</title>
			<path d="M0 314.06 L0 346.8 L157.48 346.8" class="st3"/>
		</g>
	</g>
</svg>
