<?xml version="1.0" encoding="UTF-8" standalone="no"?>
<!DOCTYPE svg PUBLIC "-//W3C//DTD SVG 1.1//EN" "http://www.w3.org/Graphics/SVG/1.1/DTD/svg11.dtd">
<!-- Generated by Microsoft Visio, SVG Export ring.svg Page-1 -->
<svg xmlns="http://www.w3.org/2000/svg" xmlns:xlink="http://www.w3.org/1999/xlink" xmlns:ev="http://www.w3.org/2001/xml-events"
		xmlns:v="http://schemas.microsoft.com/visio/2003/SVGExtensions/" width="8.50254in" height="4.44742in"
		viewBox="0 0 612.183 320.215" xml:space="preserve" color-interpolation-filters="sRGB" class="st8">
	<v:documentProperties v:langID="1033" v:metric="true" v:viewMarkup="false">
		<v:userDefs>
			<v:ud v:nameU="msvSubprocessMaster" v:prompt="" v:val="VT4(Rectangle)"/>
			<v:ud v:nameU="msvNoAutoConnect" v:val="VT0(1):26"/>
		</v:userDefs>
	</v:documentProperties>

	<style type="text/css">
	<![CDATA[
		.st1 {fill:#ffffff;stroke:#000000;stroke-linecap:round;stroke-linejoin:round;stroke-width:0.75}
		.st2 {stroke:#000000;stroke-linecap:round;stroke-linejoin:round;stroke-width:0.237638}
		.st3 {marker-end:url(#mrkr13-58);stroke:#000000;stroke-linecap:round;stroke-linejoin:round;stroke-width:0.237638}
		.st4 {fill:#000000;fill-opacity:1;stroke:#000000;stroke-opacity:1;stroke-width:0.086174404659928}
		.st5 {fill:none;stroke:none;stroke-linecap:round;stroke-linejoin:round;stroke-width:0.75}
		.st6 {fill:#000000;font-family:Calibri;font-size:1.00001em}
		.st7 {marker-start:url(#mrkr13-96);stroke:#000000;stroke-linecap:round;stroke-linejoin:round;stroke-width:0.237638}
		.st8 {fill:none;fill-rule:evenodd;font-size:12px;overflow:visible;stroke-linecap:square;stroke-miterlimit:3}
	]]>
	</style>

	<defs id="Markers">
		<g id="lend13">
			<path d="M 3 1 L 0 0 L 3 -1 L 3 1 " style="stroke:none"/>
		</g>
		<marker id="mrkr13-58" class="st4" v:arrowType="13" v:arrowSize="2" v:setback="34.8131" refX="-34.813121272366"
				orient="auto" markerUnits="strokeWidth" overflow="visible">
			<use xlink:href="#lend13" transform="scale(-11.604373757455,-11.604373757455) "/>
		</marker>
		<marker id="mrkr13-96" class="st4" v:arrowType="13" v:arrowSize="2" v:setback="33.2982" refX="33.298210735586"
				orient="auto" markerUnits="strokeWidth" overflow="visible">
			<use xlink:href="#lend13" transform="scale(11.604373757455) "/>
		</marker>
	</defs>
	<g v:mID="0" v:index="1" v:groupContext="foregroundPage">
		<v:userDefs>
			<v:ud v:nameU="msvThemeOrder" v:val="VT0(0):26"/>
		</v:userDefs>
		<title>Page-1</title>
		<v:pageProperties v:drawingScale="0.0393701" v:pageScale="0.0393701" v:drawingUnits="24" v:shadowOffsetX="9"
				v:shadowOffsetY="-9"/>
		<g id="shape1-1" v:mID="1" v:groupContext="shape" transform="translate(155.501,-18.375)">
			<title>Circle</title>
			<v:userDefs>
				<v:ud v:nameU="visVersion" v:val="VT0(15):26"/>
			</v:userDefs>
			<path d="M0 178.48 A141.732 141.732 0 0 1 283.46 178.48 A141.732 141.732 0 1 1 0 178.48 Z" class="st1"/>
		</g>
		<g id="shape2-3" v:mID="2" v:groupContext="shape" transform="translate(190.934,-53.8081)">
			<title>Circle.2</title>
			<v:userDefs>
				<v:ud v:nameU="visVersion" v:val="VT0(15):26"/>
			</v:userDefs>
			<path d="M0 213.92 A106.299 106.299 0 0 1 212.6 213.92 A106.299 106.299 0 1 1 0 213.92 Z" class="st1"/>
		</g>
		<g id="shape3-5" v:mID="3" v:groupContext="shape" transform="translate(-22.9813,53.8081) rotate(-90)">
			<title>Sheet.3</title>
			<path d="M0 320.21 L35.43 320.21" class="st2"/>
		</g>
		<g id="shape6-8" v:mID="6" v:groupContext="shape" transform="translate(617.448,266.406) rotate(90)">
			<title>Sheet.6</title>
			<path d="M0 320.21 L35.43 320.21" class="st2"/>
		</g>
		<g id="shape7-11" v:mID="7" v:groupContext="shape" transform="translate(438.966,480.322) rotate(180)">
			<title>Sheet.7</title>
			<path d="M0 320.21 L35.43 320.21" class="st2"/>
		</g>
		<g id="shape8-14" v:mID="8" v:groupContext="shape" transform="translate(190.934,480.322) rotate(180)">
			<title>Sheet.8</title>
			<path d="M0 320.21 L35.43 320.21" class="st2"/>
		</g>
		<g id="shape11-17" v:mID="11" v:groupContext="shape" transform="translate(-4.3575,311.368) rotate(-135)">
			<title>Sheet.11</title>
			<path d="M0 320.21 L35.43 320.21" class="st2"/>
		</g>
		<g id="shape12-20" v:mID="12" v:groupContext="shape" transform="translate(598.824,8.84629) rotate(45)">
			<title>Sheet.12</title>
			<path d="M0 320.21 L35.43 320.21" class="st2"/>
		</g>
		<g id="shape13-23" v:mID="13" v:groupContext="shape" transform="translate(623.879,286.313) rotate(135)">
			<title>Sheet.13</title>
			<path d="M0 320.21 L35.43 320.21" class="st2"/>
		</g>
		<g id="shape14-26" v:mID="14" v:groupContext="shape" transform="translate(448.494,461.698) rotate(135)">
			<title>Sheet.14</title>
			<path d="M0 320.21 L35.43 320.21" class="st2"/>
		</g>
		<g id="shape18-29" v:mID="18" v:groupContext="shape" transform="translate(-39.2853,184.44) rotate(-112.5)">
			<title>Sheet.18</title>
			<path d="M0 320.21 L35.43 320.21" class="st2"/>
		</g>
		<g id="shape19-32" v:mID="19" v:groupContext="shape" transform="translate(633.752,135.774) rotate(67.5)">
			<title>Sheet.19</title>
			<path d="M0 320.21 L35.43 320.21" class="st2"/>
		</g>
		<g id="shape20-35" v:mID="20" v:groupContext="shape" transform="translate(550.718,401.708) rotate(157.5)">
			<title>Sheet.20</title>
			<path d="M0 320.21 L35.43 320.21" class="st2"/>
		</g>
		<g id="shape21-38" v:mID="21" v:groupContext="shape" transform="translate(321.566,496.626) rotate(157.5)">
			<title>Sheet.21</title>
			<path d="M0 320.21 L35.43 320.21" class="st2"/>
		</g>
		<g id="shape23-41" v:mID="23" v:groupContext="shape" transform="translate(76.4848,415.268) rotate(-157.5)">
			<title>Sheet.23</title>
			<path d="M0 320.21 L35.43 320.21" class="st2"/>
		</g>
		<g id="shape24-44" v:mID="24" v:groupContext="shape" transform="translate(517.982,-95.0535) rotate(22.5)">
			<title>Sheet.24</title>
			<path d="M0 320.21 L35.43 320.21" class="st2"/>
		</g>
		<g id="shape25-47" v:mID="25" v:groupContext="shape" transform="translate(647.312,151.705) rotate(112.5)">
			<title>Sheet.25</title>
			<path d="M0 320.21 L35.43 320.21" class="st2"/>
		</g>
		<g id="shape26-50" v:mID="26" v:groupContext="shape" transform="translate(552.394,380.856) rotate(112.5)">
			<title>Sheet.26</title>
			<path d="M0 320.21 L35.43 320.21" class="st2"/>
		</g>
		<g id="shape27-53" v:mID="27" v:groupContext="shape" transform="translate(-2.70554,22.9508) rotate(-79.2815)">
			<title>Sheet.27</title>
			<path d="M0 320.21 L13.72 320.21" class="st3"/>
		</g>
		<g id="shape28-59" v:mID="28" v:groupContext="shape" transform="translate(598.028,287.323) rotate(101.585)">
			<title>Sheet.28</title>
			<path d="M0 320.21 L28.79 320.21" class="st3"/>
		</g>
		<g id="shape30-64" v:mID="30" v:groupContext="shape" transform="translate(306.307,-270.58)">
			<title>Sheet.30</title>
			<desc>4</desc>
			<v:textBlock v:margins="rect(4,4,4,4)" v:tabSpace="42.5197"/>
			<v:textRect cx="15.4829" cy="310.215" width="30.97" height="20"/>
			<rect x="0" y="300.215" width="30.9657" height="20" class="st5"/>
			<text x="12.44" y="313.81" class="st6" v:langID="1033"><v:paragraph v:horizAlign="1"/><v:tabList/>4</text>		</g>
		<g id="shape42-67" v:mID="42" v:groupContext="shape" transform="translate(348.827,-253.493)">
			<title>Sheet.42</title>
			<desc>8</desc>
			<v:textBlock v:margins="rect(4,4,4,4)" v:tabSpace="42.5197"/>
			<v:textRect cx="15.4829" cy="310.215" width="30.97" height="20"/>
			<rect x="0" y="300.215" width="30.9657" height="20" class="st5"/>
			<text x="12.44" y="313.81" class="st6" v:langID="1033"><v:paragraph v:horizAlign="1"/><v:tabList/>8</text>		</g>
		<g id="shape43-70" v:mID="43" v:groupContext="shape" transform="translate(384.26,-218.06)">
			<title>Sheet.43</title>
			<desc>15</desc>
			<v:textBlock v:margins="rect(4,4,4,4)" v:tabSpace="42.5197"/>
			<v:textRect cx="15.4829" cy="310.215" width="30.97" height="20"/>
			<rect x="0" y="300.215" width="30.9657" height="20" class="st5"/>
			<text x="9.4" y="313.81" class="st6" v:langID="1033"><v:paragraph v:horizAlign="1"/><v:tabList/>15</text>		</g>
		<g id="shape44-73" v:mID="44" v:groupContext="shape" transform="translate(401.052,-174.281)">
			<title>Sheet.44</title>
			<desc>16</desc>
			<v:textBlock v:margins="rect(4,4,4,4)" v:tabSpace="42.5197"/>
			<v:textRect cx="15.4829" cy="310.215" width="30.97" height="20"/>
			<rect x="0" y="300.215" width="30.9657" height="20" class="st5"/>
			<text x="9.4" y="313.81" class="st6" v:langID="1033"><v:paragraph v:horizAlign="1"/><v:tabList/>16</text>		</g>
		<g id="shape45-76" v:mID="45" v:groupContext="shape" transform="translate(401.052,-125.934)">
			<title>Sheet.45</title>
			<desc>23</desc>
			<v:textBlock v:margins="rect(4,4,4,4)" v:tabSpace="42.5197"/>
			<v:textRect cx="15.4829" cy="310.215" width="30.97" height="20"/>
			<rect x="0" y="300.215" width="30.9657" height="20" class="st5"/>
			<text x="9.4" y="313.81" class="st6" v:langID="1033"><v:paragraph v:horizAlign="1"/><v:tabList/>23</text>		</g>
		<g id="shape46-79" v:mID="46" v:groupContext="shape" transform="translate(385.569,-82.1545)">
			<title>Sheet.46</title>
			<desc>42</desc>
			<v:textBlock v:margins="rect(4,4,4,4)" v:tabSpace="42.5197"/>
			<v:textRect cx="15.4829" cy="310.215" width="30.97" height="20"/>
			<rect x="0" y="300.215" width="30.9657" height="20" class="st5"/>
			<text x="9.4" y="313.81" class="st6" v:langID="1033"><v:paragraph v:horizAlign="1"/><v:tabList/>42</text>		</g>
		<g id="shape47-82" v:mID="47" v:groupContext="shape" transform="translate(348.827,-46.7214)">
			<title>Sheet.47</title>
			<desc>55</desc>
			<v:textBlock v:margins="rect(4,4,4,4)" v:tabSpace="42.5197"/>
			<v:textRect cx="15.4829" cy="310.215" width="30.97" height="20"/>
			<rect x="0" y="300.215" width="30.9657" height="20" class="st5"/>
			<text x="9.4" y="313.81" class="st6" v:langID="1033"><v:paragraph v:horizAlign="1"/><v:tabList/>55</text>		</g>
		<g id="shape48-85" v:mID="48" v:groupContext="shape" transform="translate(306.307,-29.6348)">
			<title>Sheet.48</title>
			<desc>200</desc>
			<v:textBlock v:margins="rect(4,4,4,4)" v:tabSpace="42.5197"/>
			<v:textRect cx="15.4829" cy="310.215" width="30.97" height="20"/>
			<rect x="0" y="300.215" width="30.9657" height="20" class="st5"/>
			<text x="6.36" y="313.81" class="st6" v:langID="1033"><v:paragraph v:horizAlign="1"/><v:tabList/>200</text>		</g>
		<g id="shape49-88" v:mID="49" v:groupContext="shape" transform="translate(256.701,-29.6348)">
			<title>Sheet.49</title>
			<desc>81</desc>
			<v:textBlock v:margins="rect(4,4,4,4)" v:tabSpace="42.5197"/>
			<v:textRect cx="15.4829" cy="310.215" width="30.97" height="20"/>
			<rect x="0" y="300.215" width="30.9657" height="20" class="st5"/>
			<text x="9.4" y="313.81" class="st6" v:langID="1033"><v:paragraph v:horizAlign="1"/><v:tabList/>81</text>		</g>
		<g id="shape58-91" v:mID="58" v:groupContext="shape" transform="translate(455.225,-54.5771) rotate(45)">
			<title>Sheet.58</title>
			<path d="M5.99 308.78 L6.26 309.02 A56.6929 56.6929 -140.65 0 0 80.18 303.61" class="st7"/>
		</g>
		<g id="shape59-97" v:mID="59" v:groupContext="shape" transform="translate(82.5489,2.11579) rotate(-45)">
			<title>Sheet.59</title>
			<path d="M0 303.61 A56.6929 56.6929 -129.35 0 0 80.18 303.61" class="st2"/>
		</g>
		<g id="shape60-100" v:mID="60" v:groupContext="shape" transform="translate(82.5489,318.099) rotate(45) scale(1,-1)">
			<title>Sheet.60</title>
			<path d="M0 303.61 A56.6929 56.6929 -135 0 0 80.18 303.61" class="st2"/>
		</g>
		<g id="shape61-103" v:mID="61" v:groupContext="shape" transform="translate(285.886,-220.973)">
			<title>Sheet.61</title>
			<desc>Queue</desc>
			<v:textBlock v:margins="rect(4,4,4,4)" v:tabSpace="42.5197"/>
			<v:textRect cx="23.0405" cy="310.215" width="46.09" height="20"/>
			<rect x="0" y="300.215" width="46.081" height="20" class="st5"/>
			<text x="6.73" y="313.81" class="st6" v:langID="1033"><v:paragraph v:horizAlign="1"/><v:tabList/>Queue</text>		</g>
		<g id="shape62-106" v:mID="62" v:groupContext="shape" transform="translate(281.75,-70.8947)">
			<title>Sheet.62</title>
			<desc>Tête</desc>
			<v:textBlock v:margins="rect(4,4,4,4)" v:tabSpace="42.5197"/>
			<v:textRect cx="15.4829" cy="310.215" width="30.97" height="20"/>
			<rect x="0" y="300.215" width="30.9657" height="20" class="st5"/>
			<text x="4.58" y="313.81" class="st6" v:langID="1033"><v:paragraph v:horizAlign="1"/><v:tabList/>Tête</text>		</g>
	</g>
</svg>
