<?xml version="1.0" encoding="UTF-8" standalone="no"?>
<!DOCTYPE svg PUBLIC "-//W3C//DTD SVG 1.1//EN" "http://www.w3.org/Graphics/SVG/1.1/DTD/svg11.dtd">
<!-- Generated by Microsoft Visio, SVG Export static-linked-list.svg Page-1 -->
<svg xmlns="http://www.w3.org/2000/svg" xmlns:xlink="http://www.w3.org/1999/xlink" xmlns:ev="http://www.w3.org/2001/xml-events"
		xmlns:v="http://schemas.microsoft.com/visio/2003/SVGExtensions/" width="8.38443in" height="3.09204in"
		viewBox="0 0 603.679 222.627" xml:space="preserve" color-interpolation-filters="sRGB" class="st9">
	<v:documentProperties v:langID="1033" v:metric="true" v:viewMarkup="false">
		<v:userDefs>
			<v:ud v:nameU="msvSubprocessMaster" v:prompt="" v:val="VT4(Rectangle)"/>
			<v:ud v:nameU="msvNoAutoConnect" v:val="VT0(1):26"/>
		</v:userDefs>
	</v:documentProperties>

	<style type="text/css">
	<![CDATA[
		.st1 {fill:none;stroke:#000000;stroke-linecap:round;stroke-linejoin:round;stroke-width:0.75}
		.st2 {fill:#000000;font-family:Calibri;font-size:0.833336em}
		.st3 {fill:#b7dde8;stroke:#000000;stroke-linecap:round;stroke-linejoin:round;stroke-width:0.75}
		.st4 {fill:none;stroke:none;stroke-linecap:round;stroke-linejoin:round;stroke-width:0.75}
		.st5 {fill:#000000;font-family:Calibri;font-size:1.00001em;font-weight:bold}
		.st6 {fill:#000000;font-family:Calibri;font-size:0.75em}
		.st7 {marker-end:url(#mrkr4-186);stroke:#000000;stroke-linecap:round;stroke-linejoin:round;stroke-width:0.237638}
		.st8 {fill:#000000;fill-opacity:1;stroke:#000000;stroke-opacity:1;stroke-width:0.086174404659928}
		.st9 {fill:none;fill-rule:evenodd;font-size:12px;overflow:visible;stroke-linecap:square;stroke-miterlimit:3}
	]]>
	</style>

	<defs id="Markers">
		<g id="lend4">
			<path d="M 2 1 L 0 0 L 2 -1 L 2 1 " style="stroke:none"/>
		</g>
		<marker id="mrkr4-186" class="st8" v:arrowType="4" v:arrowSize="2" v:setback="23.2087" refX="-23.208747514911"
				orient="auto" markerUnits="strokeWidth" overflow="visible">
			<use xlink:href="#lend4" transform="scale(-11.604373757455,-11.604373757455) "/>
		</marker>
	</defs>
	<g v:mID="0" v:index="1" v:groupContext="foregroundPage">
		<v:userDefs>
			<v:ud v:nameU="msvThemeOrder" v:val="VT0(0):26"/>
		</v:userDefs>
		<title>Page-1</title>
		<v:pageProperties v:drawingScale="0.0393701" v:pageScale="0.0393701" v:drawingUnits="24" v:shadowOffsetX="8.50394"
				v:shadowOffsetY="-8.50394"/>
		<v:layer v:name="Connector" v:index="0"/>
		<g id="shape1-1" v:mID="1" v:groupContext="shape" transform="translate(18.375,-38.375)">
			<title>Carré</title>
			<desc>4</desc>
			<v:userDefs>
				<v:ud v:nameU="visVersion" v:val="VT0(15):26"/>
			</v:userDefs>
			<v:textBlock v:margins="rect(4,4,4,4)" v:tabSpace="42.5197"/>
			<v:textRect cx="14.1732" cy="208.454" width="28.35" height="28.3465"/>
			<rect x="0" y="194.281" width="28.3465" height="28.3465" class="st1"/>
			<text x="11.64" y="211.45" class="st2" v:langID="1033"><v:paragraph v:horizAlign="1"/><v:tabList/>4</text>		</g>
		<g id="shape2-4" v:mID="2" v:groupContext="shape" transform="translate(46.7215,-38.375)">
			<title>Carré.218</title>
			<desc>10</desc>
			<v:userDefs>
				<v:ud v:nameU="visVersion" v:val="VT0(15):26"/>
			</v:userDefs>
			<v:textBlock v:margins="rect(4,4,4,4)" v:tabSpace="42.5197"/>
			<v:textRect cx="14.1732" cy="208.454" width="28.35" height="28.3465"/>
			<rect x="0" y="194.281" width="28.3465" height="28.3465" class="st3"/>
			<text x="9.1" y="211.45" class="st2" v:langID="1033"><v:paragraph v:horizAlign="1"/><v:tabList/>10</text>		</g>
		<g id="shape3-7" v:mID="3" v:groupContext="shape" transform="translate(75.0679,-38.375)">
			<title>Carré.219</title>
			<desc>81</desc>
			<v:userDefs>
				<v:ud v:nameU="visVersion" v:val="VT0(15):26"/>
			</v:userDefs>
			<v:textBlock v:margins="rect(4,4,4,4)" v:tabSpace="42.5197"/>
			<v:textRect cx="14.1732" cy="208.454" width="28.35" height="28.3465"/>
			<rect x="0" y="194.281" width="28.3465" height="28.3465" class="st1"/>
			<text x="9.1" y="211.45" class="st2" v:langID="1033"><v:paragraph v:horizAlign="1"/><v:tabList/>81</text>		</g>
		<g id="shape4-10" v:mID="4" v:groupContext="shape" transform="translate(103.414,-38.375)">
			<title>Carré.220</title>
			<desc>12</desc>
			<v:userDefs>
				<v:ud v:nameU="visVersion" v:val="VT0(15):26"/>
			</v:userDefs>
			<v:textBlock v:margins="rect(4,4,4,4)" v:tabSpace="42.5197"/>
			<v:textRect cx="14.1732" cy="208.454" width="28.35" height="28.3465"/>
			<rect x="0" y="194.281" width="28.3465" height="28.3465" class="st3"/>
			<text x="9.1" y="211.45" class="st2" v:langID="1033"><v:paragraph v:horizAlign="1"/><v:tabList/>12</text>		</g>
		<g id="shape5-13" v:mID="5" v:groupContext="shape" transform="translate(131.761,-38.375)">
			<title>Carré.221</title>
			<desc>23</desc>
			<v:userDefs>
				<v:ud v:nameU="visVersion" v:val="VT0(15):26"/>
			</v:userDefs>
			<v:textBlock v:margins="rect(4,4,4,4)" v:tabSpace="42.5197"/>
			<v:textRect cx="14.1732" cy="208.454" width="28.35" height="28.3465"/>
			<rect x="0" y="194.281" width="28.3465" height="28.3465" class="st1"/>
			<text x="9.1" y="211.45" class="st2" v:langID="1033"><v:paragraph v:horizAlign="1"/><v:tabList/>23</text>		</g>
		<g id="shape6-16" v:mID="6" v:groupContext="shape" transform="translate(160.107,-38.375)">
			<title>Carré.222</title>
			<desc>16</desc>
			<v:userDefs>
				<v:ud v:nameU="visVersion" v:val="VT0(15):26"/>
			</v:userDefs>
			<v:textBlock v:margins="rect(4,4,4,4)" v:tabSpace="42.5197"/>
			<v:textRect cx="14.1732" cy="208.454" width="28.35" height="28.3465"/>
			<rect x="0" y="194.281" width="28.3465" height="28.3465" class="st3"/>
			<text x="9.1" y="211.45" class="st2" v:langID="1033"><v:paragraph v:horizAlign="1"/><v:tabList/>16</text>		</g>
		<g id="shape7-19" v:mID="7" v:groupContext="shape" transform="translate(188.454,-38.375)">
			<title>Carré.223</title>
			<desc>16</desc>
			<v:userDefs>
				<v:ud v:nameU="visVersion" v:val="VT0(15):26"/>
			</v:userDefs>
			<v:textBlock v:margins="rect(4,4,4,4)" v:tabSpace="42.5197"/>
			<v:textRect cx="14.1732" cy="208.454" width="28.35" height="28.3465"/>
			<rect x="0" y="194.281" width="28.3465" height="28.3465" class="st1"/>
			<text x="9.1" y="211.45" class="st2" v:langID="1033"><v:paragraph v:horizAlign="1"/><v:tabList/>16</text>		</g>
		<g id="shape8-22" v:mID="8" v:groupContext="shape" transform="translate(216.8,-38.375)">
			<title>Carré.224</title>
			<desc>4</desc>
			<v:userDefs>
				<v:ud v:nameU="visVersion" v:val="VT0(15):26"/>
			</v:userDefs>
			<v:textBlock v:margins="rect(4,4,4,4)" v:tabSpace="42.5197"/>
			<v:textRect cx="14.1732" cy="208.454" width="28.35" height="28.3465"/>
			<rect x="0" y="194.281" width="28.3465" height="28.3465" class="st3"/>
			<text x="11.64" y="211.45" class="st2" v:langID="1033"><v:paragraph v:horizAlign="1"/><v:tabList/>4</text>		</g>
		<g id="shape9-25" v:mID="9" v:groupContext="shape" transform="translate(245.147,-38.375)">
			<title>Carré.225</title>
			<desc>200</desc>
			<v:userDefs>
				<v:ud v:nameU="visVersion" v:val="VT0(15):26"/>
			</v:userDefs>
			<v:textBlock v:margins="rect(4,4,4,4)" v:tabSpace="42.5197"/>
			<v:textRect cx="14.1732" cy="208.454" width="28.35" height="28.3465"/>
			<rect x="0" y="194.281" width="28.3465" height="28.3465" class="st1"/>
			<text x="6.57" y="211.45" class="st2" v:langID="1033"><v:paragraph v:horizAlign="1"/><v:tabList/>200</text>		</g>
		<g id="shape10-28" v:mID="10" v:groupContext="shape" transform="translate(273.493,-38.375)">
			<title>Carré.226</title>
			<desc>2</desc>
			<v:userDefs>
				<v:ud v:nameU="visVersion" v:val="VT0(15):26"/>
			</v:userDefs>
			<v:textBlock v:margins="rect(4,4,4,4)" v:tabSpace="42.5197"/>
			<v:textRect cx="14.1732" cy="208.454" width="28.35" height="28.3465"/>
			<rect x="0" y="194.281" width="28.3465" height="28.3465" class="st3"/>
			<text x="11.64" y="211.45" class="st2" v:langID="1033"><v:paragraph v:horizAlign="1"/><v:tabList/>2</text>		</g>
		<g id="shape11-31" v:mID="11" v:groupContext="shape" transform="translate(301.84,-38.375)">
			<title>Carré.227</title>
			<desc>8</desc>
			<v:userDefs>
				<v:ud v:nameU="visVersion" v:val="VT0(15):26"/>
			</v:userDefs>
			<v:textBlock v:margins="rect(4,4,4,4)" v:tabSpace="42.5197"/>
			<v:textRect cx="14.1732" cy="208.454" width="28.35" height="28.3465"/>
			<rect x="0" y="194.281" width="28.3465" height="28.3465" class="st1"/>
			<text x="11.64" y="211.45" class="st2" v:langID="1033"><v:paragraph v:horizAlign="1"/><v:tabList/>8</text>		</g>
		<g id="shape12-34" v:mID="12" v:groupContext="shape" transform="translate(330.186,-38.375)">
			<title>Carré.228</title>
			<desc>14</desc>
			<v:userDefs>
				<v:ud v:nameU="visVersion" v:val="VT0(15):26"/>
			</v:userDefs>
			<v:textBlock v:margins="rect(4,4,4,4)" v:tabSpace="42.5197"/>
			<v:textRect cx="14.1732" cy="208.454" width="28.35" height="28.3465"/>
			<rect x="0" y="194.281" width="28.3465" height="28.3465" class="st3"/>
			<text x="9.1" y="211.45" class="st2" v:langID="1033"><v:paragraph v:horizAlign="1"/><v:tabList/>14</text>		</g>
		<g id="shape13-37" v:mID="13" v:groupContext="shape" transform="translate(358.532,-38.375)">
			<title>Carré.229</title>
			<desc>46</desc>
			<v:userDefs>
				<v:ud v:nameU="visVersion" v:val="VT0(15):26"/>
			</v:userDefs>
			<v:textBlock v:margins="rect(4,4,4,4)" v:tabSpace="42.5197"/>
			<v:textRect cx="14.1732" cy="208.454" width="28.35" height="28.3465"/>
			<rect x="0" y="194.281" width="28.3465" height="28.3465" class="st1"/>
			<text x="9.1" y="211.45" class="st2" v:langID="1033"><v:paragraph v:horizAlign="1"/><v:tabList/>46</text>		</g>
		<g id="shape14-40" v:mID="14" v:groupContext="shape" transform="translate(386.879,-38.375)">
			<title>Carré.230</title>
			<desc>-1</desc>
			<v:userDefs>
				<v:ud v:nameU="visVersion" v:val="VT0(15):26"/>
			</v:userDefs>
			<v:textBlock v:margins="rect(4,4,4,4)" v:tabSpace="42.5197"/>
			<v:textRect cx="14.1732" cy="208.454" width="28.35" height="28.3465"/>
			<rect x="0" y="194.281" width="28.3465" height="28.3465" class="st3"/>
			<text x="10.11" y="211.45" class="st2" v:langID="1033"><v:paragraph v:horizAlign="1"/><v:tabList/>-1</text>		</g>
		<g id="shape15-43" v:mID="15" v:groupContext="shape" transform="translate(415.225,-38.375)">
			<title>Carré.231</title>
			<desc>15</desc>
			<v:userDefs>
				<v:ud v:nameU="visVersion" v:val="VT0(15):26"/>
			</v:userDefs>
			<v:textBlock v:margins="rect(4,4,4,4)" v:tabSpace="42.5197"/>
			<v:textRect cx="14.1732" cy="208.454" width="28.35" height="28.3465"/>
			<rect x="0" y="194.281" width="28.3465" height="28.3465" class="st1"/>
			<text x="9.1" y="211.45" class="st2" v:langID="1033"><v:paragraph v:horizAlign="1"/><v:tabList/>15</text>		</g>
		<g id="shape16-46" v:mID="16" v:groupContext="shape" transform="translate(443.572,-38.375)">
			<title>Carré.232</title>
			<desc>6</desc>
			<v:userDefs>
				<v:ud v:nameU="visVersion" v:val="VT0(15):26"/>
			</v:userDefs>
			<v:textBlock v:margins="rect(4,4,4,4)" v:tabSpace="42.5197"/>
			<v:textRect cx="14.1732" cy="208.454" width="28.35" height="28.3465"/>
			<rect x="0" y="194.281" width="28.3465" height="28.3465" class="st3"/>
			<text x="11.64" y="211.45" class="st2" v:langID="1033"><v:paragraph v:horizAlign="1"/><v:tabList/>6</text>		</g>
		<g id="shape17-49" v:mID="17" v:groupContext="shape" transform="translate(22.3352,-18.375)">
			<title>Sheet.17</title>
			<desc>0</desc>
			<v:textBlock v:margins="rect(4,4,4,4)" v:tabSpace="42.5197"/>
			<v:textRect cx="10.213" cy="212.627" width="20.43" height="20"/>
			<rect x="0" y="202.627" width="20.426" height="20" class="st4"/>
			<text x="7.17" y="216.23" class="st5" v:langID="1033"><v:paragraph v:horizAlign="1"/><v:tabList/>0</text>		</g>
		<g id="shape18-52" v:mID="18" v:groupContext="shape" transform="translate(50.6817,-18.375)">
			<title>Sheet.18</title>
			<desc>1</desc>
			<v:textBlock v:margins="rect(4,4,4,4)" v:tabSpace="42.5197"/>
			<v:textRect cx="10.213" cy="212.627" width="20.43" height="20"/>
			<rect x="0" y="202.627" width="20.426" height="20" class="st4"/>
			<text x="7.17" y="216.23" class="st5" v:langID="1033"><v:paragraph v:horizAlign="1"/><v:tabList/>1</text>		</g>
		<g id="shape19-55" v:mID="19" v:groupContext="shape" transform="translate(79.0281,-18.375)">
			<title>Sheet.19</title>
			<desc>2</desc>
			<v:textBlock v:margins="rect(4,4,4,4)" v:tabSpace="42.5197"/>
			<v:textRect cx="10.213" cy="212.627" width="20.43" height="20"/>
			<rect x="0" y="202.627" width="20.426" height="20" class="st4"/>
			<text x="7.17" y="216.23" class="st5" v:langID="1033"><v:paragraph v:horizAlign="1"/><v:tabList/>2</text>		</g>
		<g id="shape20-58" v:mID="20" v:groupContext="shape" transform="translate(107.375,-18.375)">
			<title>Sheet.20</title>
			<desc>3</desc>
			<v:textBlock v:margins="rect(4,4,4,4)" v:tabSpace="42.5197"/>
			<v:textRect cx="10.213" cy="212.627" width="20.43" height="20"/>
			<rect x="0" y="202.627" width="20.426" height="20" class="st4"/>
			<text x="7.17" y="216.23" class="st5" v:langID="1033"><v:paragraph v:horizAlign="1"/><v:tabList/>3</text>		</g>
		<g id="shape21-61" v:mID="21" v:groupContext="shape" transform="translate(135.721,-18.375)">
			<title>Sheet.21</title>
			<desc>4</desc>
			<v:textBlock v:margins="rect(4,4,4,4)" v:tabSpace="42.5197"/>
			<v:textRect cx="10.213" cy="212.627" width="20.43" height="20"/>
			<rect x="0" y="202.627" width="20.426" height="20" class="st4"/>
			<text x="7.17" y="216.23" class="st5" v:langID="1033"><v:paragraph v:horizAlign="1"/><v:tabList/>4</text>		</g>
		<g id="shape22-64" v:mID="22" v:groupContext="shape" transform="translate(164.067,-18.375)">
			<title>Sheet.22</title>
			<desc>5</desc>
			<v:textBlock v:margins="rect(4,4,4,4)" v:tabSpace="42.5197"/>
			<v:textRect cx="10.213" cy="212.627" width="20.43" height="20"/>
			<rect x="0" y="202.627" width="20.426" height="20" class="st4"/>
			<text x="7.17" y="216.23" class="st5" v:langID="1033"><v:paragraph v:horizAlign="1"/><v:tabList/>5</text>		</g>
		<g id="shape23-67" v:mID="23" v:groupContext="shape" transform="translate(192.414,-18.375)">
			<title>Sheet.23</title>
			<desc>6</desc>
			<v:textBlock v:margins="rect(4,4,4,4)" v:tabSpace="42.5197"/>
			<v:textRect cx="10.213" cy="212.627" width="20.43" height="20"/>
			<rect x="0" y="202.627" width="20.426" height="20" class="st4"/>
			<text x="7.17" y="216.23" class="st5" v:langID="1033"><v:paragraph v:horizAlign="1"/><v:tabList/>6</text>		</g>
		<g id="shape24-70" v:mID="24" v:groupContext="shape" transform="translate(220.76,-18.375)">
			<title>Sheet.24</title>
			<desc>7</desc>
			<v:textBlock v:margins="rect(4,4,4,4)" v:tabSpace="42.5197"/>
			<v:textRect cx="10.213" cy="212.627" width="20.43" height="20"/>
			<rect x="0" y="202.627" width="20.426" height="20" class="st4"/>
			<text x="7.17" y="216.23" class="st5" v:langID="1033"><v:paragraph v:horizAlign="1"/><v:tabList/>7</text>		</g>
		<g id="shape25-73" v:mID="25" v:groupContext="shape" transform="translate(249.107,-18.375)">
			<title>Sheet.25</title>
			<desc>8</desc>
			<v:textBlock v:margins="rect(4,4,4,4)" v:tabSpace="42.5197"/>
			<v:textRect cx="10.213" cy="212.627" width="20.43" height="20"/>
			<rect x="0" y="202.627" width="20.426" height="20" class="st4"/>
			<text x="7.17" y="216.23" class="st5" v:langID="1033"><v:paragraph v:horizAlign="1"/><v:tabList/>8</text>		</g>
		<g id="shape26-76" v:mID="26" v:groupContext="shape" transform="translate(277.453,-18.375)">
			<title>Sheet.26</title>
			<desc>9</desc>
			<v:textBlock v:margins="rect(4,4,4,4)" v:tabSpace="42.5197"/>
			<v:textRect cx="10.213" cy="212.627" width="20.43" height="20"/>
			<rect x="0" y="202.627" width="20.426" height="20" class="st4"/>
			<text x="7.17" y="216.23" class="st5" v:langID="1033"><v:paragraph v:horizAlign="1"/><v:tabList/>9</text>		</g>
		<g id="shape27-79" v:mID="27" v:groupContext="shape" transform="translate(305.8,-18.375)">
			<title>Sheet.27</title>
			<desc>10</desc>
			<v:textBlock v:margins="rect(4,4,4,4)" v:tabSpace="42.5197"/>
			<v:textRect cx="10.213" cy="212.627" width="20.43" height="20"/>
			<rect x="0" y="202.627" width="20.426" height="20" class="st4"/>
			<text x="4.13" y="216.23" class="st5" v:langID="1033"><v:paragraph v:horizAlign="1"/><v:tabList/>10</text>		</g>
		<g id="shape28-82" v:mID="28" v:groupContext="shape" transform="translate(334.146,-18.375)">
			<title>Sheet.28</title>
			<desc>11</desc>
			<v:textBlock v:margins="rect(4,4,4,4)" v:tabSpace="42.5197"/>
			<v:textRect cx="10.213" cy="212.627" width="20.43" height="20"/>
			<rect x="0" y="202.627" width="20.426" height="20" class="st4"/>
			<text x="4.13" y="216.23" class="st5" v:langID="1033"><v:paragraph v:horizAlign="1"/><v:tabList/>11</text>		</g>
		<g id="shape29-85" v:mID="29" v:groupContext="shape" transform="translate(362.493,-18.375)">
			<title>Sheet.29</title>
			<desc>12</desc>
			<v:textBlock v:margins="rect(4,4,4,4)" v:tabSpace="42.5197"/>
			<v:textRect cx="10.213" cy="212.627" width="20.43" height="20"/>
			<rect x="0" y="202.627" width="20.426" height="20" class="st4"/>
			<text x="4.13" y="216.23" class="st5" v:langID="1033"><v:paragraph v:horizAlign="1"/><v:tabList/>12</text>		</g>
		<g id="shape30-88" v:mID="30" v:groupContext="shape" transform="translate(390.839,-18.375)">
			<title>Sheet.30</title>
			<desc>13</desc>
			<v:textBlock v:margins="rect(4,4,4,4)" v:tabSpace="42.5197"/>
			<v:textRect cx="10.213" cy="212.627" width="20.43" height="20"/>
			<rect x="0" y="202.627" width="20.426" height="20" class="st4"/>
			<text x="4.13" y="216.23" class="st5" v:langID="1033"><v:paragraph v:horizAlign="1"/><v:tabList/>13</text>		</g>
		<g id="shape31-91" v:mID="31" v:groupContext="shape" transform="translate(419.186,-18.375)">
			<title>Sheet.31</title>
			<desc>14</desc>
			<v:textBlock v:margins="rect(4,4,4,4)" v:tabSpace="42.5197"/>
			<v:textRect cx="10.213" cy="212.627" width="20.43" height="20"/>
			<rect x="0" y="202.627" width="20.426" height="20" class="st4"/>
			<text x="4.13" y="216.23" class="st5" v:langID="1033"><v:paragraph v:horizAlign="1"/><v:tabList/>14</text>		</g>
		<g id="shape32-94" v:mID="32" v:groupContext="shape" transform="translate(447.532,-18.375)">
			<title>Sheet.32</title>
			<desc>15</desc>
			<v:textBlock v:margins="rect(4,4,4,4)" v:tabSpace="42.5197"/>
			<v:textRect cx="10.213" cy="212.627" width="20.43" height="20"/>
			<rect x="0" y="202.627" width="20.426" height="20" class="st4"/>
			<text x="4.13" y="216.23" class="st5" v:langID="1033"><v:paragraph v:horizAlign="1"/><v:tabList/>15</text>		</g>
		<g id="shape33-97" v:mID="33" v:groupContext="shape" transform="translate(471.918,-38.375)">
			<title>Carré.252</title>
			<desc>42</desc>
			<v:userDefs>
				<v:ud v:nameU="visVersion" v:val="VT0(15):26"/>
			</v:userDefs>
			<v:textBlock v:margins="rect(4,4,4,4)" v:tabSpace="42.5197"/>
			<v:textRect cx="14.1732" cy="208.454" width="28.35" height="28.3465"/>
			<rect x="0" y="194.281" width="28.3465" height="28.3465" class="st1"/>
			<text x="9.61" y="211.15" class="st6" v:langID="1033"><v:paragraph v:horizAlign="1"/><v:tabList/>42</text>		</g>
		<g id="shape34-100" v:mID="34" v:groupContext="shape" transform="translate(500.265,-38.375)">
			<title>Carré.253</title>
			<desc>18</desc>
			<v:userDefs>
				<v:ud v:nameU="visVersion" v:val="VT0(15):26"/>
			</v:userDefs>
			<v:textBlock v:margins="rect(4,4,4,4)" v:tabSpace="42.5197"/>
			<v:textRect cx="14.1732" cy="208.454" width="28.35" height="28.3465"/>
			<rect x="0" y="194.281" width="28.3465" height="28.3465" class="st3"/>
			<text x="9.1" y="211.45" class="st2" v:langID="1033"><v:paragraph v:horizAlign="1"/><v:tabList/>18</text>		</g>
		<g id="shape35-103" v:mID="35" v:groupContext="shape" transform="translate(528.611,-38.375)">
			<title>Carré.254</title>
			<desc>55</desc>
			<v:userDefs>
				<v:ud v:nameU="visVersion" v:val="VT0(15):26"/>
			</v:userDefs>
			<v:textBlock v:margins="rect(4,4,4,4)" v:tabSpace="42.5197"/>
			<v:textRect cx="14.1732" cy="208.454" width="28.35" height="28.3465"/>
			<rect x="0" y="194.281" width="28.3465" height="28.3465" class="st1"/>
			<text x="9.61" y="211.15" class="st6" v:langID="1033"><v:paragraph v:horizAlign="1"/><v:tabList/>55</text>		</g>
		<g id="shape36-106" v:mID="36" v:groupContext="shape" transform="translate(556.958,-38.375)">
			<title>Carré.255</title>
			<desc>8</desc>
			<v:userDefs>
				<v:ud v:nameU="visVersion" v:val="VT0(15):26"/>
			</v:userDefs>
			<v:textBlock v:margins="rect(4,4,4,4)" v:tabSpace="42.5197"/>
			<v:textRect cx="14.1732" cy="208.454" width="28.35" height="28.3465"/>
			<rect x="0" y="194.281" width="28.3465" height="28.3465" class="st3"/>
			<text x="11.89" y="211.15" class="st6" v:langID="1033"><v:paragraph v:horizAlign="1"/><v:tabList/>8</text>		</g>
		<g id="shape41-109" v:mID="41" v:groupContext="shape" transform="translate(475.879,-18.375)">
			<title>Sheet.41</title>
			<desc>16</desc>
			<v:textBlock v:margins="rect(4,4,4,4)" v:tabSpace="42.5197"/>
			<v:textRect cx="10.213" cy="212.627" width="20.43" height="20"/>
			<rect x="0" y="202.627" width="20.426" height="20" class="st4"/>
			<text x="4.13" y="216.23" class="st5" v:langID="1033"><v:paragraph v:horizAlign="1"/><v:tabList/>16</text>		</g>
		<g id="shape42-112" v:mID="42" v:groupContext="shape" transform="translate(504.225,-18.375)">
			<title>Sheet.42</title>
			<desc>17</desc>
			<v:textBlock v:margins="rect(4,4,4,4)" v:tabSpace="42.5197"/>
			<v:textRect cx="10.213" cy="212.627" width="20.43" height="20"/>
			<rect x="0" y="202.627" width="20.426" height="20" class="st4"/>
			<text x="4.13" y="216.23" class="st5" v:langID="1033"><v:paragraph v:horizAlign="1"/><v:tabList/>17</text>		</g>
		<g id="shape43-115" v:mID="43" v:groupContext="shape" transform="translate(532.571,-18.375)">
			<title>Sheet.43</title>
			<desc>18</desc>
			<v:textBlock v:margins="rect(4,4,4,4)" v:tabSpace="42.5197"/>
			<v:textRect cx="10.213" cy="212.627" width="20.43" height="20"/>
			<rect x="0" y="202.627" width="20.426" height="20" class="st4"/>
			<text x="4.13" y="216.23" class="st5" v:langID="1033"><v:paragraph v:horizAlign="1"/><v:tabList/>18</text>		</g>
		<g id="shape44-118" v:mID="44" v:groupContext="shape" transform="translate(560.918,-18.375)">
			<title>Sheet.44</title>
			<desc>19</desc>
			<v:textBlock v:margins="rect(4,4,4,4)" v:tabSpace="42.5197"/>
			<v:textRect cx="10.213" cy="212.627" width="20.43" height="20"/>
			<rect x="0" y="202.627" width="20.426" height="20" class="st4"/>
			<text x="4.13" y="216.23" class="st5" v:langID="1033"><v:paragraph v:horizAlign="1"/><v:tabList/>19</text>		</g>
		<g id="shape52-121" v:mID="52" v:groupContext="shape" transform="translate(192.756,-151.732)">
			<title>Carré.52</title>
			<desc>4</desc>
			<v:userDefs>
				<v:ud v:nameU="visVersion" v:val="VT0(15):26"/>
			</v:userDefs>
			<v:textBlock v:margins="rect(4,4,4,4)" v:tabSpace="42.5197"/>
			<v:textRect cx="14.1732" cy="208.454" width="28.35" height="28.3465"/>
			<rect x="0" y="194.281" width="28.3465" height="28.3465" class="st1"/>
			<text x="11.64" y="211.45" class="st2" v:langID="1033"><v:paragraph v:horizAlign="1"/><v:tabList/>4</text>		</g>
		<g id="shape53-124" v:mID="53" v:groupContext="shape" transform="translate(221.102,-151.732)">
			<title>Carré.53</title>
			<desc>8</desc>
			<v:userDefs>
				<v:ud v:nameU="visVersion" v:val="VT0(15):26"/>
			</v:userDefs>
			<v:textBlock v:margins="rect(4,4,4,4)" v:tabSpace="42.5197"/>
			<v:textRect cx="14.1732" cy="208.454" width="28.35" height="28.3465"/>
			<rect x="0" y="194.281" width="28.3465" height="28.3465" class="st1"/>
			<text x="11.64" y="211.45" class="st2" v:langID="1033"><v:paragraph v:horizAlign="1"/><v:tabList/>8</text>		</g>
		<g id="shape54-127" v:mID="54" v:groupContext="shape" transform="translate(249.449,-151.732)">
			<title>Carré.54</title>
			<desc>15</desc>
			<v:userDefs>
				<v:ud v:nameU="visVersion" v:val="VT0(15):26"/>
			</v:userDefs>
			<v:textBlock v:margins="rect(4,4,4,4)" v:tabSpace="42.5197"/>
			<v:textRect cx="14.1732" cy="208.454" width="28.35" height="28.3465"/>
			<rect x="0" y="194.281" width="28.3465" height="28.3465" class="st1"/>
			<text x="9.1" y="211.45" class="st2" v:langID="1033"><v:paragraph v:horizAlign="1"/><v:tabList/>15</text>		</g>
		<g id="shape55-130" v:mID="55" v:groupContext="shape" transform="translate(277.795,-151.732)">
			<title>Carré.55</title>
			<desc>16</desc>
			<v:userDefs>
				<v:ud v:nameU="visVersion" v:val="VT0(15):26"/>
			</v:userDefs>
			<v:textBlock v:margins="rect(4,4,4,4)" v:tabSpace="42.5197"/>
			<v:textRect cx="14.1732" cy="208.454" width="28.35" height="28.3465"/>
			<rect x="0" y="194.281" width="28.3465" height="28.3465" class="st1"/>
			<text x="9.1" y="211.45" class="st2" v:langID="1033"><v:paragraph v:horizAlign="1"/><v:tabList/>16</text>		</g>
		<g id="shape56-133" v:mID="56" v:groupContext="shape" transform="translate(306.142,-151.732)">
			<title>Carré.56</title>
			<desc>23</desc>
			<v:userDefs>
				<v:ud v:nameU="visVersion" v:val="VT0(15):26"/>
			</v:userDefs>
			<v:textBlock v:margins="rect(4,4,4,4)" v:tabSpace="42.5197"/>
			<v:textRect cx="14.1732" cy="208.454" width="28.35" height="28.3465"/>
			<rect x="0" y="194.281" width="28.3465" height="28.3465" class="st1"/>
			<text x="9.61" y="211.15" class="st6" v:langID="1033"><v:paragraph v:horizAlign="1"/><v:tabList/>23</text>		</g>
		<g id="shape57-136" v:mID="57" v:groupContext="shape" transform="translate(334.488,-151.732)">
			<title>Carré.57</title>
			<desc>42</desc>
			<v:userDefs>
				<v:ud v:nameU="visVersion" v:val="VT0(15):26"/>
			</v:userDefs>
			<v:textBlock v:margins="rect(4,4,4,4)" v:tabSpace="42.5197"/>
			<v:textRect cx="14.1732" cy="208.454" width="28.35" height="28.3465"/>
			<rect x="0" y="194.281" width="28.3465" height="28.3465" class="st1"/>
			<text x="9.61" y="211.15" class="st6" v:langID="1033"><v:paragraph v:horizAlign="1"/><v:tabList/>42</text>		</g>
		<g id="shape58-139" v:mID="58" v:groupContext="shape" transform="translate(362.835,-151.732)">
			<title>Carré.58</title>
			<desc>55</desc>
			<v:userDefs>
				<v:ud v:nameU="visVersion" v:val="VT0(15):26"/>
			</v:userDefs>
			<v:textBlock v:margins="rect(4,4,4,4)" v:tabSpace="42.5197"/>
			<v:textRect cx="14.1732" cy="208.454" width="28.35" height="28.3465"/>
			<rect x="0" y="194.281" width="28.3465" height="28.3465" class="st1"/>
			<text x="9.1" y="211.45" class="st2" v:langID="1033"><v:paragraph v:horizAlign="1"/><v:tabList/>55</text>		</g>
		<g id="shape59-142" v:mID="59" v:groupContext="shape" transform="translate(391.181,-151.732)">
			<title>Carré.59</title>
			<desc>200</desc>
			<v:userDefs>
				<v:ud v:nameU="visVersion" v:val="VT0(15):26"/>
			</v:userDefs>
			<v:textBlock v:margins="rect(4,4,4,4)" v:tabSpace="42.5197"/>
			<v:textRect cx="14.1732" cy="208.454" width="28.35" height="28.3465"/>
			<rect x="0" y="194.281" width="28.3465" height="28.3465" class="st1"/>
			<text x="6.57" y="211.45" class="st2" v:langID="1033"><v:paragraph v:horizAlign="1"/><v:tabList/>200</text>		</g>
		<g id="shape60-145" v:mID="60" v:groupContext="shape" transform="translate(419.528,-151.732)">
			<title>Carré.60</title>
			<desc>81</desc>
			<v:userDefs>
				<v:ud v:nameU="visVersion" v:val="VT0(15):26"/>
			</v:userDefs>
			<v:textBlock v:margins="rect(4,4,4,4)" v:tabSpace="42.5197"/>
			<v:textRect cx="14.1732" cy="208.454" width="28.35" height="28.3465"/>
			<rect x="0" y="194.281" width="28.3465" height="28.3465" class="st1"/>
			<text x="9.1" y="211.45" class="st2" v:langID="1033"><v:paragraph v:horizAlign="1"/><v:tabList/>81</text>		</g>
		<g id="shape61-148" v:mID="61" v:groupContext="shape" transform="translate(447.874,-151.732)">
			<title>Carré.61</title>
			<desc>46</desc>
			<v:userDefs>
				<v:ud v:nameU="visVersion" v:val="VT0(15):26"/>
			</v:userDefs>
			<v:textBlock v:margins="rect(4,4,4,4)" v:tabSpace="42.5197"/>
			<v:textRect cx="14.1732" cy="208.454" width="28.35" height="28.3465"/>
			<rect x="0" y="194.281" width="28.3465" height="28.3465" class="st1"/>
			<text x="9.1" y="211.45" class="st2" v:langID="1033"><v:paragraph v:horizAlign="1"/><v:tabList/>46</text>		</g>
		<g id="shape68-151" v:mID="68" v:groupContext="shape" transform="translate(198.425,-184.252)">
			<title>Sheet.68</title>
			<desc>0</desc>
			<v:textBlock v:margins="rect(4,4,4,4)" v:tabSpace="42.5197"/>
			<v:textRect cx="10.213" cy="212.627" width="20.43" height="20"/>
			<rect x="0" y="202.627" width="20.426" height="20" class="st4"/>
			<text x="7.17" y="216.23" class="st5" v:langID="1033"><v:paragraph v:horizAlign="1"/><v:tabList/>0</text>		</g>
		<g id="shape69-154" v:mID="69" v:groupContext="shape" transform="translate(226.772,-184.252)">
			<title>Sheet.69</title>
			<desc>1</desc>
			<v:textBlock v:margins="rect(4,4,4,4)" v:tabSpace="42.5197"/>
			<v:textRect cx="10.213" cy="212.627" width="20.43" height="20"/>
			<rect x="0" y="202.627" width="20.426" height="20" class="st4"/>
			<text x="7.17" y="216.23" class="st5" v:langID="1033"><v:paragraph v:horizAlign="1"/><v:tabList/>1</text>		</g>
		<g id="shape70-157" v:mID="70" v:groupContext="shape" transform="translate(255.118,-184.252)">
			<title>Sheet.70</title>
			<desc>2</desc>
			<v:textBlock v:margins="rect(4,4,4,4)" v:tabSpace="42.5197"/>
			<v:textRect cx="10.213" cy="212.627" width="20.43" height="20"/>
			<rect x="0" y="202.627" width="20.426" height="20" class="st4"/>
			<text x="7.17" y="216.23" class="st5" v:langID="1033"><v:paragraph v:horizAlign="1"/><v:tabList/>2</text>		</g>
		<g id="shape71-160" v:mID="71" v:groupContext="shape" transform="translate(283.465,-184.252)">
			<title>Sheet.71</title>
			<desc>3</desc>
			<v:textBlock v:margins="rect(4,4,4,4)" v:tabSpace="42.5197"/>
			<v:textRect cx="10.213" cy="212.627" width="20.43" height="20"/>
			<rect x="0" y="202.627" width="20.426" height="20" class="st4"/>
			<text x="7.17" y="216.23" class="st5" v:langID="1033"><v:paragraph v:horizAlign="1"/><v:tabList/>3</text>		</g>
		<g id="shape72-163" v:mID="72" v:groupContext="shape" transform="translate(311.811,-184.252)">
			<title>Sheet.72</title>
			<desc>4</desc>
			<v:textBlock v:margins="rect(4,4,4,4)" v:tabSpace="42.5197"/>
			<v:textRect cx="10.213" cy="212.627" width="20.43" height="20"/>
			<rect x="0" y="202.627" width="20.426" height="20" class="st4"/>
			<text x="7.17" y="216.23" class="st5" v:langID="1033"><v:paragraph v:horizAlign="1"/><v:tabList/>4</text>		</g>
		<g id="shape73-166" v:mID="73" v:groupContext="shape" transform="translate(340.157,-184.252)">
			<title>Sheet.73</title>
			<desc>5</desc>
			<v:textBlock v:margins="rect(4,4,4,4)" v:tabSpace="42.5197"/>
			<v:textRect cx="10.213" cy="212.627" width="20.43" height="20"/>
			<rect x="0" y="202.627" width="20.426" height="20" class="st4"/>
			<text x="7.17" y="216.23" class="st5" v:langID="1033"><v:paragraph v:horizAlign="1"/><v:tabList/>5</text>		</g>
		<g id="shape74-169" v:mID="74" v:groupContext="shape" transform="translate(368.504,-184.252)">
			<title>Sheet.74</title>
			<desc>6</desc>
			<v:textBlock v:margins="rect(4,4,4,4)" v:tabSpace="42.5197"/>
			<v:textRect cx="10.213" cy="212.627" width="20.43" height="20"/>
			<rect x="0" y="202.627" width="20.426" height="20" class="st4"/>
			<text x="7.17" y="216.23" class="st5" v:langID="1033"><v:paragraph v:horizAlign="1"/><v:tabList/>6</text>		</g>
		<g id="shape75-172" v:mID="75" v:groupContext="shape" transform="translate(396.85,-184.252)">
			<title>Sheet.75</title>
			<desc>7</desc>
			<v:textBlock v:margins="rect(4,4,4,4)" v:tabSpace="42.5197"/>
			<v:textRect cx="10.213" cy="212.627" width="20.43" height="20"/>
			<rect x="0" y="202.627" width="20.426" height="20" class="st4"/>
			<text x="7.17" y="216.23" class="st5" v:langID="1033"><v:paragraph v:horizAlign="1"/><v:tabList/>7</text>		</g>
		<g id="shape76-175" v:mID="76" v:groupContext="shape" transform="translate(425.197,-184.252)">
			<title>Sheet.76</title>
			<desc>8</desc>
			<v:textBlock v:margins="rect(4,4,4,4)" v:tabSpace="42.5197"/>
			<v:textRect cx="10.213" cy="212.627" width="20.43" height="20"/>
			<rect x="0" y="202.627" width="20.426" height="20" class="st4"/>
			<text x="7.17" y="216.23" class="st5" v:langID="1033"><v:paragraph v:horizAlign="1"/><v:tabList/>8</text>		</g>
		<g id="shape77-178" v:mID="77" v:groupContext="shape" transform="translate(453.543,-184.252)">
			<title>Sheet.77</title>
			<desc>9</desc>
			<v:textBlock v:margins="rect(4,4,4,4)" v:tabSpace="42.5197"/>
			<v:textRect cx="10.213" cy="212.627" width="20.43" height="20"/>
			<rect x="0" y="202.627" width="20.426" height="20" class="st4"/>
			<text x="7.17" y="216.23" class="st5" v:langID="1033"><v:paragraph v:horizAlign="1"/><v:tabList/>9</text>		</g>
		<g id="shape92-181" v:mID="92" v:groupContext="shape" v:layerMember="0" transform="translate(206.929,-151.732)">
			<title>Dynamic connector</title>
			<path d="M0 222.63 L0 227.94 A5.31496 5.31496 0 0 1 -5.31 233.26 L-163.04 233.26 A11.3386 11.3386 -180 0 0 -174.38 244.6
						 L-174.38 302.12" class="st7"/>
		</g>
		<g id="shape93-187" v:mID="93" v:groupContext="shape" v:layerMember="0" transform="translate(235.276,-151.732)">
			<title>Dynamic connector.93</title>
			<path d="M0 222.63 L0 278.48 A10.841 10.841 -180 0 0 10.84 289.32 L16.35 289.32 A11.3386 11.3386 -180 0 0 22.72 287.36
						 A2.3622 2.3622 0 0 1 25.37 287.36 A11.3386 11.3386 -180 0 0 31.74 289.32 L71.58 289.32 A9.15896 9.15896
						 0 0 1 80.74 298.48 L80.74 302.12" class="st7"/>
		</g>
		<g id="shape94-192" v:mID="94" v:groupContext="shape" v:layerMember="0" transform="translate(263.622,-151.732)">
			<title>Dynamic connector.94</title>
			<path d="M0 222.63 L0 233.3 A10.6693 10.6693 -180 0 0 10.67 243.97 L20.66 243.97 A11.3386 11.3386 -180 0 0 27.02 242.01
						 A2.3622 2.3622 0 0 1 29.67 242.01 A11.3386 11.3386 -180 0 0 36.04 243.97 L49 243.97 A11.3386 11.3386 -180
						 0 0 55.37 242.01 A2.3622 2.3622 0 0 1 58.02 242.01 A11.3386 11.3386 -180 0 0 64.38 243.97 L77.35 243.97
						 A11.3386 11.3386 -180 0 0 83.71 242.01 A2.3622 2.3622 0 0 1 86.37 242.01 A11.3386 11.3386 -180 0 0 92.73
						 243.97 L134.04 243.97 A11.3386 11.3386 -180 0 0 140.41 242.01 A2.3622 2.3622 0 0 1 143.06 242.01 A11.3386
						 11.3386 -180 0 0 149.42 243.97 L154.44 243.97 A11.3386 11.3386 0 0 1 165.78 255.3 L165.78 302.12"
					class="st7"/>
		</g>
		<g id="shape95-197" v:mID="95" v:groupContext="shape" v:layerMember="0" transform="translate(291.969,-151.732)">
			<title>Dynamic connector.95</title>
			<path d="M0 222.63 L0 241.7 A11.3386 11.3386 0 0 1 -11.34 253.04 L-49 253.04 A11.3386 11.3386 0 0 1 -55.37 251.08 A2.3622
						 2.3622 -180 0 0 -58.02 251.08 A11.3386 11.3386 0 0 1 -64.38 253.04 L-78 253.04 A11.3386 11.3386 -180 0 0
						 -89.34 264.38 L-89.34 302.12" class="st7"/>
		</g>
		<g id="shape96-202" v:mID="96" v:groupContext="shape" v:layerMember="0" transform="translate(320.315,-151.732)">
			<title>Dynamic connector.96</title>
			<path d="M0 222.63 L0 249.63 A11.3386 11.3386 0 0 1 -11.34 260.97 L-77.35 260.97 A11.3386 11.3386 0 0 1 -83.71 259.02
						 A2.3622 2.3622 -180 0 0 -86.37 259.02 A11.3386 11.3386 0 0 1 -92.73 260.97 L-110 260.97 A11.3386 11.3386
						 0 0 1 -116.36 259.02 A2.3622 2.3622 -180 0 0 -119.01 259.02 A11.3386 11.3386 0 0 1 -125.38 260.97 L-163.04
						 260.97 A11.3386 11.3386 -180 0 0 -174.38 272.31 L-174.38 302.12" class="st7"/>
		</g>
		<g id="shape97-207" v:mID="97" v:groupContext="shape" v:layerMember="0" transform="translate(348.661,-151.732)">
			<title>Dynamic connector.97</title>
			<path d="M0 222.63 L0 238.3 A11.3386 11.3386 -180 0 0 11.34 249.63 L49 249.63 A11.3386 11.3386 -180 0 0 55.37 247.68
						 A2.3622 2.3622 0 0 1 58.02 247.68 A11.3386 11.3386 -180 0 0 64.38 249.63 L71.81 249.63 A11.3386 11.3386
						 -180 0 0 79.73 246.41 A4.51329 4.51329 0 0 1 86.04 246.41 A11.3386 11.3386 -180 0 0 93.97 249.63 L105.7
						 249.63 A11.3386 11.3386 -180 0 0 112.06 247.68 A2.3622 2.3622 0 0 1 114.71 247.68 A11.3386 11.3386 -180
						 0 0 121.08 249.63 L126.09 249.63 A11.3386 11.3386 0 0 1 137.43 260.97 L137.43 302.12" class="st7"/>
		</g>
		<g id="shape98-212" v:mID="98" v:groupContext="shape" v:layerMember="0" transform="translate(377.008,-151.732)">
			<title>Dynamic connector.98</title>
			<path d="M0 222.63 L0 227.63 A5 5 -180 0 0 5 232.63 L20.66 232.63 A11.3386 11.3386 -180 0 0 27.02 230.67 A2.3622 2.3622
						 0 0 1 29.67 230.67 A11.3386 11.3386 -180 0 0 36.04 232.63 L49 232.63 A11.3386 11.3386 -180 0 0 55.37 230.67
						 A2.3622 2.3622 0 0 1 58.02 230.67 A11.3386 11.3386 -180 0 0 64.38 232.63 L77.35 232.63 A11.3386 11.3386
						 -180 0 0 83.71 230.67 A2.3622 2.3622 0 0 1 86.37 230.67 A11.3386 11.3386 -180 0 0 92.73 232.63 L154.44 232.63
						 A11.3386 11.3386 0 0 1 165.78 243.97 L165.78 302.12" class="st7"/>
		</g>
		<g id="shape99-217" v:mID="99" v:groupContext="shape" v:layerMember="0" transform="translate(405.354,-151.732)">
			<title>Dynamic connector.99</title>
			<path d="M0 222.63 L0 260.97 A11.3386 11.3386 0 0 1 -11.34 272.31 L-24.96 272.31 A11.3386 11.3386 0 0 1 -31.32 270.36
						 A2.3622 2.3622 -180 0 0 -33.97 270.36 A11.3386 11.3386 0 0 1 -40.34 272.31 L-134.7 272.31 A11.3386 11.3386
						 -180 0 0 -146.03 283.65 L-146.03 302.12" class="st7"/>
		</g>
		<g id="shape100-222" v:mID="100" v:groupContext="shape" v:layerMember="0" transform="translate(433.701,-151.732)">
			<title>Dynamic connector.100</title>
			<path d="M0 222.63 L0 280.97 a0.969985 0.969985 0 0 1 -0.969985 0.969985 L-1.94 281.94 A2.3622 2.3622 -180 0 0 -5.63
						 279.98 A11.3386 11.3386 0 0 1 -11.99 281.94 L-53.3 281.94 A11.3386 11.3386 0 0 1 -59.67 279.98 A2.3622 2.3622
						 -180 0 0 -62.32 279.98 A11.3386 11.3386 0 0 1 -68.69 281.94 L-166.69 281.94 A11.3386 11.3386 0 0 1 -173.05
						 279.98 A2.3622 2.3622 -180 0 0 -175.71 279.98 A11.3386 11.3386 0 0 1 -182.07 281.94 L-190.73 281.94 A11.3386
						 11.3386 0 0 1 -197.1 279.98 A2.3622 2.3622 -180 0 0 -199.75 279.98 A11.3386 11.3386 0 0 1 -206.12 281.94
						 L-223.38 281.94 A11.3386 11.3386 0 0 1 -229.75 279.98 A2.3622 2.3622 -180 0 0 -232.4 279.98 A11.3386 11.3386
						 0 0 1 -238.76 281.94 L-280.08 281.94 A11.3386 11.3386 0 0 1 -286.44 279.98 A2.3622 2.3622 -180 0 0 -289.09
						 279.98 A11.3386 11.3386 0 0 1 -295.46 281.94 L-333.12 281.94 A11.3386 11.3386 -180 0 0 -344.46 293.28 L-344.46
						 302.12" class="st7"/>
		</g>
		<g id="shape101-227" v:mID="101" v:groupContext="shape" v:layerMember="0" transform="translate(462.047,-151.732)">
			<title>Dynamic connector.101</title>
			<path d="M0 222.63 L0 249.63 A11.3386 11.3386 0 0 1 -11.34 260.97 L-19.42 260.97 A11.3386 11.3386 0 0 1 -27.34 257.75
						 A4.51329 4.51329 -180 0 0 -33.65 257.75 A11.3386 11.3386 0 0 1 -41.58 260.97 L-49 260.97 A11.3386 11.3386
						 0 0 1 -55.37 259.02 A2.3622 2.3622 -180 0 0 -58.02 259.02 A11.3386 11.3386 0 0 1 -64.38 260.97 L-78 260.97
						 A11.3386 11.3386 -180 0 0 -89.34 272.31 L-89.34 302.12" class="st7"/>
		</g>
	</g>
</svg>
